<svg version="1.1" id="Layer_1" xmlns="http://www.w3.org/2000/svg" xmlns:xlink="http://www.w3.org/1999/xlink" x="0px" y="0px"
	 width="100%" viewBox="0 0 225 224" enable-background="new 0 0 225 224" xml:space="preserve">
<path fill="#356AE6" opacity="1.000000" stroke="none" 
	d="
M226.000000,24.000000 
	C226.000000,25.066669 226.000000,26.133339 225.804352,27.963493 
	C225.406082,30.528368 225.027496,32.329651 225.026413,34.131161 
	C224.994736,86.653168 224.989151,139.175217 225.042892,191.697174 
	C225.045044,193.798431 225.666901,195.899078 226.000000,198.000000 
	C226.000000,199.388885 226.000000,200.777786 225.675873,202.732849 
	C222.148712,214.907608 214.124176,221.550095 203.000000,225.000000 
	C143.312439,225.000000 83.624878,225.000000 23.294384,224.690475 
	C17.757555,221.389023 12.241339,219.054733 8.165686,215.198090 
	C4.875592,212.084778 3.323250,207.135056 0.999999,203.000000 
	C1.000000,203.000000 1.000000,202.500000 1.217567,201.897705 
	C1.622415,199.658585 1.972563,198.021805 1.973400,196.384872 
	C2.001791,140.851471 2.007020,85.318031 1.955022,29.784655 
	C1.953216,27.856138 1.332336,25.928205 1.000000,24.000000 
	C1.000000,24.000000 1.000000,23.500000 1.312767,23.080441 
	C4.773433,10.988334 12.847683,4.404432 24.000000,1.000000 
	C83.354225,1.000000 142.708450,1.000000 202.711761,1.318806 
	C208.347946,4.395684 214.142105,6.322918 218.086472,10.154439 
	C221.750275,13.713435 223.440704,19.303946 226.000000,24.000000 
M130.657913,82.887695 
	C114.745445,71.822144 98.832977,60.756596 82.588104,49.459885 
	C80.858353,59.400070 81.930832,66.589806 91.238411,72.430183 
	C109.538940,83.913506 126.928780,96.848541 144.689529,109.191391 
	C149.454086,112.502525 149.464325,112.640915 144.683243,115.936066 
	C125.780418,128.964005 106.818565,141.907303 88.011368,155.071686 
	C85.722389,156.673889 83.077477,159.215363 82.629349,161.689545 
	C81.773239,166.416168 82.380722,171.407867 82.380722,176.726410 
	C83.538002,176.131592 84.152031,175.905243 84.666298,175.538849 
	C110.007851,157.484100 135.380722,139.472824 160.648804,121.315712 
	C167.609039,116.314232 167.387817,108.567520 160.327774,103.548058 
	C150.700150,96.703133 140.965866,90.008232 130.657913,82.887695 
M124.522141,109.947098 
	C113.035789,102.033440 101.557274,94.108368 90.056313,86.216011 
	C87.824715,84.684608 85.464828,83.115234 82.925247,85.624474 
	C80.545464,87.975822 81.464806,96.657295 84.320656,98.645950 
	C92.496437,104.339088 100.683578,110.017342 108.933861,115.601562 
	C114.833138,119.594528 121.849693,118.439125 126.186432,112.776810 
	C126.453453,112.428169 125.510330,111.152687 124.522141,109.947098 
z"/>
<path fill="#4373E7" opacity="1.000000" stroke="none" 
	d="
M1.000000,24.468658 
	C1.332336,25.928205 1.953216,27.856138 1.955022,29.784655 
	C2.007020,85.318031 2.001791,140.851471 1.973400,196.384872 
	C1.972563,198.021805 1.622415,199.658585 1.217567,201.647705 
	C1.000000,142.979111 1.000000,83.958206 1.000000,24.468658 
z"/>
<path fill="#FBFBFE" opacity="1.000000" stroke="none" 
	d="
M226.000000,23.531265 
	C223.440704,19.303946 221.750275,13.713435 218.086472,10.154439 
	C214.142105,6.322918 208.347946,4.395684 203.180420,1.318806 
	C210.592957,1.000000 218.185913,1.000000 226.000000,1.000000 
	C226.000000,8.352704 226.000000,15.707616 226.000000,23.531265 
z"/>
<path fill="#FBFCFE" opacity="1.000000" stroke="none" 
	d="
M23.531263,1.000000 
	C12.847683,4.404432 4.773433,10.988334 1.312767,22.830441 
	C1.000000,15.738759 1.000000,8.477518 1.000000,1.000000 
	C8.352768,1.000000 15.707647,1.000000 23.531263,1.000000 
z"/>
<path fill="#FBFCFE" opacity="1.000000" stroke="none" 
	d="
M203.468735,225.000000 
	C214.124176,221.550095 222.148712,214.907608 225.675873,203.149506 
	C226.000000,210.261246 226.000000,217.522476 226.000000,225.000000 
	C218.647232,225.000000 211.292343,225.000000 203.468735,225.000000 
z"/>
<path fill="#FBFCFE" opacity="1.000000" stroke="none" 
	d="
M0.999999,203.468781 
	C3.323250,207.135056 4.875592,212.084778 8.165686,215.198090 
	C12.241339,219.054733 17.757555,221.389023 22.825726,224.690475 
	C15.740432,225.000000 8.480864,225.000000 1.000000,225.000000 
	C1.000000,217.980728 1.000000,210.959152 0.999999,203.468781 
z"/>
<path fill="#4F7BE8" opacity="1.000000" stroke="none" 
	d="
M226.000000,197.531342 
	C225.666901,195.899078 225.045044,193.798431 225.042892,191.697174 
	C224.989151,139.175217 224.994736,86.653168 225.026413,34.131161 
	C225.027496,32.329651 225.406082,30.528368 225.804352,28.363489 
	C226.000000,84.354225 226.000000,140.708450 226.000000,197.531342 
z"/>
<path fill="#FCFCFF" opacity="1.000000" stroke="none" 
	d="
M130.967621,83.068359 
	C140.965866,90.008232 150.700150,96.703133 160.327774,103.548058 
	C167.387817,108.567520 167.609039,116.314232 160.648804,121.315712 
	C135.380722,139.472824 110.007851,157.484100 84.666298,175.538849 
	C84.152031,175.905243 83.538002,176.131592 82.380722,176.726410 
	C82.380722,171.407867 81.773239,166.416168 82.629349,161.689545 
	C83.077477,159.215363 85.722389,156.673889 88.011368,155.071686 
	C106.818565,141.907303 125.780418,128.964005 144.683243,115.936066 
	C149.464325,112.640915 149.454086,112.502525 144.689529,109.191391 
	C126.928780,96.848541 109.538940,83.913506 91.238411,72.430183 
	C81.930832,66.589806 80.858353,59.400070 82.588104,49.459885 
	C98.832977,60.756596 114.745445,71.822144 130.967621,83.068359 
z"/>
<path fill="#FCFCFF" opacity="1.000000" stroke="none" 
	d="
M124.826202,110.127762 
	C125.510330,111.152687 126.453453,112.428169 126.186432,112.776810 
	C121.849693,118.439125 114.833138,119.594528 108.933861,115.601562 
	C100.683578,110.017342 92.496437,104.339088 84.320656,98.645950 
	C81.464806,96.657295 80.545464,87.975822 82.925247,85.624474 
	C85.464828,83.115234 87.824715,84.684608 90.056313,86.216011 
	C101.557274,94.108368 113.035789,102.033440 124.826202,110.127762 
z"/>
</svg>