<?xml version="1.0" standalone="no"?>
<!DOCTYPE svg PUBLIC "-//W3C//DTD SVG 20010904//EN"
 "http://www.w3.org/TR/2001/REC-SVG-20010904/DTD/svg10.dtd">
<svg version="1.0" xmlns="http://www.w3.org/2000/svg"
 width="830.000000pt" height="200.000000pt" viewBox="0 0 830.000000 200.000000"
 preserveAspectRatio="xMidYMid meet">
<metadata>
Created by potrace 1.16, written by Peter Selinger 2001-2019
</metadata>
<g transform="translate(0.000000,200.000000) scale(0.100000,-0.100000)"
fill="#000000" stroke="none">
<path d="M370 1982 c-109 -36 -200 -117 -248 -220 -24 -51 -27 -69 -27 -167 0
-104 2 -114 32 -176 40 -80 120 -159 200 -197 52 -24 69 -27 168 -27 98 0 116
3 167 27 144 67 238 214 238 373 0 162 -88 298 -239 368 -84 40 -205 48 -291
19z"/>
<path d="M1112 1263 c3 -667 5 -744 21 -798 50 -172 155 -300 307 -373 116
-56 237 -84 375 -86 l110 -1 0 715 c0 649 -2 722 -18 790 -49 211 -179 355
-385 430 -95 34 -241 60 -345 60 l-68 0 3 -737z"/>
<path d="M5490 1225 l0 -775 165 0 165 0 0 775 0 775 -165 0 -165 0 0 -775z"/>
<path d="M5064 1971 c-50 -23 -88 -71 -104 -129 -22 -86 20 -175 102 -216 59
-30 103 -33 156 -11 146 62 166 255 34 345 -47 33 -132 38 -188 11z"/>
<path d="M6085 1976 c-16 -7 -45 -28 -62 -46 -133 -137 1 -370 185 -321 55 15
94 43 120 89 43 77 37 150 -16 221 -46 62 -154 89 -227 57z"/>
<path d="M6790 1779 c-52 -16 -119 -37 -147 -45 l-53 -15 0 -100 0 -99 -85 0
-85 0 0 -160 0 -160 84 0 85 0 3 -262 c3 -250 4 -266 26 -313 44 -95 111 -145
231 -171 69 -14 196 -18 250 -8 l31 7 0 147 0 148 -78 3 c-53 3 -87 10 -105
22 l-27 17 0 205 0 205 105 0 105 0 0 160 0 160 -105 0 -105 0 0 145 c0 169
13 158 -130 114z"/>
<path d="M2810 1540 c-153 -27 -293 -135 -365 -285 -160 -332 2 -734 330 -820
138 -35 287 -8 393 73 l32 24 0 -41 0 -41 165 0 165 0 0 535 0 535 -165 0
-165 0 0 -47 0 -47 -27 27 c-38 36 -130 76 -200 87 -66 11 -98 11 -163 0z
m253 -326 c55 -28 106 -84 123 -137 25 -74 15 -174 -23 -235 -87 -141 -329
-141 -416 0 -38 61 -48 161 -23 235 24 71 93 134 171 154 42 11 130 2 168 -17z"/>
<path d="M4073 1535 c-235 -51 -397 -245 -411 -492 -9 -175 41 -316 153 -428
176 -176 469 -205 631 -62 l47 42 -6 -78 c-8 -104 -34 -159 -95 -195 -42 -24
-56 -27 -142 -27 -111 0 -156 18 -211 84 l-34 41 -129 -75 c-72 -42 -132 -78
-135 -81 -11 -11 36 -78 87 -125 103 -94 199 -129 373 -136 146 -6 236 9 338
57 76 36 177 134 210 203 50 104 51 115 51 705 l0 552 -155 0 -155 0 0 -51 0
-51 -35 31 c-50 44 -121 77 -190 90 -74 14 -114 13 -192 -4z m287 -323 c161
-78 169 -317 13 -409 -43 -25 -57 -28 -138 -28 -81 0 -95 3 -138 28 -87 51
-130 153 -108 252 22 99 92 164 194 184 59 12 113 3 177 -27z"/>
<path d="M4990 985 l0 -535 160 0 160 0 0 535 0 535 -160 0 -160 0 0 -535z"/>
<path d="M5998 1045 c-1 -261 -2 -501 -3 -532 l0 -58 165 0 165 0 3 533 2 532
-165 0 -165 0 -2 -475z"/>
<path d="M7170 1507 c0 -7 93 -235 206 -507 136 -326 204 -500 200 -515 -9
-35 -63 -103 -97 -120 -17 -9 -58 -19 -92 -23 l-62 -7 0 -155 0 -155 80 3
c226 8 383 121 487 349 34 75 398 1107 398 1129 0 12 -26 14 -172 12 l-173 -3
-94 -307 c-52 -169 -97 -305 -100 -302 -3 3 -55 141 -116 307 l-110 302 -177
3 c-143 2 -178 0 -178 -11z"/>
<path d="M101 1000 c-79 -121 -105 -226 -99 -384 6 -132 28 -207 94 -313 115
-185 329 -303 548 -303 135 0 310 52 336 99 17 33 11 144 -14 244 -51 200
-142 365 -277 499 -73 73 -103 94 -181 132 -107 51 -192 76 -295 83 l-72 6
-40 -63z"/>
</g>
</svg>
