<?xml version="1.0" encoding="UTF-8"?>
<!DOCTYPE svg PUBLIC "-//W3C//DTD SVG 1.1//EN" "http://www.w3.org/Graphics/SVG/1.1/DTD/svg11.dtd">
<svg xmlns="http://www.w3.org/2000/svg" version="1.1" width="235px" height="215px" style="shape-rendering:geometricPrecision; text-rendering:geometricPrecision; image-rendering:optimizeQuality; fill-rule:evenodd; clip-rule:evenodd" xmlns:xlink="http://www.w3.org/1999/xlink">
<g><path style="opacity:1" fill="#fefefe" d="M -0.5,-0.5 C 77.8333,-0.5 156.167,-0.5 234.5,-0.5C 234.5,71.1667 234.5,142.833 234.5,214.5C 156.167,214.5 77.8333,214.5 -0.5,214.5C -0.5,142.833 -0.5,71.1667 -0.5,-0.5 Z"/></g>
<g><path style="opacity:1" fill="#514a4b" d="M 115.5,13.5 C 130.305,12.148 140.805,18.148 147,31.5C 151.544,61.9292 165.877,86.5959 190,105.5C 198.565,121.837 195.399,135.337 180.5,146C 162.758,152.534 149.924,147.367 142,130.5C 137.263,101.016 123.263,77.0164 100,58.5C 89.94,43.3708 91.7734,29.8708 105.5,18C 108.815,16.1702 112.149,14.6702 115.5,13.5 Z"/></g>
<g><path style="opacity:1" fill="#256db3" d="M 79.5,67.5 C 96.6199,65.2972 107.787,72.2972 113,88.5C 114.403,96.3475 113.07,103.681 109,110.5C 95.9156,120.25 84.9156,131.916 76,145.5C 68.8271,158.019 63.8271,171.352 61,185.5C 52.9965,198.617 41.4965,203.117 26.5,199C 11.8514,191.408 6.68478,179.574 11,163.5C 12,161.5 13,159.5 14,157.5C 27.0844,147.75 38.0844,136.084 47,122.5C 53.6507,110.546 58.3174,97.8796 61,84.5C 64.8329,76.1621 70.9996,70.4954 79.5,67.5 Z"/></g>
<g><path style="opacity:1" fill="#256db3" d="M 98.5,146.5 C 101.187,146.336 103.854,146.503 106.5,147C 134.251,159.448 162.584,160.782 191.5,151C 214.239,151.283 224.405,162.783 222,185.5C 216.623,200.201 206.123,206.701 190.5,205C 182.239,202.135 173.906,199.469 165.5,197C 146.42,192.867 127.753,194.201 109.5,201C 85.1974,202.363 74.0308,190.863 76,166.5C 80.301,156.022 87.801,149.355 98.5,146.5 Z"/></g>
</svg>
