<svg width="40" height="40" viewBox="0 0 40 40" fill="none" xmlns="http://www.w3.org/2000/svg">
<path d="M29.45 0H10.35C4.63385 0 0 4.63385 0 10.35V29.45C0 35.1661 4.63385 39.8 10.35 39.8H29.45C35.1661 39.8 39.8 35.1661 39.8 29.45V10.35C39.8 4.63385 35.1661 0 29.45 0Z" fill="#F2F2F2"/>
<path d="M21.93 29.56C21.6347 29.5608 21.3494 29.4527 21.1288 29.2564C20.9082 29.06 20.7678 28.7893 20.7343 28.4958C20.7009 28.2024 20.7769 27.907 20.9476 27.666C21.1184 27.4251 21.3721 27.2556 21.66 27.19C22.8351 26.9257 23.9222 26.3626 24.816 25.5552C25.7099 24.7479 26.3803 23.7235 26.7624 22.5812C27.1445 21.4389 27.2254 20.2174 26.9972 19.0347C26.7691 17.852 26.2396 16.7482 25.46 15.83C25.2571 15.5847 25.16 15.2688 25.19 14.9519C25.22 14.6349 25.3747 14.3429 25.62 14.14C25.8653 13.9371 26.1812 13.84 26.4981 13.87C26.8151 13.9 27.1071 14.0547 27.31 14.3C28.3368 15.5385 29.0303 17.0186 29.3251 18.6001C29.6198 20.1816 29.5059 21.8122 28.9942 23.3373C28.4824 24.8625 27.5898 26.2318 26.4009 27.3155C25.2119 28.3992 23.766 29.1614 22.2 29.53C22.1103 29.5398 22.0197 29.5398 21.93 29.53" fill="#008AAB"/>
<path d="M23.51 27.91C23.4665 27.7559 23.3925 27.6121 23.2926 27.487C23.1926 27.3619 23.0686 27.2581 22.9279 27.1817C22.7871 27.1053 22.6325 27.0578 22.4732 27.042C22.3138 27.0263 22.153 27.0426 22 27.09C20.951 27.4028 19.8433 27.4652 18.7658 27.2722C17.6883 27.0792 16.6711 26.6363 15.7958 25.9789C14.9206 25.3215 14.2117 24.468 13.7262 23.4869C13.2406 22.5059 12.9919 21.4246 13 20.33V6.83C13 6.51174 12.8736 6.20651 12.6485 5.98147C12.4235 5.75643 12.1183 5.63 11.8 5.63C11.4817 5.63 11.1765 5.75643 10.9515 5.98147C10.7264 6.20651 10.6 6.51174 10.6 6.83V20.33C10.6063 21.7952 10.9522 23.2391 11.6104 24.5482C12.2687 25.8572 13.2215 26.9959 14.3939 27.8748C15.5664 28.7536 16.9266 29.3487 18.3677 29.6134C19.8089 29.878 21.2918 29.805 22.7 29.4C23.0049 29.3096 23.2614 29.102 23.4133 28.8226C23.5652 28.5432 23.6 28.215 23.51 27.91" fill="#FF7369"/>
<path d="M27.73 14.84C26.9062 13.6872 25.8336 12.7347 24.5915 12.053C23.3494 11.3712 21.9698 10.9779 20.555 10.902C19.1402 10.8261 17.7265 11.0697 16.4186 11.6146C15.1107 12.1596 13.9423 12.992 13 14.05V20.33C12.9691 18.8222 13.4259 17.3448 14.3025 16.1176C15.1791 14.8905 16.4286 13.9792 17.8649 13.5196C19.3012 13.0599 20.8476 13.0764 22.2738 13.5666C23.7 14.0568 24.9298 14.9944 25.78 16.24C25.9657 16.4986 26.2464 16.6728 26.5605 16.7244C26.8747 16.776 27.1964 16.7007 27.455 16.515C27.7136 16.3294 27.8878 16.0486 27.9394 15.7345C27.991 15.4203 27.9157 15.0986 27.73 14.84" fill="#4DC7D1"/>
</svg>
