<?xml version="1.0" encoding="utf-8"?>
<!-- Generator: Adobe Illustrator 22.0.1, SVG Export Plug-In . SVG Version: 6.00 Build 0)  -->
<svg version="1.1" id="Capa_1" xmlns="http://www.w3.org/2000/svg" xmlns:xlink="http://www.w3.org/1999/xlink" x="0px" y="0px"
	 viewBox="0 0 944.3 629.9" style="enable-background:new 0 0 944.3 629.9;" xml:space="preserve">
<style type="text/css">
	.st0{fill:#434142;}
	.st1{fill:#6C97CC;}
	.st2{opacity:0.47;fill:url(#SVGID_1_);}
	.st3{fill:#F7F7F8;}
	.st4{fill:#9BBBE1;}
	.st5{fill:#697FB7;}
	.st6{fill:#88A5C9;}
	.st7{fill:#5C70A4;}
</style>
<g>
	<path class="st0" d="M143,502.7c5.1,0,10.3,0,15.4,0c1.1,0,1.5,0.3,1.7,1.4c1.3,11.1-1.1,21.1-9.2,29.2c-5.3,5.3-11.9,8.1-19.3,9.1
		c-9.6,1.2-18.6-0.7-26.5-6.3c-9.2-6.5-14.7-15.4-15.8-26.6c-1.7-16.4,8.9-32.8,24.6-38c12.6-4.1,24.2-2.3,34.9,5.6
		c0.5,0.4,0.9,0.8,1.4,1.2c1.2,1.1,1.2,1.1,0,2.3c-1.7,1.7-3.4,3.5-5.1,5.2c-0.5,0.6-0.9,0.7-1.5,0.1c-7.9-6.6-16.8-8.4-26.5-4.8
		c-9.7,3.6-15.3,10.9-16.8,21.1c-2.1,14.7,7,27.5,21.6,30c8.7,1.5,16.7-0.4,23-7c3.1-3.2,4.5-7.2,5.1-11.5c0.1-0.9-0.3-1-1.1-1
		c-7.1,0-14.3,0-21.4,0c-1,0-1.4-0.2-1.4-1.3c0.1-2.5,0.1-5,0-7.4c0-1,0.2-1.3,1.3-1.3C132.6,502.8,137.8,502.7,143,502.7z"/>
</g>
<g>
	<path class="st0" d="M292.4,563.7c-1.7,0-3.5,0-5.2,0c-6-0.5-10.9-3.2-14.8-7.7c-1.3-1.5-2.4-3.2-3.3-5c-0.4-0.7-0.4-1,0.5-1.4
		c2.3-0.9,4.7-1.9,7-2.9c0.9-0.4,1.2-0.3,1.7,0.6c4,7.9,12.5,8.8,18.1,5.7c3.6-2,5.1-5.2,5.7-9.1c0.3-2.2,0.2-4.3,0.2-6.5
		c-0.2-0.1-0.3-0.1-0.5,0.1c-5.1,5.5-11.3,6.3-18.1,4.4c-10.1-2.7-16.9-12.3-16.8-23.4c0.1-10.3,7.5-19.8,17.4-22.3
		c6.5-1.6,12.4-0.6,17.3,4.2c0.1,0.1,0.2,0.1,0.4,0.3c0.3-0.9,0.1-1.9,0.2-2.8c0-0.7,0.2-0.9,0.9-0.9c2.7,0,5.4,0,8.1,0
		c0.8,0,0.9,0.3,0.9,1c0,2,0,4,0,6c0,12.2,0,24.3,0,36.5c0,4.9-1,9.6-3.6,13.8C304.6,560.2,299.2,563.2,292.4,563.7z M277.1,519
		c0.1,2.1,0.3,4,1,5.8c2,5,5.6,8,11,8.5c4.8,0.4,8.6-1.6,11.4-5.6c3.5-5.1,3.2-13.1-0.6-18.1c-3.8-5-10.3-6.4-15.8-3.2
		C279.2,509.3,277.3,513.8,277.1,519z"/>
</g>
<g>
	<path class="st0" d="M163.7,518.9c0-13.2,10.4-23.4,23.9-23.4c13.4,0,23.5,10.2,23.4,23.7c0,13.4-10.3,23.4-23.9,23.4
		C174,542.6,163.6,532.2,163.7,518.9z M200.7,518.9c0.1-0.8-0.1-1.8-0.3-2.7c-1.4-9.8-12.6-14.8-20.6-9c-5.1,3.7-6.5,8.9-5.5,14.9
		c1.3,7.9,9,13,16.6,10.8C196.7,531.3,200.7,525.7,200.7,518.9z"/>
</g>
<g>
	<path class="st0" d="M215.2,518.9c0-13.1,10.4-23.4,23.6-23.4c13.7,0,23.7,10.1,23.7,23.7c0,13.3-10.2,23.4-23.6,23.4
		C225.5,542.7,215.2,532.3,215.2,518.9z M225.5,519.4c-0.1,1.1,0.2,2.6,0.5,4c2.5,9.5,13.7,13.3,21.1,7c4.4-3.7,5.6-8.6,4.7-14.1
		c-1.2-8-9-13.1-16.7-10.9C229.4,507,225.6,512.5,225.5,519.4z"/>
</g>
<g>
	<path class="st0" d="M334,517.2c0.2-6.5,3.1-13.6,10.3-18.3c11-7.1,25.1-2.8,30.7,9.2c0.6,1.3,1.1,2.7,1.8,4
		c0.4,0.8,0.3,1.1-0.6,1.5c-9.8,4-19.6,8.1-29.4,12.2c-1,0.4-1.1,0.7-0.6,1.6c4.7,7.8,16.1,8.2,21.7,0.7c0.7-1,1.2-1,2.1-0.3
		c2,1.4,4.1,2.8,6.2,4.1c0.5,0.3,0.7,0.6,0.2,1.2c-10.7,14-30.5,12-38.6-0.6C335.1,528.4,333.9,523.9,334,517.2z M344,518.4
		c6.9-2.9,13.7-5.7,20.5-8.5c0.6-0.3,0.4-0.6,0.2-1c-1.2-2-3-3.2-5.2-3.9c-5.1-1.6-11,1.2-14,6.4C344.3,513.6,343.6,515.8,344,518.4
		z"/>
</g>
<g>
	<path class="st0" d="M318.9,506.4c0-11.1,0-22.2,0-33.3c0-1.1,0.3-1.4,1.3-1.3c2.6,0.1,5.2,0.1,7.8,0c1,0,1.3,0.2,1.3,1.3
		c-0.1,5.3,0,10.5,0,15.8c0,17,0,34,0,51c0,1.3-0.4,1.6-1.6,1.5c-2.6-0.1-5.1-0.1-7.7,0c-1,0-1.2-0.2-1.2-1.2
		C318.9,528.9,318.9,517.7,318.9,506.4z"/>
</g>
<g>
	<path class="st0" d="M412.2,541.8h-7.9V480h7.9l21.5,37.6h0.3l21.5-37.6h7.9v61.8h-7.9v-36.7l0.3-10.4h-0.3l-19.3,33.9h-4.7
		l-19.3-33.9h-0.3l0.3,10.4V541.8z"/>
	<path class="st0" d="M511.4,499.5l-26.5,60.9h-8.2l9.8-21.3l-17.4-39.6h8.6l12.6,30.4h0.2l12.3-30.4H511.4z"/>
	<path class="st0" d="M536.9,541.8V480h22.3c4.9,0,9.1,1.6,12.6,4.8c3.5,3.2,5.3,7.2,5.3,12c0,6.1-2.8,10.4-8.4,12.9v0.3
		c3.2,1,5.7,2.8,7.6,5.4c1.9,2.6,2.8,5.5,2.8,8.8c0,5.1-1.8,9.3-5.5,12.6c-3.6,3.3-8,5-13.2,5H536.9z M544.9,487.6v18.9h14.4
		c2.8,0,5.2-1,7.1-2.8c1.9-2,2.8-4.2,2.8-6.6c0-2.4-0.9-4.6-2.8-6.6c-1.8-1.9-4.1-2.8-6.8-2.8H544.9z M544.9,513.9v20.3h16
		c2.9,0,5.3-1,7.3-3c2-2,2.9-4.4,2.9-7.2c0-2.7-1-5.1-3-7.1c-2-2-4.5-3-7.6-3H544.9z"/>
	<path class="st0" d="M623.9,541.8h-7.6v-5.9H616c-1.2,2.1-3.1,3.8-5.6,5.2s-5.1,2.1-7.8,2.1c-5.2,0-9.2-1.5-12-4.4
		c-2.8-3-4.2-7.2-4.2-12.6v-26.6h7.9v26.1c0.2,6.9,3.7,10.4,10.4,10.4c3.2,0,5.8-1.3,7.9-3.8s3.2-5.6,3.2-9.2v-23.4h7.9V541.8z"/>
	<path class="st0" d="M665.5,530c0,3.7-1.6,6.8-4.8,9.3c-3.2,2.5-7.3,3.8-12.2,3.8c-4.3,0-8-1.1-11.2-3.3c-3.2-2.2-5.5-5.1-6.9-8.8
		l7.1-3c1,2.5,2.5,4.5,4.5,5.9c2,1.4,4.2,2.1,6.5,2.1c2.5,0,4.6-0.5,6.3-1.6c1.7-1.1,2.5-2.4,2.5-3.9c0-2.7-2.1-4.7-6.2-6l-7.2-1.8
		c-8.2-2.1-12.3-6-12.3-11.9c0-3.9,1.6-6.9,4.7-9.3c3.1-2.3,7.1-3.5,12-3.5c3.7,0,7.1,0.9,10.1,2.7c3,1.8,5.1,4.2,6.3,7.2l-7.1,2.9
		c-0.8-1.8-2.1-3.2-3.9-4.2c-1.8-1-3.8-1.5-6.1-1.5c-2.1,0-3.9,0.5-5.6,1.6c-1.6,1-2.5,2.3-2.5,3.8c0,2.4,2.3,4.1,6.8,5.2l6.4,1.6
		C661.3,519.4,665.5,523.6,665.5,530z"/>
	<path class="st0" d="M682.2,484.9c0,1.6-0.5,2.9-1.6,4c-1.1,1.1-2.4,1.6-4,1.6c-1.6,0-2.9-0.5-4-1.6c-1.1-1.1-1.6-2.4-1.6-4
		c0-1.6,0.5-2.9,1.6-4c1.1-1.1,2.4-1.6,4-1.6c1.6,0,2.9,0.5,4,1.6C681.7,482,682.2,483.4,682.2,484.9z M680.6,499.5v42.3h-7.9v-42.3
		H680.6z"/>
	<path class="st0" d="M691,499.5h7.6v5.9h0.3c1.2-2.1,3.1-3.8,5.6-5.2c2.5-1.4,5.1-2.1,7.8-2.1c5.2,0,9.2,1.5,12,4.4
		c2.8,3,4.2,7.2,4.2,12.6v26.6h-7.9v-26.1c-0.2-6.9-3.7-10.4-10.4-10.4c-3.2,0-5.8,1.3-7.9,3.8c-2.1,2.6-3.2,5.6-3.2,9.2v23.4H691
		V499.5z"/>
	<path class="st0" d="M756.7,543.1c-6.2,0-11.3-2.1-15.4-6.4c-4-4.3-6-9.6-6-16.1c0-6.4,2-11.8,5.9-16.1c3.9-4.3,8.9-6.4,15-6.4
		c6.3,0,11.3,2,15,6.1c3.7,4.1,5.6,9.7,5.6,17l-0.1,0.9h-33.2c0.1,4.1,1.5,7.5,4.1,10c2.6,2.5,5.8,3.8,9.5,3.8c5.1,0,9-2.5,11.9-7.6
		l7.1,3.5c-1.9,3.6-4.5,6.4-7.9,8.4C764.8,542.1,760.9,543.1,756.7,543.1z M744,515.5h24.2c-0.2-2.9-1.4-5.4-3.6-7.3
		c-2.2-1.9-5-2.9-8.7-2.9c-3,0-5.6,0.9-7.7,2.8C746.1,510,744.7,512.4,744,515.5z"/>
	<path class="st0" d="M816.7,530c0,3.7-1.6,6.8-4.8,9.3c-3.2,2.5-7.3,3.8-12.2,3.8c-4.3,0-8-1.1-11.2-3.3c-3.2-2.2-5.5-5.1-6.9-8.8
		l7.1-3c1,2.5,2.5,4.5,4.5,5.9c2,1.4,4.2,2.1,6.5,2.1c2.5,0,4.6-0.5,6.3-1.6c1.7-1.1,2.5-2.4,2.5-3.9c0-2.7-2.1-4.7-6.2-6l-7.2-1.8
		c-8.2-2.1-12.3-6-12.3-11.9c0-3.9,1.6-6.9,4.7-9.3c3.1-2.3,7.1-3.5,12-3.5c3.7,0,7.1,0.9,10.1,2.7c3,1.8,5.1,4.2,6.3,7.2l-7.1,2.9
		c-0.8-1.8-2.1-3.2-3.9-4.2c-1.8-1-3.8-1.5-6.1-1.5c-2.1,0-3.9,0.5-5.6,1.6c-1.6,1-2.5,2.3-2.5,3.8c0,2.4,2.3,4.1,6.8,5.2l6.4,1.6
		C812.5,519.4,816.7,523.6,816.7,530z"/>
	<path class="st0" d="M856,530c0,3.7-1.6,6.8-4.8,9.3c-3.2,2.5-7.3,3.8-12.2,3.8c-4.3,0-8-1.1-11.2-3.3c-3.2-2.2-5.5-5.1-6.9-8.8
		l7.1-3c1,2.5,2.5,4.5,4.5,5.9c2,1.4,4.2,2.1,6.5,2.1c2.5,0,4.6-0.5,6.3-1.6c1.7-1.1,2.5-2.4,2.5-3.9c0-2.7-2.1-4.7-6.2-6l-7.2-1.8
		c-8.2-2.1-12.3-6-12.3-11.9c0-3.9,1.6-6.9,4.7-9.3c3.1-2.3,7.1-3.5,12-3.5c3.7,0,7.1,0.9,10.1,2.7c3,1.8,5.1,4.2,6.3,7.2l-7.1,2.9
		c-0.8-1.8-2.1-3.2-3.9-4.2c-1.8-1-3.8-1.5-6.1-1.5c-2.1,0-3.9,0.5-5.6,1.6c-1.6,1-2.5,2.3-2.5,3.8c0,2.4,2.3,4.1,6.8,5.2l6.4,1.6
		C851.8,519.4,856,523.6,856,530z"/>
</g>
<path class="st1" d="M623.7,410.1H322.3c-5,0-9.1-4.1-9.1-9.1V204.8c0-5,4.1-9.1,9.1-9.1h301.4c5,0,9.1,4.1,9.1,9.1V401
	C632.7,406,628.7,410.1,623.7,410.1z"/>
<linearGradient id="SVGID_1_" gradientUnits="userSpaceOnUse" x1="576.3698" y1="430.3369" x2="446.9152" y2="182.2156">
	<stop  offset="0" style="stop-color:#697FB7;stop-opacity:0"/>
	<stop  offset="0.259" style="stop-color:#657AB0;stop-opacity:0.259"/>
	<stop  offset="0.6222" style="stop-color:#586D9E;stop-opacity:0.6222"/>
	<stop  offset="1" style="stop-color:#475984"/>
</linearGradient>
<path class="st2" d="M607,410.1H473.9L313.2,249v-27.5c0-14.2,11.6-25.8,25.8-25.8h268c14.2,0,25.8,11.6,25.8,25.8v162.8
	C632.7,398.5,621.1,410.1,607,410.1z"/>
<path class="st3" d="M605.6,333.7l-0.5-2.6h-46.3v18.2H587c-0.8,3.5-2.2,6.9-4.8,9.6c-5.1,5.1-12.1,8-19.5,8c0,0,0,0,0,0
	c-7.8,0-15.5-3.2-21-8.7c-10.8-11-10.7-29,0.3-40.1c10.8-10.8,28.5-11,39.6-0.5l2.3,2.1l13-13.3l-2.4-2.2
	c-8.8-8.1-20.3-12.6-32.3-12.6c-0.1,0-0.1,0-0.2,0c-12.6,0-24.4,4.8-33.4,13.6c-9.1,9-14.1,20.8-14.1,33.3
	c0,12.2,4.8,23.7,13.6,32.3l0,0c9.1,8.9,21.6,14,34.5,14.1c0.1,0,0.3,0,0.4,0c12.3,0,23.5-4.4,31.5-12.5c7.4-7.4,12-18.6,12-29.1
	C606.4,340.3,606.3,336.9,605.6,333.7z"/>
<path class="st4" d="M395.8,88.9l-15.5,118.9h-92.7l25.8-99.2c0,0,5.4-19.7,24.2-19.7H395.8z"/>
<polygon class="st5" points="473,88.9 473,207.8 380.3,207.8 395.8,88.9 "/>
<polygon class="st4" points="565.7,207.8 473,207.8 473,88.9 550.9,88.9 "/>
<path class="st5" d="M658.4,207.8h-92.7L550.9,88.9h57.4c18.9,0,24.2,19.7,24.2,19.7L658.4,207.8z"/>
<path class="st6" d="M380.3,207.8c0,25.5-20.7,46.2-46.3,46.2s-46.3-20.7-46.3-46.2H380.3z"/>
<path class="st7" d="M473,207.8c0,25.5-20.7,46.2-46.3,46.2c-25.6,0-46.3-20.7-46.3-46.2H473z"/>
<path class="st6" d="M565.7,207.8c0,25.5-20.8,46.2-46.3,46.2c-25.6,0-46.3-20.7-46.3-46.2H565.7z"/>
<path class="st7" d="M658.4,207.8c0,25.5-20.7,46.2-46.3,46.2c-25.6,0-46.3-20.7-46.3-46.2H658.4z"/>
</svg>
