<?xml version="1.0" encoding="utf-8"?>
<!-- Generator: Adobe Illustrator 22.1.0, SVG Export Plug-In . SVG Version: 6.00 Build 0)  -->
<svg version="1.1" id="Layer_1" xmlns="http://www.w3.org/2000/svg" xmlns:xlink="http://www.w3.org/1999/xlink" x="0px" y="0px"
	 viewBox="0 0 1000 126.3" style="enable-background:new 0 0 1000 126.3;" xml:space="preserve">
<style type="text/css">
	.st0{fill:#02BDF6;}
	.st1{fill:#324A85;}
</style>
<g>
	<g id="Layer_1_1_">
		<g>
			<g>
				<g>
					<g>
						<path class="st0" d="M49.9,36.2c-25,0-45,20.1-45,45s20.1,45,45,45s45-20.1,45-45S74.4,36.2,49.9,36.2z M49.9,112.6
							c-17.1,0-30.8-13.7-30.8-30.8s13.7-30.8,30.8-30.8s30.8,13.7,30.8,30.8S67.1,112.6,49.9,112.6z"/>
						<path class="st0" d="M95.9,13.7C82.7,5.4,66.6,0,49.9,0s-32.8,5.4-46,13.7C0,16.6-1,22,1,25.9l6.4,11.7
							c1.5,2.4,4.9,3.4,6.9,1.5c3.9-2.9,7.8-5.9,12.2-7.8c1-0.5,1.5-1.5,1.5-2.4V22c0-1,0.5-2,1.5-2c6.4-2.4,13.2-3.4,20.1-3.4h0.5
							h0.5c6.9,0,13.7,1,20.1,3.4c1,0,1.5,1,1.5,2v6.9c0,1,0.5,2,1.5,2.4c4.4,2,8.3,4.9,12.2,7.8c2,2,5.4,1,6.9-1.5l6.4-11.7
							C100.8,22,99.9,16.6,95.9,13.7z"/>
					</g>
					<circle class="st0" cx="49.9" cy="81.3" r="16.6"/>
				</g>
			</g>
		</g>
	</g>
	<g id="Layer_2_1_">
		<g>
			<path class="st1" d="M175.7,99.9c-4.4,2.9-12.2,4.4-19.6,4.4c-17.6,0-33.3-10.8-33.3-38.7c0.5-28.9,18.1-38.2,33.8-38.2
				c8.3,0,14.2,1.5,18.1,2.9l-2.9,12.2c-3.4-1.5-7.3-2.4-13.7-2.4c-11.7,0-19.6,8.3-19.6,25.5c0,15.2,6.9,25.5,20.6,25.5
				c6.4,0,10.3-1.5,13.7-3.4L175.7,99.9z"/>
			<path class="st1" d="M183.1,52.9c5.4-2.4,13.7-3.9,22-3.9c14.7,0,19.1,7.3,19.1,18.6c0,7.3-1,14.2-1,21c0,5.4,0.5,10.3,2,14.7
				h-11.3l-2-7.3h-0.5c-2.9,4.4-7.8,8.3-15.7,8.3c-9.8,0-16.2-6.4-16.2-15.7c0-11.7,10.3-17.1,26.9-17.1c1.5,0,2.9,0,3.9,0
				c0-1.5,0-2.4,0-3.4c0-5.4-2-7.3-8.3-7.3c-5.4,0-12.2,1.5-16.2,2.9L183.1,52.9z M210.5,86.6v-6.9c-1.5,0-2.9,0-3.9,0
				c-7.3,0-12.7,2-12.7,6.9c0,3.9,2.4,6.4,6.4,6.4C206.1,92.5,209,89.6,210.5,86.6z"/>
			<path class="st1" d="M250.1,85.2c0,4.9,1.5,7.3,3.9,7.3c2,0,2.9,0,5.4-1l1.5,10.8c-2.4,1-7.3,2.4-12.2,2.4
				c-7.8,0-12.2-3.4-12.2-12.2V28.9h13.7L250.1,85.2L250.1,85.2z"/>
			<path class="st1" d="M281,85.2c0,4.9,1.5,7.3,3.9,7.3c2,0,2.9,0,5.4-1l1.5,10.8c-2.4,1-7.3,2.4-12.2,2.4
				c-7.8,0-12.2-3.4-12.2-12.2V28.9H281L281,85.2L281,85.2z"/>
			<path class="st1" d="M351,41.6h-21.5v61.2h-14.7V41.6h-21.5V28.9H351V41.6z"/>
			<path class="st1" d="M376.4,62.7c-2.4-0.5-4.4-1-5.9-1c-4.9,0-8.3,2.9-9.3,6.9v34.3h-13.7V49.9h10.8l1.5,6.9h0.5
				c2.4-5.4,6.4-8.3,12.2-8.3c2,0,3.9,0.5,6.4,1L376.4,62.7z"/>
			<path class="st1" d="M383.7,52.9c5.4-2.4,13.7-3.9,22-3.9c14.7,0,19.1,7.3,19.1,18.6c0,7.3-1,14.2-1,21c0,5.4,0.5,10.3,2,14.7
				h-11.3l-1.5-7.3h-0.5c-2.9,4.4-7.8,8.3-15.7,8.3c-9.8,0-16.2-6.4-16.2-15.7c0-11.7,10.3-17.1,26.9-17.1c1.5,0,2.9,0,3.9,0
				c0-1.5,0-2.4,0-3.4c0-5.4-2-7.3-8.3-7.3c-5.4,0-12.2,1.5-16.2,2.9L383.7,52.9z M411.6,86.6v-6.9c-1.5,0-2.9,0-3.9,0
				c-7.3,0-12.7,2-12.7,6.9c0,3.9,2.4,6.4,6.4,6.4C406.8,92.5,410.2,89.6,411.6,86.6z"/>
			<path class="st1" d="M474.3,99.4c-4.4,2.9-10.8,4.9-17.1,4.9c-17.1,0-23-11.3-23-27.9c0-17.6,8.3-27.9,23.5-27.9
				c7.8,0,11.7,1.5,15.7,3.4l-3.4,11.3c-3.4-1.5-6.4-2.4-10.3-2.4c-7.3,0-11.7,4.9-11.7,15.7c0,8.8,3.9,15.7,12.2,15.7
				c4.4,0,7.8-1.5,10.3-2.9L474.3,99.4z"/>
			<path class="st1" d="M500.2,80.8h-3.4v22h-13.7V28.9h13.7v43.6l2.9-1.5l12.2-21h15.2L514.4,70l-5.4,3.9l5.9,3.9l14.2,24.5h-15.7
				L500.2,80.8z"/>
			<path class="st1" d="M542.3,27.4c5.4,0,8.8,3.4,8.8,7.3s-3.4,7.3-8.8,7.3s-8.8-2.9-8.8-6.9S537,27.4,542.3,27.4z M535.5,49.9
				h13.7v52.9h-13.7V49.9z"/>
			<path class="st1" d="M595.7,102.8V72.4c0-8.8-2.4-12.2-8.3-12.2c-5.4,0-8.8,3.4-10.3,7.8v34.3h-14.2V49.9h10.8l1.5,6.9h0.5
				c2.9-4.4,8.3-8.3,16.6-8.3c10.8,0,16.2,4.9,16.2,21.5v32.8H595.7L595.7,102.8z"/>
			<path class="st1" d="M665.7,102.8c0,15.2-8.8,22.5-23.5,22.5c-10.3,0-15.7-2-18.6-3.4l2.9-10.8c3.4,1.5,7.3,2.9,13.7,2.9
				c9.8,0,12.2-4.4,12.2-11.7v-3.4H652c-2.4,3.4-6.9,4.9-13.2,4.9c-13.7,0-20.1-8.3-20.1-26.4c0-18.6,9.3-28.9,26.4-28.9
				c8.8,0,16.2,1.5,21,2.9L665.7,102.8L665.7,102.8z M652,85.7v-24c-2-1-4.9-1.5-8.3-1.5c-6.9,0-11.3,4.9-11.3,16.6
				c0,10.3,3.4,15.7,9.8,15.7C647.6,92.5,650.5,90.1,652,85.7z"/>
			<path class="st1" d="M735.7,51.9l-3.4,9.8l-15.7,27.4h-4.4l-16.6-27.9l-2.9-7.8v48.9h-13.7V28.9h13.2l20.1,33.8l3.4,8.3h0.5
				l2.9-8.8l18.6-33.8h13.2v73.9h-14.7V51.9H735.7z"/>
			<path class="st1" d="M804.7,98.4c-4.4,3.4-12.2,5.9-20.1,5.9c-17.1,0-24.5-10.8-24.5-27.9c0-18.6,9.3-27.9,25.5-27.9
				c10.8,0,21,4.9,21,21.5c0,2.9-0.5,6.4-1,10.3h-32.3c0.5,8.8,4.4,13.7,13.7,13.7c5.9,0,10.8-2.4,13.2-3.9L804.7,98.4z M773.9,71.5
				h19.6c0-0.5,0-1,0-2c0-6.4-2.9-10.3-8.8-10.3C777.8,59.2,774.4,64.1,773.9,71.5z"/>
			<path class="st1" d="M810.6,49.9h7.3v-9.8l13.7-3.9v13.7h12.7v11.7h-12.7v20.1c0,7.3,1,10.3,5.4,10.3c2.9,0,4.4-0.5,7.3-2
				l2.4,10.8c-3.9,2-9.3,3.4-14.7,3.4c-9.8,0-14.2-4.9-14.2-16.2V61.7h-7.3L810.6,49.9L810.6,49.9z"/>
			<path class="st1" d="M882.5,62.7c-2-1-3.9-1-5.9-1c-4.9,0-8.3,2.9-9.3,6.9v34.3h-13.7V49.9h10.8l1.5,6.9h0.5
				c2.4-5.4,6.4-8.3,12.2-8.3c2,0,3.9,0.5,6.4,1L882.5,62.7z"/>
			<path class="st1" d="M897.7,27.4c5.4,0,8.8,3.4,8.8,7.3s-3.4,7.3-8.8,7.3c-5.4,0-8.8-2.9-8.8-7.3S892.3,27.4,897.7,27.4z
				 M891.3,49.9H905v52.9h-13.7V49.9z"/>
			<path class="st1" d="M956.4,99.4c-4.4,2.9-10.8,4.9-17.1,4.9c-17.1,0-23-11.3-23-27.9c0-17.6,8.3-27.9,23.5-27.9
				c7.8,0,11.7,1.5,15.7,3.4L952,63.1c-3.4-1.5-6.4-2.4-10.3-2.4c-7.3,0-11.7,4.9-11.7,15.7c0,8.8,3.9,15.7,12.2,15.7
				c4.4,0,7.8-1.5,10.3-2.9L956.4,99.4z"/>
			<path class="st1" d="M962.3,64.6c0-10.3,6.4-16.2,18.1-16.2c7.8,0,14.7,2,18.6,3.9l-2.9,9.8c-3.4-1.5-8.8-2.9-13.7-2.9
				c-3.9,0-6.4,1.5-6.4,4.9c0,7.8,24,4.4,24,23c0,10.8-6.9,17.1-20.6,17.1c-7.3,0-14.7-2.4-18.6-4.9l3.9-10.3
				c3.4,2,9.3,3.9,14.7,3.9c3.9,0,6.9-1.5,6.9-4.9C986.3,79.8,962.3,83.7,962.3,64.6z"/>
		</g>
	</g>
</g>
</svg>
