<svg version="1.1" id="Layer_1" xmlns="http://www.w3.org/2000/svg" xmlns:xlink="http://www.w3.org/1999/xlink" x="0px" y="0px"
	 width="100%" viewBox="0 0 400 264" enable-background="new 0 0 400 264" xml:space="preserve">
<path fill="#FFFFFE" opacity="1.000000" stroke="none" 
	d="
M0.999998,225.000000 
	C1.000000,150.358093 1.000000,75.716187 1.000000,1.037137 
	C134.264359,1.037137 267.528717,1.037137 400.896545,1.037137 
	C400.896545,88.901749 400.896545,176.803650 400.896545,264.852783 
	C267.666779,264.852783 134.333420,264.852783 1.000000,264.852783 
	C1.000000,254.597275 1.000000,244.267288 1.314000,233.670319 
	C5.573617,249.963959 14.603906,258.187439 31.342209,260.462738 
	C42.361450,261.960632 55.503590,255.587433 60.772202,245.941406 
	C58.552460,244.574783 56.184704,243.362274 54.102871,241.774811 
	C51.340260,239.668243 49.435593,239.773880 47.104435,242.659851 
	C43.084347,247.636780 37.439274,248.786728 31.299314,248.046783 
	C23.334896,247.087006 17.198395,240.980042 15.474776,232.283997 
	C13.978441,224.734634 17.664185,216.580383 24.359617,212.627335 
	C31.445246,208.443909 40.602840,208.584381 45.610950,214.219437 
	C49.488266,218.582108 52.437901,218.134171 56.318058,215.073318 
	C57.705307,213.978973 59.297886,213.144913 60.969982,212.081909 
	C53.080444,200.172318 42.006851,196.259125 28.806332,198.128983 
	C16.006937,199.942032 7.313483,207.244812 3.011815,219.566345 
	C2.375325,221.389481 1.672257,223.189362 0.999998,225.000000 
M126.119774,54.688541 
	C119.389656,69.300583 117.096336,84.690140 119.348839,100.507362 
	C125.896385,146.484802 167.160995,177.304153 213.380264,171.078278 
	C259.975525,164.801743 292.438995,118.434525 282.402161,72.494965 
	C274.813843,37.762657 246.768921,11.525119 212.604416,7.195431 
	C176.271118,2.590890 142.938889,20.701027 126.119774,54.688541 
M392.998993,209.560257 
	C384.600525,199.585693 373.864502,195.855515 361.241180,198.526245 
	C343.471436,202.285828 332.895569,219.344391 337.170502,236.662231 
	C341.428253,253.910477 359.831573,264.324890 377.339264,259.350098 
	C385.198425,257.116913 391.591492,252.812637 396.857117,245.834122 
	C392.852173,243.646729 389.548004,241.842087 386.228760,240.029190 
	C379.134338,247.735184 371.160706,251.620285 361.071838,247.283890 
	C355.432617,244.860031 351.825714,240.668747 350.860870,233.653793 
	C367.526489,233.653793 383.608917,233.653793 399.607758,233.653793 
	C400.685791,224.637878 398.921295,218.115799 392.998993,209.560257 
M257.945038,218.732895 
	C251.408279,203.297943 239.905136,196.636368 222.102692,197.976212 
	C203.559189,199.371826 190.077286,218.174316 194.680283,236.220871 
	C199.297775,254.324341 217.135269,264.381744 235.867432,259.443634 
	C253.760773,254.726654 263.166870,237.864578 257.945038,218.732895 
M138.935898,204.407669 
	C128.766403,212.625412 124.884636,223.352676 127.684341,235.932190 
	C133.486664,262.002991 164.931976,267.014740 181.399414,253.064011 
	C189.822769,245.927979 193.951767,236.610870 192.447128,225.588303 
	C188.479599,196.523239 155.853714,191.588974 138.935898,204.407669 
M66.838783,246.489319 
	C66.838783,250.556824 66.838783,254.624344 66.838783,258.565277 
	C71.634514,258.565277 75.530373,258.565277 79.804604,258.565277 
	C79.804604,256.546448 79.804527,254.905899 79.804619,253.265350 
	C79.805130,244.277283 79.770157,235.289017 79.815628,226.301178 
	C79.867378,216.073639 84.924057,210.744476 94.448494,210.773499 
	C103.670418,210.801590 108.054886,215.579865 108.139412,225.858231 
	C108.207848,234.179962 108.156487,242.502701 108.157997,250.824982 
	C108.158470,253.418076 108.158066,256.011169 108.158066,258.635254 
	C112.832367,258.635254 116.745590,258.635254 120.871696,258.635254 
	C120.871696,244.877853 121.633499,231.380112 120.649620,218.010818 
	C119.732674,205.550980 108.829369,196.845581 96.349106,198.109406 
	C90.652023,198.686325 85.219276,201.873581 79.802559,203.827866 
	C79.802559,198.315933 79.740967,191.666092 79.834770,185.018448 
	C79.869263,182.573990 79.157852,181.237534 76.473816,181.326248 
	C73.385910,181.428329 70.292030,181.349945 66.838593,181.349945 
	C66.838593,203.252121 66.838593,224.371964 66.838783,246.489319 
M260.413574,257.214966 
	C261.587097,257.794220 262.756470,258.867401 263.934814,258.877380 
	C277.764038,258.994476 291.594696,258.963013 305.424835,258.930725 
	C306.522430,258.928162 307.619293,258.628418 308.657806,258.475433 
	C308.657806,254.553314 308.657806,250.955566 308.657806,246.847717 
	C299.492249,246.847717 290.615021,246.847717 280.846771,246.847717 
	C290.623474,230.699921 299.932709,215.324265 309.501495,199.519882 
	C293.059418,199.519882 277.662079,199.519882 262.236267,199.519882 
	C262.236267,203.649857 262.236267,207.398315 262.236267,211.744781 
	C270.601105,211.744781 278.655334,211.744781 287.832092,211.744781 
	C278.441681,227.304337 269.620331,241.920990 260.413574,257.214966 
M335.438232,257.022400 
	C336.612579,254.884537 337.786896,252.746658 339.043732,250.458603 
	C337.735870,249.636261 336.828247,248.864395 335.779968,248.439072 
	C328.975739,245.678375 326.590607,240.614136 326.895203,233.423294 
	C327.281921,224.293213 326.988251,215.134308 326.988098,205.987839 
	C326.987976,198.038498 326.988068,190.089142 326.988068,181.792557 
	C322.460785,181.792557 318.423828,181.792557 314.042633,181.792557 
	C314.042633,199.682953 314.314484,217.135162 313.957886,234.574524 
	C313.664581,248.919388 319.494049,253.592804 330.948212,259.179413 
	C331.864075,259.626129 333.683380,258.220490 335.438232,257.022400 
z"/>
<path fill="#A3B067" opacity="1.000000" stroke="none" 
	d="
M0.999998,225.444168 
	C1.672257,223.189362 2.375325,221.389481 3.011815,219.566345 
	C7.313483,207.244812 16.006937,199.942032 28.806332,198.128983 
	C42.006851,196.259125 53.080444,200.172318 60.969982,212.081909 
	C59.297886,213.144913 57.705307,213.978973 56.318058,215.073318 
	C52.437901,218.134171 49.488266,218.582108 45.610950,214.219437 
	C40.602840,208.584381 31.445246,208.443909 24.359617,212.627335 
	C17.664185,216.580383 13.978441,224.734634 15.474776,232.283997 
	C17.198395,240.980042 23.334896,247.087006 31.299314,248.046783 
	C37.439274,248.786728 43.084347,247.636780 47.104435,242.659851 
	C49.435593,239.773880 51.340260,239.668243 54.102871,241.774811 
	C56.184704,243.362274 58.552460,244.574783 60.772202,245.941406 
	C55.503590,255.587433 42.361450,261.960632 31.342209,260.462738 
	C14.603906,258.187439 5.573617,249.963959 1.314000,233.201660 
	C1.000000,230.629440 1.000000,228.258896 0.999998,225.444168 
z"/>
<path fill="#54565A" opacity="1.000000" stroke="none" 
	d="
M126.282440,54.348122 
	C142.938889,20.701027 176.271118,2.590890 212.604416,7.195431 
	C246.768921,11.525119 274.813843,37.762657 282.402161,72.494965 
	C292.438995,118.434525 259.975525,164.801743 213.380264,171.078278 
	C167.160995,177.304153 125.896385,146.484802 119.348839,100.507362 
	C117.096336,84.690140 119.389656,69.300583 126.282440,54.348122 
M242.135559,48.252754 
	C243.349396,46.952393 244.563232,45.652027 245.750473,44.380154 
	C225.201141,20.223312 182.196442,19.503531 157.804276,42.679398 
	C131.085190,68.066154 130.820526,110.282898 157.247665,135.331253 
	C184.765976,161.413864 225.469055,156.276718 245.756424,134.267731 
	C244.368637,132.643677 242.973953,131.011566 242.066208,128.811081 
	C253.386536,117.109612 258.567871,103.108009 258.082886,86.856544 
	C257.640167,72.020088 251.493942,59.720020 242.135559,48.252754 
z"/>
<path fill="#A3B068" opacity="1.000000" stroke="none" 
	d="
M393.231323,209.836304 
	C398.921295,218.115799 400.685791,224.637878 399.607758,233.653793 
	C383.608917,233.653793 367.526489,233.653793 350.860870,233.653793 
	C351.825714,240.668747 355.432617,244.860031 361.071838,247.283890 
	C371.160706,251.620285 379.134338,247.735184 386.228760,240.029190 
	C389.548004,241.842087 392.852173,243.646729 396.857117,245.834122 
	C391.591492,252.812637 385.198425,257.116913 377.339264,259.350098 
	C359.831573,264.324890 341.428253,253.910477 337.170502,236.662231 
	C332.895569,219.344391 343.471436,202.285828 361.241180,198.526245 
	C373.864502,195.855515 384.600525,199.585693 393.231323,209.836304 
M358.618378,222.953644 
	C367.207458,222.953644 375.796570,222.953644 384.466644,222.953644 
	C382.531219,214.185394 375.346924,208.671677 366.774017,209.048660 
	C358.748779,209.401566 352.526764,214.807816 351.283997,222.953598 
	C353.457184,222.953598 355.559021,222.953598 358.618378,222.953644 
z"/>
<path fill="#A3B067" opacity="1.000000" stroke="none" 
	d="
M258.045593,219.118973 
	C263.166870,237.864578 253.760773,254.726654 235.867432,259.443634 
	C217.135269,264.381744 199.297775,254.324341 194.680283,236.220871 
	C190.077286,218.174316 203.559189,199.371826 222.102692,197.976212 
	C239.905136,196.636368 251.408279,203.297943 258.045593,219.118973 
M210.669373,218.376343 
	C204.852356,228.854919 207.773895,240.946411 217.357544,246.057159 
	C226.773300,251.078339 238.787964,247.597519 243.725479,238.417969 
	C248.386520,229.752426 245.785843,218.795151 237.727814,213.148376 
	C229.392578,207.307388 218.321396,209.215240 210.669373,218.376343 
z"/>
<path fill="#A3AF67" opacity="1.000000" stroke="none" 
	d="
M139.221466,204.184021 
	C155.853714,191.588974 188.479599,196.523239 192.447128,225.588303 
	C193.951767,236.610870 189.822769,245.927979 181.399414,253.064011 
	C164.931976,267.014740 133.486664,262.002991 127.684341,235.932190 
	C124.884636,223.352676 128.766403,212.625412 139.221466,204.184021 
M167.809525,246.693710 
	C177.893860,240.968597 181.457779,231.633377 177.429901,221.494400 
	C173.958572,212.756363 164.281937,208.000214 154.931763,210.436386 
	C144.056381,213.269943 138.118958,224.000198 141.364243,234.955872 
	C144.528214,245.636963 155.292862,250.676361 167.809525,246.693710 
z"/>
<path fill="#A3B068" opacity="1.000000" stroke="none" 
	d="
M66.838684,245.990555 
	C66.838593,224.371964 66.838593,203.252121 66.838593,181.349945 
	C70.292030,181.349945 73.385910,181.428329 76.473816,181.326248 
	C79.157852,181.237534 79.869263,182.573990 79.834770,185.018448 
	C79.740967,191.666092 79.802559,198.315933 79.802559,203.827866 
	C85.219276,201.873581 90.652023,198.686325 96.349106,198.109406 
	C108.829369,196.845581 119.732674,205.550980 120.649620,218.010818 
	C121.633499,231.380112 120.871696,244.877853 120.871696,258.635254 
	C116.745590,258.635254 112.832367,258.635254 108.158066,258.635254 
	C108.158066,256.011169 108.158470,253.418076 108.157997,250.824982 
	C108.156487,242.502701 108.207848,234.179962 108.139412,225.858231 
	C108.054886,215.579865 103.670418,210.801590 94.448494,210.773499 
	C84.924057,210.744476 79.867378,216.073639 79.815628,226.301178 
	C79.770157,235.289017 79.805130,244.277283 79.804619,253.265350 
	C79.804527,254.905899 79.804604,256.546448 79.804604,258.565277 
	C75.530373,258.565277 71.634514,258.565277 66.838783,258.565277 
	C66.838783,254.624344 66.838783,250.556824 66.838684,245.990555 
z"/>
<path fill="#A3B067" opacity="1.000000" stroke="none" 
	d="
M260.606293,256.876312 
	C269.620331,241.920990 278.441681,227.304337 287.832092,211.744781 
	C278.655334,211.744781 270.601105,211.744781 262.236267,211.744781 
	C262.236267,207.398315 262.236267,203.649857 262.236267,199.519882 
	C277.662079,199.519882 293.059418,199.519882 309.501495,199.519882 
	C299.932709,215.324265 290.623474,230.699921 280.846771,246.847717 
	C290.615021,246.847717 299.492249,246.847717 308.657806,246.847717 
	C308.657806,250.955566 308.657806,254.553314 308.657806,258.475433 
	C307.619293,258.628418 306.522430,258.928162 305.424835,258.930725 
	C291.594696,258.963013 277.764038,258.994476 263.934814,258.877380 
	C262.756470,258.867401 261.587097,257.794220 260.606293,256.876312 
z"/>
<path fill="#A2AF67" opacity="1.000000" stroke="none" 
	d="
M335.260559,257.349030 
	C333.683380,258.220490 331.864075,259.626129 330.948212,259.179413 
	C319.494049,253.592804 313.664581,248.919388 313.957886,234.574524 
	C314.314484,217.135162 314.042633,199.682953 314.042633,181.792557 
	C318.423828,181.792557 322.460785,181.792557 326.988068,181.792557 
	C326.988068,190.089142 326.987976,198.038498 326.988098,205.987839 
	C326.988251,215.134308 327.281921,224.293213 326.895203,233.423294 
	C326.590607,240.614136 328.975739,245.678375 335.779968,248.439072 
	C336.828247,248.864395 337.735870,249.636261 339.043732,250.458603 
	C337.786896,252.746658 336.612579,254.884537 335.260559,257.349030 
z"/>
<path fill="#FEFEFD" opacity="1.000000" stroke="none" 
	d="
M241.579269,129.379440 
	C242.973953,131.011566 244.368637,132.643677 245.756424,134.267731 
	C225.469055,156.276718 184.765976,161.413864 157.247665,135.331253 
	C130.820526,110.282898 131.085190,68.066154 157.804276,42.679398 
	C182.196442,19.503531 225.201141,20.223312 245.750473,44.380154 
	C244.563232,45.652027 243.349396,46.952393 241.681580,48.726639 
	C237.191315,53.533218 233.155045,57.865917 229.220963,62.088928 
	C206.934586,43.590183 184.164520,51.004829 173.205872,62.780064 
	C159.887527,77.090843 159.170242,99.258743 171.532684,113.899933 
	C178.153244,121.740852 186.665802,126.386551 196.812149,127.576103 
	C208.891418,128.992249 219.350708,124.926979 228.335220,116.819099 
	C232.917099,121.164452 237.248184,125.271950 241.579269,129.379440 
z"/>
<path fill="#A2AF66" opacity="1.000000" stroke="none" 
	d="
M241.822739,129.095261 
	C237.248184,125.271950 232.917099,121.164452 228.335220,116.819099 
	C219.350708,124.926979 208.891418,128.992249 196.812149,127.576103 
	C186.665802,126.386551 178.153244,121.740852 171.532684,113.899933 
	C159.170242,99.258743 159.887527,77.090843 173.205872,62.780064 
	C184.164520,51.004829 206.934586,43.590183 229.220963,62.088928 
	C233.155045,57.865917 237.191315,53.533218 241.515991,49.047695 
	C251.493942,59.720020 257.640167,72.020088 258.082886,86.856544 
	C258.567871,103.108009 253.386536,117.109612 241.822739,129.095261 
M230.818588,86.000206 
	C230.587555,85.031212 230.321274,84.069092 230.130875,83.092186 
	C227.943542,71.868912 218.661362,62.241680 207.075714,60.301685 
	C194.759048,58.239285 184.462814,62.200821 176.996902,72.528908 
	C170.630875,81.335434 170.141510,94.859001 175.777954,104.138748 
	C182.962555,115.967346 196.573975,121.370895 209.729462,117.616989 
	C222.998215,113.830765 231.174973,101.961678 230.818588,86.000206 
z"/>
<path fill="#FDFDFB" opacity="1.000000" stroke="none" 
	d="
M358.139587,222.953613 
	C355.559021,222.953598 353.457184,222.953598 351.283997,222.953598 
	C352.526764,214.807816 358.748779,209.401566 366.774017,209.048660 
	C375.346924,208.671677 382.531219,214.185394 384.466644,222.953644 
	C375.796570,222.953644 367.207458,222.953644 358.139587,222.953613 
z"/>
<path fill="#FEFEFD" opacity="1.000000" stroke="none" 
	d="
M210.869049,218.059387 
	C218.321396,209.215240 229.392578,207.307388 237.727814,213.148376 
	C245.785843,218.795151 248.386520,229.752426 243.725479,238.417969 
	C238.787964,247.597519 226.773300,251.078339 217.357544,246.057159 
	C207.773895,240.946411 204.852356,228.854919 210.869049,218.059387 
z"/>
<path fill="#FEFEFD" opacity="1.000000" stroke="none" 
	d="
M167.439209,246.841522 
	C155.292862,250.676361 144.528214,245.636963 141.364243,234.955872 
	C138.118958,224.000198 144.056381,213.269943 154.931763,210.436386 
	C164.281937,208.000214 173.958572,212.756363 177.429901,221.494400 
	C181.457779,231.633377 177.893860,240.968597 167.439209,246.841522 
z"/>
<path fill="#E6EBD5" opacity="1.000000" stroke="none" 
	d="
M230.866379,86.433167 
	C231.174973,101.961678 222.998215,113.830765 209.729462,117.616989 
	C196.573975,121.370895 182.962555,115.967346 175.777954,104.138748 
	C170.141510,94.859001 170.630875,81.335434 176.996902,72.528908 
	C184.462814,62.200821 194.759048,58.239285 207.075714,60.301685 
	C218.661362,62.241680 227.943542,71.868912 230.130875,83.092186 
	C230.321274,84.069092 230.587555,85.031212 230.866379,86.433167 
z"/>
</svg>