<?xml version="1.0" encoding="UTF-8"?>
<!DOCTYPE svg PUBLIC "-//W3C//DTD SVG 1.1//EN" "http://www.w3.org/Graphics/SVG/1.1/DTD/svg11.dtd">
<svg xmlns="http://www.w3.org/2000/svg" version="1.1" width="32px" height="32px" style="shape-rendering:geometricPrecision; text-rendering:geometricPrecision; image-rendering:optimizeQuality; fill-rule:evenodd; clip-rule:evenodd" xmlns:xlink="http://www.w3.org/1999/xlink">
    <g><path style="opacity:0.927" fill="#f73ba0" d="M 9.5,-0.5 C 11.5,-0.5 13.5,-0.5 15.5,-0.5C 15.5,2.5 15.5,5.5 15.5,8.5C 13.7839,8.62867 12.1172,8.962 10.5,9.5C 8.16667,7.83333 6.16667,5.83333 4.5,3.5C 5.98417,1.92635 7.65084,0.593015 9.5,-0.5 Z"/></g>
    <g><path style="opacity:0.925" fill="#151e6d" d="M 15.5,-0.5 C 17.5,-0.5 19.5,-0.5 21.5,-0.5C 25.8333,1.83333 29.1667,5.16667 31.5,9.5C 31.5,11.5 31.5,13.5 31.5,15.5C 28.5,15.5 25.5,15.5 22.5,15.5C 22.5,10.8333 20.1667,8.5 15.5,8.5C 15.5,5.5 15.5,2.5 15.5,-0.5 Z"/></g>
    <g><path style="opacity:0.928" fill="#476bfb" d="M 4.5,3.5 C 6.16667,5.83333 8.16667,7.83333 10.5,9.5C 7.88813,13.3358 7.88813,17.1692 10.5,21C 12.0249,22.0086 13.6916,22.5086 15.5,22.5C 15.5,25.5 15.5,28.5 15.5,31.5C 13.5,31.5 11.5,31.5 9.5,31.5C 5.16667,29.1667 1.83333,25.8333 -0.5,21.5C -0.5,17.5 -0.5,13.5 -0.5,9.5C 0.689986,7.13072 2.35665,5.13072 4.5,3.5 Z"/></g>
    <g><path style="opacity:1" fill="#151e6d" d="M 31.5,23.5 C 31.5,26.1667 31.5,28.8333 31.5,31.5C 28.8333,31.5 26.1667,31.5 23.5,31.5C 23.5,28.8333 23.5,26.1667 23.5,23.5C 26.1667,23.5 28.8333,23.5 31.5,23.5 Z"/></g>
</svg>