<svg width="227" height="227" viewBox="0 0 227 227" fill="none" xmlns="http://www.w3.org/2000/svg">
<path d="M113.391 122C131.617 122 146.391 107.226 146.391 89.0001C146.391 70.7746 131.617 56 113.391 56C95.1657 56 80.3911 70.7746 80.3911 89.0001C80.3911 107.226 95.1657 122 113.391 122Z" fill="#FFCD00"/>
<path d="M113.608 138.5C113.572 138.5 113.536 138.5 113.5 138.5C90.3713 138.5 70.9472 122.637 65.5145 101.197C63.8429 94.6015 58.4845 89.0003 51.6802 89.0003H31C31 134.564 67.9364 171.501 113.5 171.501C113.536 171.501 113.572 171.5 113.608 171.5V138.5Z" fill="#00ECBB"/>
<path d="M113.392 138.5C113.428 138.5 113.464 138.5 113.5 138.5C136.63 138.5 156.054 122.637 161.486 101.197C163.157 94.6015 168.516 89.0003 175.321 89.0003H196C196 134.564 159.063 171.501 113.5 171.501C113.464 171.501 113.428 171.5 113.392 171.5V138.5Z" fill="#AF64FF"/>
<path d="M171.837 147.337C156.908 162.266 136.282 171.5 113.501 171.5C90.7192 171.5 70.0932 162.266 55.1637 147.337L78.499 124.002C87.4559 132.96 99.8317 138.5 113.501 138.5C127.169 138.5 139.545 132.96 148.502 124.002L171.837 147.337Z" fill="#7131FF"/>
</svg>
