<svg version="1.1" id="Layer_1" xmlns="http://www.w3.org/2000/svg" xmlns:xlink="http://www.w3.org/1999/xlink" x="0px" y="0px"
     width="100%" viewBox="0 0 148 148" enable-background="new 0 0 148 148" xml:space="preserve">
<path fill="#FBFEFF" opacity="1.000000" stroke="none"
      d="
M149.000000,58.000000
	C149.000000,88.641174 149.000000,118.782349 149.000000,148.961761
	C99.733879,148.961761 50.467712,148.961761 1.100775,148.961761
	C1.100775,99.775726 1.100775,50.551174 1.100775,1.163311
	C50.332893,1.163311 99.666405,1.163311 149.000000,1.163311
	C149.000000,19.865257 149.000000,38.682629 149.000000,58.000000
M101.037460,120.673698
	C96.987068,122.168579 92.936577,123.663185 88.886299,125.158386
	C84.372711,126.824631 82.051506,130.986343 83.143532,135.453506
	C84.200615,139.777695 88.413513,142.261642 93.210381,141.336105
	C94.514229,141.084534 95.801636,140.721497 97.073326,140.333389
	C140.953888,126.941223 160.747498,76.364212 137.424408,36.867516
	C127.663185,20.337284 113.244865,9.622325 94.761604,4.476271
	C87.815788,2.542437 82.343231,6.566433 82.979759,12.941341
	C83.449471,17.645655 86.598938,19.666183 90.797173,20.836903
	C103.471352,24.371237 113.522789,31.652380 121.074760,42.415306
	C122.902458,45.020103 124.175903,47.706108 121.830315,50.610554
	C119.598412,53.374214 116.847473,53.334457 113.731926,52.034576
	C108.282967,49.761139 102.716202,49.683708 97.187218,51.864746
	C85.801270,56.356190 80.125435,68.685760 84.144791,80.145889
	C88.213699,91.747276 100.589478,97.824562 112.465782,93.890907
	C115.928497,92.743980 119.298828,91.452927 121.948181,95.054825
	C124.654358,98.733978 122.500984,102.011398 119.984970,104.378845
	C114.100128,109.916214 107.811890,115.024864 101.037460,120.673698
M69.806023,65.014076
	C64.172989,52.633247 53.094803,47.534477 40.827179,51.885235
	C37.587749,53.034107 34.641235,53.662502 32.232277,50.654705
	C29.548153,47.303341 31.459553,44.419579 33.489853,41.639214
	C41.018291,31.329514 50.883896,24.360283 63.166245,20.807627
	C69.588440,18.950014 72.399147,14.730848 70.763351,9.569106
	C69.222191,4.705962 64.789429,2.973722 58.412487,4.742611
	C19.640068,15.497630 -2.614692,56.877438 10.402862,94.994919
	C18.565849,118.897469 35.351528,134.241394 59.731098,141.063156
	C64.862633,142.499039 68.839478,140.638428 70.525116,136.510727
	C72.588348,131.458389 69.863609,126.588570 63.795219,124.857803
	C51.163792,121.255219 40.955982,114.249153 33.298370,103.552483
	C31.379827,100.872536 29.688089,98.128105 32.160149,94.949890
	C34.551178,91.875847 37.532063,92.474266 40.745617,93.617630
	C49.327938,96.671173 57.308418,95.318680 63.967365,89.099258
	C70.775070,82.740875 72.631027,74.763359 69.806023,65.014076
z"/>
    <path fill="#05D8FF" opacity="1.000000" stroke="none"
          d="
M101.362228,120.490402
	C107.811890,115.024864 114.100128,109.916214 119.984970,104.378845
	C122.500984,102.011398 124.654358,98.733978 121.948181,95.054825
	C119.298828,91.452927 115.928497,92.743980 112.465782,93.890907
	C100.589478,97.824562 88.213699,91.747276 84.144791,80.145889
	C80.125435,68.685760 85.801270,56.356190 97.187218,51.864746
	C102.716202,49.683708 108.282967,49.761139 113.731926,52.034576
	C116.847473,53.334457 119.598412,53.374214 121.830315,50.610554
	C124.175903,47.706108 122.902458,45.020103 121.074760,42.415306
	C113.522789,31.652380 103.471352,24.371237 90.797173,20.836903
	C86.598938,19.666183 83.449471,17.645655 82.979759,12.941341
	C82.343231,6.566433 87.815788,2.542437 94.761604,4.476271
	C113.244865,9.622325 127.663185,20.337284 137.424408,36.867516
	C160.747498,76.364212 140.953888,126.941223 97.073326,140.333389
	C95.801636,140.721497 94.514229,141.084534 93.210381,141.336105
	C88.413513,142.261642 84.200615,139.777695 83.143532,135.453506
	C82.051506,130.986343 84.372711,126.824631 88.886299,125.158386
	C92.936577,123.663185 96.987068,122.168579 101.362228,120.490402
z"/>
    <path fill="#05D8FF" opacity="1.000000" stroke="none"
          d="
M69.922348,65.402237
	C72.631027,74.763359 70.775070,82.740875 63.967365,89.099258
	C57.308418,95.318680 49.327938,96.671173 40.745617,93.617630
	C37.532063,92.474266 34.551178,91.875847 32.160149,94.949890
	C29.688089,98.128105 31.379827,100.872536 33.298370,103.552483
	C40.955982,114.249153 51.163792,121.255219 63.795219,124.857803
	C69.863609,126.588570 72.588348,131.458389 70.525116,136.510727
	C68.839478,140.638428 64.862633,142.499039 59.731098,141.063156
	C35.351528,134.241394 18.565849,118.897469 10.402862,94.994919
	C-2.614692,56.877438 19.640068,15.497630 58.412487,4.742611
	C64.789429,2.973722 69.222191,4.705962 70.763351,9.569106
	C72.399147,14.730848 69.588440,18.950014 63.166245,20.807627
	C50.883896,24.360283 41.018291,31.329514 33.489853,41.639214
	C31.459553,44.419579 29.548153,47.303341 32.232277,50.654705
	C34.641235,53.662502 37.587749,53.034107 40.827179,51.885235
	C53.094803,47.534477 64.172989,52.633247 69.922348,65.402237
z"/>
</svg>