<svg version="1.1" id="Layer_1" xmlns="http://www.w3.org/2000/svg" xmlns:xlink="http://www.w3.org/1999/xlink" x="0px" y="0px"
	 width="100%" viewBox="0 0 512 512" enable-background="new 0 0 512 512" xml:space="preserve">
<path fill="#FFFFFF" opacity="1.000000" stroke="none" 
	d="
M357.000000,513.000000 
	C238.028915,513.000000 119.557816,513.000000 1.043364,513.000000 
	C1.043364,342.403900 1.043364,171.807770 1.043364,1.105819 
	C171.554428,1.105819 342.108948,1.105819 512.831726,1.105819 
	C512.831726,171.666534 512.831726,342.333252 512.831726,513.000000 
	C461.141022,513.000000 409.320526,513.000000 357.000000,513.000000 
M49.179955,249.521271 
	C49.056255,264.156677 48.664841,278.795776 48.864979,293.426758 
	C49.272751,323.237122 63.228298,344.624298 90.490524,356.472412 
	C162.944687,387.960876 235.576584,419.040344 308.137421,450.283325 
	C315.119385,453.289581 322.098969,456.301300 329.453094,459.471466 
	C329.453094,457.758026 329.540863,456.640015 329.440308,455.539246 
	C326.643188,424.919189 313.504639,399.211456 292.288940,377.332794 
	C276.725189,361.282715 257.667175,350.595551 237.723358,341.061584 
	C211.024689,328.298553 184.558990,315.048187 158.372452,301.442535 
	C212.301773,270.457123 266.231110,239.471725 320.584229,208.242813 
	C307.765106,197.464142 294.560852,189.577957 279.955444,184.112015 
	C258.775757,176.185684 236.987320,173.351562 214.424103,175.864380 
	C198.918091,177.591263 183.931946,181.155975 170.007126,188.077789 
	C130.955963,207.489502 92.085434,227.264679 53.158257,246.925400 
	C52.009029,247.505844 51.022682,248.408768 49.179955,249.521271 
M356.062988,212.548340 
	C302.152313,243.529404 248.241638,274.510437 194.175598,305.580780 
	C194.677841,306.256866 194.888504,306.720581 195.244980,306.994781 
	C242.906967,343.662811 294.358887,349.408997 348.503479,323.890045 
	C386.562134,305.952606 423.754242,286.176270 461.322205,267.199097 
	C462.630127,266.538391 463.818787,265.641479 465.648743,264.288269 
	C465.704834,245.798248 465.974426,227.305786 465.761719,208.818863 
	C465.508545,186.811417 455.245575,170.944321 435.008698,162.197052 
	C353.444122,126.941284 271.800690,91.867859 190.183609,56.733612 
	C188.601318,56.052475 186.984589,55.451359 184.820969,54.588360 
	C185.026535,57.563782 185.073792,59.719307 185.337891,61.847923 
	C188.935425,90.844673 201.642517,115.379158 221.817703,136.258667 
	C236.875000,151.841599 255.155930,162.549728 274.513336,171.831985 
	C301.963715,184.994980 329.211487,198.580414 356.062988,212.548340 
z"/>
<path fill="#E07401" opacity="1.000000" stroke="none" 
	d="
M356.545837,211.985321 
	C329.211487,198.580414 301.963715,184.994980 274.513336,171.831985 
	C255.155930,162.549728 236.875000,151.841599 221.817703,136.258667 
	C201.642517,115.379158 188.935425,90.844673 185.337891,61.847923 
	C185.073792,59.719307 185.026535,57.563782 184.820969,54.588360 
	C186.984589,55.451359 188.601318,56.052475 190.183609,56.733612 
	C271.800690,91.867859 353.444122,126.941284 435.008698,162.197052 
	C455.245575,170.944321 465.508545,186.811417 465.761719,208.818863 
	C465.974426,227.305786 465.704834,245.798248 465.103760,264.343384 
	C435.455048,250.184525 406.359558,235.953659 377.241455,221.769135 
	C370.382019,218.427628 363.446411,215.242432 356.545837,211.985321 
z"/>
<path fill="#144664" opacity="1.000000" stroke="none" 
	d="
M157.993256,302.007080 
	C184.558990,315.048187 211.024689,328.298553 237.723358,341.061584 
	C257.667175,350.595551 276.725189,361.282715 292.288940,377.332794 
	C313.504639,399.211456 326.643188,424.919189 329.440308,455.539246 
	C329.540863,456.640015 329.453094,457.758026 329.453094,459.471466 
	C322.098969,456.301300 315.119385,453.289581 308.137421,450.283325 
	C235.576584,419.040344 162.944687,387.960876 90.490524,356.472412 
	C63.228298,344.624298 49.272751,323.237122 48.864979,293.426758 
	C48.664841,278.795776 49.056255,264.156677 49.763878,249.623413 
	C67.524826,258.123627 84.684166,266.558136 101.883675,274.909943 
	C120.567390,283.982422 139.288467,292.977966 157.993256,302.007080 
z"/>
<path fill="#727171" opacity="1.000000" stroke="none" 
	d="
M356.304413,212.266830 
	C363.446411,215.242432 370.382019,218.427628 377.241455,221.769135 
	C406.359558,235.953659 435.455048,250.184525 464.810913,264.626587 
	C463.818787,265.641479 462.630127,266.538391 461.322205,267.199097 
	C423.754242,286.176270 386.562134,305.952606 348.503479,323.890045 
	C294.358887,349.408997 242.906967,343.662811 195.244980,306.994781 
	C194.888504,306.720581 194.677841,306.256866 194.175598,305.580780 
	C248.241638,274.510437 302.152313,243.529404 356.304413,212.266830 
z"/>
<path fill="#CFCDC9" opacity="1.000000" stroke="none" 
	d="
M158.182861,301.724792 
	C139.288467,292.977966 120.567390,283.982422 101.883675,274.909943 
	C84.684166,266.558136 67.524826,258.123627 50.154099,249.443451 
	C51.022682,248.408768 52.009029,247.505844 53.158257,246.925400 
	C92.085434,227.264679 130.955963,207.489502 170.007126,188.077789 
	C183.931946,181.155975 198.918091,177.591263 214.424103,175.864380 
	C236.987320,173.351562 258.775757,176.185684 279.955444,184.112015 
	C294.560852,189.577957 307.765106,197.464142 320.584229,208.242813 
	C266.231110,239.471725 212.301773,270.457123 158.182861,301.724792 
z"/>
</svg>