<?xml version="1.0" encoding="utf-8"?>
<!-- Generator: Adobe Illustrator 17.0.2, SVG Export Plug-In . SVG Version: 6.00 Build 0)  -->
<!DOCTYPE svg PUBLIC "-//W3C//DTD SVG 1.1//EN" "http://www.w3.org/Graphics/SVG/1.1/DTD/svg11.dtd">
<svg version="1.1" id="Layer_1" xmlns="http://www.w3.org/2000/svg" xmlns:xlink="http://www.w3.org/1999/xlink" x="0px" y="0px"
	 width="60px" height="31px" viewBox="0 0 60 31" enable-background="new 0 0 60 31" xml:space="preserve">
<g>
	<path fill="#666666" d="M32.179,0L0,11.731l0.011,7.219l3.882,1.672l2.509,1.073l-0.121-1.617c0.363,0.15,1.684,0.696,2.871,1.187
		v1.621l11.255,4.842l-0.176-1.836c0.995,0.428,2.146,0.924,2.855,1.229c0.004,0.156,0.002,0.362-0.014,0.632l-0.069,1.157
		L27.765,31l19.292-7.146v0l0.827-0.307l1.396-0.517v-0.001l10.408-3.86L60,11.925L32.179,0z"/>
	<path fill="#FF8C40" d="M11.326,22.077l7.139,3.052c0,0-0.176-1.837,0.569-1.516c0.743,0.321,5.348,2.303,5.348,2.303
		s0.426,0.097,0.314,1.968l3.091,1.356v-5.086l-16.462-7.062V22.077z"/>
	<path fill="#52C5E8" d="M1.643,12.935l0.008,4.957l2.879,1.24c0,0-0.135-1.606,0.565-1.304c0.505,0.218,3.083,1.283,4.486,1.863
		l0.024-3.34L1.643,12.935z"/>
	<polygon fill="#59D9F7" points="48.658,16.531 48.668,21.505 58.035,18.031 58.249,13.043 	"/>
	<path fill="#FFB27F" d="M27.788,24.155"/>
	<polygon fill="#FFB27F" points="27.788,29.24 47.059,22.081 47.056,17.111 27.788,24.155 	"/>
	<polygon fill="#FF6600" points="47.056,17.111 39.34,13.766 29.258,17.54 20.421,13.755 11.326,17.093 27.788,24.155 	"/>
	<polygon fill="#46ABD3" points="32.098,1.833 1.643,12.935 9.604,16.351 20.578,12.3 29.408,16.12 37.68,13.047 28.906,9.248 
		30.578,8.666 48.658,16.531 58.249,13.043 	"/>
	<path fill="none" d="M20.586,21.082"/>
	<path fill="none" d="M4.798,14.281"/>
</g>
</svg>
