<?xml version="1.0" encoding="UTF-8"?>
<svg xmlns="http://www.w3.org/2000/svg" width="40px" height="40px" viewBox="0 0 40 40" version="1.1">
    <g id="surface1">
        <path style=" stroke:none;fill-rule:evenodd;fill:rgb(99.607843%,78.039216%,26.27451%);fill-opacity:1;" d="M 31.214844 16.214844 L 31.214844 32.464844 L 32.054688 32.464844 L 32.054688 22.898438 L 32.660156 22.894531 C 33.683594 22.882812 34.167969 22.128906 34.542969 19.960938 C 34.917969 17.800781 35.097656 14.925781 35.097656 11.117188 C 35.101562 6.066406 34.738281 2.476562 34.050781 0.777344 C 33.816406 0.191406 33.707031 0.140625 32.503906 0.0585938 L 31.214844 -0.03125 L 31.214844 16.214844 M 36.011719 4.566406 C 36.269531 7.078125 36.640625 10.605469 36.828125 12.40625 C 37.019531 14.210938 37.175781 15.734375 37.175781 15.796875 C 37.175781 15.910156 35.863281 28.28125 35.550781 31.085938 L 35.402344 32.464844 L 36.417969 32.464844 L 37.050781 26.527344 C 37.398438 23.261719 37.691406 20.589844 37.703125 20.59375 C 37.714844 20.597656 38.011719 23.269531 38.359375 26.53125 L 38.992188 32.464844 L 39.5 32.464844 C 39.964844 32.464844 40 32.425781 39.960938 31.957031 C 39.9375 31.675781 39.542969 27.875 39.082031 23.511719 L 38.246094 15.570312 L 38.984375 8.582031 C 39.386719 4.738281 39.753906 1.234375 39.796875 0.796875 L 39.878906 0 L 39.375 0.00390625 L 38.875 0.0078125 L 38.304688 5.367188 C 37.992188 8.3125 37.71875 10.726562 37.699219 10.726562 C 37.683594 10.726562 37.414062 8.3125 37.101562 5.363281 L 36.539062 0 L 35.535156 0 L 36.011719 4.566406 M 32.054688 11.296875 L 32.054688 17.738281 L 32.792969 17.636719 C 33.511719 17.539062 33.539062 17.511719 33.796875 16.667969 C 34.144531 15.511719 34.261719 14.144531 34.261719 11.1875 C 34.257812 8.375 34.148438 7.125 33.804688 5.964844 C 33.558594 5.136719 33.523438 5.105469 32.800781 4.980469 L 32.054688 4.851562 L 32.054688 11.296875 "/>
        <path style=" stroke:none;fill-rule:evenodd;fill:rgb(36.470588%,40.784314%,44.313725%);fill-opacity:1;" d="M 15.9375 2.753906 L 15.9375 5.507812 L 16.820312 5.507812 L 16.820312 0 L 15.9375 0 L 15.9375 2.753906 M 21.148438 10.175781 C 21.148438 19.199219 21.15625 20.332031 21.214844 20.179688 C 21.253906 20.085938 21.445312 19.550781 21.644531 18.988281 C 21.992188 18.011719 22.015625 17.890625 22.121094 16.445312 C 22.207031 15.246094 22.269531 14.789062 22.425781 14.273438 C 22.652344 13.527344 22.925781 13.4375 23.101562 14.050781 C 23.21875 14.449219 23.253906 14.394531 23.691406 13.128906 L 24.152344 11.789062 L 24.007812 10.785156 C 23.566406 7.742188 22.753906 7.660156 22.257812 10.605469 L 22.03125 11.9375 L 22.03125 0 L 21.148438 0 L 21.148438 10.175781 M 8.257812 2.898438 L 8.257812 5.507812 L 9.183594 5.507812 L 9.183594 0.289062 L 8.257812 0.289062 L 8.257812 2.898438 M 1.960938 1.007812 C 1.058594 2.078125 0.308594 6.730469 0.0664062 12.765625 C -0.0195312 14.84375 -0.0195312 19.421875 0.0664062 21.605469 C 0.269531 26.765625 0.78125 30.53125 1.542969 32.433594 C 1.796875 33.066406 1.902344 33.15625 2.429688 33.171875 C 2.984375 33.1875 3.046875 33.128906 3.40625 32.292969 C 3.613281 31.800781 3.925781 30.78125 4.101562 30.027344 L 4.414062 28.652344 L 4.414062 15.074219 L 2.382812 15.074219 L 2.382812 20 L 3.574219 20 L 3.574219 25.992188 L 3.335938 26.761719 C 2.457031 29.589844 1.480469 27.800781 1.082031 22.628906 C 0.628906 16.757812 1.027344 8.777344 1.878906 6.6875 C 2.367188 5.484375 3.042969 6.128906 3.488281 8.226562 C 3.609375 8.804688 3.714844 9.273438 3.726562 9.273438 C 3.753906 9.273438 4.238281 5.257812 4.238281 5.011719 C 4.238281 4.5625 3.683594 2.320312 3.429688 1.730469 C 3.171875 1.140625 2.660156 0.582031 2.40625 0.613281 C 2.332031 0.625 2.132812 0.800781 1.960938 1.007812 M 24.753906 2.511719 C 24.714844 2.777344 24.714844 9.855469 24.757812 9.855469 C 24.773438 9.855469 24.964844 9.371094 25.175781 8.78125 L 25.5625 7.703125 L 25.5625 2.320312 L 25.171875 2.320312 C 24.957031 2.320312 24.769531 2.40625 24.753906 2.511719 M 29.273438 17.101562 L 29.273438 31.882812 L 29.582031 31.882812 L 29.582031 2.320312 L 29.273438 2.320312 L 29.273438 17.101562 M 11.210938 8.789062 C 10.976562 9.222656 10.746094 10.101562 10.59375 11.167969 L 10.484375 11.9375 L 10.464844 10.535156 L 10.441406 9.128906 L 9.582031 8.964844 L 9.582031 33.0625 L 10.441406 32.898438 L 10.464844 24.925781 C 10.484375 17.617188 10.492188 16.875 10.574219 15.996094 C 10.847656 13.007812 11.585938 12.984375 11.851562 15.953125 C 11.9375 16.886719 11.945312 17.523438 11.957031 25 L 11.96875 33.042969 L 12.808594 33.042969 L 12.792969 23.839844 C 12.78125 14.933594 12.777344 14.589844 12.679688 13.152344 C 12.621094 12.339844 12.511719 11.269531 12.4375 10.777344 C 12.148438 8.949219 11.605469 8.066406 11.210938 8.789062 M 18.3125 8.71875 C 18.21875 8.863281 18.046875 9.308594 17.921875 9.714844 C 16.941406 12.976562 16.746094 22.824219 17.558594 28.003906 C 17.667969 28.703125 17.800781 29.347656 17.851562 29.429688 C 17.910156 29.527344 18.167969 28.941406 18.542969 27.84375 L 19.140625 26.101562 L 18.90625 26.09375 C 18.5 26.082031 18.1875 24.824219 18.003906 22.488281 C 17.871094 20.765625 17.902344 17.609375 18.074219 15.996094 C 18.566406 11.316406 19.820312 13.242188 19.902344 18.804688 C 19.933594 20.910156 19.882812 22.136719 19.710938 23.617188 L 19.558594 24.929688 L 19.6875 24.566406 C 19.757812 24.367188 20.023438 23.617188 20.28125 22.898438 L 20.75 21.59375 L 20.75 8.984375 L 19.910156 8.984375 L 19.910156 12.226562 L 19.6875 10.898438 C 19.332031 8.8125 18.796875 7.964844 18.3125 8.71875 M 5.488281 9.273438 C 5.316406 9.574219 5.113281 10.019531 5.039062 10.269531 L 4.90625 10.71875 L 5.019531 12.894531 C 5.078125 14.09375 5.140625 15.070312 5.160156 15.070312 C 5.175781 15.066406 5.316406 14.789062 5.476562 14.453125 C 5.855469 13.636719 6.402344 13.578125 6.632812 14.320312 C 6.84375 14.992188 6.976562 16.210938 7.007812 17.738281 C 7.03125 18.886719 7.027344 18.925781 6.925781 18.742188 C 6.121094 17.308594 5.296875 18.039062 4.9375 20.503906 C 4.683594 22.226562 4.617188 23.328125 4.617188 25.796875 C 4.617188 27.496094 4.636719 28.234375 4.710938 29.171875 C 5.074219 33.644531 6.097656 34.75 6.808594 31.429688 L 7.015625 30.457031 L 7.027344 31.679688 L 7.042969 32.898438 L 7.835938 32.898438 L 7.835938 15.445312 L 7.683594 13.449219 C 7.507812 11.1875 7.265625 9.890625 6.875 9.132812 C 6.5625 8.519531 5.886719 8.589844 5.488281 9.273438 M 13.835938 9.226562 C 13.28125 10.488281 12.980469 13.859375 13.105469 17.445312 C 13.207031 20.34375 13.460938 21.597656 14.285156 23.316406 C 14.542969 23.859375 14.800781 24.589844 14.859375 24.953125 C 15.011719 25.882812 15.003906 27.300781 14.84375 28.121094 C 14.738281 28.671875 14.679688 28.738281 14.367188 28.648438 C 14.058594 28.5625 13.96875 28.402344 13.660156 27.390625 C 13.46875 26.753906 13.296875 26.234375 13.277344 26.234375 C 13.257812 26.234375 13.164062 27.015625 13.066406 27.972656 L 12.890625 29.710938 L 12.992188 30.25 C 13.3125 31.980469 13.941406 33.332031 14.425781 33.332031 C 15.199219 33.332031 15.691406 30.867188 15.75 26.710938 C 15.777344 24.65625 15.710938 23.210938 15.527344 21.839844 C 15.367188 20.621094 15.136719 19.835938 14.523438 18.410156 C 14.015625 17.214844 13.863281 16.519531 13.863281 15.355469 C 13.863281 12.980469 14.46875 12.5625 15.070312 14.519531 C 15.210938 14.980469 15.335938 15.363281 15.34375 15.363281 C 15.359375 15.363281 15.671875 11.695312 15.671875 11.488281 C 15.671875 11.136719 15.28125 9.871094 14.996094 9.300781 C 14.621094 8.550781 14.148438 8.519531 13.835938 9.226562 M 8.300781 21.015625 L 8.300781 33.042969 L 9.140625 33.042969 L 9.140625 8.984375 L 8.300781 8.984375 L 8.300781 21.015625 M 15.957031 9.347656 C 15.945312 9.546875 15.941406 14.929688 15.949219 21.304688 L 15.960938 32.898438 L 16.800781 32.898438 L 16.8125 20.941406 L 16.820312 8.984375 L 16.402344 8.984375 C 16.105469 8.984375 15.972656 9.09375 15.957031 9.347656 M 5.855469 22.4375 C 5.578125 23.113281 5.460938 24.078125 5.460938 25.636719 C 5.460938 27.953125 5.738281 29.164062 6.21875 28.925781 C 6.714844 28.679688 7.019531 26.929688 7.019531 24.308594 C 7.019531 23.042969 7.011719 22.933594 6.875 22.621094 C 6.636719 22.0625 6.050781 21.957031 5.855469 22.4375 "/>
        <path style=" stroke:none;fill-rule:evenodd;fill:rgb(0%,69.803922%,89.019608%);fill-opacity:1;" d="M 26.667969 4.445312 C 26.144531 5.921875 25.589844 7.527344 25.429688 8.011719 C 25.273438 8.496094 25.046875 9.140625 24.929688 9.445312 L 24.71875 10 L 24.734375 19.421875 C 24.746094 28.410156 24.75 28.894531 24.839844 30 C 24.949219 31.335938 25.039062 31.894531 25.253906 32.628906 C 25.464844 33.347656 25.992188 33.359375 26.300781 32.652344 L 26.535156 32.128906 L 26.535156 29.796875 C 26.535156 27.515625 26.53125 27.472656 26.433594 27.675781 C 26.378906 27.789062 26.214844 27.949219 26.070312 28.027344 C 25.828125 28.160156 25.796875 28.109375 25.695312 27.394531 C 25.585938 26.625 25.585938 26.59375 25.570312 20.160156 L 25.558594 13.699219 L 27.683594 7.769531 L 27.683594 4.753906 C 27.683594 3.09375 27.667969 1.742188 27.648438 1.746094 C 27.628906 1.753906 27.1875 2.964844 26.667969 4.445312 M 23.707031 13.058594 C 23.503906 13.679688 23.3125 14.238281 23.289062 14.296875 C 23.265625 14.359375 23.28125 14.679688 23.328125 15.011719 C 23.503906 16.332031 23.527344 17.503906 23.53125 25.289062 L 23.53125 32.753906 L 24.375 32.753906 L 24.363281 23.550781 C 24.347656 14.621094 24.347656 14.3125 24.25 13.117188 C 24.195312 12.4375 24.132812 11.894531 24.117188 11.90625 C 24.097656 11.917969 23.914062 12.4375 23.707031 13.058594 M 21.554688 19.203125 L 21.148438 20.382812 L 21.148438 32.753906 L 22.03125 32.753906 L 22.03125 25.363281 C 22.03125 21.296875 22.015625 17.984375 21.996094 18 C 21.980469 18.015625 21.78125 18.554688 21.554688 19.203125 M 20.15625 23.210938 C 19.890625 23.996094 19.632812 24.722656 19.582031 24.824219 C 19.53125 24.925781 19.332031 25.496094 19.140625 26.085938 C 18.945312 26.671875 18.589844 27.726562 18.347656 28.417969 L 17.90625 29.683594 L 18.101562 30.261719 C 18.410156 31.171875 18.976562 31.101562 19.296875 30.113281 C 19.429688 29.699219 19.625 28.839844 19.726562 28.203125 L 19.910156 27.046875 L 19.910156 28.324219 C 19.910156 30.554688 19.824219 32.160156 19.628906 33.488281 C 19.417969 34.9375 19.222656 35.363281 18.785156 35.355469 C 18.351562 35.347656 18.054688 34.804688 17.5625 33.109375 C 17.539062 33.023438 17.21875 36.8125 17.21875 37.195312 C 17.21875 37.496094 17.851562 39.164062 18.125 39.582031 C 18.5625 40.257812 19.394531 40.042969 19.742188 39.164062 C 20.257812 37.851562 20.585938 35.292969 20.703125 31.652344 C 20.773438 29.4375 20.765625 21.734375 20.695312 21.761719 C 20.664062 21.773438 20.421875 22.425781 20.15625 23.210938 "/>
    </g>
</svg>
