<svg version="1.1" id="Layer_1" xmlns="http://www.w3.org/2000/svg" xmlns:xlink="http://www.w3.org/1999/xlink" x="0px" y="0px"
	 width="100%" viewBox="0 0 512 512" enable-background="new 0 0 512 512" xml:space="preserve">
<path fill="#000000" opacity="1.000000" stroke="none" 
	d="
M353.000000,513.000000 
	C235.361923,513.000000 118.223839,513.000000 1.042876,513.000000 
	C1.042876,342.403564 1.042876,171.807114 1.042876,1.105330 
	C171.554749,1.105330 342.109589,1.105330 512.832214,1.105330 
	C512.832214,171.666534 512.832214,342.333252 512.832214,513.000000 
	C459.807037,513.000000 406.653534,513.000000 353.000000,513.000000 
M237.085815,68.419693 
	C230.476547,71.929916 223.796066,75.313316 217.272537,78.976219 
	C202.769501,87.119545 188.318924,95.357307 173.895493,103.641106 
	C157.495041,113.060387 141.048492,122.406013 124.812126,132.102081 
	C114.208618,138.434280 102.595757,143.429794 95.194733,154.226959 
	C87.939102,164.812027 82.787201,175.758133 82.877510,189.133224 
	C83.193718,235.963272 82.712730,282.799500 83.154259,329.627502 
	C83.311081,346.261108 91.605049,359.762665 104.417671,369.899963 
	C111.651482,375.623352 120.086021,379.856323 128.090012,384.573425 
	C144.248550,394.096283 160.451309,403.545197 176.693893,412.924042 
	C192.791321,422.219055 209.213959,430.978912 225.026062,440.732056 
	C240.707794,450.404816 257.374298,451.270691 274.305725,446.936920 
	C282.304657,444.889496 289.674347,440.031738 297.036591,435.923096 
	C311.703125,427.738190 326.167328,419.190613 340.715393,410.793396 
	C358.510071,400.522217 376.297760,390.238983 394.102844,379.985901 
	C403.182434,374.757416 412.407471,369.863800 418.701752,360.899628 
	C426.100525,350.362427 431.153046,339.326691 431.088593,326.022217 
	C430.860840,279.024475 431.309204,232.021790 430.832092,185.027786 
	C430.665222,168.589890 422.266235,155.236618 409.721680,145.143677 
	C402.417236,139.266754 393.811310,134.972366 385.657715,130.193329 
	C369.479340,120.710770 353.213531,111.377312 336.974762,101.997955 
	C322.429474,93.596718 307.460510,85.845894 293.424225,76.667587 
	C275.940918,65.235260 257.484192,63.645382 237.085815,68.419693 
z"/>
<path fill="#F05A2B" opacity="1.000000" stroke="none" 
	d="
M237.456848,68.243431 
	C257.484192,63.645382 275.940918,65.235260 293.424225,76.667587 
	C307.460510,85.845894 322.429474,93.596718 336.974762,101.997955 
	C353.213531,111.377312 369.479340,120.710770 385.657715,130.193329 
	C393.811310,134.972366 402.417236,139.266754 409.721680,145.143677 
	C422.266235,155.236618 430.665222,168.589890 430.832092,185.027786 
	C431.309204,232.021790 430.860840,279.024475 431.088593,326.022217 
	C431.153046,339.326691 426.100525,350.362427 418.701752,360.899628 
	C412.407471,369.863800 403.182434,374.757416 394.102844,379.985901 
	C376.297760,390.238983 358.510071,400.522217 340.715393,410.793396 
	C326.167328,419.190613 311.703125,427.738190 297.036591,435.923096 
	C289.674347,440.031738 282.304657,444.889496 274.305725,446.936920 
	C257.374298,451.270691 240.707794,450.404816 225.026062,440.732056 
	C209.213959,430.978912 192.791321,422.219055 176.693893,412.924042 
	C160.451309,403.545197 144.248550,394.096283 128.090012,384.573425 
	C120.086021,379.856323 111.651482,375.623352 104.417671,369.899963 
	C91.605049,359.762665 83.311081,346.261108 83.154259,329.627502 
	C82.712730,282.799500 83.193718,235.963272 82.877510,189.133224 
	C82.787201,175.758133 87.939102,164.812027 95.194733,154.226959 
	C102.595757,143.429794 114.208618,138.434280 124.812126,132.102081 
	C141.048492,122.406013 157.495041,113.060387 173.895493,103.641106 
	C188.318924,95.357307 202.769501,87.119545 217.272537,78.976219 
	C223.796066,75.313316 230.476547,71.929916 237.456848,68.243431 
M300.500183,181.285156 
	C275.669617,181.285858 250.838928,181.333649 226.008514,181.273209 
	C203.913879,181.219406 184.299423,187.393723 168.697388,203.782379 
	C160.049301,212.866455 154.390091,223.764542 149.936401,235.341278 
	C140.216415,260.606903 136.213715,287.049255 134.004578,313.840851 
	C133.492447,320.051849 133.267639,326.286560 132.907806,332.559692 
	C215.524002,332.559692 297.273041,332.559692 379.320282,332.559692 
	C379.320282,304.879211 379.320282,277.484131 379.320282,249.914703 
	C364.482849,249.914703 349.955811,249.914703 334.910156,249.914703 
	C334.910156,262.927612 334.910156,275.515411 334.910156,287.907867 
	C283.179230,287.907867 231.973083,287.907867 180.467407,287.907867 
	C181.875687,272.827332 185.908249,259.067230 192.596359,246.026245 
	C199.750916,232.075729 210.537994,225.485901 226.712509,225.656433 
	C276.035583,226.176437 325.367584,225.845016 374.696136,225.844971 
	C376.628540,225.844971 378.560974,225.844971 380.619934,225.844971 
	C380.619934,210.715591 380.619934,196.299530 380.619934,181.285156 
	C354.065826,181.285156 327.783051,181.285156 300.500183,181.285156 
z"/>
<path fill="#FFFDFC" opacity="1.000000" stroke="none" 
	d="
M301.000214,181.285156 
	C327.783051,181.285156 354.065826,181.285156 380.619934,181.285156 
	C380.619934,196.299530 380.619934,210.715591 380.619934,225.844971 
	C378.560974,225.844971 376.628540,225.844971 374.696136,225.844971 
	C325.367584,225.845016 276.035583,226.176437 226.712509,225.656433 
	C210.537994,225.485901 199.750916,232.075729 192.596359,246.026245 
	C185.908249,259.067230 181.875687,272.827332 180.467407,287.907867 
	C231.973083,287.907867 283.179230,287.907867 334.910156,287.907867 
	C334.910156,275.515411 334.910156,262.927612 334.910156,249.914703 
	C349.955811,249.914703 364.482849,249.914703 379.320282,249.914703 
	C379.320282,277.484131 379.320282,304.879211 379.320282,332.559692 
	C297.273041,332.559692 215.524002,332.559692 132.907806,332.559692 
	C133.267639,326.286560 133.492447,320.051849 134.004578,313.840851 
	C136.213715,287.049255 140.216415,260.606903 149.936401,235.341278 
	C154.390091,223.764542 160.049301,212.866455 168.697388,203.782379 
	C184.299423,187.393723 203.913879,181.219406 226.008514,181.273209 
	C250.838928,181.333649 275.669617,181.285858 301.000214,181.285156 
z"/>
</svg>