<svg version="1.1" id="Layer_1" xmlns="http://www.w3.org/2000/svg" xmlns:xlink="http://www.w3.org/1999/xlink" x="0px" y="0px"
	 width="100%" viewBox="0 0 1900 1900" enable-background="new 0 0 1900 1900" xml:space="preserve">
<path fill="#B7FF07" opacity="1.000000" stroke="none" 
	d="
M1074.000000,1901.000000 
	C716.000000,1901.000000 358.500000,1901.000000 1.000000,1901.000000 
	C1.000000,1267.666626 1.000000,634.333313 1.000000,1.000000 
	C634.333313,1.000000 1267.666626,1.000000 1901.000000,1.000000 
	C1901.000000,634.333313 1901.000000,1267.666626 1901.000000,1901.000000 
	C1625.500000,1901.000000 1350.000000,1901.000000 1074.000000,1901.000000 
M1632.109863,1501.163940 
	C1631.969971,1501.010620 1631.830078,1500.857300 1631.508301,1499.819458 
	C1631.508301,1478.690186 1631.508301,1457.560913 1631.508301,1436.327393 
	C1615.489258,1436.327393 1600.115479,1436.327393 1584.712402,1436.327393 
	C1584.712402,1495.604736 1584.712402,1554.505615 1584.712402,1613.581787 
	C1600.338989,1613.581787 1615.584595,1613.581787 1631.397583,1613.581787 
	C1631.397583,1609.525879 1631.389893,1605.733398 1631.399048,1601.940796 
	C1631.448975,1581.114380 1631.345337,1560.285889 1631.631470,1539.462769 
	C1631.749512,1530.874878 1636.636963,1525.065430 1644.309937,1522.999756 
	C1656.506470,1519.716309 1667.401367,1527.601929 1667.571655,1540.470581 
	C1667.869141,1562.960938 1667.683960,1585.457642 1667.700806,1607.951660 
	C1667.702148,1609.748535 1667.701050,1611.545410 1667.701050,1613.441040 
	C1683.571533,1613.441040 1698.933960,1613.441040 1714.346802,1613.441040 
	C1714.509155,1612.393555 1714.696045,1611.748291 1714.696411,1611.103149 
	C1714.707886,1585.776733 1715.077271,1560.442871 1714.579956,1535.126099 
	C1714.188721,1515.206299 1705.464966,1499.466309 1686.706177,1491.473877 
	C1666.822632,1483.002441 1648.281860,1486.050659 1632.109863,1501.163940 
M979.769958,1254.280518 
	C1037.443115,1187.802734 1092.118652,1118.987671 1141.767212,1046.263428 
	C1188.508057,977.798462 1230.654419,906.710266 1263.523804,830.440796 
	C1294.614624,758.298401 1317.031494,683.930847 1319.363037,604.651611 
	C1319.650269,594.886841 1319.402222,585.106323 1319.402222,575.150757 
	C1181.828857,575.150757 1044.574219,575.150757 907.043945,575.150757 
	C907.043945,671.118103 907.043945,766.840088 907.043945,862.703064 
	C929.163208,862.703064 951.039795,862.703064 973.448730,862.703064 
	C973.448730,787.746094 973.448730,713.169983 973.448730,638.621582 
	C1064.849976,638.621582 1155.715820,638.621582 1246.517212,638.621582 
	C1246.647095,639.366821 1246.785889,639.699036 1246.747437,640.009277 
	C1241.415527,682.974243 1230.275391,724.490051 1215.289307,765.015015 
	C1187.023193,841.452026 1147.551758,912.077881 1103.176392,980.114563 
	C1058.719849,1048.275757 1009.375916,1112.809082 957.466125,1175.418091 
	C950.277588,1184.088379 942.986023,1192.673218 935.541504,1201.536499 
	C933.850891,1199.593628 932.498230,1198.140503 931.256775,1196.597656 
	C902.235168,1160.532593 872.590637,1124.946777 844.352234,1088.278198 
	C793.079590,1021.698364 746.350647,952.045532 707.004578,877.657593 
	C668.851196,805.524536 638.096680,730.725647 626.496277,649.225586 
	C621.347168,613.050354 620.391052,576.807678 627.295471,540.764282 
	C640.917114,469.655426 675.656616,410.471313 731.854004,365.146210 
	C818.268921,295.449432 916.529053,277.067474 1023.233337,304.308746 
	C1086.511230,320.463409 1139.030273,354.926666 1180.682495,405.390839 
	C1189.871704,416.524170 1197.967041,428.560486 1206.831177,440.539246 
	C1226.410767,429.336761 1246.383545,417.909363 1266.615601,406.333618 
	C1265.657471,404.723907 1265.012939,403.591156 1264.321899,402.487640 
	C1232.883667,352.280304 1191.650391,312.061127 1140.672363,281.957733 
	C1069.832520,240.125534 992.759521,224.037888 911.233948,228.340363 
	C851.366821,231.499817 794.905273,247.702789 742.485535,277.001404 
	C669.845825,317.601410 615.355896,375.251892 581.289001,451.447571 
	C551.300598,518.521057 545.460327,588.631348 556.502075,660.678101 
	C563.662598,707.399414 576.624023,752.520996 593.578308,796.556702 
	C624.951477,878.042725 667.559509,953.572327 715.652588,1026.159546 
	C775.571594,1116.595459 843.407227,1200.863770 915.432983,1281.848511 
	C922.020203,1289.255127 928.702026,1296.577637 935.577881,1304.203003 
	C950.378723,1287.475708 964.834595,1271.138184 979.769958,1254.280518 
M308.082031,1612.635254 
	C351.219513,1598.478027 373.995911,1560.535400 369.490936,1512.798096 
	C337.119934,1512.798096 304.717194,1512.798096 272.229340,1512.798096 
	C272.229340,1525.253540 272.229340,1537.451416 272.229340,1549.933838 
	C280.436737,1549.933838 288.248108,1549.933838 296.059448,1549.933838 
	C303.977905,1549.933838 311.896362,1549.933838 319.965149,1549.933838 
	C315.608154,1565.221313 297.702087,1576.506104 277.908264,1576.894897 
	C254.701035,1577.350830 234.937500,1563.735840 227.706161,1542.310791 
	C220.153183,1519.932861 227.719711,1495.935425 246.766525,1482.434082 
	C256.293121,1475.681152 266.998199,1472.593750 278.707306,1472.902710 
	C296.091461,1473.361572 309.873932,1480.895386 320.507935,1494.582275 
	C332.147217,1485.131714 343.343628,1476.040771 356.363831,1465.468994 
	C352.737732,1462.754028 349.531128,1460.820801 346.883972,1458.300049 
	C316.232819,1429.110840 264.627441,1423.707642 225.523651,1445.699951 
	C164.504990,1480.017212 161.926651,1564.448242 220.938721,1601.784912 
	C247.864166,1618.820435 276.982452,1621.201538 308.082031,1612.635254 
M1034.090820,1612.084595 
	C1035.607666,1612.668457 1037.118164,1613.738403 1038.642456,1613.758423 
	C1049.966797,1613.906738 1061.293945,1613.846802 1072.620117,1613.852051 
	C1074.707397,1613.853027 1076.794556,1613.852173 1078.867554,1613.852173 
	C1078.867554,1554.156250 1078.867554,1495.264282 1078.867554,1436.323120 
	C1063.203369,1436.323120 1047.835205,1436.323120 1031.941406,1436.323120 
	C1031.941406,1458.721313 1031.941406,1480.728149 1031.941406,1502.950073 
	C1031.119995,1502.624023 1030.753784,1502.588257 1030.561523,1502.386719 
	C1011.408020,1482.310547 968.502075,1484.023926 947.807983,1509.225464 
	C930.955078,1529.749268 928.457581,1563.938843 942.668335,1588.124512 
	C959.153442,1616.180908 998.984802,1624.913208 1025.569092,1606.219849 
	C1028.434326,1604.205078 1030.926758,1601.659912 1034.059448,1598.957764 
	C1034.059448,1603.526123 1034.059448,1607.344727 1034.090820,1612.084595 
M917.946594,1603.458496 
	C917.946533,1581.958740 917.993713,1560.458740 917.905090,1538.959351 
	C917.887939,1534.812988 917.621460,1530.625244 916.990234,1526.530396 
	C911.643005,1491.840454 869.352051,1475.002686 841.587646,1496.514771 
	C838.630188,1498.806274 836.110718,1501.663208 832.671509,1504.940674 
	C832.671509,1499.809937 832.671509,1495.434082 832.671509,1491.049561 
	C817.341614,1491.049561 802.624084,1491.049561 787.886841,1491.049561 
	C787.886841,1532.067383 787.886841,1572.693726 787.886841,1613.472412 
	C803.487427,1613.472412 818.861206,1613.472412 834.471375,1613.472412 
	C834.569031,1611.629761 834.714355,1610.159424 834.714722,1608.688965 
	C834.719482,1586.689331 834.674133,1564.689697 834.734009,1542.690308 
	C834.741638,1539.888306 834.861145,1536.965942 835.642090,1534.308960 
	C838.014465,1526.237427 846.292969,1521.211182 854.702026,1522.378906 
	C864.543762,1523.745483 870.800781,1530.483032 870.842102,1540.195435 
	C870.938477,1562.861450 870.884705,1585.528076 870.891663,1608.194458 
	C870.892151,1609.952026 870.891724,1611.709473 870.891724,1613.563232 
	C886.868958,1613.563232 902.121704,1613.563232 917.946594,1613.563232 
	C917.946594,1610.338135 917.946594,1607.389038 917.946594,1603.458496 
M540.660217,1616.969116 
	C556.549377,1618.354736 571.849182,1616.420410 586.272400,1609.143677 
	C629.965942,1587.099487 634.618896,1528.289307 594.856018,1500.318604 
	C567.959290,1481.398438 527.742798,1482.585205 501.916718,1503.061035 
	C474.264923,1524.984497 470.320984,1566.376221 493.415070,1592.978516 
	C505.666565,1607.091309 521.463928,1614.452881 540.660217,1616.969116 
M1096.111084,1473.058960 
	C1097.532593,1473.917358 1098.938843,1475.489258 1100.377808,1475.519775 
	C1110.535889,1475.735840 1120.700684,1475.635010 1130.863403,1475.635376 
	C1133.958252,1475.635376 1137.052979,1475.635376 1140.731812,1475.635376 
	C1140.731812,1522.155151 1140.731812,1567.852905 1140.731812,1613.470825 
	C1157.077026,1613.470825 1172.817749,1613.470825 1189.090332,1613.470825 
	C1189.090332,1567.365234 1189.090332,1521.642090 1189.090332,1475.412598 
	C1204.558838,1475.412598 1219.492676,1475.412598 1234.478638,1475.412598 
	C1234.478638,1462.009399 1234.478638,1449.122192 1234.478638,1436.343628 
	C1188.208862,1436.343628 1142.321533,1436.343628 1096.103638,1436.343628 
	C1096.103638,1448.524536 1096.103638,1460.328979 1096.111084,1473.058960 
M719.609619,1551.498657 
	C719.577759,1555.496094 719.839966,1559.524658 719.419250,1563.480713 
	C719.093750,1566.542480 718.473083,1569.825073 717.003723,1572.463745 
	C713.186584,1579.319214 704.797180,1582.132446 696.544128,1579.905640 
	C688.770203,1577.808105 684.120605,1571.566650 684.093201,1562.720093 
	C684.024475,1540.560181 684.074158,1518.400024 684.076294,1496.239868 
	C684.076477,1494.485352 684.076233,1492.730957 684.076233,1491.122559 
	C667.993652,1491.122559 652.608521,1491.122559 637.194702,1491.122559 
	C637.194702,1516.692261 636.759644,1541.856079 637.342163,1566.996216 
	C637.755249,1584.820557 646.533936,1598.642456 662.046082,1607.245239 
	C686.023621,1620.542725 711.083740,1621.091309 736.001831,1610.195068 
	C754.767273,1601.989624 765.860901,1587.335938 766.310486,1566.410767 
	C766.843506,1541.602417 766.442993,1516.773926 766.425476,1491.954224 
	C766.425293,1491.679443 766.135254,1491.404907 765.859314,1490.914917 
	C750.699890,1490.914917 735.435364,1490.914917 719.609802,1490.914917 
	C719.609802,1510.933960 719.609802,1530.716553 719.609619,1551.498657 
M1399.680664,1580.260864 
	C1387.194458,1581.931885 1378.862671,1574.922852 1378.812012,1562.438965 
	C1378.724243,1540.777222 1378.793091,1519.114746 1378.796021,1497.452637 
	C1378.796387,1495.341064 1378.796021,1493.229492 1378.796021,1490.972900 
	C1362.834961,1490.972900 1347.581421,1490.972900 1332.139526,1490.972900 
	C1332.000732,1491.834717 1331.811646,1492.461060 1331.811768,1493.087402 
	C1331.813599,1517.248413 1331.652466,1541.411255 1331.906982,1565.569702 
	C1332.107056,1584.551880 1341.126465,1598.713135 1357.501099,1607.820190 
	C1377.443970,1618.911865 1398.687378,1619.895996 1420.404907,1614.064697 
	C1441.248413,1608.468140 1462.131226,1592.209595 1461.189575,1560.320801 
	C1460.555298,1538.844116 1461.078613,1517.333374 1461.065674,1495.837891 
	C1461.064697,1494.235596 1460.916260,1492.633301 1460.841309,1491.130615 
	C1445.080078,1491.130615 1429.710083,1491.130615 1414.087769,1491.130615 
	C1414.087769,1492.897949 1414.088135,1494.210571 1414.087524,1495.523071 
	C1414.077393,1517.851562 1414.097656,1540.180054 1414.043091,1562.508423 
	C1414.019043,1572.381836 1409.997681,1577.511353 1399.680664,1580.260864 
M1475.068604,1502.518555 
	C1475.068604,1510.125122 1475.068604,1517.731567 1475.068604,1525.933105 
	C1481.532471,1525.933105 1487.424072,1525.933105 1493.704102,1525.933105 
	C1493.704102,1528.160034 1493.696289,1529.797485 1493.705322,1531.434937 
	C1493.786255,1546.253418 1493.576782,1561.080933 1494.028809,1575.888184 
	C1494.574341,1593.762695 1504.123413,1607.122559 1521.075317,1611.897095 
	C1530.695190,1614.606689 1540.999512,1615.230591 1551.055298,1615.913818 
	C1556.667114,1616.295166 1562.401367,1614.874634 1567.942627,1614.280762 
	C1567.942627,1601.585327 1567.942627,1589.984009 1567.942627,1579.079834 
	C1561.746704,1579.079834 1555.791748,1579.588623 1549.970093,1578.925903 
	C1544.915283,1578.350464 1541.225464,1574.728760 1541.100464,1569.542114 
	C1540.753174,1555.126953 1540.979858,1540.697876 1540.979858,1525.832642 
	C1550.110229,1525.832642 1558.860962,1525.832642 1567.920288,1525.832642 
	C1567.920288,1513.999268 1567.920288,1502.609985 1567.920288,1490.636597 
	C1558.937500,1490.636597 1550.047974,1490.636597 1540.773315,1490.636597 
	C1540.773315,1480.118164 1540.773315,1470.174805 1540.773315,1460.058838 
	C1524.872803,1460.058838 1509.377197,1460.058838 1493.396484,1460.058838 
	C1493.396484,1470.451050 1493.396484,1480.362915 1493.396484,1490.918945 
	C1487.042969,1490.918945 1481.168579,1490.918945 1475.068604,1490.918945 
	C1475.068604,1494.895996 1475.068604,1498.210571 1475.068604,1502.518555 
M1316.942993,1513.499268 
	C1316.947510,1507.002686 1317.124634,1500.497803 1316.819580,1494.015869 
	C1316.753540,1492.616333 1315.152710,1490.353760 1313.915894,1490.088501 
	C1300.394897,1487.189209 1289.321655,1491.222168 1281.051270,1502.468384 
	C1280.216431,1503.603271 1279.429565,1504.773315 1278.620483,1505.927124 
	C1278.290405,1505.852051 1277.960449,1505.776855 1277.630371,1505.701782 
	C1277.630371,1500.847412 1277.630371,1495.992920 1277.630371,1490.989990 
	C1262.257324,1490.989990 1247.520630,1490.989990 1232.559814,1490.989990 
	C1232.559814,1531.999268 1232.559814,1572.701660 1232.559814,1613.454590 
	C1248.278076,1613.454590 1263.642944,1613.454590 1279.223389,1613.454590 
	C1279.223389,1596.575806 1279.167114,1580.093384 1279.256592,1563.611816 
	C1279.284546,1558.463745 1279.313477,1553.262573 1280.026367,1548.181763 
	C1281.640503,1536.675659 1289.599976,1529.834961 1301.265869,1529.941284 
	C1306.352051,1529.987549 1311.429810,1530.936157 1316.943115,1531.520752 
	C1316.943115,1526.056396 1316.943115,1520.277466 1316.942993,1513.499268 
M385.987579,1601.484009 
	C385.987579,1605.428711 385.987579,1609.373535 385.987579,1613.525879 
	C401.910431,1613.525879 417.285095,1613.525879 433.002716,1613.525879 
	C433.002716,1611.538940 433.002655,1609.894897 433.002747,1608.250854 
	C433.003510,1590.099487 432.901184,1571.947388 433.036102,1553.796997 
	C433.154724,1537.838989 441.914734,1529.381592 457.699677,1529.958862 
	C461.901672,1530.112427 466.074677,1531.059326 470.610168,1531.690674 
	C470.610168,1518.829346 470.693146,1506.186523 470.476959,1493.548828 
	C470.456207,1492.336060 468.748505,1490.349731 467.527496,1490.083862 
	C455.098633,1487.378296 444.497498,1490.583618 436.248291,1500.539673 
	C434.705872,1502.401245 433.328400,1504.399536 431.147827,1507.302490 
	C431.147827,1501.101074 431.147827,1496.053345 431.147827,1490.926514 
	C415.928650,1490.926514 401.180237,1490.926514 385.987579,1490.926514 
	C385.987579,1527.635132 385.987579,1564.061646 385.987579,1601.484009 
M1761.502075,1621.111938 
	C1765.788818,1621.476318 1770.083374,1622.226929 1774.360962,1622.139771 
	C1796.091675,1621.697144 1810.754639,1600.973511 1804.234375,1580.145020 
	C1799.621704,1565.410034 1785.342651,1555.997559 1769.529175,1557.267944 
	C1752.671997,1558.622192 1740.536133,1569.666382 1738.279297,1585.706787 
	C1736.102295,1601.180420 1744.766602,1614.790283 1761.502075,1621.111938 
z"/>
<path fill="#232020" opacity="1.000000" stroke="none" 
	d="
M979.530151,1254.540649 
	C964.834595,1271.138184 950.378723,1287.475708 935.577881,1304.203003 
	C928.702026,1296.577637 922.020203,1289.255127 915.432983,1281.848511 
	C843.407227,1200.863770 775.571594,1116.595459 715.652588,1026.159546 
	C667.559509,953.572327 624.951477,878.042725 593.578308,796.556702 
	C576.624023,752.520996 563.662598,707.399414 556.502075,660.678101 
	C545.460327,588.631348 551.300598,518.521057 581.289001,451.447571 
	C615.355896,375.251892 669.845825,317.601410 742.485535,277.001404 
	C794.905273,247.702789 851.366821,231.499817 911.233948,228.340363 
	C992.759521,224.037888 1069.832520,240.125534 1140.672363,281.957733 
	C1191.650391,312.061127 1232.883667,352.280304 1264.321899,402.487640 
	C1265.012939,403.591156 1265.657471,404.723907 1266.615601,406.333618 
	C1246.383545,417.909363 1226.410767,429.336761 1206.831177,440.539246 
	C1197.967041,428.560486 1189.871704,416.524170 1180.682495,405.390839 
	C1139.030273,354.926666 1086.511230,320.463409 1023.233337,304.308746 
	C916.529053,277.067474 818.268921,295.449432 731.854004,365.146210 
	C675.656616,410.471313 640.917114,469.655426 627.295471,540.764282 
	C620.391052,576.807678 621.347168,613.050354 626.496277,649.225586 
	C638.096680,730.725647 668.851196,805.524536 707.004578,877.657593 
	C746.350647,952.045532 793.079590,1021.698364 844.352234,1088.278198 
	C872.590637,1124.946777 902.235168,1160.532593 931.256775,1196.597656 
	C932.498230,1198.140503 933.850891,1199.593628 935.541504,1201.536499 
	C942.986023,1192.673218 950.277588,1184.088379 957.466125,1175.418091 
	C1009.375916,1112.809082 1058.719849,1048.275757 1103.176392,980.114563 
	C1147.551758,912.077881 1187.023193,841.452026 1215.289307,765.015015 
	C1230.275391,724.490051 1241.415527,682.974243 1246.747437,640.009277 
	C1246.785889,639.699036 1246.647095,639.366821 1246.517212,638.621582 
	C1155.715820,638.621582 1064.849976,638.621582 973.448730,638.621582 
	C973.448730,713.169983 973.448730,787.746094 973.448730,862.703064 
	C951.039795,862.703064 929.163208,862.703064 907.043945,862.703064 
	C907.043945,766.840088 907.043945,671.118103 907.043945,575.150757 
	C1044.574219,575.150757 1181.828857,575.150757 1319.402222,575.150757 
	C1319.402222,585.106323 1319.650269,594.886841 1319.363037,604.651611 
	C1317.031494,683.930847 1294.614624,758.298401 1263.523804,830.440796 
	C1230.654419,906.710266 1188.508057,977.798462 1141.767212,1046.263428 
	C1092.118652,1118.987671 1037.443115,1187.802734 979.530151,1254.540649 
z"/>
<path fill="#242020" opacity="1.000000" stroke="none" 
	d="
M307.702209,1612.762573 
	C276.982452,1621.201538 247.864166,1618.820435 220.938721,1601.784912 
	C161.926651,1564.448242 164.504990,1480.017212 225.523651,1445.699951 
	C264.627441,1423.707642 316.232819,1429.110840 346.883972,1458.300049 
	C349.531128,1460.820801 352.737732,1462.754028 356.363831,1465.468994 
	C343.343628,1476.040771 332.147217,1485.131714 320.507935,1494.582275 
	C309.873932,1480.895386 296.091461,1473.361572 278.707306,1472.902710 
	C266.998199,1472.593750 256.293121,1475.681152 246.766525,1482.434082 
	C227.719711,1495.935425 220.153183,1519.932861 227.706161,1542.310791 
	C234.937500,1563.735840 254.701035,1577.350830 277.908264,1576.894897 
	C297.702087,1576.506104 315.608154,1565.221313 319.965149,1549.933838 
	C311.896362,1549.933838 303.977905,1549.933838 296.059448,1549.933838 
	C288.248108,1549.933838 280.436737,1549.933838 272.229340,1549.933838 
	C272.229340,1537.451416 272.229340,1525.253540 272.229340,1512.798096 
	C304.717194,1512.798096 337.119934,1512.798096 369.490936,1512.798096 
	C373.995911,1560.535400 351.219513,1598.478027 307.702209,1612.762573 
z"/>
<path fill="#232020" opacity="1.000000" stroke="none" 
	d="
M1034.075195,1611.624023 
	C1034.059448,1607.344727 1034.059448,1603.526123 1034.059448,1598.957764 
	C1030.926758,1601.659912 1028.434326,1604.205078 1025.569092,1606.219849 
	C998.984802,1624.913208 959.153442,1616.180908 942.668335,1588.124512 
	C928.457581,1563.938843 930.955078,1529.749268 947.807983,1509.225464 
	C968.502075,1484.023926 1011.408020,1482.310547 1030.561523,1502.386719 
	C1030.753784,1502.588257 1031.119995,1502.624023 1031.941406,1502.950073 
	C1031.941406,1480.728149 1031.941406,1458.721313 1031.941406,1436.323120 
	C1047.835205,1436.323120 1063.203369,1436.323120 1078.867554,1436.323120 
	C1078.867554,1495.264282 1078.867554,1554.156250 1078.867554,1613.852173 
	C1076.794556,1613.852173 1074.707397,1613.853027 1072.620117,1613.852051 
	C1061.293945,1613.846802 1049.966797,1613.906738 1038.642456,1613.758423 
	C1037.118164,1613.738403 1035.607666,1612.668457 1034.075195,1611.624023 
M980.002258,1549.775513 
	C980.015686,1551.603638 979.928528,1553.438965 980.058350,1555.258789 
	C981.167297,1570.802734 993.891418,1581.363159 1009.777466,1579.963379 
	C1024.562012,1578.660645 1035.631104,1564.501099 1033.761841,1549.282593 
	C1031.803955,1533.342773 1018.184448,1522.292114 1003.292419,1524.560425 
	C990.385498,1526.526123 983.081665,1534.174561 980.002258,1549.775513 
z"/>
<path fill="#242120" opacity="1.000000" stroke="none" 
	d="
M1632.505127,1501.644897 
	C1648.281860,1486.050659 1666.822632,1483.002441 1686.706177,1491.473877 
	C1705.464966,1499.466309 1714.188721,1515.206299 1714.579956,1535.126099 
	C1715.077271,1560.442871 1714.707886,1585.776733 1714.696411,1611.103149 
	C1714.696045,1611.748291 1714.509155,1612.393555 1714.346802,1613.441040 
	C1698.933960,1613.441040 1683.571533,1613.441040 1667.701050,1613.441040 
	C1667.701050,1611.545410 1667.702148,1609.748535 1667.700806,1607.951660 
	C1667.683960,1585.457642 1667.869141,1562.960938 1667.571655,1540.470581 
	C1667.401367,1527.601929 1656.506470,1519.716309 1644.309937,1522.999756 
	C1636.636963,1525.065430 1631.749512,1530.874878 1631.631470,1539.462769 
	C1631.345337,1560.285889 1631.448975,1581.114380 1631.399048,1601.940796 
	C1631.389893,1605.733398 1631.397583,1609.525879 1631.397583,1613.581787 
	C1615.584595,1613.581787 1600.338989,1613.581787 1584.712402,1613.581787 
	C1584.712402,1554.505615 1584.712402,1495.604736 1584.712402,1436.327393 
	C1600.115479,1436.327393 1615.489258,1436.327393 1631.508301,1436.327393 
	C1631.508301,1457.560913 1631.508301,1478.690186 1631.446777,1500.443604 
	C1631.758423,1501.260254 1632.131714,1501.452637 1632.505127,1501.644897 
z"/>
<path fill="#242120" opacity="1.000000" stroke="none" 
	d="
M917.946594,1603.949219 
	C917.946594,1607.389038 917.946594,1610.338135 917.946594,1613.563232 
	C902.121704,1613.563232 886.868958,1613.563232 870.891724,1613.563232 
	C870.891724,1611.709473 870.892151,1609.952026 870.891663,1608.194458 
	C870.884705,1585.528076 870.938477,1562.861450 870.842102,1540.195435 
	C870.800781,1530.483032 864.543762,1523.745483 854.702026,1522.378906 
	C846.292969,1521.211182 838.014465,1526.237427 835.642090,1534.308960 
	C834.861145,1536.965942 834.741638,1539.888306 834.734009,1542.690308 
	C834.674133,1564.689697 834.719482,1586.689331 834.714722,1608.688965 
	C834.714355,1610.159424 834.569031,1611.629761 834.471375,1613.472412 
	C818.861206,1613.472412 803.487427,1613.472412 787.886841,1613.472412 
	C787.886841,1572.693726 787.886841,1532.067383 787.886841,1491.049561 
	C802.624084,1491.049561 817.341614,1491.049561 832.671509,1491.049561 
	C832.671509,1495.434082 832.671509,1499.809937 832.671509,1504.940674 
	C836.110718,1501.663208 838.630188,1498.806274 841.587646,1496.514771 
	C869.352051,1475.002686 911.643005,1491.840454 916.990234,1526.530396 
	C917.621460,1530.625244 917.887939,1534.812988 917.905090,1538.959351 
	C917.993713,1560.458740 917.946533,1581.958740 917.946594,1603.949219 
z"/>
<path fill="#242020" opacity="1.000000" stroke="none" 
	d="
M540.213989,1616.933228 
	C521.463928,1614.452881 505.666565,1607.091309 493.415070,1592.978516 
	C470.320984,1566.376221 474.264923,1524.984497 501.916718,1503.061035 
	C527.742798,1482.585205 567.959290,1481.398438 594.856018,1500.318604 
	C634.618896,1528.289307 629.965942,1587.099487 586.272400,1609.143677 
	C571.849182,1616.420410 556.549377,1618.354736 540.213989,1616.933228 
M523.040588,1546.647217 
	C522.962830,1547.307373 522.874329,1547.966553 522.808838,1548.627930 
	C521.663574,1560.194580 525.284485,1569.781006 535.425659,1575.893921 
	C545.519897,1581.978638 556.085449,1581.845581 566.009521,1575.424805 
	C575.982788,1568.972046 579.267822,1559.120483 577.836182,1547.735352 
	C576.165955,1534.452271 565.441589,1525.098877 551.545288,1524.235474 
	C538.130737,1523.402222 527.304565,1531.626587 523.040588,1546.647217 
z"/>
<path fill="#242120" opacity="1.000000" stroke="none" 
	d="
M1096.107422,1472.596191 
	C1096.103638,1460.328979 1096.103638,1448.524536 1096.103638,1436.343628 
	C1142.321533,1436.343628 1188.208862,1436.343628 1234.478638,1436.343628 
	C1234.478638,1449.122192 1234.478638,1462.009399 1234.478638,1475.412598 
	C1219.492676,1475.412598 1204.558838,1475.412598 1189.090332,1475.412598 
	C1189.090332,1521.642090 1189.090332,1567.365234 1189.090332,1613.470825 
	C1172.817749,1613.470825 1157.077026,1613.470825 1140.731812,1613.470825 
	C1140.731812,1567.852905 1140.731812,1522.155151 1140.731812,1475.635376 
	C1137.052979,1475.635376 1133.958252,1475.635376 1130.863403,1475.635376 
	C1120.700684,1475.635010 1110.535889,1475.735840 1100.377808,1475.519775 
	C1098.938843,1475.489258 1097.532593,1473.917358 1096.107422,1472.596191 
z"/>
<path fill="#242020" opacity="1.000000" stroke="none" 
	d="
M719.609741,1550.999023 
	C719.609802,1530.716553 719.609802,1510.933960 719.609802,1490.914917 
	C735.435364,1490.914917 750.699890,1490.914917 765.859314,1490.914917 
	C766.135254,1491.404907 766.425293,1491.679443 766.425476,1491.954224 
	C766.442993,1516.773926 766.843506,1541.602417 766.310486,1566.410767 
	C765.860901,1587.335938 754.767273,1601.989624 736.001831,1610.195068 
	C711.083740,1621.091309 686.023621,1620.542725 662.046082,1607.245239 
	C646.533936,1598.642456 637.755249,1584.820557 637.342163,1566.996216 
	C636.759644,1541.856079 637.194702,1516.692261 637.194702,1491.122559 
	C652.608521,1491.122559 667.993652,1491.122559 684.076233,1491.122559 
	C684.076233,1492.730957 684.076477,1494.485352 684.076294,1496.239868 
	C684.074158,1518.400024 684.024475,1540.560181 684.093201,1562.720093 
	C684.120605,1571.566650 688.770203,1577.808105 696.544128,1579.905640 
	C704.797180,1582.132446 713.186584,1579.319214 717.003723,1572.463745 
	C718.473083,1569.825073 719.093750,1566.542480 719.419250,1563.480713 
	C719.839966,1559.524658 719.577759,1555.496094 719.609741,1550.999023 
z"/>
<path fill="#232020" opacity="1.000000" stroke="none" 
	d="
M1400.075684,1580.200195 
	C1409.997681,1577.511353 1414.019043,1572.381836 1414.043091,1562.508423 
	C1414.097656,1540.180054 1414.077393,1517.851562 1414.087524,1495.523071 
	C1414.088135,1494.210571 1414.087769,1492.897949 1414.087769,1491.130615 
	C1429.710083,1491.130615 1445.080078,1491.130615 1460.841309,1491.130615 
	C1460.916260,1492.633301 1461.064697,1494.235596 1461.065674,1495.837891 
	C1461.078613,1517.333374 1460.555298,1538.844116 1461.189575,1560.320801 
	C1462.131226,1592.209595 1441.248413,1608.468140 1420.404907,1614.064697 
	C1398.687378,1619.895996 1377.443970,1618.911865 1357.501099,1607.820190 
	C1341.126465,1598.713135 1332.107056,1584.551880 1331.906982,1565.569702 
	C1331.652466,1541.411255 1331.813599,1517.248413 1331.811768,1493.087402 
	C1331.811646,1492.461060 1332.000732,1491.834717 1332.139526,1490.972900 
	C1347.581421,1490.972900 1362.834961,1490.972900 1378.796021,1490.972900 
	C1378.796021,1493.229492 1378.796387,1495.341064 1378.796021,1497.452637 
	C1378.793091,1519.114746 1378.724243,1540.777222 1378.812012,1562.438965 
	C1378.862671,1574.922852 1387.194458,1581.931885 1400.075684,1580.200195 
z"/>
<path fill="#232020" opacity="1.000000" stroke="none" 
	d="
M1475.068604,1502.021851 
	C1475.068604,1498.210571 1475.068604,1494.895996 1475.068604,1490.918945 
	C1481.168579,1490.918945 1487.042969,1490.918945 1493.396484,1490.918945 
	C1493.396484,1480.362915 1493.396484,1470.451050 1493.396484,1460.058838 
	C1509.377197,1460.058838 1524.872803,1460.058838 1540.773315,1460.058838 
	C1540.773315,1470.174805 1540.773315,1480.118164 1540.773315,1490.636597 
	C1550.047974,1490.636597 1558.937500,1490.636597 1567.920288,1490.636597 
	C1567.920288,1502.609985 1567.920288,1513.999268 1567.920288,1525.832642 
	C1558.860962,1525.832642 1550.110229,1525.832642 1540.979858,1525.832642 
	C1540.979858,1540.697876 1540.753174,1555.126953 1541.100464,1569.542114 
	C1541.225464,1574.728760 1544.915283,1578.350464 1549.970093,1578.925903 
	C1555.791748,1579.588623 1561.746704,1579.079834 1567.942627,1579.079834 
	C1567.942627,1589.984009 1567.942627,1601.585327 1567.942627,1614.280762 
	C1562.401367,1614.874634 1556.667114,1616.295166 1551.055298,1615.913818 
	C1540.999512,1615.230591 1530.695190,1614.606689 1521.075317,1611.897095 
	C1504.123413,1607.122559 1494.574341,1593.762695 1494.028809,1575.888184 
	C1493.576782,1561.080933 1493.786255,1546.253418 1493.705322,1531.434937 
	C1493.696289,1529.797485 1493.704102,1528.160034 1493.704102,1525.933105 
	C1487.424072,1525.933105 1481.532471,1525.933105 1475.068604,1525.933105 
	C1475.068604,1517.731567 1475.068604,1510.125122 1475.068604,1502.021851 
z"/>
<path fill="#242120" opacity="1.000000" stroke="none" 
	d="
M1316.943115,1513.998901 
	C1316.943115,1520.277466 1316.943115,1526.056396 1316.943115,1531.520752 
	C1311.429810,1530.936157 1306.352051,1529.987549 1301.265869,1529.941284 
	C1289.599976,1529.834961 1281.640503,1536.675659 1280.026367,1548.181763 
	C1279.313477,1553.262573 1279.284546,1558.463745 1279.256592,1563.611816 
	C1279.167114,1580.093384 1279.223389,1596.575806 1279.223389,1613.454590 
	C1263.642944,1613.454590 1248.278076,1613.454590 1232.559814,1613.454590 
	C1232.559814,1572.701660 1232.559814,1531.999268 1232.559814,1490.989990 
	C1247.520630,1490.989990 1262.257324,1490.989990 1277.630371,1490.989990 
	C1277.630371,1495.992920 1277.630371,1500.847412 1277.630371,1505.701782 
	C1277.960449,1505.776855 1278.290405,1505.852051 1278.620483,1505.927124 
	C1279.429565,1504.773315 1280.216431,1503.603271 1281.051270,1502.468384 
	C1289.321655,1491.222168 1300.394897,1487.189209 1313.915894,1490.088501 
	C1315.152710,1490.353760 1316.753540,1492.616333 1316.819580,1494.015869 
	C1317.124634,1500.497803 1316.947510,1507.002686 1316.943115,1513.998901 
z"/>
<path fill="#242020" opacity="1.000000" stroke="none" 
	d="
M385.987579,1600.986084 
	C385.987579,1564.061646 385.987579,1527.635132 385.987579,1490.926514 
	C401.180237,1490.926514 415.928650,1490.926514 431.147827,1490.926514 
	C431.147827,1496.053345 431.147827,1501.101074 431.147827,1507.302490 
	C433.328400,1504.399536 434.705872,1502.401245 436.248291,1500.539673 
	C444.497498,1490.583618 455.098633,1487.378296 467.527496,1490.083862 
	C468.748505,1490.349731 470.456207,1492.336060 470.476959,1493.548828 
	C470.693146,1506.186523 470.610168,1518.829346 470.610168,1531.690674 
	C466.074677,1531.059326 461.901672,1530.112427 457.699677,1529.958862 
	C441.914734,1529.381592 433.154724,1537.838989 433.036102,1553.796997 
	C432.901184,1571.947388 433.003510,1590.099487 433.002747,1608.250854 
	C433.002655,1609.894897 433.002716,1611.538940 433.002716,1613.525879 
	C417.285095,1613.525879 401.910431,1613.525879 385.987579,1613.525879 
	C385.987579,1609.373535 385.987579,1605.428711 385.987579,1600.986084 
z"/>
<path fill="#27291F" opacity="1.000000" stroke="none" 
	d="
M1761.106689,1621.027344 
	C1744.766602,1614.790283 1736.102295,1601.180420 1738.279297,1585.706787 
	C1740.536133,1569.666382 1752.671997,1558.622192 1769.529175,1557.267944 
	C1785.342651,1555.997559 1799.621704,1565.410034 1804.234375,1580.145020 
	C1810.754639,1600.973511 1796.091675,1621.697144 1774.360962,1622.139771 
	C1770.083374,1622.226929 1765.788818,1621.476318 1761.106689,1621.027344 
M1794.151123,1572.425415 
	C1784.274292,1560.689453 1767.166870,1558.382568 1755.123657,1567.162720 
	C1743.475220,1575.655273 1740.299316,1592.739624 1748.060669,1605.155396 
	C1756.080444,1617.984863 1774.231689,1621.968872 1787.188232,1613.743896 
	C1800.852661,1605.069214 1804.085693,1587.261597 1794.151123,1572.425415 
z"/>
<path fill="#B6FC09" opacity="1.000000" stroke="none" 
	d="
M980.031128,1549.332031 
	C983.081665,1534.174561 990.385498,1526.526123 1003.292419,1524.560425 
	C1018.184448,1522.292114 1031.803955,1533.342773 1033.761841,1549.282593 
	C1035.631104,1564.501099 1024.562012,1578.660645 1009.777466,1579.963379 
	C993.891418,1581.363159 981.167297,1570.802734 980.058350,1555.258789 
	C979.928528,1553.438965 980.015686,1551.603638 980.031128,1549.332031 
z"/>
<path fill="#B7FF07" opacity="1.000000" stroke="none" 
	d="
M1632.307495,1501.404419 
	C1632.131714,1501.452637 1631.758423,1501.260254 1631.537598,1500.885986 
	C1631.830078,1500.857300 1631.969971,1501.010620 1632.307495,1501.404419 
z"/>
<path fill="#B6FC09" opacity="1.000000" stroke="none" 
	d="
M523.080322,1546.238281 
	C527.304565,1531.626587 538.130737,1523.402222 551.545288,1524.235474 
	C565.441589,1525.098877 576.165955,1534.452271 577.836182,1547.735352 
	C579.267822,1559.120483 575.982788,1568.972046 566.009521,1575.424805 
	C556.085449,1581.845581 545.519897,1581.978638 535.425659,1575.893921 
	C525.284485,1569.781006 521.663574,1560.194580 522.808838,1548.627930 
	C522.874329,1547.966553 522.962830,1547.307373 523.080322,1546.238281 
z"/>
<path fill="#B5F70B" opacity="1.000000" stroke="none" 
	d="
M1794.367920,1572.714233 
	C1804.085693,1587.261597 1800.852661,1605.069214 1787.188232,1613.743896 
	C1774.231689,1621.968872 1756.080444,1617.984863 1748.060669,1605.155396 
	C1740.299316,1592.739624 1743.475220,1575.655273 1755.123657,1567.162720 
	C1767.166870,1558.382568 1784.274292,1560.689453 1794.367920,1572.714233 
M1787.213257,1580.283813 
	C1784.691895,1577.910645 1782.406982,1573.892578 1779.602417,1573.489502 
	C1772.693726,1572.496582 1765.546387,1573.164429 1758.355347,1573.164429 
	C1758.355347,1584.392944 1758.355347,1595.276978 1758.355347,1606.489258 
	C1761.172119,1606.489258 1763.713257,1606.489258 1766.924072,1606.489258 
	C1766.924072,1602.166992 1766.924072,1598.130859 1766.924072,1594.172729 
	C1776.503418,1593.363525 1777.410034,1593.911621 1778.527832,1600.726685 
	C1779.649292,1607.563843 1780.226196,1607.902100 1787.810303,1605.970947 
	C1785.652344,1600.791870 1788.553223,1593.761841 1781.302612,1590.493530 
	C1785.840698,1588.569824 1788.174316,1585.740967 1787.213257,1580.283813 
z"/>
<path fill="#27291F" opacity="1.000000" stroke="none" 
	d="
M1787.291748,1580.651123 
	C1788.174316,1585.740967 1785.840698,1588.569824 1781.302612,1590.493530 
	C1788.553223,1593.761841 1785.652344,1600.791870 1787.810303,1605.970947 
	C1780.226196,1607.902100 1779.649292,1607.563843 1778.527832,1600.726685 
	C1777.410034,1593.911621 1776.503418,1593.363525 1766.924072,1594.172729 
	C1766.924072,1598.130859 1766.924072,1602.166992 1766.924072,1606.489258 
	C1763.713257,1606.489258 1761.172119,1606.489258 1758.355347,1606.489258 
	C1758.355347,1595.276978 1758.355347,1584.392944 1758.355347,1573.164429 
	C1765.546387,1573.164429 1772.693726,1572.496582 1779.602417,1573.489502 
	C1782.406982,1573.892578 1784.691895,1577.910645 1787.291748,1580.651123 
M1777.768433,1586.347656 
	C1777.943359,1584.549316 1778.629517,1581.326416 1778.212769,1581.176758 
	C1774.734009,1579.928345 1771.052246,1579.245850 1767.127197,1578.320557 
	C1767.127197,1582.165161 1767.127197,1584.703735 1767.127197,1587.956665 
	C1770.708374,1587.549805 1773.905518,1587.186646 1777.768433,1586.347656 
z"/>
<path fill="#B5F70B" opacity="1.000000" stroke="none" 
	d="
M1777.435547,1586.585449 
	C1773.905518,1587.186646 1770.708374,1587.549805 1767.127197,1587.956665 
	C1767.127197,1584.703735 1767.127197,1582.165161 1767.127197,1578.320557 
	C1771.052246,1579.245850 1774.734009,1579.928345 1778.212769,1581.176758 
	C1778.629517,1581.326416 1777.943359,1584.549316 1777.435547,1586.585449 
z"/>
</svg>