<?xml version="1.0" encoding="utf-8"?>
<!-- Generator: Adobe Illustrator 19.2.1, SVG Export Plug-In . SVG Version: 6.00 Build 0)  -->
<svg version="1.1" id="layer" xmlns="http://www.w3.org/2000/svg" xmlns:xlink="http://www.w3.org/1999/xlink" x="0px" y="0px"
	 viewBox="0 0 652 652" style="enable-background:new 0 0 652 652;" xml:space="preserve">
<style type="text/css">
	.st0{fill:#253F53;}
	.st1{fill:#294DFF;}
	.st2{fill:#1F95FF;}
	.st3{fill:#5FBBFF;}
</style>
<path class="st0" d="M233.5,290.1h16.4v72.7h-16.4V332H206v30.9h-16.4v-72.7H206V318h27.5V290.1z M312.7,361
	c-2.7,0.8-6.1,1.5-10.3,2.2c-4.2,0.7-8.6,1-13.2,1c-4.7,0-8.6-0.6-11.7-1.9c-3.1-1.3-5.6-3-7.4-5.3c-1.8-2.3-3.1-5-3.9-8.1
	c-0.8-3.2-1.2-6.6-1.2-10.4v-30.7h15.6v28.9c0,5,0.7,8.7,2,10.9c1.3,2.2,3.8,3.4,7.5,3.4c1.1,0,2.3-0.1,3.6-0.2
	c1.1-0.1,2.2-0.2,3.4-0.4v-42.6h15.6V361z M378.7,335.3c0,4.4-0.6,8.4-1.9,12c-1.3,3.6-3.2,6.6-5.6,9.1c-2.5,2.5-5.5,4.5-9,5.8
	c-3.6,1.4-7.6,2-12.2,2c-2,0-4-0.1-5.9-0.3c-2-0.2-4.1-0.4-6.1-0.7c-1.9-0.3-3.8-0.6-5.7-1c-1.6-0.3-3.2-0.7-4.8-1.2v-70.8l15.6-2.5
	v21.2c1.8-0.8,3.6-1.4,5.5-1.8c1.9-0.4,3.9-0.6,6.1-0.6c3.9,0,7.4,0.7,10.4,2c3,1.4,5.5,3.3,7.6,5.8c2,2.5,3.6,5.5,4.6,9.1
	C378.2,327,378.7,330.9,378.7,335.3 M362.8,334.8c0-10.1-3.7-15.1-11.1-15.1c-1.6,0-3.2,0.2-4.8,0.6c-1.6,0.4-2.9,0.9-3.8,1.6v28.4
	c0.8,0.1,1.7,0.3,2.9,0.4c1.2,0.1,2.5,0.2,3.9,0.2c4.3,0,7.5-1.5,9.7-4.4C361.7,343.6,362.8,339.7,362.8,334.8 M406.6,351.6
	c2.9,0,4.9-0.3,6.1-0.8c1.2-0.6,1.8-1.6,1.8-3.3c0-1.3-0.8-2.4-2.3-3.3c-1.5-0.9-3.9-2-7-3.2c-2.4-0.9-4.7-1.9-6.7-2.8
	c-2-1-3.7-2.2-5.1-3.5c-1.4-1.4-2.5-3-3.3-4.9c-0.8-1.9-1.2-4.2-1.2-6.8c0-5.2,1.9-9.3,5.8-12.3c3.8-3,9.1-4.5,15.8-4.5
	c3.4,0,6.6,0.3,9.7,0.9c3.1,0.6,5.5,1.2,7.3,1.9l-2.7,12.2c-1.9-0.7-3.9-1.2-5.9-1.7c-2.1-0.5-4.5-0.7-7.2-0.7
	c-4.9,0-7.3,1.4-7.3,4.1c0,0.6,0.1,1.2,0.3,1.7c0.2,0.5,0.6,1,1.3,1.4c0.6,0.5,1.5,0.9,2.6,1.5c1.1,0.5,2.5,1.1,4.1,1.7
	c3.4,1.3,6.3,2.5,8.5,3.8c2.2,1.2,4,2.6,5.3,4c1.3,1.4,2.2,3,2.7,4.8c0.5,1.7,0.8,3.8,0.8,6.1c0,5.4-2,9.6-6.1,12.4
	c-4.1,2.8-9.9,4.2-17.4,4.2c-4.9,0-9-0.4-12.2-1.3c-3.3-0.8-5.5-1.5-6.8-2.1l2.6-12.7c2.7,1,5.4,1.9,8.2,2.5
	C401.2,351.3,403.9,351.6,406.6,351.6 M441.2,290.3l15.6-2.5v19.9h18.8v13h-18.8v19.4c0,3.3,0.6,5.9,1.7,7.9c1.2,2,3.5,2.9,7,2.9
	c1.7,0,3.4-0.2,5.2-0.5c1.8-0.3,3.4-0.8,4.9-1.3l2.2,12.2c-1.9,0.8-4,1.4-6.3,2c-2.3,0.6-5.1,0.8-8.5,0.8c-4.3,0-7.8-0.6-10.6-1.7
	c-2.8-1.2-5-2.8-6.7-4.8c-1.7-2.1-2.9-4.6-3.5-7.5c-0.7-2.9-1-6.2-1-9.8L441.2,290.3L441.2,290.3z M506,306.2
	c4.6,0,8.5,0.5,11.5,1.6c3.1,1,5.5,2.6,7.4,4.5c1.9,2,3.2,4.3,3.9,7.1c0.8,2.8,1.2,5.9,1.2,9.3v32.5c-2.2,0.5-5.4,1.1-9.3,1.7
	c-4,0.7-8.8,1-14.5,1c-3.6,0-6.8-0.3-9.7-0.9c-2.9-0.6-5.4-1.7-7.5-3.1c-2.1-1.4-3.7-3.3-4.8-5.6c-1.1-2.3-1.7-5.1-1.7-8.5
	c0-3.2,0.6-5.9,1.9-8.2c1.3-2.2,3-4,5.2-5.4c2.2-1.3,4.7-2.3,7.5-2.9c2.9-0.6,5.8-0.9,8.7-0.9c2,0,3.8,0.1,5.4,0.3
	c1.6,0.2,2.9,0.4,3.8,0.7V328c0-2.7-0.8-4.8-2.4-6.4c-1.6-1.6-4.4-2.4-8.4-2.4c-2.7,0-5.3,0.2-7.9,0.6c-2.6,0.4-4.8,0.9-6.7,1.6
	l-2-12.6c0.9-0.3,2-0.6,3.4-0.9c1.4-0.3,2.9-0.6,4.5-0.8c1.7-0.3,3.4-0.5,5.1-0.6C502.4,306.3,504.2,306.2,506,306.2 M507.3,352
	c1.5,0,3,0,4.4-0.1c1.4-0.1,2.5-0.2,3.4-0.3v-11.9c-0.6-0.1-1.6-0.3-2.8-0.4c-1.1-0.1-2.3-0.2-3.5-0.2c-1.5,0-2.9,0.1-4.1,0.3
	c-1.3,0.2-2.4,0.5-3.4,1c-1,0.5-1.8,1.2-2.3,2c-0.6,0.8-0.8,1.9-0.8,3.1c0,2.5,0.8,4.1,2.5,5.1C502.2,351.5,504.4,352,507.3,352
	 M568.2,288c2.9,0,5.6,0.3,8.1,0.9c2.4,0.6,4.3,1.2,5.7,1.7l-3,12.5c-1.5-0.6-3-1.1-4.6-1.4c-1.6-0.3-3.2-0.5-4.6-0.5
	c-1.9,0-3.5,0.3-4.8,0.8c-1.3,0.5-2.3,1.2-3,2.2c-0.7,0.9-1.3,2-1.6,3.3c-0.3,1.3-0.5,2.6-0.5,4.1v2.7h19.3v13h-19.3v35.6h-15.6
	v-51.5c0-7.1,2-12.8,6-17C554.3,290.1,560.3,288,568.2,288 M612.1,288c2.9,0,5.6,0.3,8.1,0.9c2.4,0.6,4.3,1.2,5.7,1.7l-3,12.5
	c-1.5-0.6-3-1.1-4.6-1.4c-1.6-0.3-3.2-0.5-4.6-0.5c-1.9,0-3.5,0.3-4.8,0.8c-1.3,0.5-2.3,1.2-3,2.2c-0.7,0.9-1.3,2-1.6,3.3
	c-0.3,1.3-0.5,2.6-0.5,4.1v2.7h19.3v13h-19.3v35.6h-15.6v-51.5c0-7.1,2-12.8,6-17C598.3,290.1,604.2,288,612.1,288"/>
<path class="st1" d="M41.3,372.9l28.5,16.5c1.6,0.9,3.6,0.5,4.8-0.9c3.6-4.3,9-7.1,15.1-7.1c6.1,0,11.5,2.8,15.1,7.1
	c1.2,1.4,3.2,1.9,4.8,0.9l28.6-16.6c1.9-1.1,2.4-3.6,1.2-5.4c-1.4-2.1-2.9-4-4.5-5.9c-4.3-5-9.5-9-15.2-12.3l-3.8-2.2l-0.2-0.1
	c-0.2-0.1-0.4-0.2-0.7-0.3c-1.2-0.5-2.6-0.3-3.5,0.7c-5.4,5.9-13.2,9.6-21.8,9.6c-8.6,0-16.4-3.7-21.8-9.6c-0.9-1-2.3-1.2-3.4-0.7
	l0,0l-4.5,2.6c-7.2,4.1-13.5,9.6-18.4,16.2c-0.5,0.7-1,1.4-1.5,2.1C38.8,369.4,39.4,371.9,41.3,372.9"/>
<path class="st2" d="M45.9,279c-1.6,0.9-2.3,2.9-1.6,4.6c2,5.3,1.7,11.4-1.4,16.7c-3.1,5.3-8.2,8.6-13.8,9.5
	c-1.8,0.3-3.2,1.8-3.2,3.7l0,32.8c0,2.1,1.8,3.9,4,3.7c8.4-0.5,16.6-2.9,24-6.8l3.5-2c0.9-0.6,1.9-1.2,2.8-1.8
	c1.1-0.7,1.5-2.1,1.2-3.3c-2.3-7.6-1.6-16,2.7-23.4c4.3-7.4,11.4-12.2,19.1-14c1.2-0.3,2.2-1.3,2.3-2.6c0.1-1.5,0.2-3,0.3-4.6l0-2.3
	c-0.1-8.6-2.2-17.2-5.9-24.9c-0.9-1.9-3.4-2.6-5.2-1.6L45.9,279z"/>
<path class="st3" d="M136.4,300.3c-3.1-5.3-3.4-11.4-1.4-16.7c0.6-1.7,0-3.7-1.6-4.6l-28.7-16.4c-1.9-1.1-4.3-0.4-5.2,1.6
	c-3.8,7.8-5.8,16.3-5.9,24.9l0,2.3c0,1.5,0.1,3,0.3,4.6c0.1,1.3,1.1,2.3,2.3,2.6c7.8,1.7,14.8,6.5,19.1,14c4.3,7.4,5,15.9,2.7,23.4
	c-0.4,1.2,0.1,2.6,1.2,3.3c0.9,0.6,1.8,1.2,2.8,1.8l3.5,2c7.4,3.9,15.6,6.3,24,6.8c2.1,0.1,3.9-1.6,3.9-3.7l0-32.8
	c0-1.8-1.3-3.4-3.2-3.7C144.6,308.8,139.4,305.5,136.4,300.3"/>
</svg>
