<svg width="95" height="95" xmlns="http://www.w3.org/2000/svg">
    <defs></defs>
    <path style="fill:#ffffff; stroke:none;" d="M0 0L0 95L95 95L95 0L0 0z"></path>
    <path style="fill:#fec6b5; stroke:none;" d="M 41.457 2.18 L 42.123 2.513 L 41.457 2.18 Z"></path>
    <path style="fill:#fdac92; stroke:none;" d="M 42.79 1.847 L 42.79 2.847 L 50.79 2.847 L 42.79 1.847 Z"></path>
    <path style="fill:#fec6b5; stroke:none;" d="M 51.457 2.18 L 52.123 2.513 L 51.457 2.18 M 35.79 2.847 L 36.79 3.847 L 35.79 2.847 Z"></path>
    <path style="fill:#fdac92; stroke:none;" d="M 36.79 2.847 L 37.79 3.847 L 36.79 2.847 Z"></path>
    <path style="fill:#fd8960; stroke:none;" d="M 37.79 2.847 L 38.79 3.847 L 37.79 2.847 Z"></path>
    <path style="fill:#fd631f; stroke:none;" d="M 38.79 3.286 C 3.338 8.869 -9.903 54.806 14.964 79.673 C 25.751 90.461 41.107 93.889 55.79 91.55 C 85.211 86.864 99.58 52.349 86.819 26.847 C 77.892 9.006 58.097 0.246 38.79 3.286 Z"></path>
    <path style="fill:#fd8960; stroke:none;" d="M 54.79 2.847 L 55.79 3.847 L 54.79 2.847 Z"></path>
    <path style="fill:#fdac92; stroke:none;" d="M 55.79 2.847 L 56.79 3.847 L 55.79 2.847 Z"></path>
    <path style="fill:#fec6b5; stroke:none;" d="M 56.79 2.847 L 57.79 3.847 L 56.79 2.847 Z"></path>
    <path style="fill:#fdac92; stroke:none;" d="M 32.79 3.847 L 33.79 4.847 L 32.79 3.847 M 59.79 3.847 L 60.79 4.847 L 59.79 3.847 Z"></path>
    <path style="fill:#fec6b5; stroke:none;" d="M 60.79 3.847 L 61.79 4.847 L 60.79 3.847 Z"></path>
    <path style="fill:#fdac92; stroke:none;" d="M 29.79 4.847 L 30.79 5.847 L 29.79 4.847 M 62.79 4.847 L 63.79 5.847 L 62.79 4.847 Z"></path>
    <path style="fill:#fd8960; stroke:none;" d="M 27.79 5.847 L 28.79 6.847 L 27.79 5.847 M 64.79 5.847 L 65.79 6.847 L 64.79 5.847 M 25.79 6.847 L 26.79 7.847 L 25.79 6.847 M 66.79 6.847 L 67.79 7.847 L 66.79 6.847 Z"></path>
    <path style="fill:#fdac92; stroke:none;" d="M 23.79 7.847 L 24.79 8.847 L 23.79 7.847 M 68.79 7.847 L 69.79 8.847 L 68.79 7.847 Z"></path>
    <path style="fill:#fec6b5; stroke:none;" d="M 21.79 8.847 L 22.79 9.847 L 21.79 8.847 M 70.79 8.847 L 71.79 9.847 L 70.79 8.847 Z"></path>
    <path style="fill:#fd8960; stroke:none;" d="M 20.79 9.847 L 21.79 10.847 L 20.79 9.847 M 71.79 9.847 L 72.79 10.847 L 71.79 9.847 Z"></path>
    <path style="fill:#fec6b5; stroke:none;" d="M 18.79 10.847 L 19.79 11.847 L 18.79 10.847 M 73.79 10.847 L 74.79 11.847 L 73.79 10.847 Z"></path>
    <path style="fill:#fdac92; stroke:none;" d="M 17.79 11.847 L 18.79 12.847 L 17.79 11.847 Z"></path>
    <path style="fill:#fec6b5; stroke:none;" d="M 74.79 11.847 L 75.79 12.847 L 74.79 11.847 Z"></path>
    <path style="fill:#fdac92; stroke:none;" d="M 16.79 12.847 L 17.79 13.847 L 16.79 12.847 Z"></path>
    <path style="fill:#fd8960; stroke:none;" d="M 44.79 12.847 L 44.79 13.847 L 48.79 13.847 L 44.79 12.847 M 75.79 12.847 L 76.79 13.847 L 75.79 12.847 M 15.79 13.847 L 16.79 14.847 L 15.79 13.847 M 35.79 13.847 L 36.79 14.847 L 35.79 13.847 Z"></path>
    <path style="fill:#fdac92; stroke:none;" d="M 36.79 13.847 L 37.79 14.847 L 36.79 13.847 Z"></path>
    <path style="fill:#fec6b5; stroke:none;" d="M 38.457 14.18 L 39.123 14.513 L 38.457 14.18 Z"></path>
    <path style="fill:#ffffff; stroke:none;" d="M 39.79 14.275 C 33.039 15.244 25.882 16.855 20.978 21.952 C 10.354 32.994 10.26 61.234 20.319 72.662 C 28.044 81.437 44.039 81.958 54.79 80.558 C 79.499 77.339 89.475 43.335 74.371 23.862 C 66.871 14.194 51.092 12.652 39.79 14.275 Z"></path>
    <path style="fill:#fec6b5; stroke:none;" d="M 54.457 14.18 L 55.123 14.513 L 54.457 14.18 Z"></path>
    <path style="fill:#fdac92; stroke:none;" d="M 55.79 13.847 L 56.79 14.847 L 55.79 13.847 Z"></path>
    <path style="fill:#fd8960; stroke:none;" d="M 56.79 13.847 L 57.79 14.847 L 56.79 13.847 M 76.79 13.847 L 77.79 14.847 L 76.79 13.847 M 14.79 14.847 L 15.79 15.847 L 14.79 14.847 M 31.79 14.847 L 32.79 15.847 L 31.79 14.847 Z"></path>
    <path style="fill:#fec6b5; stroke:none;" d="M 32.79 14.847 L 33.79 15.847 L 32.79 14.847 M 59.79 14.847 L 60.79 15.847 L 59.79 14.847 Z"></path>
    <path style="fill:#fd8960; stroke:none;" d="M 60.79 14.847 L 61.79 15.847 L 60.79 14.847 M 77.79 14.847 L 78.79 15.847 L 77.79 14.847 M 13.79 15.847 L 14.79 16.847 L 13.79 15.847 M 28.79 15.847 L 29.79 16.847 L 28.79 15.847 Z"></path>
    <path style="fill:#fec6b5; stroke:none;" d="M 29.79 15.847 L 30.79 16.847 L 29.79 15.847 M 62.79 15.847 L 63.79 16.847 L 62.79 15.847 Z"></path>
    <path style="fill:#fd8960; stroke:none;" d="M 63.79 15.847 L 64.79 16.847 L 63.79 15.847 M 78.79 15.847 L 79.79 16.847 L 78.79 15.847 M 12.79 16.847 L 13.79 17.847 L 12.79 16.847 Z"></path>
    <path style="fill:#fdac92; stroke:none;" d="M 26.79 16.847 L 27.79 17.847 L 26.79 16.847 Z"></path>
    <path style="fill:#fec6b5; stroke:none;" d="M 65.79 16.847 L 66.79 17.847 L 65.79 16.847 Z"></path>
    <path style="fill:#fd8960; stroke:none;" d="M 79.79 16.847 L 80.79 17.847 L 79.79 16.847 Z"></path>
    <path style="fill:#fdac92; stroke:none;" d="M 11.79 17.847 L 12.79 18.847 L 11.79 17.847 M 24.79 17.847 L 25.79 18.847 L 24.79 17.847 Z"></path>
    <path style="fill:#fec6b5; stroke:none;" d="M 67.79 17.847 L 68.79 18.847 L 67.79 17.847 Z"></path>
    <path style="fill:#fdac92; stroke:none;" d="M 80.79 17.847 L 81.79 18.847 L 80.79 17.847 Z"></path>
    <path style="fill:#fec6b5; stroke:none;" d="M 10.79 18.847 L 11.79 19.847 L 10.79 18.847 Z"></path>
    <path style="fill:#fd8960; stroke:none;" d="M 22.79 18.847 L 23.79 19.847 L 22.79 18.847 M 69.79 18.847 L 70.79 19.847 L 69.79 18.847 Z"></path>
    <path style="fill:#fec6b5; stroke:none;" d="M 81.79 18.847 L 82.79 19.847 L 81.79 18.847 Z"></path>
    <path style="fill:#fdac92; stroke:none;" d="M 21.79 19.847 L 22.79 20.847 L 21.79 19.847 Z"></path>
    <path style="fill:#fec6b5; stroke:none;" d="M 41.79 19.847 L 41.79 20.847 L 45.79 20.847 L 41.79 19.847 Z"></path>
    <path style="fill:#fdac92; stroke:none;" d="M 46.457 20.18 L 47.123 20.513 L 46.457 20.18 Z"></path>
    <path style="fill:#fec6b5; stroke:none;" d="M 47.79 19.847 L 47.79 20.847 L 51.79 20.847 L 47.79 19.847 M 70.79 19.847 L 71.79 20.847 L 70.79 19.847 M 20.79 20.847 L 21.79 21.847 L 20.79 20.847 M 35.457 21.18 L 36.123 21.513 L 35.457 21.18 Z"></path>
    <path style="fill:#fd8960; stroke:none;" d="M 37.457 21.18 L 38.123 21.513 L 37.457 21.18 Z"></path>
    <path style="fill:#fd631f; stroke:none;" d="M 38.79 21.286 C 19.871 24.265 12.342 53.205 25.209 67.633 C 31.705 74.918 45.92 74.826 54.79 73.547 C 74.005 70.777 80.691 41.306 68.232 27.06 C 61.877 19.794 47.528 19.91 38.79 21.286 Z"></path>
    <path style="fill:#fd8960; stroke:none;" d="M 55.457 21.18 L 56.123 21.513 L 55.457 21.18 Z"></path>
    <path style="fill:#fec6b5; stroke:none;" d="M 56.79 20.847 L 57.79 21.847 L 56.79 20.847 M 71.79 20.847 L 72.79 21.847 L 71.79 20.847 Z"></path>
    <path style="fill:#fdac92; stroke:none;" d="M 8.79 21.847 L 9.79 22.847 L 8.79 21.847 Z"></path>
    <path style="fill:#fec6b5; stroke:none;" d="M 19.79 21.847 L 20.79 22.847 L 19.79 21.847 M 31.79 21.847 L 32.79 22.847 L 31.79 21.847 Z"></path>
    <path style="fill:#fd8960; stroke:none;" d="M 32.79 21.847 L 33.79 22.847 L 32.79 21.847 M 59.79 21.847 L 60.79 22.847 L 59.79 21.847 Z"></path>
    <path style="fill:#fec6b5; stroke:none;" d="M 60.79 21.847 L 61.79 22.847 L 60.79 21.847 M 72.79 21.847 L 73.79 22.847 L 72.79 21.847 Z"></path>
    <path style="fill:#fdac92; stroke:none;" d="M 83.79 21.847 L 84.79 22.847 L 83.79 21.847 M 18.79 22.847 L 19.79 23.847 L 18.79 22.847 Z"></path>
    <path style="fill:#fd8960; stroke:none;" d="M 29.79 22.847 L 30.79 23.847 L 29.79 22.847 M 62.79 22.847 L 63.79 23.847 L 62.79 22.847 Z"></path>
    <path style="fill:#fdac92; stroke:none;" d="M 73.79 22.847 L 74.79 23.847 L 73.79 22.847 Z"></path>
    <path style="fill:#fd8960; stroke:none;" d="M 7.79 23.847 L 8.79 24.847 L 7.79 23.847 M 27.79 23.847 L 28.79 24.847 L 27.79 23.847 M 64.79 23.847 L 65.79 24.847 L 64.79 23.847 M 84.79 23.847 L 85.79 24.847 L 84.79 23.847 Z"></path>
    <path style="fill:#fec6b5; stroke:none;" d="M 6.79 24.847 L 7.79 25.847 L 6.79 24.847 M 17.79 24.847 L 18.79 25.847 L 17.79 24.847 M 25.79 24.847 L 26.79 25.847 L 25.79 24.847 M 66.79 24.847 L 67.79 25.847 L 66.79 24.847 M 85.79 24.847 L 86.79 25.847 L 85.79 24.847 Z"></path>
    <path style="fill:#fd8960; stroke:none;" d="M 16.79 25.847 L 17.79 26.847 L 16.79 25.847 Z"></path>
    <path style="fill:#fec6b5; stroke:none;" d="M 24.79 25.847 L 25.79 26.847 L 24.79 25.847 M 67.79 25.847 L 68.79 26.847 L 67.79 25.847 Z"></path>
    <path style="fill:#fd8960; stroke:none;" d="M 75.79 25.847 L 76.79 26.847 L 75.79 25.847 Z"></path>
    <path style="fill:#fec6b5; stroke:none;" d="M 5.79 26.847 L 6.79 27.847 L 5.79 26.847 M 23.79 26.847 L 24.79 27.847 L 23.79 26.847 M 86.79 26.847 L 87.79 27.847 L 86.79 26.847 Z"></path>
    <path style="fill:#fd8960; stroke:none;" d="M 15.79 27.847 L 16.79 28.847 L 15.79 27.847 M 68.79 27.847 L 69.79 28.847 L 68.79 27.847 M 76.79 27.847 L 77.79 28.847 L 76.79 27.847 Z"></path>
    <path style="fill:#fec6b5; stroke:none;" d="M 4.79 28.847 L 5.79 29.847 L 4.79 28.847 M 15.79 28.847 L 16.79 29.847 L 15.79 28.847 M 22.79 28.847 L 23.79 29.847 L 22.79 28.847 M 69.79 28.847 L 70.79 29.847 L 69.79 28.847 M 76.79 28.847 L 77.79 29.847 L 76.79 28.847 M 87.79 28.847 L 88.79 29.847 L 87.79 28.847 Z"></path>
    <path style="fill:#fd8960; stroke:none;" d="M 4.79 29.847 L 5.79 30.847 L 4.79 29.847 M 87.79 29.847 L 88.79 30.847 L 87.79 29.847 Z"></path>
    <path style="fill:#fdac92; stroke:none;" d="M 14.79 30.847 L 15.79 31.847 L 14.79 30.847 Z"></path>
    <path style="fill:#fec6b5; stroke:none;" d="M 21.79 30.847 L 22.79 31.847 L 21.79 30.847 Z"></path>
    <path style="fill:#fd8960; stroke:none;" d="M 39.79 30.847 L 40.79 31.847 L 39.79 30.847 Z"></path>
    <path style="fill:#fdac92; stroke:none;" d="M 40.79 30.847 L 41.79 31.847 L 40.79 30.847 Z"></path>
    <path style="fill:#fec6b5; stroke:none;" d="M 41.79 30.847 L 41.79 31.847 L 51.79 31.847 L 41.79 30.847 Z"></path>
    <path style="fill:#fdac92; stroke:none;" d="M 51.79 30.847 L 52.79 31.847 L 51.79 30.847 Z"></path>
    <path style="fill:#fd8960; stroke:none;" d="M 52.79 30.847 L 53.79 31.847 L 52.79 30.847 Z"></path>
    <path style="fill:#fec6b5; stroke:none;" d="M 70.79 30.847 L 71.79 31.847 L 70.79 30.847 Z"></path>
    <path style="fill:#fdac92; stroke:none;" d="M 77.79 30.847 L 78.79 31.847 L 77.79 30.847 M 3.79 31.847 L 4.79 32.847 L 3.79 31.847 Z"></path>
    <path style="fill:#fec6b5; stroke:none;" d="M 14.79 31.847 L 15.79 32.847 L 14.79 31.847 Z"></path>
    <path style="fill:#fd8960; stroke:none;" d="M 21.79 31.847 L 22.79 32.847 L 21.79 31.847 Z"></path>
    <path style="fill:#fdac92; stroke:none;" d="M 35.79 31.847 L 36.79 32.847 L 35.79 31.847 Z"></path>
    <path style="fill:#fec6b5; stroke:none;" d="M 36.79 31.847 L 37.79 32.847 L 36.79 31.847 Z"></path>
    <path style="fill:#ffffff; stroke:none;" d="M 37.805 32.419 C 29.049 35.012 28.265 53.288 33.518 59.428 C 37.72 64.34 50.131 63.912 55.747 62.043 C 64.313 59.192 64.99 41.418 60.048 35.125 C 56.2 30.224 43.24 30.81 37.805 32.419 Z"></path>
    <path style="fill:#fec6b5; stroke:none;" d="M 55.79 31.847 L 56.79 32.847 L 55.79 31.847 Z"></path>
    <path style="fill:#fd8960; stroke:none;" d="M 56.79 31.847 L 57.79 32.847 L 56.79 31.847 M 70.79 31.847 L 71.79 32.847 L 70.79 31.847 Z"></path>
    <path style="fill:#fec6b5; stroke:none;" d="M 77.79 31.847 L 78.79 32.847 L 77.79 31.847 Z"></path>
    <path style="fill:#fdac92; stroke:none;" d="M 88.79 31.847 L 89.79 32.847 L 88.79 31.847 Z"></path>
    <path style="fill:#fd8960; stroke:none;" d="M 33.79 32.847 L 34.79 33.847 L 33.79 32.847 M 58.79 32.847 L 59.79 33.847 L 58.79 32.847 Z"></path>
    <path style="fill:#fec6b5; stroke:none;" d="M 2.79 33.847 L 3.79 34.847 L 2.79 33.847 Z"></path>
    <path style="fill:#fd8960; stroke:none;" d="M 13.79 33.847 L 14.79 34.847 L 13.79 33.847 Z"></path>
    <path style="fill:#fec6b5; stroke:none;" d="M 20.79 33.847 L 21.79 34.847 L 20.79 33.847 Z"></path>
    <path style="fill:#fdac92; stroke:none;" d="M 32.79 33.847 L 33.79 34.847 L 32.79 33.847 Z"></path>
    <path style="fill:#fd8960; stroke:none;" d="M 59.79 33.847 L 60.79 34.847 L 59.79 33.847 Z"></path>
    <path style="fill:#fec6b5; stroke:none;" d="M 71.79 33.847 L 72.79 34.847 L 71.79 33.847 Z"></path>
    <path style="fill:#fd8960; stroke:none;" d="M 78.79 33.847 L 79.79 34.847 L 78.79 33.847 Z"></path>
    <path style="fill:#fec6b5; stroke:none;" d="M 89.79 33.847 L 90.79 34.847 L 89.79 33.847 Z"></path>
    <path style="fill:#fdac92; stroke:none;" d="M 2.79 34.847 L 3.79 35.847 L 2.79 34.847 Z"></path>
    <path style="fill:#fec6b5; stroke:none;" d="M 14.123 35.513 L 14.457 36.18 L 14.123 35.513 Z"></path>
    <path style="fill:#fdac92; stroke:none;" d="M 20.79 34.847 L 21.79 35.847 L 20.79 34.847 Z"></path>
    <path style="fill:#fd8960; stroke:none;" d="M 31.79 34.847 L 32.79 35.847 L 31.79 34.847 Z"></path>
    <path style="fill:#fdac92; stroke:none;" d="M 71.79 34.847 L 72.79 35.847 L 71.79 34.847 Z"></path>
    <path style="fill:#fec6b5; stroke:none;" d="M 79.123 35.513 L 79.457 36.18 L 79.123 35.513 Z"></path>
    <path style="fill:#fdac92; stroke:none;" d="M 89.79 34.847 L 90.79 35.847 L 89.79 34.847 Z"></path>
    <path style="fill:#fd8960; stroke:none;" d="M 2.79 35.847 L 3.79 36.847 L 2.79 35.847 Z"></path>
    <path style="fill:#fec6b5; stroke:none;" d="M 31.79 35.847 L 32.79 36.847 L 31.79 35.847 Z"></path>
    <path style="fill:#fdac92; stroke:none;" d="M 60.79 35.847 L 61.79 36.847 L 60.79 35.847 Z"></path>
    <path style="fill:#fd8960; stroke:none;" d="M 71.79 35.847 L 72.79 36.847 L 71.79 35.847 M 89.79 35.847 L 90.79 36.847 L 89.79 35.847 Z"></path>
    <path style="fill:#fec6b5; stroke:none;" d="M 2.123 38.513 L 2.457 39.18 L 2.123 38.513 Z"></path>
    <path style="fill:#fd8960; stroke:none;" d="M 30.79 37.847 L 31.79 38.847 L 30.79 37.847 Z"></path>
    <path style="fill:#fec6b5; stroke:none;" d="M 40.79 37.847 L 40.79 38.847 L 53.79 38.847 L 40.79 37.847 M 91.123 38.513 L 91.457 39.18 L 91.123 38.513 Z"></path>
    <path style="fill:#fd8960; stroke:none;" d="M 12.79 38.847 L 13.79 39.847 L 12.79 38.847 Z"></path>
    <path style="fill:#fec6b5; stroke:none;" d="M 19.79 38.847 L 20.79 39.847 L 19.79 38.847 M 31.123 39.513 L 31.457 40.18 L 31.123 39.513 Z"></path>
    <path style="fill:#fd631f; stroke:none;" d="M 38.79 38.847 L 38.79 55.847 L 54.79 55.847 L 54.79 38.847 L 38.79 38.847 Z"></path>
    <path style="fill:#fd8960; stroke:none;" d="M 61.79 38.847 L 62.79 39.847 L 61.79 38.847 Z"></path>
    <path style="fill:#fec6b5; stroke:none;" d="M 73.123 39.513 L 73.457 40.18 L 73.123 39.513 Z"></path>
    <path style="fill:#fd8960; stroke:none;" d="M 79.79 38.847 L 80.79 39.847 L 79.79 38.847 Z"></path>
    <path style="fill:#fdac92; stroke:none;" d="M 1.79 39.847 L 2.79 40.847 L 1.79 39.847 M 13.123 40.513 L 13.457 41.18 L 13.123 40.513 M 19.79 39.847 L 20.79 40.847 L 19.79 39.847 M 37.79 39.847 L 38.79 40.847 L 37.79 39.847 M 54.79 39.847 L 55.79 40.847 L 54.79 39.847 M 61.79 39.847 L 62.79 40.847 L 61.79 39.847 M 80.123 40.513 L 80.457 41.18 L 80.123 40.513 M 90.79 39.847 L 91.79 40.847 L 90.79 39.847 Z"></path>
    <path style="fill:#fd8960; stroke:none;" d="M 1.79 40.847 L 2.79 41.847 L 1.79 40.847 M 20.123 41.513 L 20.457 42.18 L 20.123 41.513 M 37.79 40.847 L 37.79 53.847 L 38.79 53.847 L 37.79 40.847 M 54.79 40.847 L 54.79 53.847 L 55.79 53.847 L 54.79 40.847 Z"></path>
    <path style="fill:#fec6b5; stroke:none;" d="M 62.123 41.513 L 62.457 42.18 L 62.123 41.513 Z"></path>
    <path style="fill:#fdac92; stroke:none;" d="M 72.79 40.847 L 73.79 41.847 L 72.79 40.847 Z"></path>
    <path style="fill:#fd8960; stroke:none;" d="M 90.79 40.847 L 91.79 41.847 L 90.79 40.847 Z"></path>
    <path style="fill:#fec6b5; stroke:none;" d="M 12.79 41.847 L 12.79 52.847 L 13.79 52.847 L 12.79 41.847 Z"></path>
    <path style="fill:#fd8960; stroke:none;" d="M 73.123 42.513 L 73.457 43.18 L 73.123 42.513 Z"></path>
    <path style="fill:#fec6b5; stroke:none;" d="M 79.79 41.847 L 79.79 46.847 L 80.79 46.847 L 79.79 41.847 Z"></path>
    <path style="fill:#fd8960; stroke:none;" d="M 29.79 46.847 L 30.79 47.847 L 29.79 46.847 Z"></path>
    <path style="fill:#fec6b5; stroke:none;" d="M 79.79 48.847 L 79.79 52.847 L 80.79 52.847 L 79.79 48.847 Z"></path>
    <path style="fill:#fd8960; stroke:none;" d="M 73.123 51.513 L 73.457 52.18 L 73.123 51.513 M 20.123 52.513 L 20.457 53.18 L 20.123 52.513 Z"></path>
    <path style="fill:#fec6b5; stroke:none;" d="M 62.123 52.513 L 62.457 53.18 L 62.123 52.513 Z"></path>
    <path style="fill:#fd8960; stroke:none;" d="M 2.123 53.513 L 2.457 54.18 L 2.123 53.513 Z"></path>
    <path style="fill:#fdac92; stroke:none;" d="M 13.123 53.513 L 13.457 54.18 L 13.123 53.513 M 72.79 52.847 L 73.79 53.847 L 72.79 52.847 M 80.123 53.513 L 80.457 54.18 L 80.123 53.513 Z"></path>
    <path style="fill:#fd8960; stroke:none;" d="M 90.79 52.847 L 91.79 53.847 L 90.79 52.847 Z"></path>
    <path style="fill:#fdac92; stroke:none;" d="M 19.79 53.847 L 20.79 54.847 L 19.79 53.847 Z"></path>
    <path style="fill:#fec6b5; stroke:none;" d="M 30.79 53.847 L 31.79 54.847 L 30.79 53.847 Z"></path>
    <path style="fill:#fdac92; stroke:none;" d="M 37.79 53.847 L 38.79 54.847 L 37.79 53.847 M 54.79 53.847 L 55.79 54.847 L 54.79 53.847 M 61.79 53.847 L 62.79 54.847 L 61.79 53.847 Z"></path>
    <path style="fill:#fec6b5; stroke:none;" d="M 73.123 54.513 L 73.457 55.18 L 73.123 54.513 Z"></path>
    <path style="fill:#fdac92; stroke:none;" d="M 91.123 54.513 L 91.457 55.18 L 91.123 54.513 M 1.79 54.847 L 2.79 55.847 L 1.79 54.847 Z"></path>
    <path style="fill:#fd8960; stroke:none;" d="M 12.79 54.847 L 13.79 55.847 L 12.79 54.847 Z"></path>
    <path style="fill:#fec6b5; stroke:none;" d="M 20.123 55.513 L 20.457 56.18 L 20.123 55.513 Z"></path>
    <path style="fill:#fdac92; stroke:none;" d="M 30.79 54.847 L 31.79 55.847 L 30.79 54.847 Z"></path>
    <path style="fill:#fd8960; stroke:none;" d="M 61.79 54.847 L 62.79 55.847 L 61.79 54.847 M 79.79 54.847 L 80.79 55.847 L 79.79 54.847 Z"></path>
    <path style="fill:#fec6b5; stroke:none;" d="M 1.79 55.847 L 2.79 56.847 L 1.79 55.847 Z"></path>
    <path style="fill:#fd8960; stroke:none;" d="M 30.79 55.847 L 31.79 56.847 L 30.79 55.847 Z"></path>
    <path style="fill:#fec6b5; stroke:none;" d="M 40.79 55.847 L 40.79 56.847 L 52.79 56.847 L 40.79 55.847 M 90.79 55.847 L 91.79 56.847 L 90.79 55.847 M 60.79 56.847 L 61.79 57.847 L 60.79 56.847 M 31.79 57.847 L 32.79 58.847 L 31.79 57.847 Z"></path>
    <path style="fill:#fd8960; stroke:none;" d="M 60.79 57.847 L 61.79 58.847 L 60.79 57.847 M 71.79 57.847 L 72.79 58.847 L 71.79 57.847 Z"></path>
    <path style="fill:#fdac92; stroke:none;" d="M 2.79 58.847 L 3.79 59.847 L 2.79 58.847 Z"></path>
    <path style="fill:#fec6b5; stroke:none;" d="M 13.79 58.847 L 14.79 59.847 L 13.79 58.847 Z"></path>
    <path style="fill:#fdac92; stroke:none;" d="M 20.79 58.847 L 21.79 59.847 L 20.79 58.847 Z"></path>
    <path style="fill:#fec6b5; stroke:none;" d="M 59.79 58.847 L 60.79 59.847 L 59.79 58.847 Z"></path>
    <path style="fill:#fdac92; stroke:none;" d="M 71.79 58.847 L 72.79 59.847 L 71.79 58.847 Z"></path>
    <path style="fill:#fec6b5; stroke:none;" d="M 78.79 58.847 L 79.79 59.847 L 78.79 58.847 Z"></path>
    <path style="fill:#fdac92; stroke:none;" d="M 89.79 58.847 L 90.79 59.847 L 89.79 58.847 Z"></path>
    <path style="fill:#fec6b5; stroke:none;" d="M 2.79 59.847 L 3.79 60.847 L 2.79 59.847 Z"></path>
    <path style="fill:#fd8960; stroke:none;" d="M 13.79 59.847 L 14.79 60.847 L 13.79 59.847 Z"></path>
    <path style="fill:#fec6b5; stroke:none;" d="M 20.79 59.847 L 21.79 60.847 L 20.79 59.847 Z"></path>
    <path style="fill:#fd8960; stroke:none;" d="M 32.79 59.847 L 33.79 60.847 L 32.79 59.847 Z"></path>
    <path style="fill:#fec6b5; stroke:none;" d="M 71.79 59.847 L 72.79 60.847 L 71.79 59.847 Z"></path>
    <path style="fill:#fdac92; stroke:none;" d="M 78.79 59.847 L 79.79 60.847 L 78.79 59.847 Z"></path>
    <path style="fill:#fec6b5; stroke:none;" d="M 89.79 59.847 L 90.79 60.847 L 89.79 59.847 M 34.79 60.847 L 35.79 61.847 L 34.79 60.847 M 57.79 60.847 L 58.79 61.847 L 57.79 60.847 Z"></path>
    <path style="fill:#fd8960; stroke:none;" d="M 3.79 61.847 L 4.79 62.847 L 3.79 61.847 M 21.79 61.847 L 22.79 62.847 L 21.79 61.847 Z"></path>
    <path style="fill:#fdac92; stroke:none;" d="M 36.79 61.847 L 37.79 62.847 L 36.79 61.847 Z"></path>
    <path style="fill:#fec6b5; stroke:none;" d="M 37.79 61.847 L 38.79 62.847 L 37.79 61.847 M 54.79 61.847 L 55.79 62.847 L 54.79 61.847 Z"></path>
    <path style="fill:#fdac92; stroke:none;" d="M 55.79 61.847 L 56.79 62.847 L 55.79 61.847 Z"></path>
    <path style="fill:#fd8960; stroke:none;" d="M 70.79 61.847 L 71.79 62.847 L 70.79 61.847 M 88.79 61.847 L 89.79 62.847 L 88.79 61.847 Z"></path>
    <path style="fill:#fec6b5; stroke:none;" d="M 3.79 62.847 L 4.79 63.847 L 3.79 62.847 Z"></path>
    <path style="fill:#fdac92; stroke:none;" d="M 14.79 62.847 L 15.79 63.847 L 14.79 62.847 Z"></path>
    <path style="fill:#fec6b5; stroke:none;" d="M 21.79 62.847 L 22.79 63.847 L 21.79 62.847 Z"></path>
    <path style="fill:#fd8960; stroke:none;" d="M 40.79 62.847 L 40.79 63.847 L 43.79 63.847 L 40.79 62.847 Z"></path>
    <path style="fill:#fdac92; stroke:none;" d="M 43.79 62.847 L 43.79 63.847 L 49.79 63.847 L 43.79 62.847 Z"></path>
    <path style="fill:#fd8960; stroke:none;" d="M 50.457 63.18 L 51.123 63.513 L 50.457 63.18 Z"></path>
    <path style="fill:#fec6b5; stroke:none;" d="M 70.79 62.847 L 71.79 63.847 L 70.79 62.847 M 77.79 62.847 L 78.79 63.847 L 77.79 62.847 M 88.79 62.847 L 89.79 63.847 L 88.79 62.847 Z"></path>
    <path style="fill:#fd8960; stroke:none;" d="M 14.79 63.847 L 15.79 64.847 L 14.79 63.847 M 77.79 63.847 L 78.79 64.847 L 77.79 63.847 Z"></path>
    <path style="fill:#fdac92; stroke:none;" d="M 4.79 64.847 L 5.79 65.847 L 4.79 64.847 Z"></path>
    <path style="fill:#fec6b5; stroke:none;" d="M 22.79 64.847 L 23.79 65.847 L 22.79 64.847 M 69.79 64.847 L 70.79 65.847 L 69.79 64.847 Z"></path>
    <path style="fill:#fdac92; stroke:none;" d="M 87.79 64.847 L 88.79 65.847 L 87.79 64.847 M 15.79 65.847 L 16.79 66.847 L 15.79 65.847 M 76.79 65.847 L 77.79 66.847 L 76.79 65.847 M 5.79 66.847 L 6.79 67.847 L 5.79 66.847 Z"></path>
    <path style="fill:#fec6b5; stroke:none;" d="M 23.79 66.847 L 24.79 67.847 L 23.79 66.847 Z"></path>
    <path style="fill:#fdac92; stroke:none;" d="M 86.79 66.847 L 87.79 67.847 L 86.79 66.847 M 16.79 67.847 L 17.79 68.847 L 16.79 67.847 Z"></path>
    <path style="fill:#fec6b5; stroke:none;" d="M 24.79 67.847 L 25.79 68.847 L 24.79 67.847 M 67.79 67.847 L 68.79 68.847 L 67.79 67.847 Z"></path>
    <path style="fill:#fdac92; stroke:none;" d="M 75.79 67.847 L 76.79 68.847 L 75.79 67.847 M 6.79 68.847 L 7.79 69.847 L 6.79 68.847 Z"></path>
    <path style="fill:#fec6b5; stroke:none;" d="M 25.79 68.847 L 26.79 69.847 L 25.79 68.847 M 66.79 68.847 L 67.79 69.847 L 66.79 68.847 Z"></path>
    <path style="fill:#fdac92; stroke:none;" d="M 85.79 68.847 L 86.79 69.847 L 85.79 68.847 Z"></path>
    <path style="fill:#fd8960; stroke:none;" d="M 17.79 69.847 L 18.79 70.847 L 17.79 69.847 M 27.79 69.847 L 28.79 70.847 L 27.79 69.847 M 64.79 69.847 L 65.79 70.847 L 64.79 69.847 M 74.79 69.847 L 75.79 70.847 L 74.79 69.847 Z"></path>
    <path style="fill:#fec6b5; stroke:none;" d="M 7.79 70.847 L 8.79 71.847 L 7.79 70.847 M 18.79 70.847 L 19.79 71.847 L 18.79 70.847 M 28.79 70.847 L 29.79 71.847 L 28.79 70.847 Z"></path>
    <path style="fill:#fd8960; stroke:none;" d="M 29.79 70.847 L 30.79 71.847 L 29.79 70.847 M 62.79 70.847 L 63.79 71.847 L 62.79 70.847 Z"></path>
    <path style="fill:#fec6b5; stroke:none;" d="M 73.79 70.847 L 74.79 71.847 L 73.79 70.847 M 84.79 70.847 L 85.79 71.847 L 84.79 70.847 Z"></path>
    <path style="fill:#fd8960; stroke:none;" d="M 8.79 71.847 L 9.79 72.847 L 8.79 71.847 Z"></path>
    <path style="fill:#fec6b5; stroke:none;" d="M 31.79 71.847 L 32.79 72.847 L 31.79 71.847 Z"></path>
    <path style="fill:#fd8960; stroke:none;" d="M 32.79 71.847 L 33.79 72.847 L 32.79 71.847 M 59.79 71.847 L 60.79 72.847 L 59.79 71.847 Z"></path>
    <path style="fill:#fec6b5; stroke:none;" d="M 60.79 71.847 L 61.79 72.847 L 60.79 71.847 Z"></path>
    <path style="fill:#fd8960; stroke:none;" d="M 83.79 71.847 L 84.79 72.847 L 83.79 71.847 Z"></path>
    <path style="fill:#fec6b5; stroke:none;" d="M 34.79 72.847 L 35.79 73.847 L 34.79 72.847 Z"></path>
    <path style="fill:#fdac92; stroke:none;" d="M 35.79 72.847 L 36.79 73.847 L 35.79 72.847 Z"></path>
    <path style="fill:#fd8960; stroke:none;" d="M 36.79 72.847 L 37.79 73.847 L 36.79 72.847 M 55.79 72.847 L 56.79 73.847 L 55.79 72.847 Z"></path>
    <path style="fill:#fdac92; stroke:none;" d="M 56.79 72.847 L 57.79 73.847 L 56.79 72.847 Z"></path>
    <path style="fill:#fec6b5; stroke:none;" d="M 57.79 72.847 L 58.79 73.847 L 57.79 72.847 M 9.79 73.847 L 10.79 74.847 L 9.79 73.847 M 40.79 73.847 L 40.79 74.847 L 44.79 74.847 L 40.79 73.847 Z"></path>
    <path style="fill:#fdac92; stroke:none;" d="M 44.79 73.847 L 44.79 74.847 L 48.79 74.847 L 44.79 73.847 Z"></path>
    <path style="fill:#fec6b5; stroke:none;" d="M 48.79 73.847 L 48.79 74.847 L 52.79 74.847 L 48.79 73.847 M 82.79 73.847 L 83.79 74.847 L 82.79 73.847 Z"></path>
    <path style="fill:#fdac92; stroke:none;" d="M 10.79 74.847 L 11.79 75.847 L 10.79 74.847 Z"></path>
    <path style="fill:#fec6b5; stroke:none;" d="M 22.79 74.847 L 23.79 75.847 L 22.79 74.847 M 69.79 74.847 L 70.79 75.847 L 69.79 74.847 Z"></path>
    <path style="fill:#fdac92; stroke:none;" d="M 81.79 74.847 L 82.79 75.847 L 81.79 74.847 Z"></path>
    <path style="fill:#fd8960; stroke:none;" d="M 11.79 75.847 L 12.79 76.847 L 11.79 75.847 M 23.79 75.847 L 24.79 76.847 L 23.79 75.847 M 68.79 75.847 L 69.79 76.847 L 68.79 75.847 M 80.79 75.847 L 81.79 76.847 L 80.79 75.847 M 25.79 76.847 L 26.79 77.847 L 25.79 76.847 M 66.79 76.847 L 67.79 77.847 L 66.79 76.847 M 27.79 77.847 L 28.79 78.847 L 27.79 77.847 Z"></path>
    <path style="fill:#fec6b5; stroke:none;" d="M 28.79 77.847 L 29.79 78.847 L 28.79 77.847 M 63.79 77.847 L 64.79 78.847 L 63.79 77.847 Z"></path>
    <path style="fill:#fd8960; stroke:none;" d="M 64.79 77.847 L 65.79 78.847 L 64.79 77.847 M 30.79 78.847 L 31.79 79.847 L 30.79 78.847 Z"></path>
    <path style="fill:#fec6b5; stroke:none;" d="M 31.79 78.847 L 32.79 79.847 L 31.79 78.847 M 60.79 78.847 L 61.79 79.847 L 60.79 78.847 Z"></path>
    <path style="fill:#fd8960; stroke:none;" d="M 61.79 78.847 L 62.79 79.847 L 61.79 78.847 M 34.79 79.847 L 35.79 80.847 L 34.79 79.847 Z"></path>
    <path style="fill:#fec6b5; stroke:none;" d="M 36.457 80.18 L 37.123 80.514 L 36.457 80.18 M 56.457 80.18 L 57.123 80.514 L 56.457 80.18 Z"></path>
    <path style="fill:#fd8960; stroke:none;" d="M 57.79 79.847 L 58.79 80.847 L 57.79 79.847 M 41.457 81.18 L 42.123 81.514 L 41.457 81.18 Z"></path>
    <path style="fill:#fdac92; stroke:none;" d="M 42.79 80.847 L 42.79 81.847 L 50.79 81.847 L 42.79 80.847 Z"></path>
    <path style="fill:#fd8960; stroke:none;" d="M 51.457 81.18 L 52.123 81.514 L 51.457 81.18 M 17.79 81.847 L 18.79 82.847 L 17.79 81.847 M 74.79 81.847 L 75.79 82.847 L 74.79 81.847 Z"></path>
    <path style="fill:#fdac92; stroke:none;" d="M 18.79 82.847 L 19.79 83.847 L 18.79 82.847 M 73.79 82.847 L 74.79 83.847 L 73.79 82.847 Z"></path>
    <path style="fill:#fec6b5; stroke:none;" d="M 19.79 83.847 L 20.79 84.847 L 19.79 83.847 M 72.79 83.847 L 73.79 84.847 L 72.79 83.847 Z"></path>
    <path style="fill:#fd8960; stroke:none;" d="M 21.79 84.847 L 22.79 85.847 L 21.79 84.847 M 70.79 84.847 L 71.79 85.847 L 70.79 84.847 Z"></path>
    <path style="fill:#fec6b5; stroke:none;" d="M 22.79 85.847 L 23.79 86.847 L 22.79 85.847 M 69.79 85.847 L 70.79 86.847 L 69.79 85.847 M 24.79 86.847 L 25.79 87.847 L 24.79 86.847 M 67.79 86.847 L 68.79 87.847 L 67.79 86.847 M 26.79 87.847 L 27.79 88.847 L 26.79 87.847 M 65.79 87.847 L 66.79 88.847 L 65.79 87.847 M 28.79 88.847 L 29.79 89.847 L 28.79 88.847 Z"></path>
    <path style="fill:#fd8960; stroke:none;" d="M 29.79 88.847 L 30.79 89.847 L 29.79 88.847 M 62.79 88.847 L 63.79 89.847 L 62.79 88.847 Z"></path>
    <path style="fill:#fec6b5; stroke:none;" d="M 63.79 88.847 L 64.79 89.847 L 63.79 88.847 Z"></path>
    <path style="fill:#fdac92; stroke:none;" d="M 31.79 89.847 L 32.79 90.847 L 31.79 89.847 M 60.79 89.847 L 61.79 90.847 L 60.79 89.847 Z"></path>
    <path style="fill:#fec6b5; stroke:none;" d="M 34.79 90.847 L 35.79 91.847 L 34.79 90.847 Z"></path>
    <path style="fill:#fd8960; stroke:none;" d="M 35.79 90.847 L 36.79 91.847 L 35.79 90.847 M 56.79 90.847 L 57.79 91.847 L 56.79 90.847 Z"></path>
    <path style="fill:#fec6b5; stroke:none;" d="M 57.79 90.847 L 58.79 91.847 L 57.79 90.847 M 39.457 92.18 L 40.123 92.514 L 39.457 92.18 Z"></path>
    <path style="fill:#fdac92; stroke:none;" d="M 40.79 91.847 L 41.79 92.847 L 40.79 91.847 Z"></path>
    <path style="fill:#fd8960; stroke:none;" d="M 41.79 91.847 L 41.79 92.847 L 44.79 92.847 L 41.79 91.847 M 48.79 91.847 L 48.79 92.847 L 51.79 92.847 L 48.79 91.847 Z"></path>
    <path style="fill:#fdac92; stroke:none;" d="M 51.79 91.847 L 52.79 92.847 L 51.79 91.847 Z"></path>
    <path style="fill:#fec6b5; stroke:none;" d="M 53.457 92.18 L 54.123 92.514 L 53.457 92.18 Z"></path>
</svg>