<?xml version="1.0" encoding="UTF-8"?>
<svg version="1.1" xmlns="http://www.w3.org/2000/svg" width="224" height="225">
    <path d="M0 0 C73.92 0 147.84 0 224 0 C224 74.25 224 148.5 224 225 C150.08 225 76.16 225 0 225 C0 150.75 0 76.5 0 0 Z " fill="#1E9E76" transform="translate(0,0)"/>
    <path d="M0 0 C0.85203628 5.43921992 1.20219377 9.26871575 -2.0625 13.97021484 C-4.8542444 17.07318177 -7.91729569 19.87892879 -11 22.6875 C-12.06239483 23.69463604 -13.12231928 24.70438479 -14.1796875 25.71679688 C-16.75863051 28.17534766 -19.36934229 30.59672627 -22 33 C-20.50920004 36.65770776 -18.47397912 38.48988041 -15.4296875 40.95703125 C0.26557988 54.46566892 0.26557988 54.46566892 1.3203125 63.43359375 C1.46339509 69.03137865 0.92148993 74.48558709 0 80 C-4.75085867 76.03627475 -9.23613112 71.90205218 -13.58984375 67.5078125 C-14.17923233 66.91700897 -14.76862091 66.32620544 -15.37586975 65.71749878 C-17.23213727 63.85569596 -19.08487085 61.99042255 -20.9375 60.125 C-22.20614672 58.85132989 -23.4750249 57.57789029 -24.74414062 56.3046875 C-27.83210554 53.20577957 -30.91690929 50.10375699 -34 47 C-37.87988297 48.56704995 -40.39702874 51.20451145 -43.22070312 54.18408203 C-44.27328602 55.27599881 -45.32589976 56.36788585 -46.37854004 57.45974731 C-46.93233841 58.03800388 -47.48613678 58.61626045 -48.05671692 59.21203995 C-51.00608905 62.28324895 -53.98632228 65.32436438 -56.9609375 68.37109375 C-60.7385083 72.24437088 -64.50654114 76.12573931 -68.24316406 80.03857422 C-71.26895554 83.20542807 -74.32370638 86.34166771 -77.3993988 89.46004868 C-78.56171305 90.64943028 -79.71316066 91.84953853 -80.85292053 93.06055069 C-89.79038039 102.54078401 -89.79038039 102.54078401 -95.4675293 103.72064209 C-98.41738824 103.73235645 -101.10613704 103.54963892 -104 103 C-104.8140552 97.2568059 -105.31422803 92.94520683 -101.9375 87.94726562 C-99.16117617 84.83330167 -96.09307869 82.04301798 -93 79.25 C-91.93737838 78.24767357 -90.87745181 77.24248187 -89.8203125 76.234375 C-87.24380081 73.78907646 -84.6329062 71.38463894 -82 69 C-85.13731582 65.12041702 -88.18269978 61.73883934 -92.0859375 58.625 C-104.18817131 48.61738358 -104.18817131 48.61738358 -105.0390625 39.84375 C-105.16865722 34.17985169 -104.72582904 28.61243279 -104 23 C-99.24914133 26.96372525 -94.76386888 31.09794782 -90.41015625 35.4921875 C-89.82076767 36.08299103 -89.23137909 36.67379456 -88.62413025 37.28250122 C-86.76786273 39.14430404 -84.91512915 41.00957745 -83.0625 42.875 C-81.79385328 44.14867011 -80.5249751 45.42210971 -79.25585938 46.6953125 C-76.16789446 49.79422043 -73.08309071 52.89624301 -70 56 C-64.01193385 51.12837065 -58.7210412 45.67977695 -53.39744186 40.10582352 C-50.13319136 36.69993096 -46.83357551 33.32818095 -43.54106712 29.94964027 C-40.66346395 26.9928724 -37.79878167 24.02538018 -34.95849609 21.03271484 C-32.19096978 18.11813138 -29.39214411 15.23709694 -26.56993484 12.37546921 C-25.50811723 11.2873144 -24.45787465 10.18772754 -23.42033005 9.07640457 C-16.19326013 1.35296689 -10.8509999 -1.68863177 0 0 Z " fill="#F8F2E3" transform="translate(164,61)"/>
    <path d="M0 0 C21.39382716 -1.73868313 21.39382716 -1.73868313 26.75390625 2.2265625 C29.14879962 4.70163425 31.16542539 7.08962668 33 10 C34.25308709 9.08755794 35.50232026 8.16982229 36.75 7.25 C37.44609375 6.73953125 38.1421875 6.2290625 38.859375 5.703125 C41.0856112 4.09204372 41.0856112 4.09204372 42.5625 1.8125 C46.66129102 -1.23531896 51.30256851 -0.41324013 56.25 -0.25 C57.28125 -0.23195312 58.3125 -0.21390625 59.375 -0.1953125 C61.91761064 -0.14822712 64.45833162 -0.0824805 67 0 C65.68623083 2.90543872 64.27943508 4.96661059 62.01904297 7.20800781 C61.41857147 7.80832825 60.81809998 8.40864868 60.19943237 9.02716064 C59.23059616 9.980513 59.23059616 9.980513 58.2421875 10.953125 C57.57913605 11.61334656 56.91608459 12.27356812 56.23294067 12.95379639 C54.11828168 15.05727824 51.99676788 17.15369142 49.875 19.25 C48.43834443 20.67662261 47.00214102 22.10370072 45.56640625 23.53125 C42.04949196 27.02613661 38.52641453 30.51470062 35 34 C32.05495226 32.67185252 29.97753345 31.2264428 27.70019531 28.94311523 C27.07985413 28.32585068 26.45951294 27.70858612 25.82037354 27.07261658 C25.16293152 26.40798904 24.5054895 25.74336151 23.828125 25.05859375 C23.1457074 24.37571793 22.46328979 23.6928421 21.76019287 22.98927307 C20.32229178 21.54835568 18.88681713 20.10501339 17.45361328 18.65942383 C15.24956582 16.43706221 13.03756307 14.2228644 10.82421875 12.00976562 C9.42921346 10.60984722 8.03466603 9.20947237 6.640625 7.80859375 C5.97508606 7.14194199 5.30954712 6.47529022 4.62384033 5.78843689 C4.01610779 5.17432449 3.40837524 4.5602121 2.78222656 3.92749023 C2.24357971 3.38503159 1.70493286 2.84257294 1.14996338 2.28367615 C0 1 0 1 0 0 Z " fill="#F6F1E2" transform="translate(61,61)"/>
    <path d="M0 0 C2.94504774 1.32814748 5.02246655 2.7735572 7.29980469 5.05688477 C7.92014587 5.67414932 8.54048706 6.29141388 9.17962646 6.92738342 C9.83706848 7.59201096 10.4945105 8.25663849 11.171875 8.94140625 C12.1955014 9.96571999 12.1955014 9.96571999 13.23980713 11.01072693 C14.67770822 12.45164432 16.11318287 13.89498661 17.54638672 15.34057617 C19.75043418 17.56293779 21.96243693 19.7771356 24.17578125 21.99023438 C25.57078654 23.39015278 26.96533397 24.79052763 28.359375 26.19140625 C29.02491394 26.85805801 29.69045288 27.52470978 30.37615967 28.21156311 C31.28775848 29.1327317 31.28775848 29.1327317 32.21777344 30.07250977 C32.75642029 30.61496841 33.29506714 31.15742706 33.85003662 31.71632385 C35 33 35 33 35 34 C13.60617284 35.73868313 13.60617284 35.73868313 8.24609375 31.7734375 C5.85120038 29.29836575 3.83457461 26.91037332 2 24 C-1.44970731 25.44116062 -3.1467473 27.23217408 -5.5 30.09375 C-8.86472107 33.54586643 -10.99036447 34.57485509 -15.8125 34.78125 C-17.87645982 34.72866504 -19.93972903 34.63408522 -22 34.5 C-23.06089844 34.46390625 -24.12179688 34.4278125 -25.21484375 34.390625 C-27.81372807 34.29697151 -30.40490402 34.16602484 -33 34 C-29.03627475 29.24914133 -24.90205218 24.76386888 -20.5078125 20.41015625 C-19.91700897 19.82076767 -19.32620544 19.23137909 -18.71749878 18.62413025 C-16.85569596 16.76786273 -14.99042255 14.91512915 -13.125 13.0625 C-11.85132989 11.79385328 -10.57789029 10.5249751 -9.3046875 9.25585938 C-6.20577957 6.16789446 -3.10375699 3.08309071 0 0 Z " fill="#F9F2E3" transform="translate(128,130)"/>
    <path d="M0 0 C73.92 0 147.84 0 224 0 C224 74.25 224 148.5 224 225 C150.08 225 76.16 225 0 225 C0 221.37 0 217.74 0 214 C0.66 214.99 1.32 215.98 2 217 C3.64646685 218.68662458 5.31183067 220.35511706 7 222 C7.33 222.33 7.66 222.66 8 223 C10.65443476 223.10670026 13.28316416 223.14778414 15.93840027 223.14717102 C16.78031664 223.15084771 17.62223301 223.1545244 18.48966199 223.1583125 C21.33320191 223.16939529 24.17670534 223.17320094 27.02026367 223.17700195 C29.0500602 223.18326321 31.07985556 223.1899097 33.10964966 223.19691467 C38.64080464 223.21435755 44.17195096 223.22488565 49.70312667 223.2331202 C53.15639317 223.23826401 56.60965694 223.24434005 60.06292152 223.25063133 C70.86018153 223.26969364 81.65743466 223.28392185 92.45470828 223.2922433 C104.93132022 223.30201676 117.4077548 223.32833485 129.88430423 223.36874419 C139.51831026 223.39887932 149.15226539 223.41370976 158.78631765 223.41702431 C164.54450129 223.41937804 170.30249568 223.4283802 176.06062889 223.45348549 C181.4786946 223.47672519 186.89644591 223.48101588 192.31454849 223.47072411 C194.30354799 223.47022761 196.29256274 223.47658129 198.28151512 223.49028015 C200.99694913 223.50793632 203.71124727 223.50092389 206.42668152 223.48774719 C207.21394865 223.49871644 208.00121578 223.50968568 208.81233948 223.52098733 C214.00541606 223.46014395 217.04868475 222.37323732 221 219 C222.25714587 215.22856239 222.14807971 211.70551476 222.14717102 207.77639771 C222.15084771 206.92798337 222.1545244 206.07956903 222.1583125 205.20544517 C222.16935841 202.35196389 222.17319468 199.49851901 222.17700195 196.64501953 C222.18326579 194.60345341 222.18991252 192.56188843 222.19691467 190.52032471 C222.21432881 184.96662871 222.22487704 179.41294133 222.2331202 173.8592248 C222.23826828 170.39154949 222.24434402 166.92387687 222.25063133 163.45620346 C222.26968246 152.61249992 222.28391515 141.7688032 222.2922433 130.92508614 C222.30202385 118.39641423 222.3283651 105.86791862 222.36874419 93.33930886 C222.39886682 83.6619664 222.41370841 73.98467459 222.41702431 64.30728614 C222.41937871 58.5240134 222.42839015 52.74092902 222.45348549 46.95770645 C222.47670452 41.51909828 222.48102429 36.08080333 222.47072411 30.64215851 C222.47022717 28.64467453 222.47659378 26.64717546 222.49028015 24.64973831 C222.5079055 21.92530344 222.50093934 19.20200414 222.48774719 16.47756958 C222.49871644 15.6848629 222.50968568 14.89215622 222.52098733 14.07542813 C222.47720007 10.33679635 222.13503181 8.21028061 220.0945158 5.0326519 C216.3182882 1.36795946 212.900103 1.85167604 207.89665222 1.85282898 C206.62531235 1.84731395 206.62531235 1.84731395 205.32828885 1.8416875 C202.47170151 1.83062316 199.61515051 1.82680219 196.75854492 1.82299805 C194.7171263 1.81673553 192.67570882 1.81008892 190.6342926 1.80308533 C185.0764053 1.78565715 179.51852661 1.77511884 173.96061873 1.7668798 C170.49077119 1.76173403 167.02092635 1.75565814 163.5510807 1.74936867 C152.70203438 1.73031245 141.85299489 1.71608162 131.00393504 1.7077567 C118.46676304 1.69797842 105.92976732 1.6716452 93.39265746 1.63125581 C83.71108891 1.60113245 74.029571 1.58629146 64.34795648 1.58297569 C58.56131544 1.58062108 52.77486263 1.57160727 46.98827171 1.54651451 C41.54557299 1.52329463 36.10318724 1.51897606 30.66045189 1.52927589 C28.66135621 1.52977283 26.66224545 1.52340614 24.66319656 1.50971985 C21.93651896 1.49209447 19.210976 1.49906073 16.48429871 1.51225281 C15.69090991 1.50128356 14.89752111 1.49031432 14.08009022 1.47901267 C7.16394288 1.55994721 4.67437098 4.32562902 0 9 C0 6.03 0 3.06 0 0 Z " fill="#42AB89" transform="translate(0,0)"/>
    <path d="M0 0 C0.99 1.485 0.99 1.485 2 3 C3.64646685 4.68662458 5.31183067 6.35511706 7 8 C7.33 8.33 7.66 8.66 8 9 C10.65443476 9.10670026 13.28316416 9.14778414 15.93840027 9.14717102 C16.78031664 9.15084771 17.62223301 9.1545244 18.48966199 9.1583125 C21.33320191 9.16939529 24.17670534 9.17320094 27.02026367 9.17700195 C29.0500602 9.18326321 31.07985556 9.1899097 33.10964966 9.19691467 C38.64080464 9.21435755 44.17195096 9.22488565 49.70312667 9.2331202 C53.15639317 9.23826401 56.60965694 9.24434005 60.06292152 9.25063133 C70.86018153 9.26969364 81.65743466 9.28392185 92.45470828 9.2922433 C104.93132022 9.30201676 117.4077548 9.32833485 129.88430423 9.36874419 C139.51831026 9.39887932 149.15226539 9.41370976 158.78631765 9.41702431 C164.54450129 9.41937804 170.30249568 9.4283802 176.06062889 9.45348549 C181.4786946 9.47672519 186.89644591 9.48101588 192.31454849 9.47072411 C194.30354799 9.47022761 196.29256274 9.47658129 198.28151512 9.49028015 C200.99694913 9.50793632 203.71124727 9.50092389 206.42668152 9.48774719 C207.21394865 9.49871644 208.00121578 9.50968568 208.81233948 9.52098733 C214.03968003 9.45974251 217.00191047 8.34650651 221 5 C221.99 3.68 222.98 2.36 224 1 C224 4.3 224 7.6 224 11 C150.08 11 76.16 11 0 11 C0 7.37 0 3.74 0 0 Z " fill="#F7FBFA" transform="translate(0,214)"/>
    <path d="M0 0 C73.92 0 147.84 0 224 0 C224 3.3 224 6.6 224 10 C223.4225 9.236875 222.845 8.47375 222.25 7.6875 C218.98720069 3.7902675 217.48829198 2.15188553 212.27336216 1.61968327 C210.73439023 1.60187637 209.19517408 1.60067426 207.65614319 1.61231995 C206.80687443 1.60693441 205.95760567 1.60154887 205.08260149 1.59600013 C202.23208569 1.58167352 199.3820312 1.58883585 196.53149414 1.59594727 C194.48977789 1.59024616 192.44806482 1.58328291 190.40635681 1.57514954 C184.85680238 1.55717437 179.30740568 1.55839471 173.75783086 1.56409192 C169.12792327 1.56717748 164.49804626 1.56109838 159.86814302 1.55505317 C148.94730722 1.54099524 138.02654962 1.5425798 127.10571289 1.55395508 C115.83237228 1.56543792 104.55926952 1.55136062 93.28596026 1.5245586 C83.61282837 1.50242047 73.93977124 1.49575996 64.26661581 1.50163502 C58.48673302 1.50501026 52.70700272 1.50255182 46.92714119 1.48538399 C41.49259345 1.46994704 36.05839876 1.47383438 30.62386513 1.49268913 C28.62800414 1.49638401 26.63211718 1.49324049 24.63628006 1.48280334 C21.91405675 1.46965323 19.19301254 1.48108761 16.47084045 1.49879456 C15.67881589 1.48918955 14.88679134 1.47958454 14.07076603 1.46968848 C7.16418518 1.56228407 4.66895881 4.33104119 0 9 C0 6.03 0 3.06 0 0 Z " fill="#CFE7DE" transform="translate(0,0)"/>
    <path d="M0 0 C3.63 0 7.26 0 11 0 C11 3.3 11 6.6 11 10 C10.4225 9.236875 9.845 8.47375 9.25 7.6875 C6.47684414 4.37511939 3.57295742 2.38197161 0 0 Z " fill="#F8FBFA" transform="translate(213,0)"/>
    <path d="M0 0 C3.3 0 6.6 0 10 0 C9.278125 0.556875 8.55625 1.11375 7.8125 1.6875 C5.02542701 3.97909334 2.51358472 6.41459857 0 9 C0 6.03 0 3.06 0 0 Z " fill="#F6FAF8" transform="translate(0,0)"/>
</svg>
