<?xml version="1.0" encoding="UTF-8"?>
<svg xmlns="http://www.w3.org/2000/svg" xmlns:xlink="http://www.w3.org/1999/xlink" width="60px" height="60px" viewBox="0 0 60 60" version="1.1">
    <g id="surface1">
        <path style=" stroke:none;fill-rule:evenodd;fill:rgb(100%,100%,100%);fill-opacity:1;" d="M 0.0390625 10.332031 C 0.0742188 18.75 0.121094 19.933594 0.285156 16.714844 C 0.398438 14.539062 0.636719 12.140625 0.8125 11.378906 C 2.054688 6.046875 6.660156 1.695312 12 0.8125 C 12.988281 0.652344 16.023438 0.417969 18.75 0.300781 C 23.101562 0.105469 22.261719 0.0742188 11.851562 0.0390625 L 0 0 L 0.0390625 10.332031 M 41.25 0.300781 C 43.976562 0.417969 47.011719 0.652344 48 0.8125 C 51.707031 1.425781 55.226562 3.765625 57.375 7.054688 C 58.945312 9.460938 59.480469 11.582031 59.714844 16.332031 C 59.882812 19.671875 59.925781 18.574219 59.960938 10.199219 L 60 0 L 48.148438 0.0390625 C 37.738281 0.0742188 36.898438 0.105469 41.25 0.300781 M 21.695312 9.878906 C 14.296875 10.140625 13.121094 10.277344 12 11.019531 C 10.429688 12.0625 10.210938 12.90625 9.882812 19.089844 C 9.570312 24.992188 9.753906 35.425781 10.199219 37.121094 C 10.53125 38.378906 11.648438 39.703125 12.769531 40.167969 C 13.386719 40.425781 14.9375 40.535156 18.070312 40.535156 L 22.5 40.535156 L 22.5 50.179688 L 16.941406 50.078125 C 12.023438 49.988281 11.199219 49.910156 9.789062 49.390625 C 6.457031 48.160156 3.640625 45.730469 2.050781 42.703125 C 0.757812 40.242188 0.480469 39.046875 0.269531 35.066406 C 0.15625 32.914062 0.0703125 36.988281 0.0429688 45.800781 L 0 60.003906 L 30.066406 59.933594 L 60.132812 59.867188 L 60.214844 46.398438 C 60.296875 32.378906 60.050781 26.300781 59.710938 34 C 59.429688 40.402344 58.570312 42.753906 55.316406 46.019531 C 51.953125 49.398438 49.707031 50.125 42.589844 50.132812 L 37.632812 50.140625 L 30.207031 54.9375 C 26.125 57.574219 22.71875 59.734375 22.640625 59.734375 C 22.5625 59.734375 22.5 57.589844 22.5 54.96875 L 22.5 50.207031 L 37.34375 40.667969 L 42.222656 40.535156 C 46.636719 40.414062 47.179688 40.347656 47.859375 39.84375 C 49.996094 38.265625 50.179688 37.148438 50.183594 25.601562 C 50.183594 16.003906 49.992188 13.398438 49.195312 12.21875 C 48.15625 10.683594 47.273438 10.378906 43.195312 10.132812 C 37.082031 9.761719 28.078125 9.65625 21.695312 9.878906 M 0.125 45.867188 C 0.125 53.714844 0.160156 56.921875 0.199219 53 C 0.242188 49.078125 0.242188 42.65625 0.199219 38.734375 C 0.160156 34.808594 0.125 38.019531 0.125 45.867188 "/>
        <path style=" stroke:none;fill-rule:evenodd;fill:rgb(99.607843%,31.372549%,0%);fill-opacity:1;" d="M 18.75 0.300781 C 16.023438 0.417969 12.988281 0.652344 12 0.8125 C 6.796875 1.671875 2.308594 5.785156 0.925781 10.96875 C -0.0507812 14.621094 -0.234375 34.722656 0.671875 39.023438 C 1.648438 43.667969 5.1875 47.695312 9.789062 49.390625 C 11.199219 49.910156 12.023438 49.988281 16.941406 50.078125 L 22.5 50.179688 L 22.5 40.535156 L 18.070312 40.535156 C 13.148438 40.535156 12.355469 40.351562 11.175781 38.957031 C 9.902344 37.445312 9.8125 36.605469 9.828125 26.265625 C 9.851562 13.507812 10.070312 12.132812 12.28125 10.84375 C 13.503906 10.128906 18.710938 9.832031 30 9.832031 C 41.378906 9.832031 46.492188 10.128906 47.746094 10.859375 C 49.964844 12.148438 50.1875 13.488281 50.183594 25.601562 C 50.179688 37.148438 49.996094 38.265625 47.859375 39.84375 C 47.179688 40.347656 46.636719 40.414062 42.222656 40.535156 L 37.34375 40.667969 L 22.5 50.207031 L 22.5 54.96875 C 22.5 57.589844 22.5625 59.734375 22.640625 59.734375 C 22.71875 59.734375 26.125 57.574219 30.207031 54.9375 L 37.632812 50.140625 L 42.589844 50.132812 C 49.707031 50.125 51.953125 49.398438 55.316406 46.019531 C 58.597656 42.726562 59.414062 40.5 59.671875 34.132812 C 59.769531 31.664062 59.910156 30.324219 60.019531 30.800781 C 60.121094 31.238281 60.21875 29.050781 60.234375 25.933594 C 60.253906 22.816406 60.164062 20.265625 60.039062 20.265625 C 59.914062 20.265625 59.742188 18.4375 59.65625 16.199219 C 59.476562 11.484375 58.988281 9.527344 57.367188 7.046875 C 55.292969 3.875 52.089844 1.65625 48.511719 0.925781 C 44.6875 0.144531 29.484375 -0.175781 18.75 0.300781 M 0.113281 26.132812 C 0.113281 29.285156 0.152344 30.578125 0.199219 29 C 0.246094 27.421875 0.246094 24.84375 0.199219 23.265625 C 0.152344 21.691406 0.113281 22.980469 0.113281 26.132812 "/>
    </g>
</svg>
