<svg width="192" height="84" viewBox="0 0 192 84" fill="none" xmlns="http://www.w3.org/2000/svg">
<path d="M0.00293874 82.0082L38.0688 82.0078L43.3674 65.6557L17.5018 65.6561L17.4989 0.00013948H0L0.00293874 82.0082Z" fill="#000310"/>
<path d="M80.0879 83.3208C100.175 83.3208 115.332 68.2816 115.332 49.7811C115.332 31.1612 99.9282 16.2414 80.0879 16.2414C60.1243 16.2414 44.9668 31.1612 44.9668 49.7811C44.9668 68.2816 60.1243 83.3208 80.0879 83.3208ZM80.2111 67.6848C69.9829 67.6848 61.9728 59.6878 61.9728 49.6617C61.9728 39.6356 69.9829 31.6386 80.2111 31.6386C90.3161 31.6386 98.4494 39.6356 98.4494 49.6617C98.4494 59.6878 90.3161 67.6848 80.2111 67.6848Z" fill="#000310"/>
<path d="M160.083 83.3208C176.473 83.3208 192 70.3107 192 49.7811C192 29.2515 176.719 16.2414 159.96 16.2414C150.964 16.2414 143.57 20.1802 139.133 26.3868L139.131 0L122.248 0.000175915L122.251 82.0078H136.087L139.01 73.0559C143.447 79.5013 151.21 83.3208 160.083 83.3208ZM156.633 67.8042C146.158 67.8042 138.148 59.6878 138.148 49.6617C138.148 39.6356 146.158 31.5193 156.633 31.5193C166.861 31.5193 174.994 39.5163 174.994 49.6617C174.994 59.8072 166.861 67.8042 156.633 67.8042Z" fill="#000310"/>
</svg>
