<svg width="879" height="165" viewBox="0 0 879 165" fill="none" xmlns="http://www.w3.org/2000/svg">
<g clip-path="url(#clip0_1305_375)">
<path d="M220.921 138.09H287.721V156.29H199.301V0H220.921V138.09Z" fill="#F9F5EA"/>
<path d="M351.3 158.43C340.6 158.43 331.07 156.04 322.72 151.26C314.37 146.48 307.8 139.84 303.02 131.35C298.24 122.86 295.85 113.19 295.85 102.34C295.85 91.5 298.24 81.82 303.02 73.33C307.8 64.84 314.37 58.2 322.72 53.42C331.07 48.64 340.6 46.25 351.3 46.25C362 46.25 371.53 48.64 379.88 53.42C388.23 58.2 394.79 64.84 399.58 73.33C404.36 81.82 406.75 91.49 406.75 102.34C406.75 113.19 404.36 122.86 399.58 131.35C394.8 139.84 388.23 146.48 379.88 151.26C371.53 156.04 362 158.43 351.3 158.43ZM351.3 140.23C358.01 140.23 363.93 138.62 369.07 135.41C374.21 132.2 378.24 127.74 381.17 122.03C384.09 116.32 385.56 109.76 385.56 102.33C385.56 94.91 384.09 88.34 381.17 82.63C378.24 76.92 374.21 72.46 369.07 69.25C363.93 66.04 358.01 64.43 351.3 64.43C344.59 64.43 338.67 66.04 333.53 69.25C328.39 72.46 324.36 76.92 321.43 82.63C318.5 88.34 317.04 94.91 317.04 102.33C317.04 109.75 318.5 116.32 321.43 122.03C324.35 127.74 328.39 132.2 333.53 135.41C338.67 138.62 344.59 140.23 351.3 140.23Z" fill="#F9F5EA"/>
<path d="M475.6 158.65C465.04 158.65 455.76 156.26 447.77 151.48C439.78 146.7 433.5 140.06 428.93 131.57C424.36 123.08 422.08 113.26 422.08 102.13C422.08 91.1402 424.33 81.4402 428.82 73.0102C433.32 64.5902 439.59 58.0202 447.66 53.3102C455.72 48.6002 465.11 46.2402 475.81 46.2402C484.37 46.2402 492.19 47.8802 499.25 51.1602C506.32 54.4502 512.2 59.1602 516.91 65.2902L502.14 77.2802C495.72 68.7202 486.94 64.4302 475.81 64.4302C466.25 64.4302 458.61 67.8602 452.9 74.7102C447.19 81.5602 444.34 90.7002 444.34 102.11C444.34 113.53 447.23 122.77 453.01 129.84C458.79 136.91 466.39 140.44 475.81 140.44C481.66 140.44 486.69 139.37 490.9 137.23C495.11 135.09 498.93 132.02 502.35 128.02L517.12 140.01C512.41 145.86 506.42 150.43 499.14 153.71C491.86 156.99 484.01 158.63 475.59 158.63L475.6 158.65Z" fill="#F9F5EA"/>
<path d="M605.25 156.29L603.75 138.52C600.04 144.94 594.94 149.9 588.44 153.4C581.94 156.9 574.63 158.65 566.5 158.65C555.65 158.65 546.8 155.65 539.95 149.66C533.1 143.67 529.67 135.6 529.67 125.47C529.67 114.2 534.09 105.24 542.94 98.5998C551.79 91.9598 564.06 88.6398 579.76 88.6398C587.47 88.6398 595.39 89.4298 603.52 90.9998C603.09 81.2998 600.38 74.4398 595.38 70.4498C590.38 66.4598 583.82 64.4598 575.68 64.4598C569.4 64.4598 563.4 65.4998 557.7 67.5598C551.99 69.6298 546.64 72.3098 541.64 75.5898L533.5 60.3898C540.06 56.1098 546.95 52.6798 554.16 50.1098C561.37 47.5398 568.83 46.2598 576.53 46.2598C590.52 46.2598 601.9 50.0398 610.68 57.6098C619.46 65.1798 623.85 76.9498 623.85 92.9398V156.31H605.22L605.25 156.29ZM550.66 124.6C550.66 129.45 552.44 133.31 556.01 136.16C559.58 139.02 564.57 140.44 571 140.44C580.56 140.44 588.38 137.41 594.44 131.34C600.5 125.27 603.54 117.53 603.54 108.11V107.68C600.4 106.97 597.01 106.36 593.37 105.86C589.73 105.36 586.05 105.11 582.34 105.11C572.49 105.11 564.75 106.79 559.11 110.14C553.47 113.5 550.65 118.31 550.65 124.59L550.66 124.6Z" fill="#F9F5EA"/>
<path d="M648.059 156.29V0H668.829V156.29H648.059Z" fill="#F9F5EA"/>
<path d="M704.37 27.1903C700.8 27.1903 697.7 25.9403 695.06 23.4403C692.42 20.9403 691.1 17.8403 691.1 14.1303C691.1 10.4203 692.42 7.32031 695.06 4.82031C697.7 2.32031 700.8 1.07031 704.37 1.07031C707.94 1.07031 711.04 2.32031 713.68 4.82031C716.32 7.32031 717.64 10.4203 717.64 14.1303C717.64 17.8403 716.32 20.9503 713.68 23.4403C711.04 25.9403 707.93 27.1903 704.37 27.1903ZM694.09 156.29V46.2403H714.86V156.29H694.09Z" fill="#F9F5EA"/>
<path d="M878.85 83.4996C878.85 95.0596 876.92 105.63 873.07 115.19C869.22 124.75 863.86 132.89 857.01 139.6L877.35 164.86H851.66L840.74 151.16C830.89 156.16 820.04 158.65 808.2 158.65C794.5 158.65 782.37 155.44 771.8 149.02C761.24 142.6 752.92 133.75 746.86 122.47C740.79 111.2 737.76 98.2096 737.76 83.4996C737.76 68.7996 740.79 55.8096 746.86 44.5296C752.92 33.2596 761.24 24.4096 771.8 17.9796C782.36 11.5596 794.49 8.34961 808.2 8.34961C821.9 8.34961 834.07 11.5596 844.7 17.9796C855.33 24.3996 863.68 33.2496 869.75 44.5296C875.81 55.8096 878.85 68.7996 878.85 83.4996ZM759.81 83.4996C759.81 94.6296 761.88 104.41 766.02 112.83C770.16 121.25 775.87 127.85 783.15 132.63C790.43 137.41 798.78 139.8 808.2 139.8C815.34 139.8 821.9 138.38 827.9 135.52L796.64 96.7696H822.33L843.74 123.32C847.88 118.47 851.09 112.65 853.37 105.87C855.65 99.0896 856.8 91.6296 856.8 83.4996C856.8 72.3696 854.73 62.5896 850.59 54.1696C846.45 45.7496 840.7 39.1496 833.36 34.3696C826.01 29.5896 817.62 27.1996 808.2 27.1996C798.78 27.1996 790.43 29.5896 783.15 34.3696C775.87 39.1496 770.16 45.7496 766.02 54.1696C761.88 62.5896 759.81 72.3696 759.81 83.4996Z" fill="#F9F5EA"/>
<path d="M123.714 14.654C121.904 13.354 119.394 13.634 117.824 15.214L98.694 34.444L94.154 39.004L94.064 5.52404C94.064 3.28404 92.444 1.29404 90.224 0.944041C82.044 -0.335959 73.704 -0.315959 65.534 1.01404C63.324 1.37404 61.714 3.37404 61.724 5.61404L61.814 39.094L57.564 34.864L38.024 15.424C36.444 13.854 33.924 13.584 32.124 14.894C28.824 17.294 25.664 19.984 22.684 22.974C19.714 25.964 17.034 29.144 14.654 32.454C13.354 34.264 13.634 36.774 15.214 38.344L39.004 62.004L5.52404 62.094C3.28404 62.094 1.29404 63.714 0.944041 65.934C-0.335959 74.114 -0.315959 82.444 1.01404 90.624C1.37404 92.834 3.37404 94.444 5.61404 94.434L39.094 94.344L117.164 94.144H121.954L150.644 94.054C152.884 94.054 154.874 92.434 155.224 90.214C156.504 82.034 156.484 73.694 155.164 65.524C154.804 63.314 152.804 61.704 150.564 61.714L117.084 61.804L140.744 38.014C142.314 36.434 142.584 33.914 141.274 32.114C138.874 28.804 136.184 25.644 133.194 22.674C130.204 19.704 127.034 17.034 123.714 14.644V14.654Z" fill="#0047FF"/>
<path d="M39.0943 94.3454L25.0643 108.445L15.4243 118.135C13.8243 119.735 13.6143 122.275 14.9443 124.105C17.3343 127.385 20.0043 130.525 22.9743 133.475C25.9443 136.425 29.0943 139.085 32.3943 141.455C34.2243 142.775 36.7643 142.545 38.3543 140.945L62.0143 117.155L62.1043 150.635C62.1043 152.915 63.7643 154.875 66.0143 155.225C74.1443 156.485 82.4243 156.465 90.5443 155.155C92.7943 154.795 94.4443 152.825 94.4343 150.545L94.3443 117.065L118.124 140.725C119.724 142.325 122.264 142.535 124.084 141.205C127.364 138.815 130.504 136.145 133.454 133.175C136.404 130.205 139.064 127.055 141.434 123.765C142.754 121.935 142.524 119.395 140.924 117.805L126.384 103.345L117.134 94.1454L81.2543 58.4554C79.4543 56.6654 76.5543 56.6754 74.7643 58.4754L39.0743 94.3554L39.0943 94.3454Z" fill="#FF551D"/>
</g>
<defs>
<clipPath id="clip0_1305_375">
<rect width="879" height="165" fill="white"/>
</clipPath>
</defs>
</svg>
