<?xml version="1.0" encoding="UTF-8"?>
<!DOCTYPE svg PUBLIC "-//W3C//DTD SVG 1.1//EN" "http://www.w3.org/Graphics/SVG/1.1/DTD/svg11.dtd">
<svg xmlns="http://www.w3.org/2000/svg" version="1.1" width="220px" height="220px" style="shape-rendering:geometricPrecision; text-rendering:geometricPrecision; image-rendering:optimizeQuality; fill-rule:evenodd; clip-rule:evenodd" xmlns:xlink="http://www.w3.org/1999/xlink">
  <g><path style="opacity:1" fill="#ed9d85" d="M -0.5,-0.5 C 35.8333,-0.5 72.1667,-0.5 108.5,-0.5C 108.5,-0.166667 108.5,0.166667 108.5,0.5C 72.5,35.8333 36.8333,71.5 1.5,107.5C 0.833333,107.5 0.5,107.833 0.5,108.5C 0.5,144.5 0.5,180.5 0.5,216.5C 0.5,217.167 0.166667,217.5 -0.5,217.5C -0.5,144.833 -0.5,72.1667 -0.5,-0.5 Z"/></g>
  <g><path style="opacity:1" fill="#fcb643" d="M 109.5,-0.5 C 131.5,-0.5 153.5,-0.5 175.5,-0.5C 210,11.4869 223.5,35.4869 216,71.5C 209.154,89.8375 196.321,101.671 177.5,107C 154.868,108.423 132.202,108.923 109.5,108.5C 109.5,72.1667 109.5,35.8333 109.5,-0.5 Z"/></g>
  <g><path style="opacity:1" fill="#fefefe" d="M 108.5,0.5 C 108.5,36.1667 108.5,71.8333 108.5,107.5C 72.8333,107.5 37.1667,107.5 1.5,107.5C 36.8333,71.5 72.5,35.8333 108.5,0.5 Z"/></g>
  <g><path style="opacity:1" fill="#fffefe" d="M 175.5,-0.5 C 190.167,-0.5 204.833,-0.5 219.5,-0.5C 219.5,72.8333 219.5,146.167 219.5,219.5C 146.167,219.5 72.8333,219.5 -0.5,219.5C -0.5,218.833 -0.5,218.167 -0.5,217.5C 0.166667,217.5 0.5,217.167 0.5,216.5C 36.5,180.833 72.5,145.167 108.5,109.5C 109.167,109.5 109.5,109.167 109.5,108.5C 132.202,108.923 154.868,108.423 177.5,107C 196.321,101.671 209.154,89.8375 216,71.5C 223.5,35.4869 210,11.4869 175.5,-0.5 Z"/></g>
  <g><path style="opacity:1" fill="#fcdcd1" d="M 108.5,-0.5 C 108.833,-0.5 109.167,-0.5 109.5,-0.5C 109.5,35.8333 109.5,72.1667 109.5,108.5C 109.5,109.167 109.167,109.5 108.5,109.5C 72.6705,108.502 36.6705,108.168 0.5,108.5C 0.5,107.833 0.833333,107.5 1.5,107.5C 37.1667,107.5 72.8333,107.5 108.5,107.5C 108.5,71.8333 108.5,36.1667 108.5,0.5C 108.5,0.166667 108.5,-0.166667 108.5,-0.5 Z"/></g>
  <g><path style="opacity:1" fill="#f0564d" d="M 0.5,108.5 C 36.6705,108.168 72.6705,108.502 108.5,109.5C 72.5,145.167 36.5,180.833 0.5,216.5C 0.5,180.5 0.5,144.5 0.5,108.5 Z"/></g>
</svg>
