<?xml version="1.0" encoding="UTF-8"?>
<!DOCTYPE svg PUBLIC "-//W3C//DTD SVG 1.1//EN" "http://www.w3.org/Graphics/SVG/1.1/DTD/svg11.dtd">
<svg xmlns="http://www.w3.org/2000/svg" version="1.1" width="225px" height="225px" style="shape-rendering:geometricPrecision; text-rendering:geometricPrecision; image-rendering:optimizeQuality; fill-rule:evenodd; clip-rule:evenodd" xmlns:xlink="http://www.w3.org/1999/xlink">
    <g><path style="opacity:1" fill="#fefefe" d="M -0.5,-0.5 C 33.8333,-0.5 68.1667,-0.5 102.5,-0.5C 51.9646,6.7144 18.798,34.7144 3,83.5C 1.43784,89.9065 0.271177,96.2398 -0.5,102.5C -0.5,68.1667 -0.5,33.8333 -0.5,-0.5 Z"/></g>
    <g><path style="opacity:1" fill="#fdfefe" d="M 122.5,-0.5 C 156.5,-0.5 190.5,-0.5 224.5,-0.5C 224.5,33.1667 224.5,66.8333 224.5,100.5C 213.719,43.3857 179.719,9.71905 122.5,-0.5 Z"/></g>
    <g><path style="opacity:1" fill="#5282b0" d="M 102.5,-0.5 C 109.167,-0.5 115.833,-0.5 122.5,-0.5C 179.719,9.71905 213.719,43.3857 224.5,100.5C 224.5,107.167 224.5,113.833 224.5,120.5C 218.541,167.628 193.541,200.128 149.5,218C 138.929,221.368 128.263,223.534 117.5,224.5C 111.833,224.5 106.167,224.5 100.5,224.5C 50.4734,216.309 17.9734,187.975 3,139.5C 1.59316,132.392 0.426492,125.392 -0.5,118.5C -0.5,113.167 -0.5,107.833 -0.5,102.5C 0.271177,96.2398 1.43784,89.9065 3,83.5C 18.798,34.7144 51.9646,6.7144 102.5,-0.5 Z"/></g>
    <g><path style="opacity:1" fill="#fefdfd" d="M 99.5,22.5 C 138.799,19.5665 168.966,34.5665 190,67.5C 210.651,110.959 203.484,149.125 168.5,182C 141.349,202.213 111.682,206.88 79.5,196C 36.2955,175.436 17.7955,141.269 24,93.5C 34.8583,54.4713 60.025,30.8046 99.5,22.5 Z"/></g>
    <g><path style="opacity:1" fill="#ed7d1a" d="M 108.5,35.5 C 109.675,35.281 110.675,35.6143 111.5,36.5C 118.5,48.5 125.5,60.5 132.5,72.5C 128.572,80.7025 123.906,88.3691 118.5,95.5C 114.511,94.8934 110.511,94.2267 106.5,93.5C 98.5,79.5 90.5,65.5 82.5,51.5C 91.2306,46.1414 99.8972,40.808 108.5,35.5 Z"/></g>
    <g><path style="opacity:1" fill="#ed7c1a" d="M 149.5,56.5 C 158.607,61.2221 167.607,66.2221 176.5,71.5C 177.583,72.365 177.749,73.365 177,74.5C 170.167,86.1667 163.333,97.8333 156.5,109.5C 147.525,110.498 138.525,110.832 129.5,110.5C 128.84,105.901 127.673,101.568 126,97.5C 133.845,83.8059 141.678,70.1393 149.5,56.5 Z"/></g>
    <g><path style="opacity:1" fill="#ec7c18" d="M 44.5,74.5 C 59.1705,74.3334 73.8371,74.5001 88.5,75C 92.5813,82.4982 96.9147,89.8315 101.5,97C 98.2017,99.4636 95.8684,102.63 94.5,106.5C 77.8467,107.499 61.18,107.833 44.5,107.5C 44.5,96.5 44.5,85.5 44.5,74.5 Z"/></g>
    <g><path style="opacity:1" fill="#ed7d1b" d="M 67.5,113.5 C 76.5,113.5 85.5,113.5 94.5,113.5C 95.1601,118.099 96.3267,122.432 98,126.5C 90.322,140.533 82.1554,154.2 73.5,167.5C 63.7853,162.907 54.7853,157.407 46.5,151C 53.6317,138.57 60.6317,126.07 67.5,113.5 Z"/></g>
    <g><path style="opacity:1" fill="#ed7d1c" d="M 129.5,116.5 C 146.167,116.5 162.833,116.5 179.5,116.5C 179.5,127.5 179.5,138.5 179.5,149.5C 164.83,149.667 150.163,149.5 135.5,149C 131.041,141.916 126.708,134.75 122.5,127.5C 126.071,124.601 128.404,120.934 129.5,116.5 Z"/></g>
    <g><path style="opacity:1" fill="#fdfdfe" d="M 224.5,120.5 C 224.5,155.167 224.5,189.833 224.5,224.5C 188.833,224.5 153.167,224.5 117.5,224.5C 128.263,223.534 138.929,221.368 149.5,218C 193.541,200.128 218.541,167.628 224.5,120.5 Z"/></g>
    <g><path style="opacity:1" fill="#fdfefe" d="M -0.5,118.5 C 0.426492,125.392 1.59316,132.392 3,139.5C 17.9734,187.975 50.4734,216.309 100.5,224.5C 66.8333,224.5 33.1667,224.5 -0.5,224.5C -0.5,189.167 -0.5,153.833 -0.5,118.5 Z"/></g>
    <g><path style="opacity:1" fill="#ed7d1a" d="M 103.5,128.5 C 108.054,130.174 112.554,130.84 117,130.5C 124.967,144.63 133.134,158.63 141.5,172.5C 132.563,178.219 123.396,183.552 114,188.5C 113.228,188.355 112.561,188.022 112,187.5C 105.15,175.323 98.3169,163.157 91.5,151C 95.8997,143.7 99.8997,136.2 103.5,128.5 Z"/></g>
</svg>
