<svg version="1.0" xmlns="http://www.w3.org/2000/svg" width="100%" height="100%" viewBox="0 0 170 170" preserveAspectRatio="xMidYMid meet">
<g transform="translate(0.000000,170.000000) scale(0.100000,-0.100000)"
fill="#000000" stroke="none">
<path d="M717 1690 c-334 -61 -585 -283 -684 -607 -23 -78 -26 -104 -26 -233
0 -129 3 -155 26 -233 40 -129 88 -219 176 -325 l36 -42 300 300 300 300 110
0 110 0 -349 -349 -349 -349 48 -31 c27 -17 57 -34 68 -37 16 -5 126 100 579
554 472 471 559 563 554 580 -14 42 -106 172 -164 230 -157 157 -349 240 -572
247 -63 2 -137 0 -163 -5z"/>
<path d="M1275 419 l-420 -421 74 7 c345 31 638 274 735 608 22 74 45 227 35
227 -2 0 -193 -189 -424 -421z"/>
</g>
</svg>
