<svg width="125" height="64" viewBox="0 0 125 64" fill="none" xmlns="http://www.w3.org/2000/svg">
<path d="M5.27506 36.4458V47.7866H0.608398V18.7733H8.25006C9.92518 18.741 11.5966 18.9464 13.2167 19.3834C14.4462 19.714 15.5982 20.2944 16.6042 21.0901C17.4584 21.7889 18.1263 22.6973 18.5459 23.7312C19.2993 25.6992 19.3713 27.8722 18.7501 29.888C18.475 30.7394 18.0638 31.5381 17.5334 32.2517C16.9844 32.9863 16.3197 33.6222 15.5667 34.1333C14.7477 34.6876 13.8553 35.1186 12.9167 35.4133C13.6095 35.826 14.1999 36.3969 14.6417 37.0816L21.7251 47.7909H17.7667C17.3604 47.8037 16.958 47.7065 16.6001 47.5093C16.2628 47.3152 15.9768 47.0399 15.7667 46.7072L9.83757 37.4101C9.65874 37.1028 9.40635 36.8473 9.10423 36.6677C8.73149 36.4973 8.32421 36.4212 7.91673 36.4458H5.27506ZM5.27506 32.576H8.56673C9.44527 32.5932 10.3207 32.4635 11.1584 32.192C11.8316 31.9784 12.4534 31.6223 12.9834 31.1466C13.453 30.7066 13.8179 30.1621 14.0501 29.5552C14.2899 28.908 14.41 28.2207 14.4042 27.5285C14.4441 26.8855 14.3364 26.2418 14.0897 25.6491C13.8429 25.0563 13.4641 24.531 12.9834 24.1152C12.0334 23.3273 10.5862 22.9333 8.64173 22.9333H5.27506V32.576ZM36.2917 27.3066V30.9589H28.0917V35.7461H34.3709V39.2533H28.0917V44.1258H36.2917V47.7866H23.4292V27.3066H36.2917ZM37.6876 27.3066H41.4376C41.7874 27.292 42.133 27.3905 42.4251 27.5882C42.6796 27.7708 42.872 28.0304 42.9751 28.3306L46.8417 39.2832C47.0167 39.761 47.1917 40.2816 47.3709 40.8448C47.5501 41.408 47.7167 41.9968 47.8709 42.6112C48.0001 41.9968 48.1459 41.4037 48.3167 40.8448C48.4876 40.2858 48.6542 39.761 48.8167 39.2832L52.6542 28.3306C52.7638 28.0469 52.9503 27.8012 53.1917 27.6224C53.4722 27.4066 53.8161 27.2952 54.1667 27.3066H57.9167L49.9084 47.7866H45.6959L37.6876 27.3066ZM98.7501 40.96V47.7866H94.1042V27.3066H101.15C102.379 27.2805 103.603 27.4533 104.779 27.8186C105.698 28.1108 106.548 28.5913 107.279 29.2309C107.919 29.8155 108.414 30.5465 108.725 31.3642C109.04 32.2072 109.198 33.1029 109.192 34.0053C109.201 34.9633 109.038 35.9148 108.713 36.8128C108.4 37.6524 107.896 38.403 107.242 39.0016C106.515 39.6505 105.663 40.1359 104.742 40.4266C103.58 40.7902 102.369 40.963 101.154 40.9386L98.7501 40.96ZM98.7501 37.3802H101.163C102.371 37.3802 103.246 37.0858 103.771 36.497C104.334 35.8076 104.617 34.9235 104.563 34.0266C104.569 33.591 104.5 33.1576 104.358 32.7466C104.226 32.3722 104.013 32.0336 103.733 31.7568C103.431 31.4687 103.072 31.2517 102.679 31.121C102.19 30.959 101.677 30.8826 101.163 30.8949H98.7501V37.3802ZM122.979 31.4965C122.873 31.6911 122.731 31.8633 122.563 32.0042C122.39 32.1217 122.186 32.18 121.979 32.1706C121.74 32.161 121.507 32.0922 121.3 31.9701C121.058 31.8336 120.788 31.68 120.467 31.5136C120.13 31.3303 119.779 31.1775 119.417 31.057C118.983 30.9142 118.53 30.845 118.075 30.8522C117.382 30.796 116.693 30.9974 116.133 31.4197C115.921 31.6113 115.754 31.8492 115.644 32.1157C115.534 32.3823 115.483 32.6708 115.496 32.96C115.491 33.1481 115.522 33.3354 115.588 33.5111C115.654 33.6868 115.753 33.8475 115.879 33.984C116.17 34.2793 116.512 34.5166 116.888 34.6837C117.349 34.8987 117.826 35.0797 118.313 35.2256C118.85 35.392 119.396 35.5712 119.954 35.7717C120.513 35.9763 121.06 36.2142 121.592 36.4842C122.118 36.7486 122.6 37.0987 123.017 37.521C123.447 37.9626 123.79 38.4858 124.025 39.0613C124.296 39.7538 124.427 40.4957 124.408 41.2416C124.416 42.1495 124.253 43.0504 123.929 43.8954C123.616 44.6983 123.142 45.425 122.538 46.0288C121.894 46.666 121.128 47.1586 120.288 47.4752C119.316 47.8433 118.286 48.0228 117.25 48.0042C116.613 48.0013 115.979 47.9355 115.354 47.808C114.715 47.6783 114.088 47.4928 113.479 47.2533C112.889 47.0199 112.321 46.7344 111.779 46.4C111.277 46.0926 110.812 45.7244 110.396 45.3034L111.767 43.0848C111.869 42.9148 112.012 42.775 112.183 42.6794C112.362 42.5746 112.565 42.5202 112.771 42.5216C113.068 42.5282 113.357 42.6215 113.604 42.7904C113.879 42.9696 114.196 43.1658 114.55 43.3792C114.935 43.614 115.341 43.8111 115.763 43.968C116.281 44.1576 116.829 44.2487 117.379 44.2368C118.077 44.279 118.769 44.0791 119.342 43.6693C119.587 43.4449 119.779 43.165 119.9 42.8517C120.022 42.5384 120.07 42.2004 120.042 41.8645C120.06 41.441 119.923 41.0257 119.658 40.6997C119.377 40.381 119.034 40.1266 118.65 39.953C118.191 39.7407 117.716 39.5666 117.229 39.4325C116.7 39.2832 116.154 39.1168 115.596 38.9376C115.038 38.7524 114.494 38.5272 113.967 38.2634C113.438 37.9977 112.957 37.6412 112.546 37.2096C112.108 36.7395 111.766 36.1856 111.538 35.5797C111.263 34.8095 111.133 33.993 111.154 33.1733C111.156 32.3885 111.313 31.6122 111.616 30.8913C111.919 30.1704 112.361 29.5199 112.917 28.9792C113.54 28.3825 114.272 27.9172 115.071 27.6096C116.003 27.2534 116.993 27.0797 117.988 27.0976C118.586 27.0957 119.184 27.1443 119.775 27.2426C120.342 27.3326 120.9 27.4755 121.442 27.6693C121.947 27.8542 122.435 28.084 122.9 28.3562C123.336 28.6114 123.743 28.9163 124.113 29.265L122.979 31.4965Z" fill="black"/>
<path d="M61.8992 30.7627C59.5492 37.7601 64.0659 43.7249 64.3992 44.143C62.8314 42.5375 61.6306 40.5961 60.8834 38.4585C60.1361 36.3209 59.861 34.0402 60.0777 31.7806C60.2944 29.521 60.9976 27.3387 62.1367 25.3908C63.2758 23.4429 64.8224 21.7778 66.6653 20.5153C68.5081 19.2529 70.6014 18.4245 72.7944 18.0897C74.9874 17.755 77.2256 17.9223 79.3479 18.5795C81.4703 19.2367 83.4239 20.3676 85.0682 21.8907C86.7126 23.4137 88.0067 25.2911 88.8575 27.3878L83.3784 30.5665C83.2998 29.8765 83.1446 29.198 82.9159 28.544C82.1722 26.5214 80.812 24.7978 79.0367 23.6289C75.2867 21.0987 71.045 22.1569 70.2867 22.3489C64.2867 23.9745 62.1075 30.1355 61.8992 30.7627ZM89.9992 32.6145L73.3825 42.2401C72.9679 42.4759 72.6072 42.7996 72.3245 43.1896C72.0417 43.5797 71.8436 44.027 71.7432 44.5017C71.6428 44.9764 71.6425 45.4675 71.7424 45.9424C71.8422 46.4172 72.0398 46.8648 72.3221 47.2551C72.6043 47.6455 72.9647 47.9697 73.3791 48.206C73.7934 48.4423 74.2523 48.5854 74.725 48.6256C75.1977 48.6658 75.6733 48.6023 76.1201 48.4392C76.5669 48.2762 76.9746 48.0174 77.3159 47.6801L89.6534 36.5441C89.9346 35.2551 90.0508 33.9341 89.9992 32.6145Z" fill="url(#paint0_linear_10203_27335)"/>
<defs>
<linearGradient id="paint0_linear_10203_27335" x1="60.0059" y1="50.5571" x2="90.8052" y2="16.3328" gradientUnits="userSpaceOnUse">
<stop stop-color="#04A88E"/>
<stop offset="1" stop-color="#0E79BC"/>
</linearGradient>
</defs>
</svg>
