<?xml version="1.0" encoding="UTF-8"?>
<!DOCTYPE svg PUBLIC "-//W3C//DTD SVG 1.1//EN" "http://www.w3.org/Graphics/SVG/1.1/DTD/svg11.dtd">
<svg xmlns="http://www.w3.org/2000/svg" version="1.1" width="1289px" height="1244px" style="shape-rendering:geometricPrecision; text-rendering:geometricPrecision; image-rendering:optimizeQuality; fill-rule:evenodd; clip-rule:evenodd" xmlns:xlink="http://www.w3.org/1999/xlink">
    <g><path style="opacity:0.993" fill="#293745" d="M 801.5,380.5 C 861.219,377.274 907.053,400.607 939,450.5C 947.802,466.073 953.302,482.74 955.5,500.5C 954.871,506.967 951.537,511.134 945.5,513C 920.578,518.119 895.578,522.453 870.5,526C 868.714,525.215 867.214,524.049 866,522.5C 854.512,484.036 828.679,466.536 788.5,470C 736.338,480.159 703.505,510.993 690,562.5C 681.745,610.826 699.579,645.659 743.5,667C 775.135,677.611 806.468,676.611 837.5,664C 880.908,646.923 914.908,618.589 939.5,579C 947.423,575.962 952.09,578.628 953.5,587C 945.77,646.026 916.437,690.693 865.5,721C 801.689,758.183 736.355,761.183 669.5,730C 654.57,721.41 641.07,710.91 629,698.5C 628.333,697.5 628.333,696.5 629,695.5C 652.029,657.932 655.696,618.598 640,577.5C 630.864,559.198 617.697,544.532 600.5,533.5C 602.829,525.67 605.829,518.17 609.5,511C 621.981,508.971 634.315,506.304 646.5,503C 663.443,493.205 669.276,478.705 664,459.5C 662.471,453.078 660.637,446.745 658.5,440.5C 658.667,439.833 658.833,439.167 659,438.5C 699.726,402.726 747.226,383.393 801.5,380.5 Z"/></g>
    <g><path style="opacity:0.995" fill="#293745" d="M 520.5,388.5 C 548.114,387.323 574.448,392.49 599.5,404C 629.611,419.725 644.778,444.558 645,478.5C 643.01,482.49 639.843,484.99 635.5,486C 610.309,490.705 585.143,495.538 560,500.5C 556.733,500.304 554.066,498.97 552,496.5C 550.235,481.407 542.068,471.907 527.5,468C 513.564,465.605 500.564,467.939 488.5,475C 472.24,489.272 472.573,502.939 489.5,516C 497.945,519.888 506.612,523.222 515.5,526C 537.221,531.096 558.555,537.429 579.5,545C 612.558,560.743 629.558,587.077 630.5,624C 625.126,684.038 593.793,723.371 536.5,742C 495.199,753.601 453.866,753.934 412.5,743C 370.359,728.553 348.859,699.053 348,654.5C 349.122,652.376 350.622,650.543 352.5,649C 378.671,643.032 405.004,637.699 431.5,633C 436.117,631.703 439.95,632.87 443,636.5C 455.244,667.7 477.077,677.2 508.5,665C 524.052,657.725 531.218,645.558 530,628.5C 526.585,620.084 520.752,613.918 512.5,610C 492.599,602.607 472.266,596.607 451.5,592C 388.871,574.303 367.037,534.136 386,471.5C 402.249,430.268 432.082,404.768 475.5,395C 490.496,391.753 505.496,389.587 520.5,388.5 Z"/></g>
    <g><path style="opacity:0.973" fill="#fed601" d="M 727.5,777.5 C 790.168,777.333 852.834,777.5 915.5,778C 917.736,778.734 919.069,780.234 919.5,782.5C 914.725,802.108 902.392,813.608 882.5,817C 816.508,821.366 750.508,825.533 684.5,829.5C 707.566,819.43 721.899,802.097 727.5,777.5 Z"/></g>
    <g><path style="opacity:0.996" fill="#6459fe" d="M 393.5,778.5 C 438.5,778.5 483.5,778.5 528.5,778.5C 521.3,809.692 502.967,831.358 473.5,843.5C 419.867,847.442 366.2,850.609 312.5,853C 311.056,851.874 310.39,850.374 310.5,848.5C 319.595,809.905 343.595,786.739 382.5,779C 386.152,778.501 389.818,778.335 393.5,778.5 Z"/></g>
    <g><path style="opacity:0.996" fill="#06cffe" d="M 393.5,778.5 C 504.665,777.501 615.999,777.167 727.5,777.5C 721.899,802.097 707.566,819.43 684.5,829.5C 614.211,834.456 543.878,839.122 473.5,843.5C 502.967,831.358 521.3,809.692 528.5,778.5C 483.5,778.5 438.5,778.5 393.5,778.5 Z"/></g>
</svg>
