<svg width="40" height="40" viewBox="0 0 40 40" fill="none" xmlns="http://www.w3.org/2000/svg">
<path d="M31.5365 12.9819C31.9888 12.4694 32.4388 11.9549 32.8929 11.4438C33.4352 10.8335 33.981 10.226 34.5243 9.61667C34.6914 9.42912 34.8563 9.23928 35.0431 9.02701C34.9748 9.02701 34.9386 9.02701 34.9022 9.02701C33.7901 9.02523 32.6781 9.0237 31.5663 9.0209C31.5168 9.0209 31.4641 9.0372 31.4185 9.00229C20.9847 9.00229 10.551 9.00255 0.116964 9C0.02166 9 0 9.02141 0 9.11696C0.00305788 11.6774 0.00229341 14.2379 0.00229341 16.7984V21.588C0.0183473 21.5641 0.0445941 21.5623 0.0690572 21.5569C0.697452 21.4145 1.32636 21.2741 1.95399 21.1281C2.04955 21.1059 2.08777 21.122 2.11911 21.2221C2.29443 21.782 2.65654 22.1632 3.22581 22.3314C3.6348 22.4524 4.05195 22.4679 4.47292 22.4091C4.76801 22.3678 5.04067 22.2763 5.2644 22.0676C5.62498 21.7312 5.66116 21.2106 5.34391 20.8725C5.19458 20.7135 4.98817 20.6554 4.79706 20.5769C4.45279 20.4357 4.08431 20.3751 3.72399 20.2902C3.08693 20.1401 2.46058 19.963 1.87346 19.6656C1.26342 19.3568 0.805498 18.917 0.611577 18.2384C0.508883 17.8788 0.481617 17.5103 0.49181 17.1429C0.49818 16.909 0.573608 16.6768 0.618202 16.4439C0.617438 16.4442 0.616673 16.4444 0.615909 16.4449C0.653113 16.4149 0.641391 16.3754 0.636295 16.3371C0.641391 16.3328 0.643175 16.3275 0.641646 16.3208C0.702294 16.2959 0.688279 16.2301 0.71529 16.1865C0.940554 15.7021 1.26036 15.2934 1.68744 14.9705C2.06917 14.6818 2.50084 14.5044 2.96666 14.4066C3.45184 14.3047 3.94161 14.283 4.43521 14.3243C4.9818 14.3699 5.51413 14.4779 6.00823 14.7231C6.51075 14.9723 6.91923 15.3331 7.22221 15.8089C7.24922 15.8512 7.27878 15.8917 7.30732 15.933C7.3114 15.9335 7.31471 15.9343 7.31777 15.9353C7.31471 15.9343 7.31115 15.9335 7.30732 15.933C7.31803 15.9498 7.32873 15.9666 7.33943 15.9834C7.40925 16.145 7.47678 16.3078 7.54992 16.4679C7.58304 16.5407 7.56495 16.5716 7.48901 16.5943C7.34376 16.6376 7.19749 16.6801 7.0604 16.7471C6.99771 16.7477 6.94063 16.7652 6.88865 16.8004C6.83564 16.8182 6.78239 16.8358 6.72938 16.8537C6.60223 16.8965 6.46131 16.9046 6.3553 17.0015C6.26535 16.9775 6.20419 17.0713 6.1173 17.0596C6.10812 17.0703 6.09869 17.0802 6.08901 17.0889C6.09869 17.0802 6.10838 17.0705 6.1173 17.0596C6.01944 17.0794 5.92491 17.1093 5.83623 17.1559C5.82731 17.1577 5.81864 17.1595 5.80973 17.1612C5.70143 17.2056 5.64409 17.1554 5.60918 17.0568C5.59593 17.0188 5.57478 16.9836 5.55719 16.9472C5.53808 16.869 5.49502 16.8047 5.44176 16.7461C5.43131 16.7459 5.41628 16.7477 5.40583 16.7474C5.41628 16.7474 5.43157 16.7459 5.44176 16.7461C5.375 16.6417 5.29855 16.5461 5.19815 16.4717C5.19356 16.4661 5.18796 16.464 5.18108 16.4658C5.15789 16.4031 5.10284 16.3761 5.04959 16.3466C4.87962 16.2189 4.68264 16.1488 4.47827 16.1154C4.14267 16.0604 3.80426 16.0489 3.46993 16.1368C3.32902 16.1547 3.19243 16.1845 3.08311 16.2846C3.06731 16.2874 3.04973 16.2872 3.03622 16.2943C2.69247 16.4732 2.58289 17.1531 2.85403 17.3865C2.85352 17.3865 2.85326 17.3865 2.85275 17.3868C2.94551 17.5646 3.11216 17.6485 3.2857 17.7201C3.57314 17.8388 3.87663 17.9028 4.17911 17.9693C4.84802 18.1166 5.51821 18.2598 6.15374 18.524C7.3323 19.0138 8.00223 20.215 7.81289 21.4876C7.72014 22.1114 7.43397 22.6341 7.01479 23.0994C6.3948 23.7874 5.59032 24.0705 4.70608 24.1793C4.00252 24.266 3.29869 24.256 2.60659 24.0828C1.76822 23.8728 1.04274 23.4791 0.528504 22.7584C0.309611 22.4516 0.156717 22.1127 0.0494358 21.7521C0.0379687 21.7137 0.0430652 21.6665 0.00254824 21.6398C0.00229341 25.0317 0.00280306 28.4244 0 31.8172C0 31.9127 0.02166 31.9341 0.116964 31.9341C4.98766 31.9313 9.85862 31.9318 14.7293 31.9318C15.0137 31.6115 15.2991 31.2925 15.5822 30.9712C16.3278 30.1244 17.0673 29.2722 17.8196 28.4316C18.1187 28.0972 18.422 27.7667 18.7196 27.4311C19.5898 26.4496 20.4608 25.4687 21.33 24.4864C21.6376 24.1388 21.9385 23.7854 22.2471 23.4383C22.6283 23.0094 23.0162 22.5862 23.3974 22.1573C24.2809 21.164 25.1631 20.1697 26.044 19.1738C26.2124 18.9835 26.3717 18.7847 26.535 18.5898L26.5289 18.587C26.5529 18.5949 26.5618 18.5849 26.5595 18.5623C26.6 18.5223 26.6405 18.4825 26.6811 18.4425C26.6938 18.432 26.7081 18.4229 26.7188 18.4106C27.1759 17.8959 27.6318 17.3801 28.0895 16.8656C28.7138 16.1639 29.3401 15.4636 29.964 14.7613C30.4894 14.1694 31.0128 13.5756 31.5365 12.9821V12.9819ZM17.8833 14.6352C17.8833 14.6487 17.8848 14.6622 17.8863 14.6757C17.8848 14.6622 17.8833 14.6484 17.8833 14.6352ZM15.4579 18.4639C15.4561 18.4629 15.4545 18.4616 15.453 18.4603C15.4543 18.4616 15.4561 18.4629 15.4579 18.4639ZM15.2387 18.5062C15.2387 18.5248 15.2379 18.5437 15.2387 18.5625C15.2379 18.5439 15.2387 18.5251 15.2387 18.5062ZM7.3402 15.9834C7.37052 15.9931 7.39549 16.0071 7.41308 16.027C7.39549 16.0069 7.37077 15.9929 7.3402 15.9834ZM7.00205 16.8483C7.00536 16.8483 7.00867 16.8475 7.01173 16.8468C7.00867 16.8478 7.00561 16.8483 7.00205 16.8483ZM6.52476 17.0534C6.52298 17.0805 6.51227 17.0955 6.4952 17.1003C6.51227 17.0955 6.52298 17.0807 6.52476 17.0534ZM6.48959 17.0522C6.48959 17.0522 6.49061 17.0522 6.49112 17.0522C6.49061 17.0522 6.4901 17.0522 6.48959 17.0522ZM6.52476 17.0012C6.48959 16.9887 6.45443 16.9795 6.41901 16.9821C6.45417 16.9795 6.48934 16.9887 6.52476 17.0012ZM6.06812 17.1052C6.06251 17.1093 6.05665 17.1131 6.05104 17.1166C6.0569 17.1131 6.06251 17.1093 6.06812 17.1052ZM5.40532 16.7466C5.40124 16.7466 5.39793 16.7461 5.39589 16.7451C5.39793 16.7461 5.40124 16.7464 5.40532 16.7466ZM3.44573 16.2795C3.37183 16.2936 3.30583 16.2964 3.23932 16.2637C3.30583 16.2961 3.37157 16.2936 3.44573 16.2795ZM3.23855 16.263L3.23728 16.2617C3.23728 16.2617 3.23804 16.2625 3.23855 16.263ZM3.03011 16.3588C3.03164 16.356 3.03342 16.3534 3.0352 16.3509C3.03342 16.3534 3.03164 16.3562 3.03011 16.3588ZM3.08311 16.2854C3.07623 16.2992 3.06604 16.3117 3.05559 16.3244C3.06578 16.3119 3.07598 16.2994 3.08311 16.2854ZM3.02552 16.3672C3.02323 16.3718 3.02144 16.3766 3.01992 16.3817C3.02119 16.3766 3.02323 16.3718 3.02552 16.3672ZM14.7357 24.0557C14.4804 24.0557 14.4788 24.0565 14.4065 23.8175C14.2431 23.278 14.0785 22.7388 13.9215 22.1976C13.8932 22.1002 13.8486 22.0773 13.7533 22.0776C12.8026 22.0811 11.8518 22.0809 10.9011 22.0776C10.8173 22.0773 10.7829 22.1053 10.7594 22.1828C10.5803 22.7786 10.3963 23.3728 10.2164 23.9681C10.198 24.029 10.1749 24.0568 10.1048 24.0563C9.51053 24.0532 8.91628 24.0535 8.32203 24.0555C8.23641 24.0557 8.22291 24.0323 8.2489 23.9515C8.61202 22.8265 8.97311 21.7007 9.33317 20.5746C9.65068 19.5821 9.96666 18.589 10.2829 17.596C10.2893 17.5763 10.29 17.5549 10.2933 17.5343C10.2495 17.5399 10.2276 17.5631 10.2197 17.6018C10.2279 17.5628 10.2495 17.5397 10.2936 17.5343C10.4287 17.187 10.5283 16.8277 10.6432 16.4737C10.844 15.855 11.0446 15.2366 11.2408 14.6163C11.2714 14.5192 11.3078 14.4757 11.4222 14.4767C12.2071 14.4833 12.9919 14.481 13.777 14.4785C13.8555 14.4785 13.8986 14.4963 13.9236 14.5786C14.1389 15.2855 14.357 15.9916 14.578 16.6969C14.7334 17.1931 14.8947 17.6877 15.0537 18.1828C15.0884 18.2911 15.1253 18.3987 15.161 18.5065C15.2739 18.8747 15.3855 19.2431 15.5004 19.6106C15.8531 20.739 16.2073 21.8668 16.5607 22.9952C16.6568 23.3017 16.7531 23.6083 16.8482 23.9151C16.8617 23.9589 16.8691 24.0048 16.8805 24.0555C16.1622 24.0555 15.4492 24.0555 14.7362 24.0555L14.7357 24.0557ZM23.22 20.3585C22.8584 20.4518 22.4856 20.4571 22.1154 20.4627C21.5211 20.4719 20.9269 20.4696 20.3326 20.4655C20.2317 20.4648 20.2042 20.491 20.2045 20.5927C20.208 21.6963 20.205 22.8 20.2093 23.9034C20.2098 24.0206 20.1884 24.0603 20.059 24.0588C19.4097 24.0509 18.7601 24.0557 18.1106 24.055C17.8802 24.0547 17.9205 24.0743 17.9202 23.8674C17.9187 20.7986 17.9192 17.7297 17.9189 14.6609C17.9189 14.627 17.9164 14.5934 17.9151 14.5597C17.9195 14.5065 17.9383 14.4736 18.0018 14.4805C18.052 14.4861 18.1034 14.481 18.1544 14.481C19.3505 14.481 20.5467 14.4823 21.7428 14.4805C22.1493 14.48 22.555 14.5016 22.9555 14.5653C23.5837 14.6652 24.1247 14.9305 24.5704 15.4027C24.8736 15.7238 25.1032 16.0838 25.2395 16.4936C25.318 16.7291 25.3445 16.9872 25.3537 17.242C25.3682 17.6439 25.3139 18.036 25.2112 18.4229C25.0915 18.7638 24.9585 19.0987 24.7304 19.3848C24.3369 19.8787 23.8301 20.2018 23.2203 20.359L23.22 20.3585Z" fill="#05A6E8"/>
<path d="M35.0546 23.9877C34.8255 23.9964 34.5961 23.9938 34.3668 23.9892C34.2766 23.9875 34.2514 24.0201 34.2524 24.108C34.257 24.4645 34.2503 24.8212 34.2567 25.178C34.26 25.3592 34.2819 25.5398 34.2954 25.7208C34.2863 25.7238 34.2768 25.7271 34.2677 25.7302C34.2613 25.7195 34.2547 25.709 34.2486 25.6983C33.9382 25.1497 33.5776 24.6324 33.2499 24.0947C33.2028 24.0173 33.1482 23.9864 33.0552 23.989C32.7922 23.9956 32.5285 23.9956 32.2655 23.9885C32.1514 23.9854 32.1111 24.0168 32.1114 24.1375C32.1154 25.2414 32.1147 26.3453 32.1119 27.4492C32.1119 27.5471 32.1422 27.5876 32.2416 27.5858C32.4538 27.5825 32.6661 27.5853 32.8784 27.5853C33.0483 27.5853 33.0517 27.5853 33.0501 27.4092C33.0445 26.7994 33.0641 26.1894 33.0353 25.5791C33.0682 25.5898 33.0756 25.6216 33.0891 25.6464C33.4362 26.2806 33.8442 26.8777 34.2154 27.4971C34.2562 27.5652 34.3023 27.5881 34.3788 27.5866C34.5783 27.5823 34.7778 27.5851 34.9771 27.5853C35.1261 27.5853 35.2005 27.5086 35.2003 27.3552C35.2003 26.7013 35.2003 26.0474 35.2001 25.3936C35.2001 24.9731 35.1975 24.5529 35.2013 24.1325C35.2024 24.0241 35.1687 23.9831 35.0546 23.9875V23.9877Z" fill="#05A6E8"/>
<path d="M27.7404 23.9887C27.4519 23.9961 27.1629 23.9946 26.8745 23.9895C26.7815 23.9877 26.7488 24.0127 26.7504 24.1105C26.756 24.4714 26.7501 24.8322 26.7547 25.1928C26.7557 25.2786 26.7257 25.3034 26.6451 25.3018C26.4583 25.298 26.2713 25.2947 26.085 25.3029C25.9849 25.3072 25.9645 25.2697 25.9658 25.1785C25.9701 24.8263 25.9637 24.4739 25.9688 24.1217C25.9704 24.0206 25.9357 23.9877 25.8371 23.989C25.5443 23.9933 25.2512 23.9943 24.9585 23.9887C24.8532 23.9867 24.8267 24.0328 24.827 24.1253C24.828 25.233 24.8287 26.341 24.8257 27.4487C24.8254 27.5575 24.8665 27.5843 24.9681 27.5823C25.2525 27.5766 25.5372 27.5746 25.8213 27.5838C25.9436 27.5879 25.9716 27.5445 25.9698 27.4311C25.9635 27.0746 25.9711 26.7181 25.9642 26.3616C25.9619 26.2452 25.9849 26.1924 26.1159 26.2019C26.2805 26.2138 26.4471 26.21 26.6123 26.2019C26.7208 26.1963 26.7593 26.2243 26.7567 26.3415C26.7486 26.7148 26.7578 27.0887 26.7511 27.462C26.7494 27.5608 26.7848 27.5863 26.8734 27.5856C27.1662 27.5833 27.459 27.5823 27.7518 27.5861C27.8553 27.5873 27.8846 27.5512 27.8836 27.4459C27.8777 26.8942 27.8808 26.3423 27.8808 25.7906H27.8813C27.8813 25.2389 27.8787 24.6869 27.8836 24.1353C27.8846 24.0259 27.8566 23.9854 27.7416 23.9885L27.7404 23.9887Z" fill="#05A6E8"/>
<path d="M38.9896 27.4778C38.9427 27.3379 38.9032 27.1954 38.8591 27.0545C38.6985 26.5426 38.5372 26.0309 38.3767 25.5192C38.2248 25.0355 38.0714 24.5521 37.9241 24.067C37.905 24.0035 37.8783 23.9887 37.8197 23.9897C37.6499 23.9923 37.4802 23.9908 37.3105 23.9908V23.992C37.1492 23.992 36.9879 23.9943 36.8269 23.991C36.7507 23.9895 36.7117 24.0045 36.6859 24.0924C36.5501 24.5547 36.4016 25.0129 36.2589 25.4731C36.0519 26.1394 35.8473 26.8066 35.6384 27.4722C35.6098 27.5637 35.6389 27.584 35.7245 27.5828C35.9617 27.5792 36.1992 27.5766 36.4365 27.5825C36.5221 27.5845 36.5568 27.5514 36.5776 27.475C36.6233 27.3078 36.6783 27.1432 36.7234 26.9758C36.742 26.9062 36.7762 26.8845 36.8472 26.8858C37.0807 26.8902 37.3141 26.8924 37.5472 26.8851C37.6433 26.882 37.6823 26.9192 37.7035 27.0064C37.7424 27.1666 37.7888 27.3249 37.8332 27.4836C37.8467 27.5321 37.8561 27.5815 37.9277 27.581C38.2585 27.5789 38.5895 27.58 38.9202 27.581C38.998 27.581 39.0138 27.5496 38.9896 27.4778ZM37.3987 26.0686C37.2759 26.0683 37.153 26.0676 37.0302 26.0683C36.9866 26.0683 36.965 26.0505 36.977 26.0067C37.0486 25.7437 37.1212 25.481 37.1933 25.218C37.202 25.2188 37.2106 25.2195 37.2193 25.2203C37.2937 25.4863 37.3676 25.7524 37.443 26.0181C37.4558 26.0627 37.4331 26.0689 37.3987 26.0686Z" fill="#05A6E8"/>
<path d="M31.2391 26.0709C31.0327 25.4091 30.8247 24.7478 30.6191 24.0858C30.5969 24.0147 30.561 23.9875 30.483 23.9887C30.1645 23.9933 29.846 23.9943 29.5277 23.988C29.4265 23.9859 29.3878 24.0287 29.361 24.1177C29.1475 24.822 28.9306 25.5253 28.7143 26.2291C28.5864 26.6455 28.4602 27.0627 28.3282 27.4778C28.301 27.5637 28.3305 27.5861 28.4065 27.5856C28.6526 27.5838 28.8988 27.5802 29.1447 27.5815C29.213 27.5817 29.24 27.5552 29.2573 27.4908C29.3024 27.3234 29.358 27.1585 29.4061 26.9918C29.4235 26.9317 29.4383 26.884 29.5195 26.8856C29.77 26.8902 30.0205 26.8889 30.271 26.8868C30.3322 26.8863 30.3597 26.9065 30.3757 26.9684C30.4209 27.1445 30.4787 27.3175 30.5228 27.4938C30.5399 27.5621 30.572 27.5825 30.6369 27.5815C30.7982 27.5789 30.9595 27.5807 31.1211 27.5807C31.274 27.5807 31.4272 27.5746 31.5795 27.5828C31.696 27.5891 31.7021 27.5507 31.6702 27.4513C31.5225 26.9926 31.3826 26.5311 31.2391 26.0711V26.0709ZM30.0498 26.0694C29.9443 26.065 29.8386 26.0655 29.7331 26.0683C29.6806 26.0696 29.647 26.0574 29.663 25.9988C29.7351 25.7373 29.8093 25.4761 29.8829 25.2149C29.8908 25.2147 29.8985 25.2144 29.9064 25.2142C29.9775 25.4713 30.0468 25.7289 30.1207 25.9853C30.1416 26.0576 30.1166 26.0724 30.0501 26.0696L30.0498 26.0694Z" fill="#05A6E8"/>
<path d="M22.001 28.6028C21.6488 28.2349 20.9753 28.23 20.6122 28.5513C20.3074 28.8209 20.2034 29.153 20.2389 29.5408C20.2753 29.9391 20.4748 30.2454 20.839 30.4016C21.6327 30.7423 22.3542 30.1358 22.32 29.3969C22.3366 29.0877 22.2171 28.8288 22.001 28.6031V28.6028ZM21.2727 30.3802C20.7582 30.3789 20.3388 29.935 20.3393 29.3918C20.3398 28.8709 20.7781 28.4255 21.289 28.4262C21.7882 28.427 22.2178 28.8849 22.2153 29.4132C22.2127 29.9419 21.7844 30.3812 21.2727 30.38V30.3802Z" fill="#05A6E8"/>
<path d="M12.3062 17.1036C11.9915 18.137 11.6786 19.1708 11.3611 20.2033C11.3277 20.3116 11.3636 20.319 11.4564 20.3185C12.0208 20.3149 12.5852 20.3172 13.1494 20.3162C13.2121 20.3162 13.2763 20.3295 13.35 20.3027C13.0205 19.2042 12.6915 18.1066 12.3544 16.9831C12.3307 17.042 12.3159 17.0721 12.3062 17.1036Z" fill="#05A6E8"/>
<path d="M22.4263 16.3547C22.1806 16.2426 21.9151 16.2036 21.645 16.2031C21.1746 16.2026 20.7044 16.2049 20.234 16.2003C20.1456 16.1995 20.1275 16.2332 20.128 16.3119C20.1308 16.698 20.1293 17.0843 20.1293 17.4703C20.1293 17.8607 20.1293 18.2511 20.1293 18.6415C20.1293 18.6963 20.1165 18.7493 20.2083 18.7473C20.7725 18.7353 21.3379 18.7676 21.9011 18.7279C22.3266 18.6981 22.687 18.5365 22.913 18.1436C23.0942 17.8284 23.1301 17.4938 23.059 17.1477C22.9836 16.7805 22.7672 16.5102 22.4263 16.3545V16.3547Z" fill="#05A6E8"/>
<path d="M21.8427 29.8685C21.7209 29.7133 21.5976 29.5597 21.4704 29.4004C21.5183 29.3811 21.5545 29.3696 21.5876 29.3523C21.7334 29.2758 21.8157 29.153 21.7969 29.0342C21.7719 28.8768 21.6682 28.7973 21.5204 28.7567C21.3155 28.7004 21.1076 28.7328 20.9011 28.7241C20.8464 28.7218 20.8405 28.756 20.8405 28.7983C20.8408 29.1583 20.8418 29.5184 20.84 29.8785C20.8397 29.9412 20.8673 29.9587 20.9243 29.9587C20.9832 29.9587 21.0084 29.9366 21.0069 29.8759C21.0038 29.7618 21.0036 29.6473 21.0059 29.5332C21.0066 29.4988 20.9891 29.455 21.0367 29.433C21.1083 29.4004 21.3061 29.4471 21.3578 29.512C21.4493 29.6272 21.5397 29.7437 21.6287 29.8606C21.6712 29.9167 21.7186 29.9613 21.7948 29.9592C21.8239 29.9585 21.8588 29.9702 21.8769 29.9406C21.8978 29.9057 21.8588 29.8892 21.8425 29.8683L21.8427 29.8685ZM21.0681 29.3237C21.0168 29.3235 21.0061 29.2888 21.0064 29.246C21.0066 29.1866 21.0064 29.1272 21.0064 29.0679C21.0061 28.823 21.0059 28.824 21.2564 28.8273C21.3379 28.8283 21.4169 28.8375 21.4916 28.8719C21.5614 28.904 21.6111 28.9496 21.6147 29.0335C21.6185 29.1186 21.6019 29.1841 21.5204 29.2373C21.3784 29.3303 21.224 29.3245 21.0678 29.3235L21.0681 29.3237Z" fill="#05A6E8"/>
</svg>
