<svg width="40" height="40" viewBox="0 0 40 40" fill="none" xmlns="http://www.w3.org/2000/svg">
<g clip-path="url(#clip0_210_1656)">
<path fill-rule="evenodd" clip-rule="evenodd" d="M28.2634 12.2559H23.4624V23.6678L19.2676 12.2548H15.1095L11.5282 21.7991C11.1486 19.3933 8.65899 18.5607 6.70001 17.9377C5.40487 17.5235 4.03526 16.9111 4.04785 16.2357C4.05624 15.682 4.78508 15.1671 6.22076 15.2447C7.18661 15.2971 8.0392 15.3737 9.73181 16.1917L11.4034 13.2868C9.85346 12.4992 7.71515 12.0031 5.96382 12H5.95229C3.90942 12 2.20633 12.6638 1.15134 13.7534C0.416196 14.5158 0.0197866 15.4817 0.000909967 16.5535C-0.0253076 18.0279 0.514773 19.0714 1.65052 19.9062C2.60693 20.6077 3.83286 21.0639 4.91407 21.4006C6.24592 21.8116 7.33448 22.1703 7.32084 22.9359C7.31455 23.2148 7.20758 23.4738 7.00728 23.6846C6.67379 24.0286 6.16517 24.1576 5.4594 24.1712C4.09818 24.1985 3.08933 23.9856 1.48377 23.0365L0.000909967 25.9813C1.60437 26.8937 3.50147 27.4274 5.43528 27.4274L5.68487 27.4253C7.37013 27.396 8.72925 26.9136 9.8178 26.039C9.87758 25.9907 9.93525 25.9383 9.99293 25.8879L9.51263 27.1758H13.8721L14.6041 24.9494C15.3707 25.2073 16.2411 25.3542 17.1671 25.3542C18.0931 25.3542 18.9174 25.2168 19.6703 24.9693L20.3751 27.1747H27.4863V22.5646H29.0373C32.7864 22.5646 35.0065 20.656 35.0065 17.4553C35.0065 13.8908 32.8515 12.2559 28.2624 12.2559H28.2634ZM17.1681 22.0245C16.6092 22.0245 16.0827 21.9249 15.6297 21.7529L17.1524 16.953H17.1839L18.6751 21.7666C18.2273 21.9291 17.7156 22.0245 17.1692 22.0245H17.1681ZM28.5455 19.2654H27.4874V15.3957H28.5455C29.956 15.3957 31.0792 15.8634 31.0792 17.3085C31.0792 18.7536 29.9571 19.2654 28.5455 19.2654Z" fill="#8C8B8F"/>
<path d="M37.2959 12.3115C37.5884 12.3115 37.8685 12.3849 38.1369 12.5306C38.4054 12.6764 38.6162 12.8862 38.7693 13.1588C38.9224 13.4315 39 13.7167 39 14.0156C39 14.3145 38.9245 14.5945 38.7745 14.864C38.6235 15.1335 38.4138 15.3433 38.1453 15.4932C37.8758 15.6442 37.5937 15.7187 37.2969 15.7187C37.0001 15.7187 36.718 15.6432 36.4485 15.4932C36.179 15.3433 35.9693 15.1325 35.8193 14.864C35.6683 14.5945 35.5938 14.3124 35.5938 14.0156C35.5938 13.7188 35.6704 13.4325 35.8235 13.1588C35.9766 12.8862 36.1874 12.6764 36.4559 12.5306C36.7243 12.3849 37.0043 12.3115 37.2969 12.3115H37.2959ZM37.298 12.645C37.0641 12.645 36.8386 12.7037 36.6236 12.8211C36.4087 12.9386 36.2388 13.1064 36.115 13.3256C35.9913 13.5447 35.9294 13.7744 35.9294 14.0146C35.9294 14.2547 35.9902 14.4812 36.1108 14.6973C36.2314 14.9133 36.4003 15.0832 36.6163 15.2048C36.8323 15.3265 37.0599 15.3873 37.2969 15.3873C37.5339 15.3873 37.7625 15.3265 37.9786 15.2048C38.1946 15.0832 38.3634 14.9143 38.4851 14.6973C38.6067 14.4812 38.6676 14.2537 38.6676 14.0146C38.6676 13.7755 38.6057 13.5447 38.4819 13.3256C38.3582 13.1064 38.1883 12.9375 37.9723 12.8211C37.7562 12.7037 37.5318 12.645 37.2969 12.645H37.298ZM36.5261 14.9269V13.1179H36.8932C37.2371 13.1179 37.4301 13.119 37.471 13.1221C37.5926 13.1326 37.687 13.1567 37.7541 13.1945C37.8213 13.2322 37.8779 13.2899 37.923 13.3675C37.9681 13.4451 37.9911 13.5322 37.9911 13.6265C37.9911 13.7566 37.9482 13.8688 37.8632 13.9611C37.7783 14.0534 37.6587 14.111 37.5046 14.1331C37.5591 14.154 37.6021 14.1761 37.6314 14.2012C37.6608 14.2264 37.7017 14.2725 37.7541 14.3407C37.7678 14.3585 37.8118 14.4319 37.8873 14.5609L38.1013 14.9259H37.6472L37.4962 14.6322C37.3934 14.4351 37.3095 14.3113 37.2424 14.26C37.1753 14.2086 37.0914 14.1834 36.9886 14.1834H36.8932V14.9259H36.5261V14.9269ZM36.8932 13.8992H37.0421C37.2539 13.8992 37.3861 13.8908 37.4364 13.8751C37.4867 13.8593 37.5276 13.83 37.558 13.7891C37.5874 13.7482 37.6021 13.702 37.6021 13.6496C37.6021 13.5972 37.5874 13.5542 37.5591 13.5154C37.5297 13.4766 37.4888 13.4483 37.4353 13.4304C37.3819 13.4136 37.2508 13.4053 37.0421 13.4053H36.8932V13.8992Z" fill="#8C8B8F"/>
</g>
<defs>
<clipPath id="clip0_210_1656">
<rect width="40" height="40" fill="white"/>
</clipPath>
</defs>
</svg>
