<?xml version="1.0" encoding="UTF-8"?>
<svg xmlns="http://www.w3.org/2000/svg" xmlns:xlink="http://www.w3.org/1999/xlink" width="40px" height="40px" viewBox="0 0 40 40" version="1.1">
    <g id="surface1">
        <path style=" stroke:none;fill-rule:evenodd;fill:rgb(13.72549%,32.54902%,32.54902%);fill-opacity:1;" d="M 16.867188 0.1875 C 12.5625 0.910156 8.953125 2.769531 5.863281 5.859375 C 2.992188 8.730469 1.164062 12.113281 0.308594 16.132812 C -0.0351562 17.75 -0.0351562 22.25 0.308594 23.867188 C 1.164062 27.886719 2.996094 31.273438 5.859375 34.140625 C 9.550781 37.832031 13.960938 39.769531 19.085938 39.960938 C 22.28125 40.078125 24.746094 39.675781 27.449219 38.59375 C 33.886719 36.015625 38.855469 29.789062 39.765625 23.167969 C 39.855469 22.523438 39.972656 22 40.03125 22 C 40.085938 22 40.132812 21.035156 40.132812 19.859375 C 40.132812 18.464844 40.085938 17.746094 40 17.800781 C 39.921875 17.847656 39.867188 17.710938 39.867188 17.472656 C 39.867188 16.828125 39.347656 14.59375 38.90625 13.339844 C 37.90625 10.515625 36.347656 8.066406 34.140625 5.863281 C 31.28125 3.015625 27.957031 1.199219 24 0.332031 C 22.632812 0.03125 18.320312 -0.0546875 16.867188 0.1875 M 16.683594 2.347656 C 12.710938 3.015625 8.773438 5.359375 6.144531 8.625 C 4.441406 10.738281 3.308594 13.015625 2.597656 15.746094 C 2.121094 17.585938 1.992188 20.726562 2.3125 22.753906 C 3.363281 29.382812 7.984375 34.917969 14.214844 37.007812 C 16.441406 37.757812 17.695312 37.824219 17.9375 37.214844 C 17.984375 37.097656 18.078125 36.191406 18.144531 35.199219 C 18.210938 34.210938 18.421875 31.179688 18.613281 28.464844 C 19.011719 22.769531 19.003906 21.863281 18.554688 21.230469 C 18.035156 20.5 17.949219 19.957031 18.242188 19.289062 C 18.933594 17.726562 20.980469 17.714844 21.730469 19.265625 C 22.054688 19.929688 21.980469 20.476562 21.476562 21.1875 C 21.320312 21.402344 21.148438 21.839844 21.089844 22.15625 C 20.988281 22.714844 21.871094 36.53125 22.054688 37.269531 C 22.167969 37.722656 22.566406 37.785156 23.78125 37.53125 C 29.859375 36.277344 34.988281 31.671875 37.003906 25.664062 C 37.886719 23.042969 38.152344 19.632812 37.683594 16.96875 C 37.230469 14.398438 36.113281 11.675781 34.65625 9.601562 C 33.746094 8.304688 31.675781 6.257812 30.367188 5.359375 C 28.21875 3.886719 25.378906 2.757812 22.738281 2.328125 C 21.242188 2.085938 18.183594 2.097656 16.683594 2.347656 M 18.066406 8.988281 C 13.46875 9.890625 10.15625 13.1875 9.117188 17.902344 C 8.816406 19.25 8.8125 21.695312 9.109375 22.800781 C 9.757812 25.226562 11.195312 27.308594 13.351562 28.929688 C 14.84375 30.054688 15.195312 30.003906 15.402344 28.644531 C 15.542969 27.695312 15.292969 27.167969 14.113281 25.894531 C 11.488281 23.066406 10.902344 19.554688 12.507812 16.265625 C 13.15625 14.9375 14.742188 13.320312 16.066406 12.636719 C 17.539062 11.878906 18.390625 11.675781 20.066406 11.679688 C 21.347656 11.683594 21.679688 11.734375 22.671875 12.082031 C 24.113281 12.585938 25.101562 13.246094 26.183594 14.410156 C 27.71875 16.070312 28.53125 18.363281 28.347656 20.539062 C 28.167969 22.707031 27.410156 24.304688 25.746094 26.039062 L 24.621094 27.210938 L 24.609375 28.253906 C 24.597656 30.050781 25.085938 30.191406 26.765625 28.863281 C 28.132812 27.785156 29.160156 26.554688 29.925781 25.066406 C 30.855469 23.265625 31.125 22.140625 31.128906 20 C 31.132812 18.097656 30.984375 17.292969 30.34375 15.710938 C 29.398438 13.367188 27.304688 11.121094 24.972656 9.949219 C 23.078125 9 20.121094 8.585938 18.066406 8.988281 M 0.0546875 20 C 0.0546875 21.210938 0.0742188 21.703125 0.0976562 21.101562 C 0.125 20.496094 0.125 19.503906 0.0976562 18.898438 C 0.0742188 18.296875 0.0546875 18.789062 0.0546875 20 "/>
        <path style=" stroke:none;fill-rule:evenodd;fill:rgb(14.117647%,67.058824%,60.784314%);fill-opacity:1;" d="M 16.683594 2.347656 C 12.710938 3.015625 8.773438 5.359375 6.144531 8.625 C 4.441406 10.738281 3.308594 13.015625 2.597656 15.746094 C 2.121094 17.585938 1.992188 20.726562 2.3125 22.753906 C 3.363281 29.382812 7.984375 34.917969 14.214844 37.007812 C 16.441406 37.757812 17.695312 37.824219 17.9375 37.214844 C 17.984375 37.097656 18.078125 36.191406 18.144531 35.199219 C 18.210938 34.210938 18.421875 31.179688 18.613281 28.464844 C 19.011719 22.769531 19.003906 21.863281 18.554688 21.230469 C 18.035156 20.5 17.949219 19.957031 18.242188 19.289062 C 18.933594 17.726562 20.980469 17.714844 21.730469 19.265625 C 22.054688 19.929688 21.980469 20.476562 21.476562 21.1875 C 21.320312 21.402344 21.148438 21.839844 21.089844 22.15625 C 20.988281 22.714844 21.871094 36.53125 22.054688 37.269531 C 22.167969 37.722656 22.566406 37.785156 23.78125 37.53125 C 29.859375 36.277344 34.988281 31.671875 37.003906 25.664062 C 37.886719 23.042969 38.152344 19.632812 37.683594 16.96875 C 37.230469 14.398438 36.113281 11.675781 34.65625 9.601562 C 33.746094 8.304688 31.675781 6.257812 30.367188 5.359375 C 28.21875 3.886719 25.378906 2.757812 22.738281 2.328125 C 21.242188 2.085938 18.183594 2.097656 16.683594 2.347656 M 18.066406 8.988281 C 13.46875 9.890625 10.15625 13.1875 9.117188 17.902344 C 8.816406 19.25 8.8125 21.695312 9.109375 22.800781 C 9.757812 25.226562 11.195312 27.308594 13.351562 28.929688 C 14.84375 30.054688 15.195312 30.003906 15.402344 28.644531 C 15.542969 27.695312 15.292969 27.167969 14.113281 25.894531 C 11.488281 23.066406 10.902344 19.554688 12.507812 16.265625 C 13.15625 14.9375 14.742188 13.320312 16.066406 12.636719 C 17.539062 11.878906 18.390625 11.675781 20.066406 11.679688 C 21.347656 11.683594 21.679688 11.734375 22.671875 12.082031 C 24.113281 12.585938 25.101562 13.246094 26.183594 14.410156 C 27.71875 16.070312 28.53125 18.363281 28.347656 20.539062 C 28.167969 22.707031 27.410156 24.304688 25.746094 26.039062 L 24.621094 27.210938 L 24.609375 28.253906 C 24.597656 30.050781 25.085938 30.191406 26.765625 28.863281 C 28.132812 27.785156 29.160156 26.554688 29.925781 25.066406 C 30.855469 23.265625 31.125 22.140625 31.128906 20 C 31.132812 18.097656 30.984375 17.292969 30.34375 15.710938 C 29.398438 13.367188 27.304688 11.121094 24.972656 9.949219 C 23.078125 9 20.121094 8.585938 18.066406 8.988281 "/>
    </g>
</svg>
