<?xml version="1.0" encoding="UTF-8"?>
<svg xmlns="http://www.w3.org/2000/svg" xmlns:xlink="http://www.w3.org/1999/xlink" width="64px" height="64px" viewBox="0 0 64 64" version="1.1">
    <g id="surface1">
        <path style=" stroke:none;fill-rule:evenodd;fill:rgb(95.294118%,97.647059%,97.647059%);fill-opacity:1;" d="M 14.183594 18.363281 C 10.191406 19.664062 8 22.398438 8 26.078125 C 8 30.269531 10.132812 32.429688 15.878906 34.070312 C 21.007812 35.535156 22.078125 36.300781 22.078125 38.488281 C 22.078125 39.855469 21.175781 40.835938 19.492188 41.289062 C 17.058594 41.941406 14.152344 40.644531 13.402344 38.570312 L 12.992188 37.441406 L 6.777344 37.441406 L 6.929688 38.480469 C 7.347656 41.308594 9.746094 44.121094 12.679688 45.230469 C 14.742188 46.011719 19.253906 46.28125 21.476562 45.757812 C 26.617188 44.546875 29.414062 40.824219 28.5 36.414062 C 27.796875 33.023438 25.925781 31.308594 21.382812 29.886719 C 15.566406 28.066406 14.941406 27.71875 14.523438 26.042969 C 14.1875 24.703125 14.753906 23.585938 16.09375 22.925781 C 18.316406 21.839844 21.191406 23.160156 21.625 25.460938 L 21.832031 26.558594 L 24.996094 26.558594 C 26.859375 26.558594 28.160156 26.429688 28.160156 26.246094 C 28.160156 26.070312 27.984375 25.277344 27.773438 24.480469 C 27.1875 22.292969 25.414062 20.171875 23.238281 19.058594 C 21.640625 18.242188 20.964844 18.09375 18.449219 18.015625 C 16.605469 17.960938 15.023438 18.089844 14.183594 18.363281 M 31.339844 19.875 C 31.007812 20.496094 30.921875 44.761719 31.25 45.609375 C 31.367188 45.925781 31.894531 46.078125 32.835938 46.078125 L 34.238281 46.078125 L 34.238281 35.199219 C 34.238281 28.769531 34.359375 24.320312 34.535156 24.320312 C 34.699219 24.320312 35.527344 25.148438 36.375 26.160156 C 37.226562 27.171875 37.992188 28.070312 38.082031 28.160156 C 38.171875 28.246094 41.445312 32.152344 45.359375 36.835938 C 49.269531 41.519531 52.675781 45.523438 52.929688 45.734375 C 53.183594 45.945312 54.015625 46.074219 54.777344 46.019531 L 56.160156 45.921875 L 56.242188 32.820312 C 56.300781 23.675781 56.222656 19.65625 55.980469 19.507812 C 55.789062 19.390625 55.105469 19.308594 54.457031 19.328125 L 53.28125 19.359375 L 53.121094 30.394531 L 52.960938 41.433594 L 48.269531 35.835938 C 33.859375 18.648438 34.519531 19.363281 33.015625 19.324219 C 32 19.300781 31.574219 19.441406 31.339844 19.875 "/>
        <path style=" stroke:none;fill-rule:evenodd;fill:rgb(1.568628%,54.509807%,98.039216%);fill-opacity:1;" d="M 0 32 L 0 64.003906 L 32.078125 63.921875 L 64.160156 63.839844 L 64.242188 31.921875 L 64.324219 0 L 0 0 L 0 32 M 0.152344 32.160156 C 0.152344 49.761719 0.191406 57.007812 0.238281 48.265625 C 0.289062 39.523438 0.289062 25.121094 0.238281 16.265625 C 0.191406 7.40625 0.152344 14.558594 0.152344 32.160156 M 14.183594 18.363281 C 10.191406 19.664062 8 22.398438 8 26.078125 C 8 30.269531 10.132812 32.429688 15.878906 34.070312 C 21.007812 35.535156 22.078125 36.300781 22.078125 38.488281 C 22.078125 39.855469 21.175781 40.835938 19.492188 41.289062 C 17.058594 41.941406 14.152344 40.644531 13.402344 38.570312 L 12.992188 37.441406 L 6.777344 37.441406 L 6.929688 38.480469 C 7.347656 41.308594 9.746094 44.121094 12.679688 45.230469 C 14.742188 46.011719 19.253906 46.28125 21.476562 45.757812 C 26.617188 44.546875 29.414062 40.824219 28.5 36.414062 C 27.796875 33.023438 25.925781 31.308594 21.382812 29.886719 C 15.566406 28.066406 14.941406 27.71875 14.523438 26.042969 C 14.1875 24.703125 14.753906 23.585938 16.09375 22.925781 C 18.316406 21.839844 21.191406 23.160156 21.625 25.460938 L 21.832031 26.558594 L 24.996094 26.558594 C 26.859375 26.558594 28.160156 26.429688 28.160156 26.246094 C 28.160156 26.070312 27.984375 25.277344 27.773438 24.480469 C 27.1875 22.292969 25.414062 20.171875 23.238281 19.058594 C 21.640625 18.242188 20.964844 18.09375 18.449219 18.015625 C 16.605469 17.960938 15.023438 18.089844 14.183594 18.363281 M 31.339844 19.875 C 31.007812 20.496094 30.921875 44.761719 31.25 45.609375 C 31.367188 45.925781 31.894531 46.078125 32.835938 46.078125 L 34.238281 46.078125 L 34.238281 35.199219 C 34.238281 28.769531 34.359375 24.320312 34.535156 24.320312 C 34.699219 24.320312 35.527344 25.148438 36.375 26.160156 C 37.226562 27.171875 37.992188 28.070312 38.082031 28.160156 C 38.171875 28.246094 41.445312 32.152344 45.359375 36.835938 C 49.269531 41.519531 52.675781 45.523438 52.929688 45.734375 C 53.183594 45.945312 54.015625 46.074219 54.777344 46.019531 L 56.160156 45.921875 L 56.242188 32.820312 C 56.300781 23.675781 56.222656 19.65625 55.980469 19.507812 C 55.789062 19.390625 55.105469 19.308594 54.457031 19.328125 L 53.28125 19.359375 L 53.121094 30.394531 L 52.960938 41.433594 L 48.269531 35.835938 C 33.859375 18.648438 34.519531 19.363281 33.015625 19.324219 C 32 19.300781 31.574219 19.441406 31.339844 19.875 "/>
    </g>
</svg>
