<svg width="40" height="40" viewBox="0 0 40 40" fill="none" xmlns="http://www.w3.org/2000/svg">
<path d="M20.0597 1.00001C9.54182 0.989153 1.00776 9.47513 1.00001 19.9496C0.99225 30.4814 9.48288 38.9969 19.9961 39C30.4597 39.0031 38.986 30.5094 39 20.069C39.0155 9.54958 30.5342 1.01087 20.0597 1.00001ZM30.7125 25.2729C30.5993 26.4921 30.1898 27.6011 29.4717 28.5907C28.7241 29.6221 27.7329 30.3589 26.5851 30.8925C24.9177 31.668 23.1417 31.9457 21.3238 32.0031C20.1031 32.0418 18.8871 31.9705 17.6772 31.7859C16.2146 31.5625 14.8062 31.1624 13.4614 30.5419C12.2841 29.9991 11.2294 29.27 10.2507 28.4278C10.1902 28.3751 10.0583 28.3053 10.1576 28.175C10.5485 27.7112 10.8928 27.2118 11.2573 26.7278C11.8173 25.9864 12.3725 25.2434 12.9232 24.4958C13.0147 24.3717 13.0628 24.395 13.1589 24.4865C14.8574 26.0857 16.866 27.0613 19.1647 27.4258C20.3932 27.6197 21.6279 27.6476 22.8532 27.3622C23.424 27.2288 23.9622 27.0132 24.4307 26.6518C24.5377 26.5681 24.6432 26.4827 24.7238 26.3711C24.7486 26.3447 24.7734 26.3168 24.7983 26.2904C24.8091 26.2765 24.8215 26.264 24.8324 26.2501C24.9161 26.1989 24.9456 26.1058 24.9937 26.0298C25.4714 25.2791 25.4885 24.2926 24.5811 23.6365C24.1344 23.3139 23.6319 23.106 23.1138 22.9354C21.9319 22.5445 20.7096 22.3165 19.4982 22.0435C18.0681 21.7209 16.6458 21.3781 15.2855 20.8182C14.3703 20.4413 13.5234 19.9527 12.7665 19.3198C12.3539 18.9755 12.0329 18.5459 11.7537 18.0852C11.2682 17.2848 11.0122 16.4162 10.9471 15.4825C10.8742 14.4432 11.0169 13.4428 11.4109 12.4765C11.5458 12.1445 11.7599 11.8576 11.9072 11.5334V11.5303C11.9615 11.5148 11.9786 11.4714 11.9832 11.4217V11.4202C12.0499 11.3923 12.0747 11.3349 12.0933 11.2713C12.1352 11.2604 12.1492 11.2278 12.1616 11.1937C12.1725 11.1798 12.1833 11.1658 12.1957 11.1518C12.2236 11.1146 12.2516 11.0789 12.281 11.0417C12.886 10.3189 13.5886 9.70934 14.4029 9.23161C15.5383 8.56774 16.7652 8.17067 18.0573 7.95196C19.0562 7.7829 20.0628 7.73636 21.0726 7.77359C23.6768 7.8682 26.1555 8.42815 28.4169 9.77914C28.9815 10.1157 29.5151 10.4973 30.0161 10.9238C30.0657 10.9657 30.134 10.9967 30.1464 11.0727C30.1216 11.0991 30.0952 11.1255 30.0719 11.1534C29.1506 12.3121 28.2293 13.4707 27.3126 14.6325C27.2273 14.7395 27.1776 14.769 27.0582 14.6635C26.7201 14.3626 26.3493 14.102 25.9631 13.8678C23.9172 12.6269 21.6899 12.1089 19.309 12.233C18.7196 12.264 18.1457 12.3958 17.6137 12.6704C16.9203 13.0287 16.4721 13.5653 16.41 14.3719C16.3805 14.7442 16.4627 15.0823 16.728 15.3615C17.0568 15.7756 17.5206 15.985 17.9921 16.1727C18.9491 16.5543 19.9542 16.7621 20.9547 16.9886C22.6236 17.367 24.3004 17.7129 25.9042 18.3303C26.9434 18.7304 27.9268 19.2314 28.7783 19.962C29.1506 20.2815 29.467 20.6538 29.771 21.0369C29.8222 21.0447 29.8625 21.0617 29.8455 21.1253V21.1284H29.8439C30.0161 21.4681 30.2131 21.7954 30.3511 22.1506C30.7436 23.1603 30.8165 24.2042 30.7172 25.2714L30.7125 25.2729Z" fill="#1FB07E"/>
</svg>
