<svg version="1.1" id="Layer_1" xmlns="http://www.w3.org/2000/svg" xmlns:xlink="http://www.w3.org/1999/xlink" x="0px" y="0px"
	 width="100%" viewBox="0 0 90 79" enable-background="new 0 0 90 79" xml:space="preserve">
<path fill="#303C42" opacity="1.000000" stroke="none" 
	d="
M61.000000,80.000000 
	C40.666672,80.000000 20.833340,80.000000 1.000008,80.000000 
	C1.000005,53.666676 1.000005,27.333349 1.000003,1.000019 
	C30.999987,1.000012 60.999973,1.000012 90.999969,1.000006 
	C90.999985,27.333315 90.999985,53.666630 90.999992,79.999969 
	C81.166664,80.000000 71.333336,80.000000 61.000000,80.000000 
M37.001221,69.361130 
	C37.001221,48.341454 37.001221,27.321774 37.001221,5.956083 
	C34.550564,6.126871 32.978077,6.236458 31.438551,6.343749 
	C31.438551,29.745567 31.438551,52.722134 31.438551,76.022034 
	C33.471935,75.875992 35.041466,75.763268 37.001556,75.622490 
	C37.001556,73.585457 37.001556,71.950203 37.001221,69.361130 
M51.000660,67.436371 
	C51.000660,70.206207 51.000660,72.976044 51.000660,75.767563 
	C53.273380,75.767563 54.878738,75.767563 56.741829,75.767563 
	C56.741829,52.517021 56.741829,29.488003 56.741829,6.334695 
	C54.770496,6.334695 53.063679,6.334695 51.001106,6.334695 
	C51.001106,26.586931 51.001106,46.518578 51.000660,67.436371 
M71.280235,7.084297 
	C71.280235,29.829382 71.280235,52.574467 71.280235,75.503754 
	C73.270859,75.503754 74.937798,75.503754 76.609116,75.503754 
	C76.609116,52.182701 76.609116,29.305984 76.609116,6.020736 
	C74.737236,6.163454 73.284851,6.274188 71.280235,7.084297 
M17.000515,22.513943 
	C16.356934,17.115673 18.632391,11.292500 14.083220,5.141899 
	C13.183745,7.891908 12.088812,9.695520 12.079143,11.504933 
	C11.967161,32.461369 12.016406,53.418686 12.047049,74.375732 
	C12.047699,74.820366 12.335578,75.264572 12.582376,75.977287 
	C13.997677,75.880058 15.372428,75.785614 17.000515,75.673767 
	C17.000515,58.031815 17.000515,40.770500 17.000515,22.513943 
z"/>
<path fill="#D00328" opacity="1.000000" stroke="none" 
	d="
M37.001389,69.838036 
	C37.001556,71.950203 37.001556,73.585457 37.001556,75.622490 
	C35.041466,75.763268 33.471935,75.875992 31.438551,76.022034 
	C31.438551,52.722134 31.438551,29.745567 31.438551,6.343749 
	C32.978077,6.236458 34.550564,6.126871 37.001221,5.956083 
	C37.001221,27.321774 37.001221,48.341454 37.001389,69.838036 
z"/>
<path fill="#D8C900" opacity="1.000000" stroke="none" 
	d="
M51.000885,66.943298 
	C51.001106,46.518578 51.001106,26.586931 51.001106,6.334695 
	C53.063679,6.334695 54.770496,6.334695 56.741829,6.334695 
	C56.741829,29.488003 56.741829,52.517021 56.741829,75.767563 
	C54.878738,75.767563 53.273380,75.767563 51.000660,75.767563 
	C51.000660,72.976044 51.000660,70.206207 51.000885,66.943298 
z"/>
<path fill="#0096AC" opacity="1.000000" stroke="none" 
	d="
M71.556351,6.734610 
	C73.284851,6.274188 74.737236,6.163454 76.609116,6.020736 
	C76.609116,29.305984 76.609116,52.182701 76.609116,75.503754 
	C74.937798,75.503754 73.270859,75.503754 71.280235,75.503754 
	C71.280235,52.574467 71.280235,29.829382 71.556351,6.734610 
z"/>
<path fill="#D8CAB3" opacity="1.000000" stroke="none" 
	d="
M17.000515,23.011564 
	C17.000515,40.770500 17.000515,58.031815 17.000515,75.673767 
	C15.372428,75.785614 13.997677,75.880058 12.582376,75.977287 
	C12.335578,75.264572 12.047699,74.820366 12.047049,74.375732 
	C12.016406,53.418686 11.967161,32.461369 12.079143,11.504933 
	C12.088812,9.695520 13.183745,7.891908 14.083220,5.141899 
	C18.632391,11.292500 16.356934,17.115673 17.000515,23.011564 
z"/>
</svg>