<?xml version="1.0" encoding="utf-8"?>
<!-- Generator: Adobe Illustrator 27.2.0, SVG Export Plug-In . SVG Version: 6.00 Build 0)  -->
<svg width="40" height="40" version="1.1" id="Layer_1" xmlns="http://www.w3.org/2000/svg" xmlns:xlink="http://www.w3.org/1999/xlink" x="0px" y="0px"
	 viewBox="0 0 40 40" style="enable-background:new 0 0 40 40;" xml:space="preserve">
<style type="text/css">
	.st0{fill:url(#SVGID_1_);}
	.st1{fill:#FFFFFF;}
	.st2{clip-path:url(#SVGID_00000119098953606005836600000002118478766985126285_);}
	.st3{fill:url(#SVGID_00000060736414284152926870000000590697674895762828_);}
	.st4{fill:url(#SVGID_00000059994899615617645590000010770165175554730116_);}
	.st5{fill-rule:evenodd;clip-rule:evenodd;fill:#FFFFFF;}
</style>
<g>
	<linearGradient id="SVGID_1_" gradientUnits="userSpaceOnUse" x1="0.5" y1="20.0002" x2="39.5" y2="20.0002">
		<stop  offset="0" style="stop-color:#005BA1"/>
		<stop  offset="7.000000e-02" style="stop-color:#0060A9"/>
		<stop  offset="0.36" style="stop-color:#0071C8"/>
		<stop  offset="0.52" style="stop-color:#0078D4"/>
		<stop  offset="0.64" style="stop-color:#0074CD"/>
		<stop  offset="0.82" style="stop-color:#006ABB"/>
		<stop  offset="1" style="stop-color:#005BA1"/>
	</linearGradient>
	<path class="st0" d="M6.1,39.5c-3.1,0-5.6-2.5-5.6-5.6V6.1C0.5,3,3,0.5,6.1,0.5h27.8c3.1,0,5.6,2.5,5.6,5.6v27.8
		c0,3.1-2.5,5.6-5.6,5.6H6.1z"/>
	<g>
		<path class="st1" d="M33.9,1C36.7,1,39,3.3,39,6.1v27.8c0,2.8-2.3,5.1-5.1,5.1H6.1C3.3,39,1,36.7,1,33.9V6.1C1,3.3,3.3,1,6.1,1
			H33.9 M33.9,0H6.1C2.7,0,0,2.7,0,6.1v27.8C0,37.3,2.7,40,6.1,40h27.8c3.4,0,6.1-2.7,6.1-6.1V6.1C40,2.7,37.3,0,33.9,0L33.9,0z"/>
	</g>
</g>
<g>
	<g>
		<defs>
			<rect id="SVGID_00000114793045371570367300000009007621188741687704_" x="11.1" y="8.2" width="17.8" height="23.6"/>
		</defs>
		<clipPath id="SVGID_00000072976470863927545240000011970419685217770935_">
			<use xlink:href="#SVGID_00000114793045371570367300000009007621188741687704_"  style="overflow:visible;"/>
		</clipPath>
		<g style="clip-path:url(#SVGID_00000072976470863927545240000011970419685217770935_);">
			<path d="M20,14.7c-4.9,0-8.9-1.4-8.9-3.2v17.1c0,1.8,3.9,3.2,8.8,3.2H20c4.9,0,8.9-1.4,8.9-3.2V11.4C28.9,13.2,24.9,14.7,20,14.7
				z"/>
			<path class="st1" d="M28.9,11.4c0,1.8-4,3.2-8.9,3.2c-4.9,0-8.9-1.4-8.9-3.2s4-3.2,8.9-3.2C24.9,8.2,28.9,9.6,28.9,11.4z"/>
			<path d="M26.8,11.2c0,1.1-3.1,2.1-6.8,2.1c-3.8,0-6.8-0.9-6.8-2.1s3.1-2,6.8-2C23.8,9.1,26.8,10.1,26.8,11.2z"/>
			<path class="st1" d="M20,11.7c-1.8,0-3.7,0.2-5.4,0.8c1.7,0.6,3.6,0.8,5.4,0.7c1.8,0.1,3.7-0.2,5.4-0.8
				C23.6,11.9,21.8,11.6,20,11.7z"/>
			
				<radialGradient id="SVGID_00000116221891896896063970000013797719733333927843_" cx="-26.982" cy="10.0036" r="0.5888" gradientTransform="matrix(16.6353 0 0 -16.6353 469.3531 188.5882)" gradientUnits="userSpaceOnUse">
				<stop  offset="0" style="stop-color:#F2F2F2"/>
				<stop  offset="0.58" style="stop-color:#EEEEEE"/>
				<stop  offset="1" style="stop-color:#E6E6E6"/>
			</radialGradient>
			<path style="fill:url(#SVGID_00000116221891896896063970000013797719733333927843_);" d="M25.4,23.3v-4.7h-1.2v5.7h3.4v-1H25.4z
				 M15.5,21c-0.3-0.1-0.5-0.2-0.7-0.4c-0.1-0.1-0.2-0.3-0.2-0.4c0-0.2,0.1-0.3,0.2-0.4c0.2-0.1,0.4-0.2,0.6-0.2
				c0.5,0,1,0.1,1.4,0.4v-1.2c-0.4-0.2-0.9-0.2-1.4-0.2c-0.5,0-1.1,0.1-1.5,0.5c-0.4,0.3-0.6,0.7-0.6,1.2c0,0.7,0.4,1.3,1.4,1.7
				c0.3,0.1,0.6,0.3,0.9,0.5c0.1,0.1,0.2,0.3,0.2,0.4c0,0.2-0.1,0.3-0.2,0.4c-0.2,0.1-0.4,0.2-0.6,0.2c-0.6,0-1.1-0.2-1.5-0.6v1.3
				c0.5,0.2,1,0.3,1.5,0.3c0.6,0,1.1-0.1,1.6-0.5c0.3-0.3,0.5-0.8,0.5-1.3c0-0.4-0.1-0.7-0.3-1C16.3,21.5,15.9,21.2,15.5,21z
				 M22.8,23.2c0.3-0.5,0.5-1.1,0.5-1.7c0-0.5-0.2-1-0.5-1.5c-0.2-0.4-0.6-0.8-1-1c-0.4-0.2-0.9-0.4-1.4-0.4c-0.5,0-1,0.1-1.5,0.4
				c-0.4,0.2-0.8,0.6-1,1c-0.2,0.5-0.4,1-0.4,1.6c0,0.5,0.1,1,0.3,1.4c0.2,0.4,0.5,0.8,1,1c0.4,0.2,0.9,0.4,1.4,0.4l1.2,1.4h1.7
				l-1.7-1.5C22,24.1,22.5,23.7,22.8,23.2z M21.4,22.9c-0.2,0.3-0.7,0.5-1.1,0.5c-0.4,0-0.8-0.2-1.1-0.5c-0.3-0.4-0.4-0.9-0.4-1.4
				c0-0.5,0.1-1,0.4-1.4c0.3-0.3,0.7-0.5,1.1-0.5c0.4,0,0.8,0.2,1,0.5c0.3,0.4,0.4,0.9,0.4,1.4C21.8,22,21.7,22.5,21.4,22.9z"/>
		</g>
	</g>
</g>
<g>
	
		<linearGradient id="SVGID_00000059302195404554417310000002889169789583347077_" gradientUnits="userSpaceOnUse" x1="0.5" y1="31.7068" x2="16.0859" y2="31.7068">
		<stop  offset="0" style="stop-color:#00B8F1"/>
		<stop  offset="0.2199" style="stop-color:#06A5E5"/>
		<stop  offset="0.7943" style="stop-color:#1870C5"/>
		<stop  offset="1" style="stop-color:#1D61BC"/>
	</linearGradient>
	<path style="fill:url(#SVGID_00000059302195404554417310000002889169789583347077_);" d="M2.5,39.5c-1.1,0-2-0.9-2-2V25.9
		c0-1.1,0.9-2,2-2h11.5c1.1,0,2,0.9,2,2v11.5c0,1.1-0.9,2-2,2H2.5z"/>
	<path class="st1" d="M14.1,24.4c0.8,0,1.5,0.7,1.5,1.5v11.5c0,0.8-0.7,1.5-1.5,1.5H2.5C1.7,39,1,38.3,1,37.5V25.9
		c0-0.8,0.7-1.5,1.5-1.5H14.1 M14.1,23.4H2.5c-1.4,0-2.5,1.1-2.5,2.5v11.5C0,38.9,1.1,40,2.5,40h11.5c1.4,0,2.5-1.1,2.5-2.5V25.9
		C16.6,24.5,15.5,23.4,14.1,23.4L14.1,23.4z"/>
</g>
<path class="st5" d="M12.2,31.5h-0.4v-1.4h0.4c0.5,0,0.9,0.2,0.9,0.7C13,31.4,12.7,31.5,12.2,31.5z M8.2,32.5c-0.2,0-0.4,0-0.5-0.1
	l0.5-1.7h0l0.5,1.7C8.5,32.5,8.4,32.5,8.2,32.5L8.2,32.5z M12.1,29.1h-1.7v4l-1.5-4H7.5l-1.3,3.3c-0.1-0.8-1-1.1-1.7-1.4
	c-0.5-0.1-0.9-0.4-0.9-0.6c0-0.2,0.3-0.4,0.8-0.3c0.3,0,0.6,0,1.2,0.3l0.6-1C5.6,29.2,4.9,29,4.3,29h0c-0.7,0-1.3,0.2-1.7,0.6
	c-0.3,0.3-0.4,0.6-0.4,1c0,0.5,0.2,0.9,0.6,1.2c0.3,0.2,0.8,0.4,1.1,0.5c0.5,0.1,0.8,0.3,0.8,0.5c0,0.1,0,0.2-0.1,0.3
	c-0.1,0.1-0.3,0.2-0.5,0.2c-0.5,0-0.8-0.1-1.4-0.4l-0.5,1c0.6,0.3,1.2,0.5,1.9,0.5h0.1c0.6,0,1.1-0.2,1.4-0.5l0.1-0.1l-0.2,0.5H7
	l0.3-0.8c0.3,0.1,0.6,0.1,0.9,0.1c0.3,0,0.6,0,0.9-0.1l0.2,0.8h2.5v-1.6h0.5c1.3,0,2.1-0.7,2.1-1.8C14.4,29.7,13.7,29.1,12.1,29.1"
	/>
</svg>
