<?xml version="1.0" encoding="UTF-8"?>
<svg xmlns="http://www.w3.org/2000/svg" xmlns:xlink="http://www.w3.org/1999/xlink" width="40px" height="40px" viewBox="0 0 40 40" version="1.1">
  <g id="surface1">
    <path style=" stroke:none;fill-rule:evenodd;fill:rgb(99.607843%,99.607843%,100%);fill-opacity:1;" d="M -0.0898438 -0.0898438 C 13.246094 -0.0898438 26.578125 -0.0898438 39.910156 -0.0898438 C 39.910156 13.246094 39.910156 26.578125 39.910156 39.910156 C 26.578125 39.910156 13.246094 39.910156 -0.0898438 39.910156 C -0.0898438 26.578125 -0.0898438 13.246094 -0.0898438 -0.0898438 Z M -0.0898438 -0.0898438 "/>
    <path style=" stroke:none;fill-rule:evenodd;fill:rgb(30.588235%,49.803922%,100%);fill-opacity:1;" d="M 16.089844 5.421875 C 19.910156 5.1875 23.761719 5.1875 27.644531 5.421875 C 27.621094 5.53125 27.5625 5.589844 27.464844 5.601562 C 23.703125 5.421875 19.914062 5.363281 16.089844 5.421875 Z M 16.089844 5.421875 "/>
    <path style=" stroke:none;fill-rule:evenodd;fill:rgb(3.137255%,37.647059%,100%);fill-opacity:1;" d="M 16.089844 5.421875 C 19.914062 5.363281 23.703125 5.421875 27.464844 5.601562 C 26.652344 7.558594 25.761719 9.484375 24.800781 11.378906 C 26.726562 13.660156 28.652344 15.941406 30.578125 18.222656 C 32.820312 21.421875 33.234375 24.859375 31.820312 28.535156 C 30.195312 31.96875 27.5 33.953125 23.734375 34.488281 C 19.878906 34.636719 16.027344 34.605469 12.179688 34.398438 C 12.996094 32.75 13.792969 31.089844 14.578125 29.421875 C 14.78125 29.023438 14.839844 28.605469 14.753906 28.179688 C 12.859375 25.925781 10.964844 23.675781 9.066406 21.421875 C 6.519531 17.285156 6.582031 13.195312 9.246094 9.15625 C 11.035156 7 13.316406 5.757812 16.089844 5.421875 Z M 16.089844 5.421875 "/>
    <path style=" stroke:none;fill-rule:evenodd;fill:rgb(99.215686%,99.215686%,100%);fill-opacity:1;" d="M 12.179688 11.464844 C 15.734375 11.40625 19.289062 11.464844 22.84375 11.644531 C 22.269531 12.96875 21.648438 14.273438 20.976562 15.554688 C 20.859375 15.851562 20.859375 16.148438 20.976562 16.445312 C 23.527344 19.464844 26.074219 22.488281 28.621094 25.511719 C 29.070312 26.519531 28.863281 27.378906 28 28.089844 C 26.121094 28.292969 24.222656 28.382812 22.3125 28.355469 C 20.535156 28.296875 18.753906 28.238281 16.976562 28.179688 C 17.617188 26.691406 18.328125 25.238281 19.109375 23.820312 C 16.351562 20.582031 13.65625 17.292969 11.023438 13.957031 C 10.882812 12.875 11.265625 12.042969 12.179688 11.464844 Z M 12.179688 11.464844 "/>
  </g>
</svg>
