<svg xmlns="http://www.w3.org/2000/svg" width="1012.675" height="233.2" viewBox="0 0 1012.675 233.2"><g id="Layer_1" transform="translate(-93.525 -133.4)"><g id="Group_54" data-name="Group 54"><path id="Path_166" data-name="Path 166" d="M474.8,364.3h-4.6l-11.9-18.9v18.9h-4.6V337.7h4.6l11.9,19v-19h4.6Z" fill="#fff"></path><path id="Path_167" data-name="Path 167" d="M505.2,351.6a16.658,16.658,0,0,1-1.4,6.9,9.613,9.613,0,0,1-3.9,4.5,11.312,11.312,0,0,1-11.6,0,10.685,10.685,0,0,1-3.9-4.5,15.718,15.718,0,0,1-1.4-6.7v-1.5a16.658,16.658,0,0,1,1.4-6.9,10.877,10.877,0,0,1,15.5-4.6,9.613,9.613,0,0,1,3.9,4.5,16.184,16.184,0,0,1,1.4,6.8Zm-4.6-1.3a11.977,11.977,0,0,0-1.7-6.8,5.4,5.4,0,0,0-4.7-2.4,5.561,5.561,0,0,0-4.7,2.3,11.5,11.5,0,0,0-1.7,6.6v1.5a11.977,11.977,0,0,0,1.7,6.8,5.4,5.4,0,0,0,4.7,2.4,5.561,5.561,0,0,0,4.7-2.3c1.1-1.5,1.7-3.8,1.7-6.8Z" fill="#fff"></path><path id="Path_168" data-name="Path 168" d="M534.4,357.7l4.1-20h4.6L537,364.3h-4.4l-5.1-19.4-5.2,19.4h-4.4l-6.1-26.6h4.6l4.1,20,5.1-20h3.9Z" fill="#fff"></path><path id="Path_169" data-name="Path 169" d="M578.2,358.1H567.9l-2.2,6.2h-4.8L571,337.7h4.1l10.1,26.6h-4.8Zm-9-3.8h7.7l-3.9-11Z" fill="#fff"></path><path id="Path_170" data-name="Path 170" d="M618.9,357.4a3.16,3.16,0,0,0-1.2-2.7,14.442,14.442,0,0,0-4.4-1.9,20.479,20.479,0,0,1-5.1-2.2,6.817,6.817,0,0,1-3.6-6,6.675,6.675,0,0,1,2.6-5.3,10.426,10.426,0,0,1,6.8-2.1,11.459,11.459,0,0,1,5,1,8.123,8.123,0,0,1,3.4,2.9,7.871,7.871,0,0,1,1.2,4.2H619a4.156,4.156,0,0,0-1.3-3.3,5.314,5.314,0,0,0-3.7-1.2,5.219,5.219,0,0,0-3.5,1,3.229,3.229,0,0,0-1.3,2.7,2.81,2.81,0,0,0,1.4,2.4,13.96,13.96,0,0,0,4.5,1.9,19.766,19.766,0,0,1,5,2.1,8.086,8.086,0,0,1,2.8,2.7,6.871,6.871,0,0,1,.9,3.6,6.317,6.317,0,0,1-2.5,5.3,11.1,11.1,0,0,1-6.9,2,13.22,13.22,0,0,1-5.3-1.1,8.8,8.8,0,0,1-3.8-3A7.366,7.366,0,0,1,604,356h4.6a4.26,4.26,0,0,0,1.5,3.5,6.677,6.677,0,0,0,4.3,1.2,5.336,5.336,0,0,0,3.6-1A2.9,2.9,0,0,0,618.9,357.4Z" fill="#fff"></path><path id="Path_171" data-name="Path 171" d="M636.2,364.3h-4.6V337.7h4.6Z" fill="#fff"></path><path id="Path_172" data-name="Path 172" d="M664.9,341.4h-8.3v22.9H652V341.4h-8.2v-3.7h21.1v3.7Z" fill="#fff"></path><path id="Path_173" data-name="Path 173" d="M687.6,352.4H676.7v8.2h12.8v3.7H672.1V337.7h17.3v3.7H676.8v7.3h10.9v3.7Z" fill="#fff"></path><path id="Path_174" data-name="Path 174" d="M701.3,360.6h14.2v3.7H695.7v-3l13.8-19.9H695.8v-3.7h19.3v2.9Z" fill="#fff"></path><path id="Path_175" data-name="Path 175" d="M738.8,352.4H727.9v8.2h12.8v3.7H723.3V337.7h17.3v3.7H728v7.3h10.9v3.7Z" fill="#fff"></path><path id="Path_176" data-name="Path 176" d="M767.6,337.6v17.8a8.594,8.594,0,0,1-2.7,6.7,10.03,10.03,0,0,1-7.2,2.5,10.706,10.706,0,0,1-7.3-2.4,8.669,8.669,0,0,1-2.7-6.8V337.6h4.6v17.8a5.809,5.809,0,0,0,1.4,4.1,5.39,5.39,0,0,0,4,1.4c3.6,0,5.3-1.9,5.3-5.6V337.6Z" fill="#fff"></path><path id="Path_177" data-name="Path 177" d="M790.2,357.4a3.16,3.16,0,0,0-1.2-2.7,14.142,14.142,0,0,0-4.5-1.9,20.479,20.479,0,0,1-5.1-2.2,6.817,6.817,0,0,1-3.6-6,6.675,6.675,0,0,1,2.6-5.3,10.426,10.426,0,0,1,6.8-2.1,11.459,11.459,0,0,1,5,1,8.788,8.788,0,0,1,3.4,2.9,7.871,7.871,0,0,1,1.2,4.2h-4.6a4.156,4.156,0,0,0-1.3-3.3,5.314,5.314,0,0,0-3.7-1.2,5.219,5.219,0,0,0-3.5,1,3.229,3.229,0,0,0-1.3,2.7,2.81,2.81,0,0,0,1.4,2.4,13.96,13.96,0,0,0,4.5,1.9,19.766,19.766,0,0,1,5,2.1,8.086,8.086,0,0,1,2.8,2.7,6.871,6.871,0,0,1,.9,3.6,6.4,6.4,0,0,1-2.6,5.3,11.1,11.1,0,0,1-6.9,2,13.22,13.22,0,0,1-5.3-1.1,8.8,8.8,0,0,1-3.8-3,7.366,7.366,0,0,1-1.3-4.4h4.6a4.26,4.26,0,0,0,1.5,3.5,6.677,6.677,0,0,0,4.3,1.2,5.336,5.336,0,0,0,3.6-1A2.478,2.478,0,0,0,790.2,357.4Z" fill="#fff"></path><path id="Path_178" data-name="Path 178" d="M836,355.6a9.609,9.609,0,0,1-3.1,6.6,10.706,10.706,0,0,1-7.3,2.4,10.425,10.425,0,0,1-5.6-1.5,9.208,9.208,0,0,1-3.7-4.3,16.358,16.358,0,0,1-1.4-6.5v-2.5a15.255,15.255,0,0,1,1.3-6.6,10.279,10.279,0,0,1,3.8-4.4,11.2,11.2,0,0,1,5.8-1.6,10.347,10.347,0,0,1,7.1,2.4,9.9,9.9,0,0,1,3.1,6.8h-4.6a6.257,6.257,0,0,0-1.7-4.1,5.713,5.713,0,0,0-3.9-1.3,5.185,5.185,0,0,0-4.6,2.2c-1.1,1.5-1.6,3.6-1.7,6.5v2.4q0,4.35,1.5,6.6a5.086,5.086,0,0,0,4.5,2.3,6.081,6.081,0,0,0,4.1-1.2,6.257,6.257,0,0,0,1.7-4.1H836Z" fill="#fff"></path><path id="Path_179" data-name="Path 179" d="M865.1,351.6a16.658,16.658,0,0,1-1.4,6.9,9.613,9.613,0,0,1-3.9,4.5,11.312,11.312,0,0,1-11.6,0,10.685,10.685,0,0,1-3.9-4.5,15.717,15.717,0,0,1-1.4-6.7v-1.5a16.658,16.658,0,0,1,1.4-6.9,10.877,10.877,0,0,1,15.5-4.6,9.613,9.613,0,0,1,3.9,4.5,16.184,16.184,0,0,1,1.4,6.8Zm-4.6-1.3a11.977,11.977,0,0,0-1.7-6.8,5.4,5.4,0,0,0-4.7-2.4,5.561,5.561,0,0,0-4.7,2.3,11.5,11.5,0,0,0-1.7,6.6v1.5a11.977,11.977,0,0,0,1.7,6.8,5.4,5.4,0,0,0,4.7,2.4,5.561,5.561,0,0,0,4.7-2.3c1.1-1.5,1.7-3.8,1.7-6.8Z" fill="#fff"></path><path id="Path_180" data-name="Path 180" d="M879.5,337.6l7.7,20.4,7.7-20.4h6v26.6h-4.6v-8.8l.5-11.7-7.9,20.5h-3.3l-7.8-20.5.5,11.7v8.8h-4.6V337.6Z" fill="#fff"></path><path id="Path_181" data-name="Path 181" d="M914.6,354.4v9.9H910V337.7h10.2a10.625,10.625,0,0,1,7.1,2.3,8,8,0,0,1,2.6,6.1,7.71,7.71,0,0,1-2.6,6.1c-1.7,1.5-4.1,2.2-7.2,2.2Zm0-3.7h5.6a5.586,5.586,0,0,0,3.8-1.2,4.237,4.237,0,0,0,1.3-3.4,4.375,4.375,0,0,0-1.3-3.4,4.835,4.835,0,0,0-3.6-1.3h-5.7v9.3Z" fill="#fff"></path><path id="Path_182" data-name="Path 182" d="M949.3,358.1H939l-2.2,6.2H932l10.1-26.6h4.1l10.1,26.6h-4.8Zm-9-3.8H948l-3.9-11Z" fill="#fff"></path><path id="Path_183" data-name="Path 183" d="M984.1,364.3h-4.6l-11.9-18.9v18.9H963V337.7h4.6l11.9,19v-19h4.6Z" fill="#fff"></path><path id="Path_184" data-name="Path 184" d="M1002,350.3l6.1-12.6h5.1l-8.9,16.8v9.8h-4.6v-9.8l-8.9-16.8h5.1Z" fill="#fff"></path></g><g id="Synuma_00000140698180112007971510000005865765619068027543_"><g id="Synuma_00000170996425397196686860000008966769230170109334_"><path id="Synuma_00000018951802535786459950000017482431563480787117_" d="M431.8,235.2c6.5,2.8,11.4,6.4,14.6,11a26.816,26.816,0,0,1,4.9,16.2c0,9.1-2.9,16.5-8.7,22.1s-13.5,8.4-23.1,8.4c-7.9,0-14.4-2-19.7-6s-8.9-9.7-10.7-17.1l10.7-5.3c1.4,6,3.9,10.6,7.2,13.7a17.629,17.629,0,0,0,12.5,4.7q8.85,0,14.4-5.1a17.281,17.281,0,0,0,5.5-13.3,18.26,18.26,0,0,0-3.9-11.6c-2.5-3.3-6.4-6-11.6-8.3l-12.1-5.1c-6.6-2.8-11.6-6.3-14.8-10.7a25.032,25.032,0,0,1-4.9-15.6,22.414,22.414,0,0,1,7.9-17.6q7.95-6.9,20.1-6.9a30.69,30.69,0,0,1,15.5,3.8,25.288,25.288,0,0,1,10.2,11.2L436,210a24.771,24.771,0,0,0-7.5-8.6,16.246,16.246,0,0,0-9.4-2.8,15.191,15.191,0,0,0-10.9,4.1,13.788,13.788,0,0,0-4.3,10.4,13.414,13.414,0,0,0,3.3,9.1c2.2,2.6,5.5,4.9,10.1,6.9l14.2,6.3Zm601.6-21.9-15.8,36.6h31.7Zm0-26.2,45.2,103.4h-12.8L1052.9,260H1014l-12.9,30.5H988.3l45.1-103.4ZM905.5,294.4l-30.9-71.5-12.5,67.6H850.5l20.2-103.4,34.8,82.2,34.8-82.2,20.2,103.4H948.9l-12.6-67.6-30.8,71.5ZM732.4,191h12v61.9c0,10.1,2.2,17.4,6.4,22.1,4.3,4.7,11,7.1,20.2,7.1,9.1,0,15.8-2.4,20.2-7.1,4.3-4.7,6.4-12.1,6.4-22.1V191h12v61.9c0,13.5-3.2,23.5-9.6,30.2s-16.1,10-29,10c-12.8,0-22.5-3.3-28.9-10s-9.6-16.7-9.6-30.2l-.1-61.9ZM598.9,290.5V187.1l72.8,79.5V191H683V294.4l-72.8-78.6v74.8H598.9Zm-83.8,0V245l-33.7-54H495l26,43.1L547,191h13.6l-33.7,53.9v45.5H515.1Z" fill="#08f"></path></g><g id="Synuma_Bee_00000012455373003199613600000004208731167288330635_"><g id="Synuma_00000050664070189033904550000011776576090607983270_"><path id="Path_185" data-name="Path 185" d="M167,135.6a12.959,12.959,0,0,0-11.6,6.7l-57.8,100a13.317,13.317,0,0,0,0,13.5l57.8,100a13.071,13.071,0,0,0,11.6,6.7H272.8l4.2,2.2h5.5a15.3,15.3,0,0,0,13.5-7.8l2.7-4.8-.4-3.7,53.5-92.7a13.317,13.317,0,0,0,0-13.5L294,142.2a13.071,13.071,0,0,0-11.6-6.7H167Z" fill="#fff"></path><g id="Group_55" data-name="Group 55"><path id="Path_186" data-name="Path 186" d="M167,133.4H282.5a15.3,15.3,0,0,1,13.5,7.8l57.8,100a15.073,15.073,0,0,1,0,15.6l-55,95.3c-2-6.2-4-12.5-5.5-18.8l48.3-83.6a1.2,1.2,0,0,0,0-1.4l-57.8-100a1.086,1.086,0,0,0-1.2-.7H167a1.166,1.166,0,0,0-.7.2l-7.5-4.2.4-8.1a14.954,14.954,0,0,1,7.8-2.1Z" fill="#08f"></path><path id="Path_187" data-name="Path 187" d="M166.3,147.7c-.2.1-.3.3-.5.6L108,248.3a1.2,1.2,0,0,0,0,1.4l57.8,100a1.086,1.086,0,0,0,1.2.7h96.5c4.7,4.5,9.1,9.4,13.5,14.2H167a15.3,15.3,0,0,1-13.5-7.8l-57.8-100a15.073,15.073,0,0,1,0-15.6l57.8-100a15.863,15.863,0,0,1,5.7-5.8l7.1,12.3Z" fill="#0673ea"></path></g></g><g id="Bee_00000078738200769499302380000016922860901156880289_"><g id="Group_56" data-name="Group 56"><path id="Path_188" data-name="Path 188" d="M261.5,193l40.8,70.7a7.776,7.776,0,0,1,0,8.3L282,307.2c-5.9,12.8,2.2,32.1,10.6,59.4-19.4-21-32.1-37.6-46.1-38.9H205.9a8.193,8.193,0,0,1-7.2-4.2l-40.8-70.7L151.7,242l22.5-47.3H162.6a2.585,2.585,0,0,1-2.4-1.4,2.8,2.8,0,0,1,0-2.8l1.6-2.8a2.693,2.693,0,0,1,2.4-1.4h14.9l14.1-8.1,7.5-12.9a2.693,2.693,0,0,1,2.4-1.4h3.2a2.585,2.585,0,0,1,2.4,1.4,2.8,2.8,0,0,1,0,2.8l-5.8,10.1,52.3,4.2,6.2,10.8h.1Z" fill="#232323"></path><path id="Path_189" data-name="Path 189" d="M261.5,193l40.8,70.7a7.776,7.776,0,0,1,0,8.3L282,307.2c-5.9,12.8,2.2,32.1,10.6,59.4L184.4,179.1a8.481,8.481,0,0,1,4.2-1.1h59.5a8.193,8.193,0,0,1,7.2,4.2l6.2,10.8Z" fill="#3c3c3c"></path></g><g id="Group_57" data-name="Group 57"><path id="Path_190" data-name="Path 190" d="M285.1,242.1l-29.7,51.6a8.193,8.193,0,0,1-7.2,4.2H188.7a8.193,8.193,0,0,1-7.2-4.2l8.6,15a8.193,8.193,0,0,0,7.2,4.2h59.5a8.193,8.193,0,0,0,7.2-4.2l29.7-51.6a7.776,7.776,0,0,0,0-8.3l-8.6-15A8.216,8.216,0,0,1,285.1,242.1Zm-32.3-4.2L238,263.6a8.193,8.193,0,0,1-7.2,4.2H183l-6.7,11.6a7.942,7.942,0,0,1-1.4,1.7,8.24,8.24,0,0,0,5.1,1.7h59.5a8.193,8.193,0,0,0,7.2-4.2L276.4,227a7.871,7.871,0,0,0,1.2-4.2H175.2L190,197.1a8.193,8.193,0,0,1,7.2-4.2h59.5a8.193,8.193,0,0,1,7.2,4.2l-8.6-15a8.193,8.193,0,0,0-7.2-4.2H188.6a8.193,8.193,0,0,0-7.2,4.2l-29.7,51.6a7.871,7.871,0,0,0-1.2,4.2v.3a5.663,5.663,0,0,1,1.8-.3H252.8Z" fill="#ca9731"></path><path id="Path_191" data-name="Path 191" d="M285.1,242.1l-29.7,51.6a7.849,7.849,0,0,1-3,3l8.6,15a8.618,8.618,0,0,0,3-3l29.7-51.6a7.776,7.776,0,0,0,0-8.3l-8.6-15A8.216,8.216,0,0,1,285.1,242.1ZM261.5,193l2.4,4.2a8.193,8.193,0,0,0-7.2-4.2H197.2a8.481,8.481,0,0,0-4.2,1.1l-8.6-15a7.551,7.551,0,0,1,4.2-1.1h61.5l.1.1.1.1.1.1h0l.1.1h0l.1.1.1.1h0l.1.1.1.1.1.1.1.1h0l.1.1.1.1h0l.1.1.1.1h0l.1.1.1.1.1.1.1.1.1.1.1.1.1.1.1.1.1.1.1.1.1.1h0l.1.1.1.1.1.1.1.1.1.1.1.1.1.1.1.1.1.1.1.1.1.1.1.1.1.1.1.1.1.1.1.1.1.1.1.1.1.1.1.1.1.1.1.1.1.1.1.1.1.1.1.1,6.2,10.8Zm-17.9,88.7-8.6-15a8.618,8.618,0,0,0,3-3L252.8,238H218.3l-8.6-15h67.8a8.4,8.4,0,0,1-1.2,4.2l-29.7,51.6a8.363,8.363,0,0,1-3,2.9Z" fill="#ffcc05"></path></g><g id="Group_62" data-name="Group 62"><g id="Group_59" data-name="Group 59"><path id="Path_192" data-name="Path 192" d="M195.6,246l3.1,77.6-34.6-60Z" fill="rgba(0,0,0,0.5)"></path><g id="Group_58" data-name="Group 58"><path id="Path_193" data-name="Path 193" d="M174.3,281.4a4.115,4.115,0,0,0,1.9-2L195.5,246a5.235,5.235,0,0,0,0-5.4h0a5.335,5.335,0,0,0-4.7-2.7H152.2a4.844,4.844,0,0,0-1.8.3,7.715,7.715,0,0,0,1.2,3.8l2,17.4Z" fill="#bebdbd"></path><path id="Path_194" data-name="Path 194" d="M147.7,240.6,128.4,274a5.235,5.235,0,0,0,0,5.4h0a5.335,5.335,0,0,0,4.7,2.7h38.6a4.953,4.953,0,0,0,2.7-.7l-16.5-28.6L151.7,242a8.9,8.9,0,0,1-1.2-3.8,2.01,2.01,0,0,0-.8.4,4.814,4.814,0,0,0-2,2Z" fill="#d1e7ee"></path></g></g><g id="Group_61" data-name="Group 61"><path id="Path_195" data-name="Path 195" d="M237.1,222.9l65.6,41.5-34.6-59.9Z" fill="rgba(0,0,0,0.5)"></path><g id="Group_60" data-name="Group 60"><path id="Path_196" data-name="Path 196" d="M251.7,181.4l-19.3,33.4a5.235,5.235,0,0,0,0,5.4h0a5.335,5.335,0,0,0,4.7,2.7h38.6a4.953,4.953,0,0,0,2.7-.7h0l-4.2-26.9-19-13.1a8.255,8.255,0,0,0-2.1-2.4A7.314,7.314,0,0,0,251.7,181.4Z" fill="#bebdbd"></path><path id="Path_197" data-name="Path 197" d="M278.4,222.2a4.116,4.116,0,0,0,1.9-2l19.3-33.4a5.235,5.235,0,0,0,0-5.4h0a5.335,5.335,0,0,0-4.7-2.7H256.3a4.953,4.953,0,0,0-2.7.7c-.2.1-.3.2-.5.3a12.065,12.065,0,0,1,2.1,2.4l6.2,10.8,17,29.3Z" fill="#d1e7ee"></path></g></g></g></g></g></g><g id="Group_63" data-name="Group 63"><path id="Path_198" data-name="Path 198" d="M1083.1,185.6v3h-5.8v15.2h-3.6V188.6h-5.8v-3Zm19.7,18.3-.7-10.7c-.1-1.4-.1-3.1-.1-5.1h-.2c-.5,1.6-1.1,3.8-1.5,5.4l-3.3,10.1h-3.8l-3.3-10.4c-.3-1.3-.9-3.6-1.3-5.2h-.2c0,1.7-.1,3.4-.1,5.1l-.7,10.7h-3.5l1.3-18.2h5.4l3.1,8.9c.5,1.4.7,2.7,1.2,4.6h.1c.5-1.6.9-3.2,1.3-4.5l3.1-9h5.2l1.4,18.2h-3.4Z" fill="#fff"></path></g></g></svg>