<svg version="1.1" id="Layer_1" xmlns="http://www.w3.org/2000/svg" xmlns:xlink="http://www.w3.org/1999/xlink" x="0px" y="0px"
	 width="100%" viewBox="0 0 225 225" enable-background="new 0 0 225 225" xml:space="preserve">
<path fill="#FEFEFE" opacity="1.000000" stroke="none" 
	d="
M131.000000,226.000000 
	C87.333336,226.000000 44.166672,226.000000 1.000006,226.000000 
	C1.000004,151.000000 1.000004,76.000015 1.000002,1.000016 
	C75.999992,1.000011 150.999985,1.000011 225.999969,1.000005 
	C225.999985,75.999985 225.999985,150.999969 226.000000,225.999969 
	C194.500000,226.000000 163.000000,226.000000 131.000000,226.000000 
M41.185104,199.332184 
	C41.318165,199.255112 41.451225,199.178040 41.584290,199.100967 
	C41.370533,199.094269 41.156776,199.087555 41.372116,198.509705 
	C40.965843,197.960556 40.559570,197.411407 39.922081,196.214096 
	C39.359249,195.393982 38.769234,194.591080 38.237564,193.751221 
	C24.431427,171.942261 22.536852,149.057388 34.369312,126.177475 
	C46.275078,103.155823 65.963440,91.075699 92.218880,90.931793 
	C92.218880,100.004601 92.218880,109.077400 92.218880,118.193947 
	C70.577965,116.218071 56.662510,124.464363 53.177303,141.165161 
	C50.114895,155.839966 58.678810,170.203140 66.987022,172.563156 
	C53.641029,146.466003 75.621033,120.312141 102.589111,126.785683 
	C102.589111,114.828484 102.589111,102.921997 102.589111,90.052376 
	C98.912155,90.052376 95.473656,90.052376 92.076736,89.155350 
	C92.076736,86.854584 92.076736,84.553825 92.076736,82.013962 
	C89.728142,81.710640 87.782219,81.318939 85.822235,81.226967 
	C48.322472,79.467110 16.099022,110.205956 16.469229,147.704376 
	C16.666159,167.651459 23.872406,184.660202 39.658501,198.200409 
	C40.110622,198.457657 40.562744,198.714905 41.185104,199.332184 
M149.956894,78.942932 
	C149.970703,103.629059 149.984512,128.315186 149.700058,153.714447 
	C149.501007,154.862396 149.260437,156.004913 149.108932,157.159103 
	C144.158371,194.873535 107.412376,220.939636 69.978065,213.051666 
	C63.598614,211.707413 57.453362,209.251709 49.957924,206.923737 
	C52.097168,208.593704 53.286781,209.604904 54.557194,210.501633 
	C71.595787,222.528290 90.282394,225.908356 110.491692,221.025665 
	C137.287750,214.551575 159.333069,188.147568 160.029724,161.049713 
	C160.014267,135.365234 159.998825,109.680763 160.665329,83.640511 
	C162.245972,84.521591 163.856552,85.353317 165.402557,86.291481 
	C179.138779,94.627075 193.999512,98.867889 210.339249,99.038918 
	C210.339249,86.910019 210.339249,75.193855 210.339249,63.348427 
	C206.775101,62.896652 203.361328,62.463943 199.970276,61.129044 
	C199.970276,58.878399 199.970276,56.627754 199.970276,55.117558 
	C191.930634,53.327168 184.711746,51.719551 176.841599,49.966908 
	C183.835800,56.343182 191.545776,59.879734 200.032486,62.916019 
	C200.032486,71.990990 200.032486,81.065964 200.032486,90.238403 
	C198.542313,90.238403 197.715729,90.252457 196.889740,90.236328 
	C180.347046,89.913383 165.470932,84.322502 151.164398,75.329178 
	C150.806076,75.555107 150.447769,75.781044 149.936951,76.672501 
	C149.992783,77.120865 150.048615,77.569221 149.956894,78.942932 
M109.879501,162.228989 
	C101.072571,176.613541 88.141304,180.649963 71.932526,177.132523 
	C73.419586,179.023117 74.864082,180.582443 76.600983,181.678314 
	C86.487930,187.916153 96.847649,188.985031 107.337547,183.484314 
	C118.119156,177.830627 123.918518,168.632416 123.958588,156.465836 
	C124.110611,110.304535 124.020317,64.142448 124.020638,17.980652 
	C124.020645,16.215952 124.020638,14.451251 124.020638,12.090887 
	C133.035675,12.090887 141.425735,12.090887 150.052338,12.090887 
	C149.851257,9.044189 149.691422,6.622529 149.537369,4.288472 
	C137.411011,4.288472 125.676315,4.288472 113.722893,4.288472 
	C113.722893,6.669629 113.722893,8.663076 113.722885,10.656524 
	C113.722755,55.318474 113.847832,99.981224 113.565475,144.641388 
	C113.529823,150.280426 111.354111,155.905945 109.879501,162.228989 
M165.282318,40.205921 
	C166.683777,41.412823 168.085220,42.619724 169.486679,43.826626 
	C163.746674,34.163536 160.274109,24.033052 159.972000,13.067861 
	C156.742142,13.067861 153.864532,13.067861 150.654129,13.067861 
	C152.534790,23.809082 157.426788,32.401966 165.282318,40.205921 
z"/>
<path fill="#FF0651" opacity="1.000000" stroke="none" 
	d="
M151.500763,75.870331 
	C165.470932,84.322502 180.347046,89.913383 196.889740,90.236328 
	C197.715729,90.252457 198.542313,90.238403 200.032486,90.238403 
	C200.032486,81.065964 200.032486,71.990990 199.996521,62.449875 
	C199.960556,61.983730 199.947556,62.031231 199.947556,62.031231 
	C203.361328,62.463943 206.775101,62.896652 210.339249,63.348427 
	C210.339249,75.193855 210.339249,86.910019 210.339249,99.038918 
	C193.999512,98.867889 179.138779,94.627075 165.402557,86.291481 
	C163.856552,85.353317 162.245972,84.521591 160.030655,84.115555 
	C159.263901,85.399254 159.017120,86.207802 159.016403,87.016563 
	C158.995239,110.754875 158.985519,134.493225 159.034821,158.231445 
	C159.037415,159.478271 159.574234,160.723984 159.862335,161.970215 
	C159.333069,188.147568 137.287750,214.551575 110.491692,221.025665 
	C90.282394,225.908356 71.595787,222.528290 54.557194,210.501633 
	C53.286781,209.604904 52.097168,208.593704 49.957924,206.923737 
	C57.453362,209.251709 63.598614,211.707413 69.978065,213.051666 
	C107.412376,220.939636 144.158371,194.873535 149.108932,157.159103 
	C149.260437,156.004913 149.501007,154.862396 150.147095,153.064423 
	C150.729431,151.606415 150.982117,150.798553 150.982895,149.990448 
	C151.004745,127.240929 151.015274,104.491348 150.963501,81.741920 
	C150.960678,80.499832 150.403549,79.259003 150.104446,78.017586 
	C150.048615,77.569221 149.992783,77.120865 150.366364,76.308914 
	C151.030777,75.920326 151.265762,75.895332 151.500763,75.870331 
z"/>
<path fill="#01F2EA" opacity="1.000000" stroke="none" 
	d="
M110.024704,161.883362 
	C111.354111,155.905945 113.529823,150.280426 113.565475,144.641388 
	C113.847832,99.981224 113.722755,55.318474 113.722885,10.656524 
	C113.722893,8.663076 113.722893,6.669629 113.722893,4.288472 
	C125.676315,4.288472 137.411011,4.288472 149.537369,4.288472 
	C149.691422,6.622529 149.851257,9.044189 150.052338,12.090887 
	C141.425735,12.090887 133.035675,12.090887 124.020638,12.090887 
	C124.020638,14.451251 124.020645,16.215952 124.020638,17.980652 
	C124.020317,64.142448 124.110611,110.304535 123.958588,156.465836 
	C123.918518,168.632416 118.119156,177.830627 107.337547,183.484314 
	C96.847649,188.985031 86.487930,187.916153 76.600983,181.678314 
	C74.864082,180.582443 73.419586,179.023117 71.932526,177.132523 
	C88.141304,180.649963 101.072571,176.613541 110.024704,161.883362 
z"/>
<path fill="#05F2EA" opacity="1.000000" stroke="none" 
	d="
M39.341766,197.760239 
	C23.872406,184.660202 16.666159,167.651459 16.469229,147.704376 
	C16.099022,110.205956 48.322472,79.467110 85.822235,81.226967 
	C87.782219,81.318939 89.728142,81.710640 92.076736,82.013962 
	C92.076736,84.553825 92.076736,86.854584 92.049759,89.570854 
	C92.022789,89.986359 92.089142,90.000084 92.089142,90.000084 
	C65.963440,91.075699 46.275078,103.155823 34.369312,126.177475 
	C22.536852,149.057388 24.431427,171.942261 38.237564,193.751221 
	C38.769234,194.591080 39.359249,195.393982 39.819542,196.748886 
	C39.591923,197.442535 39.466846,197.601379 39.341766,197.760239 
z"/>
<path fill="#FF0852" opacity="1.000000" stroke="none" 
	d="
M92.028969,90.019363 
	C95.473656,90.052376 98.912155,90.052376 102.589111,90.052376 
	C102.589111,102.921997 102.589111,114.828484 102.589111,126.785683 
	C75.621033,120.312141 53.641029,146.466003 66.987022,172.563156 
	C58.678810,170.203140 50.114895,155.839966 53.177303,141.165161 
	C56.662510,124.464363 70.577965,116.218071 92.218880,118.193947 
	C92.218880,109.077400 92.218880,100.004601 92.154007,90.465942 
	C92.089142,90.000084 92.022789,89.986359 92.028969,90.019363 
z"/>
<path fill="#FF074F" opacity="1.000000" stroke="none" 
	d="
M165.031219,39.955109 
	C157.426788,32.401966 152.534790,23.809082 150.654129,13.067861 
	C153.864532,13.067861 156.742142,13.067861 159.972000,13.067861 
	C160.274109,24.033052 163.746674,34.163536 169.486679,43.826626 
	C168.085220,42.619724 166.683777,41.412823 165.031219,39.955109 
z"/>
<path fill="#0AF2EB" opacity="1.000000" stroke="none" 
	d="
M199.984558,61.979805 
	C191.545776,59.879734 183.835800,56.343182 176.841599,49.966908 
	C184.711746,51.719551 191.930634,53.327168 199.970276,55.117558 
	C199.970276,56.627754 199.970276,58.878399 199.958923,61.580139 
	C199.947556,62.031231 199.960556,61.983730 199.984558,61.979805 
z"/>
<path fill="#FF0041" opacity="1.000000" stroke="none" 
	d="
M159.946030,161.509964 
	C159.574234,160.723984 159.037415,159.478271 159.034821,158.231445 
	C158.985519,134.493225 158.995239,110.754875 159.016403,87.016563 
	C159.017120,86.207802 159.263901,85.399254 159.689682,84.293449 
	C159.998825,109.680763 160.014267,135.365234 159.946030,161.509964 
z"/>
<path fill="#FF003E" opacity="1.000000" stroke="none" 
	d="
M150.030670,78.480255 
	C150.403549,79.259003 150.960678,80.499832 150.963501,81.741920 
	C151.015274,104.491348 151.004745,127.240929 150.982895,149.990448 
	C150.982117,150.798553 150.729431,151.606415 150.296234,152.707855 
	C149.984512,128.315186 149.970703,103.629059 150.030670,78.480255 
z"/>
<path fill="#05F2EA" opacity="1.000000" stroke="none" 
	d="
M41.014870,198.972153 
	C40.562744,198.714905 40.110622,198.457657 39.500134,197.980316 
	C39.466846,197.601379 39.591923,197.442535 39.935150,197.072968 
	C40.559570,197.411407 40.965843,197.960556 41.175056,198.767792 
	C40.977993,199.025864 41.014870,198.972153 41.014870,198.972153 
z"/>
<path fill="#FF003E" opacity="1.000000" stroke="none" 
	d="
M151.332581,75.599754 
	C151.265762,75.895332 151.030777,75.920326 150.442612,75.976151 
	C150.447769,75.781044 150.806076,75.555107 151.332581,75.599754 
z"/>
<path fill="#05F2EA" opacity="1.000000" stroke="none" 
	d="
M40.960506,199.053345 
	C41.156776,199.087555 41.370533,199.094269 41.584290,199.100967 
	C41.451225,199.178040 41.318165,199.255112 41.099987,199.152161 
	C41.014870,198.972153 40.977993,199.025864 40.960506,199.053345 
z"/>
</svg>