<svg version="1.1" id="Layer_1" xmlns="http://www.w3.org/2000/svg" xmlns:xlink="http://www.w3.org/1999/xlink" x="0px" y="0px"
	 width="100%" viewBox="0 0 512 512" enable-background="new 0 0 512 512" xml:space="preserve">
<path fill="#303030" opacity="1.000000" stroke="none" 
	d="
M287.000000,513.000000 
	C266.979095,513.000000 246.958206,513.000000 226.400757,512.613525 
	C225.021805,511.825073 224.210297,511.163086 223.332520,511.058807 
	C197.413147,507.980133 172.568039,500.932648 148.981049,489.893402 
	C117.835007,475.316315 90.381241,455.641907 67.252548,429.915985 
	C49.908066,410.623871 35.525410,389.548096 24.484276,366.079132 
	C14.521236,344.901703 7.558644,322.865509 3.858863,299.759247 
	C3.431256,297.088745 1.977825,294.582428 1.000000,292.000000 
	C1.000000,268.979095 1.000000,245.958206 1.385471,222.401428 
	C2.164801,221.190063 2.812760,220.551147 2.915935,219.833862 
	C7.260384,189.630371 16.559277,161.107040 31.279417,134.318100 
	C48.460403,103.050697 70.791191,76.218460 99.087914,54.429554 
	C133.849792,27.662371 172.783676,10.564054 216.229889,3.869749 
	C219.555054,3.357400 222.746429,1.976945 226.000000,1.000000 
	C246.020889,1.000000 266.041779,1.000000 286.601990,1.388909 
	C287.985596,2.177744 288.792358,2.783969 289.680084,2.945712 
	C298.634613,4.577223 307.688019,5.761455 316.549988,7.787241 
	C340.527161,13.268268 363.060547,22.480053 384.416504,34.691750 
	C412.429779,50.710232 436.564545,71.281708 456.615448,96.493729 
	C469.559875,112.770088 480.551727,130.320541 489.229187,149.334702 
	C499.646698,172.161789 506.791931,195.850204 510.111542,220.726624 
	C510.577362,224.217392 512.013184,227.578751 513.000000,231.000000 
	C513.000000,248.020889 513.000000,265.041779 512.610840,282.602112 
	C511.442108,287.609680 510.607025,292.068970 509.891876,296.547424 
	C504.699402,329.064575 493.791504,359.530823 477.023560,387.869263 
	C461.487122,414.126495 441.881409,436.940399 418.197113,456.154907 
	C399.394928,471.408722 378.830933,483.874939 356.459473,493.185577 
	C336.942078,501.308319 316.796478,507.302887 295.767151,510.147858 
	C292.770966,510.553192 289.918793,512.022888 287.000000,513.000000 
M158.633820,126.114349 
	C98.738007,172.585007 77.419212,248.087845 104.976662,317.799744 
	C119.333336,354.117706 144.200562,381.504608 178.115097,400.788177 
	C179.716492,401.698700 181.658295,403.553589 181.849152,405.158081 
	C183.407700,418.259796 191.345398,427.461578 202.838669,428.919098 
	C214.802200,430.436218 224.661423,423.466278 229.074051,410.617279 
	C248.873428,352.964294 268.730286,295.331024 288.554260,237.686493 
	C302.276520,197.784653 316.016174,157.888702 329.667664,117.962654 
	C333.740540,106.050880 329.605652,94.192604 319.632599,88.337708 
	C309.780396,82.553764 297.961639,84.849030 289.286743,93.835754 
	C288.011658,95.156685 285.237518,95.927582 283.359528,95.638252 
	C237.824417,88.623138 196.485336,98.694298 158.633820,126.114349 
M350.456116,170.976944 
	C347.836029,179.039917 345.539978,187.229218 342.465637,195.115082 
	C340.811127,199.358994 341.598846,202.403336 343.778717,206.112961 
	C372.523956,255.030594 355.618988,317.629425 306.313507,345.244781 
	C301.032776,348.202484 294.204590,349.794250 290.690033,354.125824 
	C286.979797,358.698547 286.382019,365.795319 284.419800,371.787903 
	C279.205231,387.712769 273.988098,403.636810 268.728760,419.693207 
	C322.078583,417.740753 389.022980,379.805450 412.398376,306.561798 
	C434.593414,237.016678 405.652740,167.671173 362.678040,133.761276 
	C358.673553,146.025986 354.719482,158.136398 350.456116,170.976944 
z"/>
<path fill="#000000" opacity="1.000000" stroke="none" 
	d="
M287.468658,513.000000 
	C289.918793,512.022888 292.770966,510.553192 295.767151,510.147858 
	C316.796478,507.302887 336.942078,501.308319 356.459473,493.185577 
	C378.830933,483.874939 399.394928,471.408722 418.197113,456.154907 
	C441.881409,436.940399 461.487122,414.126495 477.023560,387.869263 
	C493.791504,359.530823 504.699402,329.064575 509.891876,296.547424 
	C510.607025,292.068970 511.442108,287.609680 512.610840,283.070770 
	C513.000000,359.593048 513.000000,436.186127 513.000000,513.000000 
	C437.979248,513.000000 362.958282,513.000000 287.468658,513.000000 
z"/>
<path fill="#000000" opacity="1.000000" stroke="none" 
	d="
M513.000000,230.531342 
	C512.013184,227.578751 510.577362,224.217392 510.111542,220.726624 
	C506.791931,195.850204 499.646698,172.161789 489.229187,149.334702 
	C480.551727,130.320541 469.559875,112.770088 456.615448,96.493729 
	C436.564545,71.281708 412.429779,50.710232 384.416504,34.691750 
	C363.060547,22.480053 340.527161,13.268268 316.549988,7.787241 
	C307.688019,5.761455 298.634613,4.577223 289.680084,2.945712 
	C288.792358,2.783969 287.985596,2.177744 287.070618,1.388909 
	C362.261017,1.000000 437.522003,1.000000 513.000000,1.000000 
	C513.000000,77.354088 513.000000,153.708389 513.000000,230.531342 
z"/>
<path fill="#000000" opacity="1.000000" stroke="none" 
	d="
M1.000000,292.468658 
	C1.977825,294.582428 3.431256,297.088745 3.858863,299.759247 
	C7.558644,322.865509 14.521236,344.901703 24.484276,366.079132 
	C35.525410,389.548096 49.908066,410.623871 67.252548,429.915985 
	C90.381241,455.641907 117.835007,475.316315 148.981049,489.893402 
	C172.568039,500.932648 197.413147,507.980133 223.332520,511.058807 
	C224.210297,511.163086 225.021805,511.825073 225.932098,512.613525 
	C151.073624,513.000000 76.147247,513.000000 1.000000,513.000000 
	C1.000000,439.645935 1.000000,366.291626 1.000000,292.468658 
z"/>
<path fill="#000000" opacity="1.000000" stroke="none" 
	d="
M225.531342,1.000000 
	C222.746429,1.976945 219.555054,3.357400 216.229889,3.869749 
	C172.783676,10.564054 133.849792,27.662371 99.087914,54.429554 
	C70.791191,76.218460 48.460403,103.050697 31.279417,134.318100 
	C16.559277,161.107040 7.260384,189.630371 2.915935,219.833862 
	C2.812760,220.551147 2.164801,221.190063 1.385471,221.932770 
	C1.000000,148.405640 1.000000,74.811279 1.000000,1.000000 
	C75.687424,1.000000 150.375046,1.000000 225.531342,1.000000 
z"/>
<path fill="#FEFEFE" opacity="1.000000" stroke="none" 
	d="
M158.930344,125.916763 
	C196.485336,98.694298 237.824417,88.623138 283.359528,95.638252 
	C285.237518,95.927582 288.011658,95.156685 289.286743,93.835754 
	C297.961639,84.849030 309.780396,82.553764 319.632599,88.337708 
	C329.605652,94.192604 333.740540,106.050880 329.667664,117.962654 
	C316.016174,157.888702 302.276520,197.784653 288.554260,237.686493 
	C268.730286,295.331024 248.873428,352.964294 229.074051,410.617279 
	C224.661423,423.466278 214.802200,430.436218 202.838669,428.919098 
	C191.345398,427.461578 183.407700,418.259796 181.849152,405.158081 
	C181.658295,403.553589 179.716492,401.698700 178.115097,400.788177 
	C144.200562,381.504608 119.333336,354.117706 104.976662,317.799744 
	C77.419212,248.087845 98.738007,172.585007 158.930344,125.916763 
M156.948074,274.389679 
	C162.282669,303.171844 177.318817,325.428223 202.159943,342.080017 
	C223.499054,279.769012 244.608459,218.128708 265.775177,156.321060 
	C202.638199,150.031189 145.752472,205.572723 156.948074,274.389679 
z"/>
<path fill="#FEFEFE" opacity="1.000000" stroke="none" 
	d="
M350.610748,170.611877 
	C354.719482,158.136398 358.673553,146.025986 362.678040,133.761276 
	C405.652740,167.671173 434.593414,237.016678 412.398376,306.561798 
	C389.022980,379.805450 322.078583,417.740753 268.728760,419.693207 
	C273.988098,403.636810 279.205231,387.712769 284.419800,371.787903 
	C286.382019,365.795319 286.979797,358.698547 290.690033,354.125824 
	C294.204590,349.794250 301.032776,348.202484 306.313507,345.244781 
	C355.618988,317.629425 372.523956,255.030594 343.778717,206.112961 
	C341.598846,202.403336 340.811127,199.358994 342.465637,195.115082 
	C345.539978,187.229218 347.836029,179.039917 350.610748,170.611877 
z"/>
<path fill="#313131" opacity="1.000000" stroke="none" 
	d="
M156.887726,273.953888 
	C145.752472,205.572723 202.638199,150.031189 265.775177,156.321060 
	C244.608459,218.128708 223.499054,279.769012 202.159943,342.080017 
	C177.318817,325.428223 162.282669,303.171844 156.887726,273.953888 
z"/>
</svg>