<?xml version="1.0" encoding="UTF-8"?>
<svg version="1.1" xmlns="http://www.w3.org/2000/svg" width="290" height="174">
    <path d="M0 0 C95.7 0 191.4 0 290 0 C290 57.42 290 114.84 290 174 C194.3 174 98.6 174 0 174 C0 116.58 0 59.16 0 0 Z " fill="#FEFEFE" transform="translate(0,0)"/>
    <path d="M0 0 C2.05078125 0.03255208 4.1015625 0.06510417 6.15234375 0.09765625 C4.63523955 4.18924032 2.67855253 7.93825055 0.52734375 11.72265625 C0.15125977 12.3885376 -0.22482422 13.05441895 -0.61230469 13.74047852 C-5.34923379 22.06685332 -10.26530761 30.29038757 -15.17431641 38.51611328 C-18.83353361 44.65706355 -22.4310839 50.81802876 -25.84765625 57.09765625 C-26.50765625 57.09765625 -27.16765625 57.09765625 -27.84765625 57.09765625 C-29.05273438 55.35351562 -29.05273438 55.35351562 -30.37890625 52.94140625 C-30.85972656 52.08417969 -31.34054688 51.22695312 -31.8359375 50.34375 C-32.84375 48.51302083 -33.8515625 46.68229167 -34.859375 44.8515625 C-35.34019531 43.99433594 -35.82101563 43.13710937 -36.31640625 42.25390625 C-36.75404297 41.45791016 -37.19167969 40.66191406 -37.64257812 39.84179688 C-38.04025391 39.26623047 -38.43792969 38.69066406 -38.84765625 38.09765625 C-39.50765625 38.09765625 -40.16765625 38.09765625 -40.84765625 38.09765625 C-42.17617614 39.90842295 -42.17617614 39.90842295 -43.44921875 42.25390625 C-43.9390625 43.11113281 -44.42890625 43.96835938 -44.93359375 44.8515625 C-45.44148438 45.75777344 -45.949375 46.66398437 -46.47265625 47.59765625 C-47.24609375 48.95697266 -47.24609375 48.95697266 -48.03515625 50.34375 C-49.31273477 52.59134185 -50.58317617 54.84267729 -51.84765625 57.09765625 C-56.45919701 52.73531993 -59.53169764 47.72106465 -62.84765625 42.34765625 C-63.48316406 41.3834375 -64.11867188 40.41921875 -64.7734375 39.42578125 C-69.10932381 32.34992244 -69.10932381 32.34992244 -68.328125 28.61132812 C-67.31929514 26.58832124 -66.25958744 24.85876107 -64.84765625 23.09765625 C-60.67678214 24.48794762 -59.66556927 27.37609343 -57.66015625 31.03515625 C-57.29212891 31.68162109 -56.92410156 32.32808594 -56.54492188 32.99414062 C-53.84765625 37.81318849 -53.84765625 37.81318849 -53.84765625 40.09765625 C-51.53596437 37.95045579 -49.94567636 35.81241825 -48.3671875 33.0859375 C-47.92568359 32.32861328 -47.48417969 31.57128906 -47.02929688 30.79101562 C-46.57748047 30.00533203 -46.12566406 29.21964844 -45.66015625 28.41015625 C-45.19673828 27.61287109 -44.73332031 26.81558594 -44.25585938 25.99414062 C-43.11560448 24.03102138 -41.97971852 22.06550754 -40.84765625 20.09765625 C-37.28437283 21.28541739 -37.12103856 21.89660584 -35.4375 25.09765625 C-35.00501953 25.90203125 -34.57253906 26.70640625 -34.12695312 27.53515625 C-33.46276367 28.80359375 -33.46276367 28.80359375 -32.78515625 30.09765625 C-31.90342449 31.76696659 -31.01693593 33.43377578 -30.125 35.09765625 C-29.73562256 35.84015625 -29.34624512 36.58265625 -28.94506836 37.34765625 C-27.95758785 39.25942653 -27.95758785 39.25942653 -25.84765625 40.09765625 C-25.58500977 39.39423096 -25.32236328 38.69080566 -25.05175781 37.96606445 C-23.00769848 33.09671061 -20.25847689 28.6173432 -17.61767578 24.05151367 C-16.60862146 22.3041446 -15.60872619 20.55176011 -14.609375 18.79882812 C-3.89030998 0.20561892 -3.89030998 0.20561892 0 0 Z " fill="#802050" transform="translate(184.84765625,57.90234375)"/>
    <path d="M0 0 C9.763438 1.36017362 17.85497647 6.12429757 23.8203125 13.9296875 C28.36864408 20.81716104 29.03508384 27.7213436 28.25 35.875 C26.21871816 43.49842522 21.42792632 50.28069444 14.71484375 54.44921875 C7.17226219 58.32603902 0.15453786 60.38992007 -8.27734375 58.2265625 C-15.62837342 55.57611421 -21.00335112 51.37073494 -25.8125 45.25 C-27.02178635 42.18647458 -26.85752197 40.97606151 -25.75 37.875 C-24.50591296 35.47210608 -23.15754077 33.19063159 -21.75 30.875 C-20.74684244 32.82920304 -19.79587275 34.75758477 -18.99609375 36.8046875 C-16.87230646 41.9140888 -14.12092611 44.93676879 -9.38671875 47.80859375 C-3.43063889 50.21749716 2.70595026 49.75385355 8.6875 47.6875 C14.10795535 43.85351938 17.19387419 40.25981174 19.25 33.875 C19.89542728 28.0661545 19.08690061 24.69791039 16.22265625 19.63671875 C15.25 17.875 15.25 17.875 14.25 14.875 C12.51857146 13.71577872 12.51857146 13.71577872 10.25 12.875 C8.9815625 12.318125 8.9815625 12.318125 7.6875 11.75 C2.85372393 10.51958427 -1.79112709 10.73487486 -6.75 10.875 C-7.74 10.875 -8.73 10.875 -9.75 10.875 C-5.19462279 1.21207865 -5.19462279 1.21207865 0 0 Z " fill="#BF3179" transform="translate(203.75,57.125)"/>
    <path d="M0 0 C5.76171875 -0.48828125 5.76171875 -0.48828125 8 0 C11.66547367 3.28160211 14.16024551 6.58270318 16.55859375 10.859375 C17.19216797 11.97570312 17.82574219 13.09203125 18.47851562 14.2421875 C19.13202893 15.41116861 19.78502123 16.58044114 20.4375 17.75 C24.71430027 25.35129396 29.01267451 32.83835415 34 40 C34.48726562 39.11183594 34.97453125 38.22367188 35.4765625 37.30859375 C40.28448069 28.61820344 45.29977932 20.06204537 50.4375 11.5625 C51.05254395 10.53761475 51.66758789 9.51272949 52.30126953 8.45678711 C52.88118652 7.50296143 53.46110352 6.54913574 54.05859375 5.56640625 C54.57736084 4.70990479 55.09612793 3.85340332 55.63061523 2.97094727 C57 1 57 1 59 0 C61.6723621 -0.13415472 64.32250488 -0.04318541 67 0 C65.69219767 3.46110692 64.17755303 6.6001637 62.3046875 9.7890625 C61.76110596 10.71847656 61.21752441 11.64789063 60.6574707 12.60546875 C60.06925537 13.60191406 59.48104004 14.59835938 58.875 15.625 C58.26551514 16.66011719 57.65603027 17.69523437 57.02807617 18.76171875 C55.71525843 20.99053693 54.40133349 23.21870324 53.08642578 25.44628906 C51.28100993 28.51303161 49.49883171 31.59271564 47.72247314 34.67636108 C46.27862857 37.17970513 44.82574954 39.67773593 43.37139893 42.17498779 C42.66589281 43.39092752 41.96418053 44.60907645 41.26629639 45.82940674 C40.28811533 47.5380564 39.29479348 49.23801138 38.30078125 50.9375 C37.73528564 51.91589844 37.16979004 52.89429688 36.5871582 53.90234375 C36.063396 54.59457031 35.53963379 55.28679687 35 56 C34.01 56 33.02 56 32 56 C31.59910156 55.29319092 31.19820312 54.58638184 30.78515625 53.8581543 C28.85936428 50.46645691 26.9307122 47.07639818 25 43.6875 C24.47043701 42.75784927 24.47043701 42.75784927 23.93017578 41.80941772 C17.70330988 30.88870408 11.33846515 20.05482852 4.87890625 9.27026367 C4.23824219 8.19752197 3.59757812 7.12478027 2.9375 6.01953125 C2.36902344 5.07182861 1.80054688 4.12412598 1.21484375 3.14770508 C0 1 0 1 0 0 Z " fill="#25144D" transform="translate(58,58)"/>
    <path d="M0 0 C2.64 0 5.28 0 8 0 C7.67 0.99 7.34 1.98 7 3 C4.36 2.67 1.72 2.34 -1 2 C-0.67 1.34 -0.34 0.68 0 0 Z " fill="#3E3060" transform="translate(117,58)"/>
</svg>
