<?xml version="1.0" encoding="UTF-8"?>
<!DOCTYPE svg PUBLIC "-//W3C//DTD SVG 1.1//EN" "http://www.w3.org/Graphics/SVG/1.1/DTD/svg11.dtd">
<svg xmlns="http://www.w3.org/2000/svg" version="1.1" width="40px" height="40px" style="shape-rendering:geometricPrecision; text-rendering:geometricPrecision; image-rendering:optimizeQuality; fill-rule:evenodd; clip-rule:evenodd" xmlns:xlink="http://www.w3.org/1999/xlink">
    <g><path style="opacity:0.691" fill="#fcbb30" d="M 16.5,-0.5 C 18.5,-0.5 20.5,-0.5 22.5,-0.5C 22.8039,0.14987 23.1373,0.816537 23.5,1.5C 22.7382,5.11111 22.2382,8.77778 22,12.5C 20.3333,13.8333 18.6667,13.8333 17,12.5C 16.7931,8.91064 16.2931,5.41064 15.5,2C 16.2524,1.32924 16.5858,0.495904 16.5,-0.5 Z"/></g>
    <g><path style="opacity:0.674" fill="#fcbb2f" d="M 2.5,7.5 C 6.89679,8.28282 10.7301,10.2828 14,13.5C 14.8837,15.6406 14.3837,17.3073 12.5,18.5C 8.1038,16.6426 4.1038,14.3093 0.5,11.5C 1.17994,10.1401 1.84661,8.80678 2.5,7.5 Z"/></g>
    <g><path style="opacity:0.683" fill="#fcbb2f" d="M 32.5,7.5 C 36.4781,6.98175 38.3114,8.64842 38,12.5C 34.0294,15.0752 29.8627,16.9086 25.5,18C 24.4464,16.6124 24.2797,15.1124 25,13.5C 27.6877,11.636 30.1877,9.63604 32.5,7.5 Z"/></g>
    <g><path style="opacity:0.67" fill="#fcbb2f" d="M 11.5,20.5 C 14.2436,21.0717 15.0769,22.7383 14,25.5C 10.7539,28.876 6.92052,30.7093 2.5,31C 1.23508,29.6626 0.735084,28.1626 1,26.5C 4.61199,24.6132 8.11199,22.6132 11.5,20.5 Z"/></g>
    <g><path style="opacity:0.671" fill="#fcbb2f" d="M 25.5,20.5 C 30.3242,22.0763 34.6575,24.4096 38.5,27.5C 37.8139,30.9981 35.8139,32.1647 32.5,31C 30.5,29.6667 28.5,28.3333 26.5,27C 24.3162,25.1024 23.9829,22.9358 25.5,20.5 Z"/></g>
    <g><path style="opacity:0.691" fill="#fcba2f" d="M 22.5,39.5 C 20.5,39.5 18.5,39.5 16.5,39.5C 16.5858,38.5041 16.2524,37.6708 15.5,37C 16.2931,33.5894 16.7931,30.0894 17,26.5C 18.6667,25.1667 20.3333,25.1667 22,26.5C 22.2382,30.2222 22.7382,33.8889 23.5,37.5C 23.1373,38.1835 22.8039,38.8501 22.5,39.5 Z"/></g>
</svg>