<?xml version="1.0" encoding="UTF-8"?>
<!DOCTYPE svg PUBLIC "-//W3C//DTD SVG 1.1//EN" "http://www.w3.org/Graphics/SVG/1.1/DTD/svg11.dtd">
<svg xmlns="http://www.w3.org/2000/svg" version="1.1" width="303px" height="300px" style="shape-rendering:geometricPrecision; text-rendering:geometricPrecision; image-rendering:optimizeQuality; fill-rule:evenodd; clip-rule:evenodd" xmlns:xlink="http://www.w3.org/1999/xlink">
<g><path style="opacity:0.979" fill="#16d14f" d="M 145.5,10.5 C 204.392,10.9734 248.226,36.64 277,87.5C 298.463,133.326 297.463,178.659 274,223.5C 242.502,273.502 197.002,297.002 137.5,294C 76.5925,285.982 35.7592,253.148 15,195.5C 1.05081,145.243 10.3841,99.9092 43,59.5C 70.5712,29.2972 104.738,12.9638 145.5,10.5 Z M 138.5,37.5 C 147.9,37.1137 157.234,37.6137 166.5,39C 147.698,56.1343 129.198,73.6343 111,91.5C 110.167,75.8227 110.334,60.156 111.5,44.5C 120.395,41.2614 129.395,38.9281 138.5,37.5 Z M 264.5,137.5 C 244.586,119.954 224.752,102.287 205,84.5C 173.495,113.597 142.162,142.931 111,172.5C 110.333,157.833 110.333,143.167 111,128.5C 139.377,101.121 168.043,74.1213 197,47.5C 235.254,65.6706 257.754,95.6706 264.5,137.5 Z M 82.5,59.5 C 83.659,70.3255 83.8257,81.3255 83,92.5C 76.8358,87.169 71.0024,81.5024 65.5,75.5C 70.5835,69.4125 76.2502,64.0792 82.5,59.5 Z M 48.5,98.5 C 60.7165,107.706 72.3832,117.706 83.5,128.5C 84.6662,143.489 84.8328,158.489 84,173.5C 68.4784,160.068 53.1451,146.401 38,132.5C 37.849,128.087 38.5157,123.754 40,119.5C 42.3507,112.276 45.1841,105.276 48.5,98.5 Z M 218.5,132.5 C 233.463,145.626 248.296,158.959 263,172.5C 262.228,184.725 258.561,196.058 252,206.5C 241,196.5 230,186.5 219,176.5C 218.5,161.837 218.333,147.17 218.5,132.5 Z M 190.5,133.5 C 191.661,147.661 191.827,161.994 191,176.5C 162.318,204.016 133.485,231.349 104.5,258.5C 65.7052,240.211 43.2052,209.878 37,167.5C 57.0178,185.685 77.1845,203.685 97.5,221.5C 129.148,192.844 160.148,163.511 190.5,133.5 Z M 218.5,212.5 C 225.11,217.441 231.11,223.108 236.5,229.5C 231.371,235.64 225.538,240.974 219,245.5C 218.5,234.505 218.333,223.505 218.5,212.5 Z M 190.5,213.5 C 191.83,229.236 191.83,245.069 190.5,261C 172.306,267.54 153.64,269.54 134.5,267C 153.668,249.665 172.335,231.831 190.5,213.5 Z"/></g>
</svg>
