<svg width="256.000000pt" height="256.000000pt" viewBox="0 0 256.000000 256.000000" xmlns="http://www.w3.org/2000/svg">
    <g transform="translate(0.000000,256.000000) scale(0.100000,-0.100000)" fill="#ffffff" stroke="none">
        <path d="M0 1280 l0 -1280 1280 0 1280 0 0 1280 0 1280 -1280 0 -1280 0 0
-1280z m1892 1058 c23 -18 608 -1037 608 -1058 0 -21 -585 -1040 -608 -1057
l-16 -13 -596 0 -596 0 -17 13 c-14 10 -598 1012 -613 1052 -3 7 4 23 15 34
l21 21 173 0 173 0 187 324 c103 178 187 330 187 337 0 24 -105 194 -120 196
l-15 3 -185 -323 -185 -322 -23 -3 c-27 -4 -52 14 -52 37 0 21 416 742 437
759 l17 12 596 0 596 0 16 -12z" />
        <path d="M790 2234 c0 -9 23 -57 51 -105 l51 -89 388 0 388 0 51 90 c28 49 51
97 51 105 l0 15 -490 0 -490 0 0 -16z" />
        <path d="M1713 1940 c-79 -137 -143 -255 -143 -262 0 -7 43 -88 96 -180 l97
-168 118 0 119 0 0 16 c0 8 -43 90 -95 181 l-95 167 14 20 c16 25 42 32 61 16
7 -6 64 -99 125 -206 l112 -194 119 0 119 0 0 18 c-1 26 -474 837 -491 839
l-14 3 -142 -250z" />
        <path d="M960 1931 c0 -6 25 -53 56 -105 l56 -96 208 0 208 0 56 96 c31 52 56
99 56 105 l0 9 -320 0 -320 0 0 -9z" />
        <path d="M705 1618 c-82 -143 -151 -267 -153 -274 l-3 -14 123 0 123 0 98 169
c53 92 97 174 97 182 -1 24 -105 194 -121 196 l-14 3 -150 -262z" />
        <path d="M1140 1620 c0 -5 28 -59 63 -120 l62 -109 15 -1 15 0 63 110 c34 60
62 114 62 120 l0 10 -140 0 -140 0 0 -10z" />
        <path d="M973 1460 c-35 -61 -63 -115 -63 -120 l0 -10 135 0 135 0 0 18 c0 24
-119 222 -133 222 -7 -1 -40 -50 -74 -110z" />
        <path d="M1437 1460 c-31 -55 -57 -106 -57 -115 l0 -15 130 0 130 0 0 16 c0 9
-25 61 -56 115 l-56 99 -17 0 -17 0 -57 -100z" />
        <path d="M200 1213 c0 -10 115 -216 255 -458 l254 -440 530 -3 531 -2 0 16 c0
8 -23 55 -52 104 l-52 89 -404 3 -404 3 -22 25 c-12 14 -107 173 -211 353
l-189 327 -118 0 -118 0 0 -17z" />
        <path d="M552 1216 c2 -7 71 -131 153 -274 l150 -261 16 -1 17 0 51 90 c28 49
51 97 51 106 0 9 -44 93 -97 185 l-98 169 -123 0 -123 0 3 -14z" />
        <path d="M910 1220 c0 -5 28 -59 63 -120 l62 -109 15 -1 15 0 63 110 c34 60
62 114 62 120 l0 10 -140 0 -140 0 0 -10z" />
        <path d="M1370 1221 c0 -5 28 -57 61 -115 l62 -106 17 0 18 0 56 99 c31 54 56
106 56 115 l0 16 -135 0 -135 0 0 -9z" />
        <path d="M1666 1062 c-53 -92 -96 -173 -96 -181 0 -7 24 -55 53 -107 l52 -94
14 3 c17 2 310 503 311 530 l0 17 -119 0 -118 0 -97 -168z" />
        <path d="M1940 915 c-100 -174 -184 -325 -187 -335 l-5 -19 53 -96 54 -95 14
2 c17 3 490 814 491 841 l0 17 -119 0 -119 0 -182 -315z" />
        <path d="M1117 902 c-81 -141 -147 -263 -147 -269 l0 -13 310 0 310 0 0 16 c0
9 -66 130 -147 270 l-146 254 -16 0 -16 0 -148 -258z" />
    </g>
    <g transform="translate(0.000000,256.000000) scale(0.100000,-0.100000)" fill="#30acbf" stroke="none">
        <path d="M657 2348 c-9 -7 -111 -177 -227 -378 l-210 -365 0 -27 0 -28 24 -15
23 -16 25 10 25 9 184 320 c101 176 187 318 191 316 4 -3 30 -45 58 -94 l51
-90 -187 -325 -188 -325 -173 0 -173 0 -21 -21 -21 -21 4 -21 c6 -30 595
-1049 615 -1064 l17 -13 606 0 606 0 16 12 c9 7 149 244 312 527 l296 513 0
28 0 28 -296 513 c-163 283 -303 520 -312 527 l-16 12 -606 0 -606 0 -17 -12z
m1103 -113 c0 -3 -23 -46 -51 -95 l-51 -90 -378 0 -378 0 -51 89 c-28 48 -51
91 -51 95 0 3 216 6 480 6 264 0 480 -2 480 -5z m358 -482 c128 -221 232 -404
232 -407 0 -4 -49 -6 -109 -6 l-109 0 -107 188 c-60 103 -115 195 -123 205
l-15 17 -28 0 -28 0 -15 -22 c-9 -12 -16 -27 -16 -34 0 -6 41 -82 91 -170 50
-87 94 -165 96 -171 l5 -13 -110 0 -109 0 -97 169 -97 169 143 250 143 251 11
-12 c6 -7 115 -193 242 -414z m-583 85 l-54 -93 -201 0 -201 0 -54 93 -54 92
309 0 309 0 -54 -92z m-606 -69 l52 -90 -98 -170 -98 -169 -112 0 -112 0 126
218 c69 119 137 238 152 264 14 25 29 44 32 42 4 -2 30 -45 58 -95z m451 -201
c-17 -29 -45 -79 -63 -110 -17 -32 -34 -58 -37 -58 -3 0 -22 30 -42 68 -21 37
-49 86 -63 110 l-26 42 131 0 130 0 -30 -52z m-265 -121 c32 -54 55 -100 53
-103 -3 -2 -59 -3 -125 -2 l-120 3 61 107 c34 58 64 103 68 100 3 -4 32 -51
63 -105z m459 4 c31 -54 56 -102 56 -105 0 -3 -54 -6 -120 -6 -66 0 -120 2
-120 5 0 11 115 205 121 205 4 0 32 -45 63 -99z m-959 -558 c104 -180 199
-339 211 -353 l22 -25 404 -3 404 -3 52 -89 c29 -49 52 -91 52 -94 0 -4 -234
-5 -521 -4 l-520 3 -254 440 c-140 242 -255 443 -255 448 0 4 49 7 108 7 l108
0 189 -327z m268 158 c53 -92 97 -171 97 -175 0 -11 -102 -186 -109 -186 -3 0
-18 22 -32 48 -15 26 -83 145 -152 265 l-126 217 112 0 112 0 98 -169z m267
117 c-17 -29 -45 -79 -63 -110 -17 -32 -34 -58 -37 -58 -3 0 -22 30 -42 68
-21 37 -49 86 -63 110 l-26 42 131 0 130 0 -30 -52z m480 46 c0 -12 -112 -204
-120 -204 -4 0 -35 47 -68 105 l-61 105 125 0 c68 0 124 -3 124 -6z m360 0 c0
-6 -252 -447 -287 -503 l-15 -23 -55 96 -55 97 97 170 98 169 108 0 c60 0 109
-3 109 -6z m360 0 c0 -8 -461 -807 -474 -821 l-11 -13 -53 95 c-30 52 -52 98
-49 102 2 4 86 151 186 326 l183 317 109 0 c60 0 109 -2 109 -6z m-916 -320
c82 -140 146 -257 143 -260 -2 -2 -137 -3 -301 -2 l-296 3 147 257 c82 142
151 258 154 258 3 0 72 -115 153 -256z" />
    </g>
    <g transform="translate(0.000000,256.000000) scale(0.100000,-0.100000)" fill="#cae9ee" stroke="none">
        <path d="M1916 2317 c3 -10 9 -15 12 -12 3 3 0 11 -7 18 l-12 12 7 -18z" />
        <path d="M1956 2247 c3 -10 9 -15 12 -12 3 3 0 11 -7 18 l-12 12 7 -18z" />
        <path d="M780 2243 c0 -5 221 -7 491 -5 l491 3 -7 -23 c-9 -27 -3 -23 14 10
l12 22 -501 0 c-275 0 -500 -3 -500 -7z" />
        <path d="M806 2197 c3 -10 9 -15 12 -12 3 3 0 11 -7 18 l-12 12 7 -18z" />
        <path d="M666 2163 l-7 -18 12 12 c7 7 10 15 7 18 -3 3 -9 -2 -12 -12z" />
        <path d="M1846 2163 l-7 -18 12 12 c7 7 10 15 7 18 -3 3 -9 -2 -12 -12z" />
        <path d="M535 2149 c-4 -6 -5 -12 -2 -15 2 -3 7 2 10 11 7 17 1 20 -8 4z" />
        <path d="M710 2151 c0 -6 4 -13 10 -16 l10 -6 -6 15 c-7 18 -14 21 -14 7z" />
        <path d="M1715 2149 c-4 -6 -5 -12 -2 -15 2 -3 7 2 10 11 7 17 1 20 -8 4z" />
        <path d="M1890 2151 c0 -6 4 -13 10 -16 l10 -6 -6 15 c-7 18 -14 21 -14 7z" />
        <path d="M846 2127 c3 -10 9 -15 12 -12 3 3 0 11 -7 18 l-12 12 7 -18z" />
        <path d="M2026 2127 c3 -10 9 -15 12 -12 3 3 0 11 -7 18 l-12 12 7 -18z" />
        <path d="M626 2093 l-7 -18 12 12 c7 7 10 15 7 18 -3 3 -9 -2 -12 -12z" />
        <path d="M495 2079 c-4 -6 -5 -12 -2 -15 2 -3 7 2 10 11 7 17 1 20 -8 4z" />
        <path d="M1670 2070 l-11 -20 -384 2 c-212 2 -385 0 -385 -5 0 -4 174 -6 386
-5 l387 3 15 23 c8 12 12 22 9 22 -4 0 -11 -9 -17 -20z" />
        <path d="M1930 2081 c0 -6 4 -13 10 -16 l10 -6 -6 15 c-7 18 -14 21 -14 7z" />
        <path d="M2066 2057 c3 -10 9 -15 12 -12 3 3 0 11 -7 18 l-12 12 7 -18z" />
        <path d="M780 2031 c0 -6 4 -13 10 -16 l10 -6 -6 15 c-7 18 -14 21 -14 7z" />
        <path d="M2106 1987 c3 -10 9 -15 12 -12 3 3 0 11 -7 18 l-12 12 7 -18z" />
        <path d="M556 1973 l-7 -18 12 12 c7 7 10 15 7 18 -3 3 -9 -2 -12 -12z" />
        <path d="M425 1959 c-4 -6 -5 -12 -2 -15 2 -3 7 2 10 11 7 17 1 20 -8 4z" />
        <path d="M960 1933 c0 -5 144 -8 320 -8 176 0 320 3 320 8 0 4 -144 7 -320 7
-176 0 -320 -3 -320 -7z" />
        <path d="M516 1903 l-7 -18 12 12 c7 7 10 15 7 18 -3 3 -9 -2 -12 -12z" />
        <path d="M1696 1903 l-7 -18 12 12 c7 7 10 15 7 18 -3 3 -9 -2 -12 -12z" />
        <path d="M385 1889 c-4 -6 -5 -12 -2 -15 2 -3 7 2 10 11 7 17 1 20 -8 4z" />
        <path d="M2040 1891 c0 -6 4 -13 10 -16 l10 -6 -6 15 c-7 18 -14 21 -14 7z" />
        <path d="M2176 1867 c3 -10 9 -15 12 -12 3 3 0 11 -7 18 l-12 12 7 -18z" />
        <path d="M846 1853 l-7 -18 12 12 c7 7 10 15 7 18 -3 3 -9 -2 -12 -12z" />
        <path d="M476 1833 l-7 -18 12 12 c7 7 10 15 7 18 -3 3 -9 -2 -12 -12z" />
        <path d="M715 1839 c-4 -6 -5 -12 -2 -15 2 -3 7 2 10 11 7 17 1 20 -8 4z" />
        <path d="M890 1841 c0 -6 4 -13 10 -16 l10 -6 -6 15 c-7 18 -14 21 -14 7z" />
        <path d="M1656 1833 l-7 -18 12 12 c7 7 10 15 7 18 -3 3 -9 -2 -12 -12z" />
        <path d="M345 1819 c-4 -6 -5 -12 -2 -15 2 -3 7 2 10 11 7 17 1 20 -8 4z" />
        <path d="M2080 1821 c0 -6 4 -13 10 -16 l10 -6 -6 15 c-7 18 -14 21 -14 7z" />
        <path d="M2216 1797 c3 -10 9 -15 12 -12 3 3 0 11 -7 18 l-12 12 7 -18z" />
        <path d="M806 1783 l-7 -18 12 12 c7 7 10 15 7 18 -3 3 -9 -2 -12 -12z" />
        <path d="M675 1769 c-4 -6 -5 -12 -2 -15 2 -3 7 2 10 11 7 17 1 20 -8 4z" />
        <path d="M930 1771 c0 -6 4 -13 10 -16 l10 -6 -6 15 c-7 18 -14 21 -14 7z" />
        <path d="M1616 1763 l-7 -18 12 12 c7 7 10 15 7 18 -3 3 -9 -2 -12 -12z" />
        <path d="M1065 1748 l7 -18 208 0 208 0 7 18 6 17 -12 -12 -13 -13 -196 0
-196 0 -13 13 -12 12 6 -17z" />
        <path d="M1810 1719 c-6 -11 -10 -25 -8 -30 2 -5 8 4 15 21 13 34 9 40 -7 9z" />
        <path d="M406 1713 l-7 -18 12 12 c7 7 10 15 7 18 -3 3 -9 -2 -12 -12z" />
        <path d="M275 1699 c-4 -6 -5 -12 -2 -15 2 -3 7 2 10 11 7 17 1 20 -8 4z" />
        <path d="M970 1701 c0 -6 4 -13 10 -16 l10 -6 -6 15 c-7 18 -14 21 -14 7z" />
        <path d="M1576 1693 l-7 -18 12 12 c7 7 10 15 7 18 -3 3 -9 -2 -12 -12z" />
        <path d="M2150 1701 c0 -6 4 -13 10 -16 l10 -6 -6 15 c-7 18 -14 21 -14 7z" />
        <path d="M1926 1677 c3 -10 9 -15 12 -12 3 3 0 11 -7 18 l-12 12 7 -18z" />
        <path d="M736 1663 l-7 -18 12 12 c7 7 10 15 7 18 -3 3 -9 -2 -12 -12z" />
        <path d="M366 1643 l-7 -18 12 12 c7 7 10 15 7 18 -3 3 -9 -2 -12 -12z" />
        <path d="M605 1649 c-4 -6 -5 -12 -2 -15 2 -3 7 2 10 11 7 17 1 20 -8 4z" />
        <path d="M965 1649 c-4 -6 -5 -12 -2 -15 2 -3 7 2 10 11 7 17 1 20 -8 4z" />
        <path d="M235 1629 c-4 -6 -5 -12 -2 -15 2 -3 7 2 10 11 7 17 1 20 -8 4z" />
        <path d="M1596 1627 c3 -10 9 -15 12 -12 3 3 0 11 -7 18 l-12 12 7 -18z" />
        <path d="M2190 1631 c0 -6 4 -13 10 -16 l10 -6 -6 15 c-7 18 -14 21 -14 7z" />
        <path d="M1140 1623 c0 -5 61 -7 135 -5 l135 3 -6 -18 -6 -18 11 15 c6 8 11
18 11 23 0 4 -63 7 -140 7 -77 0 -140 -3 -140 -7z" />
        <path d="M2326 1607 c3 -10 9 -15 12 -12 3 3 0 11 -7 18 l-12 12 7 -18z" />
        <path d="M696 1593 l-7 -18 12 12 c7 7 10 15 7 18 -3 3 -9 -2 -12 -12z" />
        <path d="M565 1579 c-4 -6 -5 -12 -2 -15 2 -3 7 2 10 11 7 17 1 20 -8 4z" />
        <path d="M1860 1581 c0 -6 4 -13 10 -16 l10 -6 -6 15 c-7 18 -14 21 -14 7z" />
        <path d="M220 1561 c0 -6 4 -13 10 -16 l10 -6 -6 15 c-7 18 -14 21 -14 7z" />
        <path d="M1176 1557 c3 -10 9 -15 12 -12 3 3 0 11 -7 18 l-12 12 7 -18z" />
        <path d="M1497 1556 l-6 -15 15 6 c15 6 19 23 5 23 -5 0 -11 -7 -14 -14z" />
        <path d="M1636 1557 c3 -10 9 -15 12 -12 3 3 0 11 -7 18 l-12 12 7 -18z" />
        <path d="M1996 1557 c3 -10 9 -15 12 -12 3 3 0 11 -7 18 l-12 12 7 -18z" />
        <path d="M2230 1561 c0 -6 4 -13 10 -16 l10 -6 -6 15 c-7 18 -14 21 -14 7z" />
        <path d="M1026 1543 l-7 -18 12 12 c7 7 10 15 7 18 -3 3 -9 -2 -12 -12z" />
        <path d="M1365 1539 c-4 -6 -5 -12 -2 -15 2 -3 7 2 10 11 7 17 1 20 -8 4z" />
        <path d="M2366 1537 c3 -10 9 -15 12 -12 3 3 0 11 -7 18 l-12 12 7 -18z" />
        <path d="M656 1523 l-7 -18 12 12 c7 7 10 15 7 18 -3 3 -9 -2 -12 -12z" />
        <path d="M895 1529 c-4 -6 -5 -12 -2 -15 2 -3 7 2 10 11 7 17 1 20 -8 4z" />
        <path d="M1530 1531 c0 -6 4 -13 10 -16 l10 -6 -6 15 c-7 18 -14 21 -14 7z" />
        <path d="M525 1509 c-4 -6 -5 -12 -2 -15 2 -3 7 2 10 11 7 17 1 20 -8 4z" />
        <path d="M1080 1511 c0 -6 4 -13 10 -16 l10 -6 -6 15 c-7 18 -14 21 -14 7z" />
        <path d="M1900 1511 c0 -6 4 -13 10 -16 l10 -6 -6 15 c-7 18 -14 21 -14 7z" />
        <path d="M1216 1487 c3 -10 9 -15 12 -12 3 3 0 11 -7 18 l-12 12 7 -18z" />
        <path d="M2036 1487 c3 -10 9 -15 12 -12 3 3 0 11 -7 18 l-12 12 7 -18z" />
        <path d="M986 1473 l-7 -18 12 12 c7 7 10 15 7 18 -3 3 -9 -2 -12 -12z" />
        <path d="M1325 1469 c-4 -6 -5 -12 -2 -15 2 -3 7 2 10 11 7 17 1 20 -8 4z" />
        <path d="M855 1459 c-4 -6 -5 -12 -2 -15 2 -3 7 2 10 11 7 17 1 20 -8 4z" />
        <path d="M1570 1461 c0 -6 4 -13 10 -16 l10 -6 -6 15 c-7 18 -14 21 -14 7z" />
        <path d="M1120 1441 c0 -6 4 -13 10 -16 l10 -6 -6 15 c-7 18 -14 21 -14 7z" />
        <path d="M1706 1437 c3 -10 9 -15 12 -12 3 3 0 11 -7 18 l-12 12 7 -18z" />
        <path d="M2300 1441 c0 -6 4 -13 10 -16 l10 -6 -6 15 c-7 18 -14 21 -14 7z" />
        <path d="M1260 1413 c14 -30 27 -36 34 -17 l6 15 -11 -6 c-6 -4 -17 1 -25 11
l-15 19 11 -22z" />
        <path d="M2436 1417 c3 -10 9 -15 12 -12 3 3 0 11 -7 18 l-12 12 7 -18z" />
        <path d="M586 1403 l-7 -18 12 12 c7 7 10 15 7 18 -3 3 -9 -2 -12 -12z" />
        <path d="M455 1389 c-4 -6 -5 -12 -2 -15 2 -3 7 2 10 11 7 17 1 20 -8 4z" />
        <path d="M815 1389 c-4 -6 -5 -12 -2 -15 2 -3 7 2 10 11 7 17 1 20 -8 4z" />
        <path d="M1610 1391 c0 -6 4 -13 10 -16 l10 -6 -6 15 c-7 18 -14 21 -14 7z" />
        <path d="M1970 1391 c0 -6 4 -13 10 -16 l10 -6 -6 15 c-7 18 -14 21 -14 7z" />
        <path d="M1382 1355 l-12 -25 140 0 c77 0 140 3 140 8 0 4 -59 6 -131 4 l-131
-4 7 21 c9 29 1 26 -13 -4z" />
        <path d="M1752 1360 l15 -25 124 -3 c67 -1 120 0 116 4 -3 3 -57 6 -119 5
l-112 -2 -19 23 -19 23 14 -25z" />
        <path d="M2345 1362 l7 -23 -116 3 c-64 2 -116 0 -116 -4 0 -5 56 -8 125 -8
l126 0 -12 23 c-17 32 -23 36 -14 9z" />
        <path d="M2476 1347 c3 -10 9 -15 12 -12 3 3 0 11 -7 18 l-12 12 7 -18z" />
        <path d="M550 1338 c0 -5 55 -7 123 -6 124 2 109 5 -41 10 -45 2 -82 0 -82 -4z" />
        <path d="M910 1338 c0 -5 64 -8 142 -8 78 0 139 3 136 6 -9 8 -278 10 -278 2z" />
        <path d="M162 1333 c48 -2 129 -2 180 0 51 1 12 3 -87 3 -99 0 -141 -2 -93 -3z" />
        <path d="M42 1280 c0 -14 2 -19 5 -12 2 6 2 18 0 25 -3 6 -5 1 -5 -13z" />
        <path d="M190 1223 c0 -5 44 -7 97 -5 150 4 161 9 26 11 -68 0 -123 -2 -123
-6z" />
        <path d="M550 1223 c0 -5 37 -7 82 -5 150 5 165 8 41 10 -68 1 -123 -1 -123
-5z" />
        <path d="M910 1223 c0 -5 61 -7 135 -5 l135 3 -6 -18 -6 -18 11 15 c6 8 11 18
11 23 0 4 -63 7 -140 7 -77 0 -140 -3 -140 -7z" />
        <path d="M1370 1223 c0 -5 63 -8 140 -8 77 0 140 3 140 8 0 4 -63 7 -140 7
-77 0 -140 -3 -140 -7z" />
        <path d="M1763 1218 c-19 -25 -24 -43 -6 -20 l19 23 112 -2 c62 -1 116 1 119
5 4 3 -48 6 -114 6 l-121 0 -9 -12z" />
        <path d="M2120 1223 c0 -5 52 -7 116 -5 l116 3 -7 -23 c-9 -27 -3 -23 14 10
l12 22 -126 0 c-69 0 -125 -3 -125 -7z" />
        <path d="M2476 1213 l-7 -18 12 12 c7 7 10 15 7 18 -3 3 -9 -2 -12 -12z" />
        <path d="M80 1201 c0 -6 4 -13 10 -16 l10 -6 -6 15 c-7 18 -14 21 -14 7z" />
        <path d="M216 1177 c3 -10 9 -15 12 -12 3 3 0 11 -7 18 l-12 12 7 -18z" />
        <path d="M450 1181 c0 -6 4 -13 10 -16 l10 -6 -6 15 c-7 18 -14 21 -14 7z" />
        <path d="M810 1181 c0 -6 4 -13 10 -16 l10 -6 -6 15 c-7 18 -14 21 -14 7z" />
        <path d="M1615 1179 c-4 -6 -5 -12 -2 -15 2 -3 7 2 10 11 7 17 1 20 -8 4z" />
        <path d="M1975 1179 c-4 -6 -5 -12 -2 -15 2 -3 7 2 10 11 7 17 1 20 -8 4z" />
        <path d="M586 1157 c3 -10 9 -15 12 -12 3 3 0 11 -7 18 l-12 12 7 -18z" />
        <path d="M1267 1156 l-6 -15 15 6 c15 6 19 23 5 23 -5 0 -11 -7 -14 -14z" />
        <path d="M1406 1157 c3 -10 9 -15 12 -12 3 3 0 11 -7 18 l-12 12 7 -18z" />
        <path d="M2436 1143 l-7 -18 12 12 c7 7 10 15 7 18 -3 3 -9 -2 -12 -12z" />
        <path d="M1135 1139 c-4 -6 -5 -12 -2 -15 2 -3 7 2 10 11 7 17 1 20 -8 4z" />
        <path d="M120 1131 c0 -6 4 -13 10 -16 l10 -6 -6 15 c-7 18 -14 21 -14 7z" />
        <path d="M1706 1123 l-7 -18 12 12 c7 7 10 15 7 18 -3 3 -9 -2 -12 -12z" />
        <path d="M2305 1129 c-4 -6 -5 -12 -2 -15 2 -3 7 2 10 11 7 17 1 20 -8 4z" />
        <path d="M256 1107 c3 -10 9 -15 12 -12 3 3 0 11 -7 18 l-12 12 7 -18z" />
        <path d="M850 1111 c0 -6 4 -13 10 -16 l10 -6 -6 15 c-7 18 -14 21 -14 7z" />
        <path d="M1575 1109 c-4 -6 -5 -12 -2 -15 2 -3 7 2 10 11 7 17 1 20 -8 4z" />
        <path d="M986 1087 c3 -10 9 -15 12 -12 3 3 0 11 -7 18 l-12 12 7 -18z" />
        <path d="M1226 1083 l-7 -18 12 12 c7 7 10 15 7 18 -3 3 -9 -2 -12 -12z" />
        <path d="M2036 1073 l-7 -18 12 12 c7 7 10 15 7 18 -3 3 -9 -2 -12 -12z" />
        <path d="M1095 1069 c-4 -6 -5 -12 -2 -15 2 -3 7 2 10 11 7 17 1 20 -8 4z" />
        <path d="M520 1061 c0 -6 4 -13 10 -16 l10 -6 -6 15 c-7 18 -14 21 -14 7z" />
        <path d="M1340 1061 c0 -6 4 -13 10 -16 l10 -6 -6 15 c-7 18 -14 21 -14 7z" />
        <path d="M1905 1059 c-4 -6 -5 -12 -2 -15 2 -3 7 2 10 11 7 17 1 20 -8 4z" />
        <path d="M656 1037 c3 -10 9 -15 12 -12 3 3 0 11 -7 18 l-12 12 7 -18z" />
        <path d="M890 1041 c0 -6 4 -13 10 -16 l10 -6 -6 15 c-7 18 -14 21 -14 7z" />
        <path d="M1476 1037 c3 -10 9 -15 12 -12 3 3 0 11 -7 18 l-12 12 7 -18z" />
        <path d="M1535 1039 c-4 -6 -5 -12 -2 -15 2 -3 7 2 10 11 7 17 1 20 -8 4z" />
        <path d="M2366 1023 l-7 -18 12 12 c7 7 10 15 7 18 -3 3 -9 -2 -12 -12z" />
        <path d="M1030 1013 c14 -30 27 -36 34 -17 l6 15 -11 -6 c-6 -4 -17 1 -25 11
l-15 19 11 -22z" />
        <path d="M1186 1013 l-7 -18 12 12 c7 7 10 15 7 18 -3 3 -9 -2 -12 -12z" />
        <path d="M190 1011 c0 -6 4 -13 10 -16 l10 -6 -6 15 c-7 18 -14 21 -14 7z" />
        <path d="M1636 1003 l-7 -18 12 12 c7 7 10 15 7 18 -3 3 -9 -2 -12 -12z" />
        <path d="M1996 1003 l-7 -18 12 12 c7 7 10 15 7 18 -3 3 -9 -2 -12 -12z" />
        <path d="M2235 1009 c-4 -6 -5 -12 -2 -15 2 -3 7 2 10 11 7 17 1 20 -8 4z" />
        <path d="M560 991 c0 -6 4 -13 10 -16 l10 -6 -6 15 c-7 18 -14 21 -14 7z" />
        <path d="M1380 991 c0 -6 4 -13 10 -16 l10 -6 -6 15 c-7 18 -14 21 -14 7z" />
        <path d="M1865 989 c-4 -6 -5 -12 -2 -15 2 -3 7 2 10 11 7 17 1 20 -8 4z" />
        <path d="M696 967 c3 -10 9 -15 12 -12 3 3 0 11 -7 18 l-12 12 7 -18z" />
        <path d="M2326 953 l-7 -18 12 12 c7 7 10 15 7 18 -3 3 -9 -2 -12 -12z" />
        <path d="M230 941 c0 -6 4 -13 10 -16 l10 -6 -6 15 c-7 18 -14 21 -14 7z" />
        <path d="M1596 933 l-7 -18 12 12 c7 7 10 15 7 18 -3 3 -9 -2 -12 -12z" />
        <path d="M2195 939 c-4 -6 -5 -12 -2 -15 2 -3 7 2 10 11 7 17 1 20 -8 4z" />
        <path d="M366 917 c3 -10 9 -15 12 -12 3 3 0 11 -7 18 l-12 12 7 -18z" />
        <path d="M960 921 c0 -6 4 -13 10 -16 l10 -6 -6 15 c-7 18 -14 21 -14 7z" />
        <path d="M1825 919 c-4 -6 -5 -12 -2 -15 2 -3 7 2 10 11 7 17 1 20 -8 4z" />
        <path d="M736 897 c3 -10 9 -15 12 -12 3 3 0 11 -7 18 l-12 12 7 -18z" />
        <path d="M1926 883 l-7 -18 12 12 c7 7 10 15 7 18 -3 3 -9 -2 -12 -12z" />
        <path d="M270 871 c0 -6 4 -13 10 -16 l10 -6 -6 15 c-7 18 -14 21 -14 7z" />
        <path d="M630 871 c0 -6 4 -13 10 -16 l10 -6 -6 15 c-7 18 -14 21 -14 7z" />
        <path d="M1450 871 c0 -6 4 -13 10 -16 l10 -6 -6 15 c-7 18 -14 21 -14 7z" />
        <path d="M2155 869 c-4 -6 -5 -12 -2 -15 2 -3 7 2 10 11 7 17 1 20 -8 4z" />
        <path d="M975 859 c-4 -6 -5 -12 -2 -15 2 -3 7 2 10 11 7 17 1 20 -8 4z" />
        <path d="M406 847 c3 -10 9 -15 12 -12 3 3 0 11 -7 18 l-12 12 7 -18z" />
        <path d="M1076 823 l-7 -18 12 12 c7 7 10 15 7 18 -3 3 -9 -2 -12 -12z" />
        <path d="M1886 813 l-7 -18 12 12 c7 7 10 15 7 18 -3 3 -9 -2 -12 -12z" />
        <path d="M1490 801 c0 -6 4 -13 10 -16 l10 -6 -6 15 c-7 18 -14 21 -14 7z" />
        <path d="M1755 799 c-4 -6 -5 -12 -2 -15 2 -3 7 2 10 11 7 17 1 20 -8 4z" />
        <path d="M806 777 c3 -10 9 -15 12 -12 3 3 0 11 -7 18 l-12 12 7 -18z" />
        <path d="M1626 777 c3 -10 9 -15 12 -12 3 3 0 11 -7 18 l-12 12 7 -18z" />
        <path d="M2216 763 l-7 -18 12 12 c7 7 10 15 7 18 -3 3 -9 -2 -12 -12z" />
        <path d="M1036 753 l-7 -18 12 12 c7 7 10 15 7 18 -3 3 -9 -2 -12 -12z" />
        <path d="M340 751 c0 -6 4 -13 10 -16 l10 -6 -6 15 c-7 18 -14 21 -14 7z" />
        <path d="M700 751 c0 -6 4 -13 10 -16 l10 -6 -6 15 c-7 18 -14 21 -14 7z" />
        <path d="M1846 743 l-7 -18 12 12 c7 7 10 15 7 18 -3 3 -9 -2 -12 -12z" />
        <path d="M2085 749 c-4 -6 -5 -12 -2 -15 2 -3 7 2 10 11 7 17 1 20 -8 4z" />
        <path d="M476 727 c3 -10 9 -15 12 -12 3 3 0 11 -7 18 l-12 12 7 -18z" />
        <path d="M1530 731 c0 -6 4 -13 10 -16 l10 -6 -6 15 c-7 18 -14 21 -14 7z" />
        <path d="M1715 729 c-4 -6 -5 -12 -2 -15 2 -3 7 2 10 11 7 17 1 20 -8 4z" />
        <path d="M846 707 c3 -10 9 -15 12 -12 3 3 0 11 -7 18 l-12 12 7 -18z" />
        <path d="M1666 707 c3 -10 9 -15 12 -12 3 3 0 11 -7 18 l-12 12 7 -18z" />
        <path d="M2176 693 l-7 -18 12 12 c7 7 10 15 7 18 -3 3 -9 -2 -12 -12z" />
        <path d="M996 683 l-7 -18 12 12 c7 7 10 15 7 18 -3 3 -9 -2 -12 -12z" />
        <path d="M380 681 c0 -6 4 -13 10 -16 l10 -6 -6 15 c-7 18 -14 21 -14 7z" />
        <path d="M740 681 c0 -6 4 -13 10 -16 l10 -6 -6 15 c-7 18 -14 21 -14 7z" />
        <path d="M2045 679 c-4 -6 -5 -12 -2 -15 2 -3 7 2 10 11 7 17 1 20 -8 4z" />
        <path d="M516 657 c3 -10 9 -15 12 -12 3 3 0 11 -7 18 l-12 12 7 -18z" />
        <path d="M970 628 c0 -5 142 -8 317 -8 174 0 314 2 311 5 -8 9 -628 11 -628 3z" />
        <path d="M1776 623 l-7 -18 12 12 c7 7 10 15 7 18 -3 3 -9 -2 -12 -12z" />
        <path d="M420 611 c0 -6 4 -13 10 -16 l10 -6 -6 15 c-7 18 -14 21 -14 7z" />
        <path d="M556 587 c3 -10 9 -15 12 -12 3 3 0 11 -7 18 l-12 12 7 -18z" />
        <path d="M2106 573 l-7 -18 12 12 c7 7 10 15 7 18 -3 3 -9 -2 -12 -12z" />
        <path d="M810 561 c0 -6 4 -13 10 -16 l10 -6 -6 15 c-7 18 -14 21 -14 7z" />
        <path d="M1776 517 c3 -10 9 -15 12 -12 3 3 0 11 -7 18 l-12 12 7 -18z" />
        <path d="M1062 513 c108 -2 288 -2 400 0 112 1 23 2 -197 2 -220 0 -311 -1
-203 -2z" />
        <path d="M2066 503 l-7 -18 12 12 c7 7 10 15 7 18 -3 3 -9 -2 -12 -12z" />
        <path d="M490 491 c0 -6 4 -13 10 -16 l10 -6 -6 15 c-7 18 -14 21 -14 7z" />
        <path d="M1935 489 c-4 -6 -5 -12 -2 -15 2 -3 7 2 10 11 7 17 1 20 -8 4z" />
        <path d="M626 467 c3 -10 9 -15 12 -12 3 3 0 11 -7 18 l-12 12 7 -18z" />
        <path d="M1680 471 c0 -6 4 -13 10 -16 l10 -6 -6 15 c-7 18 -14 21 -14 7z" />
        <path d="M1816 447 c3 -10 9 -15 12 -12 3 3 0 11 -7 18 l-12 12 7 -18z" />
        <path d="M2026 433 l-7 -18 12 12 c7 7 10 15 7 18 -3 3 -9 -2 -12 -12z" />
        <path d="M530 421 c0 -6 4 -13 10 -16 l10 -6 -6 15 c-7 18 -14 21 -14 7z" />
        <path d="M1895 419 c-4 -6 -5 -12 -2 -15 2 -3 7 2 10 11 7 17 1 20 -8 4z" />
        <path d="M666 397 c3 -10 9 -15 12 -12 3 3 0 11 -7 18 l-12 12 7 -18z" />
        <path d="M1754 343 l7 -23 -518 0 -519 0 -13 13 -12 12 6 -17 7 -18 534 0 535
0 -12 23 c-17 32 -23 36 -15 10z" />
        <path d="M1956 313 l-7 -18 12 12 c7 7 10 15 7 18 -3 3 -9 -2 -12 -12z" />
        <path d="M1916 243 l-7 -18 12 12 c7 7 10 15 7 18 -3 3 -9 -2 -12 -12z" />
        <path d="M667 209 c7 -7 15 -10 18 -7 3 3 -2 9 -12 12 l-18 7 12 -12z" />
    </g>
    <g transform="translate(0.000000,256.000000) scale(0.100000,-0.100000)" fill="#96d4de" stroke="none">
        <path d="M978 2353 c166 -2 438 -2 605 0 166 1 30 2 -303 2 -333 0 -469 -1
-302 -2z" />
        <path d="M589 2243 l-14 -18 18 14 c9 7 17 15 17 17 0 8 -8 3 -21 -13z" />
        <path d="M780 2236 c0 -2 7 -9 15 -16 l15 -13 -6 17 c-3 9 -10 16 -15 16 -5 0
-9 -2 -9 -4z" />
        <path d="M546 2174 l-6 -17 15 13 c17 14 19 20 6 20 -5 0 -12 -7 -15 -16z" />
        <path d="M685 2180 c3 -5 11 -10 16 -10 6 0 7 5 4 10 -3 6 -11 10 -16 10 -6 0
-7 -4 -4 -10z" />
        <path d="M1726 2173 l-7 -18 12 12 c7 7 10 15 7 18 -3 3 -9 -2 -12 -12z" />
        <path d="M2000 2166 c0 -2 8 -10 18 -17 l17 -14 -14 18 c-13 16 -21 21 -21 13z" />
        <path d="M650 2135 l-12 -15 10 0 c5 0 12 7 16 15 3 8 4 15 2 15 -2 0 -9 -7
-16 -15z" />
        <path d="M1830 2135 l-12 -15 10 0 c5 0 12 7 16 15 3 8 4 15 2 15 -2 0 -9 -7
-16 -15z" />
        <path d="M720 2126 c0 -2 8 -10 18 -17 l17 -14 -14 18 c-13 16 -21 21 -21 13z" />
        <path d="M1906 2117 c3 -10 9 -15 12 -12 3 3 0 11 -7 18 l-12 12 7 -18z" />
        <path d="M506 2103 l-7 -18 12 12 c7 7 10 15 7 18 -3 3 -9 -2 -12 -12z" />
        <path d="M1686 2103 l-7 -18 12 12 c7 7 10 15 7 18 -3 3 -9 -2 -12 -12z" />
        <path d="M2040 2096 c0 -2 7 -9 15 -16 l15 -13 -6 17 c-3 9 -10 16 -15 16 -5
0 -9 -2 -9 -4z" />
        <path d="M609 2063 l-14 -18 18 14 c9 7 17 15 17 17 0 8 -8 3 -21 -13z" />
        <path d="M1789 2063 l-14 -18 18 14 c9 7 17 15 17 17 0 8 -8 3 -21 -13z" />
        <path d="M1946 2045 c4 -8 11 -15 16 -15 l10 0 -12 15 c-7 8 -14 15 -16 15 -2
0 -1 -7 2 -15z" />
        <path d="M796 1997 c3 -10 9 -15 12 -12 3 3 0 11 -7 18 l-12 12 7 -18z" />
        <path d="M1749 1993 l-14 -18 18 14 c9 7 17 15 17 17 0 8 -8 3 -21 -13z" />
        <path d="M439 1983 l-14 -18 18 14 c9 7 17 15 17 17 0 8 -8 3 -21 -13z" />
        <path d="M1980 1986 c0 -2 8 -10 18 -17 l17 -14 -14 18 c-13 16 -21 21 -21 13z" />
        <path d="M2110 1976 c0 -2 8 -10 18 -17 l17 -14 -14 18 c-13 16 -21 21 -21 13z" />
        <path d="M545 1949 c-4 -6 -5 -12 -2 -15 2 -3 7 2 10 11 7 17 1 20 -8 4z" />
        <path d="M769 1933 l-14 -18 18 14 c9 7 17 15 17 17 0 8 -8 3 -21 -13z" />
        <path d="M396 1914 l-6 -17 15 13 c17 14 19 20 6 20 -5 0 -12 -7 -15 -16z" />
        <path d="M1579 1913 l-14 -18 18 14 c9 7 17 15 17 17 0 8 -8 3 -21 -13z" />
        <path d="M2150 1906 c0 -2 7 -9 15 -16 l15 -13 -6 17 c-3 9 -10 16 -15 16 -5
0 -9 -2 -9 -4z" />
        <path d="M500 1875 l-12 -15 10 0 c5 0 12 7 16 15 3 8 4 15 2 15 -2 0 -9 -7
-16 -15z" />
        <path d="M726 1864 l-6 -17 15 13 c17 14 19 20 6 20 -5 0 -12 -7 -15 -16z" />
        <path d="M870 1866 c0 -2 8 -10 18 -17 l17 -14 -14 18 c-13 16 -21 21 -21 13z" />
        <path d="M2056 1857 c3 -10 9 -15 12 -12 3 3 0 11 -7 18 l-12 12 7 -18z" />
        <path d="M356 1843 l-7 -18 12 12 c7 7 10 15 7 18 -3 3 -9 -2 -12 -12z" />
        <path d="M1000 1856 c0 -2 8 -10 18 -17 l17 -14 -14 18 c-13 16 -21 21 -21 13z" />
        <path d="M1539 1843 l-14 -18 18 14 c9 7 17 15 17 17 0 8 -8 3 -21 -13z" />
        <path d="M830 1825 l-12 -15 10 0 c5 0 12 7 16 15 3 8 4 15 2 15 -2 0 -9 -7
-16 -15z" />
        <path d="M2200 1831 c0 -6 4 -13 10 -16 l10 -6 -6 15 c-7 18 -14 21 -14 7z" />
        <path d="M459 1803 l-14 -18 18 14 c9 7 17 15 17 17 0 8 -8 3 -21 -13z" />
        <path d="M1645 1809 c-4 -6 -5 -12 -2 -15 2 -3 7 2 10 11 7 17 1 20 -8 4z" />
        <path d="M686 1793 l-7 -18 12 12 c7 7 10 15 7 18 -3 3 -9 -2 -12 -12z" />
        <path d="M2096 1785 c4 -8 11 -15 16 -15 l10 0 -12 15 c-7 8 -14 15 -16 15 -2
0 -1 -7 2 -15z" />
        <path d="M1040 1786 c0 -2 7 -9 15 -16 l15 -13 -6 17 c-3 9 -10 16 -15 16 -5
0 -9 -2 -9 -4z" />
        <path d="M1496 1774 l-6 -17 15 13 c17 14 19 20 6 20 -5 0 -12 -7 -15 -16z" />
        <path d="M789 1753 l-14 -18 18 14 c9 7 17 15 17 17 0 8 -8 3 -21 -13z" />
        <path d="M946 1737 c3 -10 9 -15 12 -12 3 3 0 11 -7 18 l-12 12 7 -18z" />
        <path d="M1605 1739 c-4 -6 -5 -12 -2 -15 2 -3 7 2 10 11 7 17 1 20 -8 4z" />
        <path d="M289 1723 l-14 -18 18 14 c9 7 17 15 17 17 0 8 -8 3 -21 -13z" />
        <path d="M2130 1726 c0 -2 8 -10 18 -17 l17 -14 -14 18 c-13 16 -21 21 -21 13z" />
        <path d="M2260 1716 c0 -2 8 -10 18 -17 l17 -14 -14 18 c-13 16 -21 21 -21 13z" />
        <path d="M395 1689 c-4 -6 -5 -12 -2 -15 2 -3 7 2 10 11 7 17 1 20 -8 4z" />
        <path d="M619 1673 l-14 -18 18 14 c9 7 17 15 17 17 0 8 -8 3 -21 -13z" />
        <path d="M976 1673 l-7 -18 12 12 c7 7 10 15 7 18 -3 3 -9 -2 -12 -12z" />
        <path d="M246 1654 l-6 -17 15 13 c17 14 19 20 6 20 -5 0 -12 -7 -15 -16z" />
        <path d="M1580 1661 c0 -6 4 -13 10 -16 l10 -6 -6 15 c-7 18 -14 21 -14 7z" />
        <path d="M1930 1666 c0 -2 8 -10 18 -17 l17 -14 -14 18 c-13 16 -21 21 -21 13z" />
        <path d="M725 1639 c-4 -6 -5 -12 -2 -15 2 -3 7 2 10 11 7 17 1 20 -8 4z" />
        <path d="M2300 1646 c0 -2 7 -9 15 -16 l15 -13 -6 17 c-3 9 -10 16 -15 16 -5
0 -9 -2 -9 -4z" />
        <path d="M350 1615 l-12 -15 10 0 c5 0 12 7 16 15 3 8 4 15 2 15 -2 0 -9 -7
-16 -15z" />
        <path d="M576 1604 l-6 -17 15 13 c17 14 19 20 6 20 -5 0 -12 -7 -15 -16z" />
        <path d="M2206 1595 c4 -8 11 -15 16 -15 l10 0 -12 15 c-7 8 -14 15 -16 15 -2
0 -1 -7 2 -15z" />
        <path d="M1150 1596 c0 -2 8 -10 18 -17 l17 -14 -14 18 c-13 16 -21 21 -21 13z" />
        <path d="M1970 1596 c0 -2 7 -9 15 -16 l15 -13 -6 17 c-3 9 -10 16 -15 16 -5
0 -9 -2 -9 -4z" />
        <path d="M680 1565 l-12 -15 10 0 c5 0 12 7 16 15 3 8 4 15 2 15 -2 0 -9 -7
-16 -15z" />
        <path d="M1376 1563 l-7 -18 12 12 c7 7 10 15 7 18 -3 3 -9 -2 -12 -12z" />
        <path d="M2350 1571 c0 -6 4 -13 10 -16 l10 -6 -6 15 c-7 18 -14 21 -14 7z" />
        <path d="M909 1553 l-14 -18 18 14 c9 7 17 15 17 17 0 8 -8 3 -21 -13z" />
        <path d="M1510 1556 c0 -2 8 -10 18 -17 l17 -14 -14 18 c-13 16 -21 21 -21 13z" />
        <path d="M1876 1547 c3 -10 9 -15 12 -12 3 3 0 11 -7 18 l-12 12 7 -18z" />
        <path d="M536 1533 l-7 -18 12 12 c7 7 10 15 7 18 -3 3 -9 -2 -12 -12z" />
        <path d="M1640 1546 c0 -2 8 -10 18 -17 l17 -14 -14 18 c-13 16 -21 21 -21 13z" />
        <path d="M1479 1523 l-14 -18 18 14 c9 7 17 15 17 17 0 8 -8 3 -21 -13z" />
        <path d="M2240 1536 c0 -2 8 -10 18 -17 l17 -14 -14 18 c-13 16 -21 21 -21 13z" />
        <path d="M1015 1519 c-4 -6 -5 -12 -2 -15 2 -3 7 2 10 11 7 17 1 20 -8 4z" />
        <path d="M1190 1526 c0 -2 7 -9 15 -16 l15 -13 -6 17 c-3 9 -10 16 -15 16 -5
0 -9 -2 -9 -4z" />
        <path d="M2020 1521 c0 -6 4 -13 10 -16 l10 -6 -6 15 c-7 18 -14 21 -14 7z" />
        <path d="M639 1493 l-14 -18 18 14 c9 7 17 15 17 17 0 8 -8 3 -21 -13z" />
        <path d="M866 1484 l-6 -17 15 13 c17 14 19 20 6 20 -5 0 -12 -7 -15 -16z" />
        <path d="M1096 1475 c4 -8 11 -15 16 -15 l10 0 -12 15 c-7 8 -14 15 -16 15 -2
0 -1 -7 2 -15z" />
        <path d="M1916 1475 c4 -8 11 -15 16 -15 l10 0 -12 15 c-7 8 -14 15 -16 15 -2
0 -1 -7 2 -15z" />
        <path d="M1680 1476 c0 -2 7 -9 15 -16 l15 -13 -6 17 c-3 9 -10 16 -15 16 -5
0 -9 -2 -9 -4z" />
        <path d="M1439 1453 l-14 -18 18 14 c16 13 21 21 13 21 -2 0 -10 -8 -17 -17z" />
        <path d="M970 1445 l-12 -15 10 0 c5 0 12 7 16 15 3 8 4 15 2 15 -2 0 -9 -7
-16 -15z" />
        <path d="M2410 1456 c0 -2 8 -10 18 -17 l17 -14 -14 18 c-13 16 -21 21 -21 13z" />
        <path d="M1586 1427 c3 -10 9 -15 12 -12 3 3 0 11 -7 18 l-12 12 7 -18z" />
        <path d="M469 1413 l-14 -18 18 14 c9 7 17 15 17 17 0 8 -8 3 -21 -13z" />
        <path d="M1130 1416 c0 -2 8 -10 18 -17 l17 -14 -14 18 c-13 16 -21 21 -21 13z" />
        <path d="M1950 1416 c0 -2 8 -10 18 -17 l17 -14 -14 18 c-13 16 -21 21 -21 13z" />
        <path d="M2316 1407 c3 -10 9 -15 12 -12 3 3 0 11 -7 18 l-12 12 7 -18z" />
        <path d="M1730 1401 c0 -6 4 -13 10 -16 l10 -6 -6 15 c-7 18 -14 21 -14 7z" />
        <path d="M2080 1406 c0 -2 8 -10 18 -17 l17 -14 -14 18 c-13 16 -21 21 -21 13z" />
        <path d="M575 1379 c-4 -6 -5 -12 -2 -15 2 -3 7 2 10 11 7 17 1 20 -8 4z" />
        <path d="M929 1373 l-14 -18 18 14 c9 7 17 15 17 17 0 8 -8 3 -21 -13z" />
        <path d="M2450 1386 c0 -2 7 -9 15 -16 l15 -13 -6 17 c-3 9 -10 16 -15 16 -5
0 -9 -2 -9 -4z" />
        <path d="M1626 1355 c4 -8 11 -15 16 -15 l10 0 -12 15 c-7 8 -14 15 -16 15 -2
0 -1 -7 2 -15z" />
        <path d="M426 1344 l-6 -17 15 13 c17 14 19 20 6 20 -5 0 -12 -7 -15 -16z" />
        <path d="M426 1215 c4 -8 11 -15 16 -15 l10 0 -12 15 c-7 8 -14 15 -16 15 -2
0 -1 -7 2 -15z" />
        <path d="M190 1216 c0 -2 7 -9 15 -16 l15 -13 -6 17 c-3 9 -10 16 -15 16 -5 0
-9 -2 -9 -4z" />
        <path d="M1626 1204 l-6 -17 15 13 c17 14 19 20 6 20 -5 0 -12 -7 -15 -16z" />
        <path d="M570 1191 c0 -6 4 -13 10 -16 l10 -6 -6 15 c-7 18 -14 21 -14 7z" />
        <path d="M920 1196 c0 -2 8 -10 18 -17 l17 -14 -14 18 c-13 16 -21 21 -21 13z" />
        <path d="M2460 1185 l-12 -15 10 0 c5 0 12 7 16 15 3 8 4 15 2 15 -2 0 -9 -7
-16 -15z" />
        <path d="M96 1167 c3 -10 9 -15 12 -12 3 3 0 11 -7 18 l-12 12 7 -18z" />
        <path d="M1146 1164 l-6 -17 15 13 c17 14 19 20 6 20 -5 0 -12 -7 -15 -16z" />
        <path d="M1735 1169 c-4 -6 -5 -12 -2 -15 2 -3 7 2 10 11 7 17 1 20 -8 4z" />
        <path d="M2089 1163 l-14 -18 18 14 c16 13 21 21 13 21 -2 0 -10 -8 -17 -17z" />
        <path d="M2316 1153 l-7 -18 12 12 c7 7 10 15 7 18 -3 3 -9 -2 -12 -12z" />
        <path d="M460 1156 c0 -2 8 -10 18 -17 l17 -14 -14 18 c-13 16 -21 21 -21 13z" />
        <path d="M1280 1156 c0 -2 8 -10 18 -17 l17 -14 -14 18 c-13 16 -21 21 -21 13z" />
        <path d="M240 1141 c0 -6 4 -13 10 -16 l10 -6 -6 15 c-7 18 -14 21 -14 7z" />
        <path d="M1410 1146 c0 -2 8 -10 18 -17 l17 -14 -14 18 c-13 16 -21 21 -21 13z" />
        <path d="M1586 1133 l-7 -18 12 12 c7 7 10 15 7 18 -3 3 -9 -2 -12 -12z" />
        <path d="M1250 1125 l-12 -15 10 0 c5 0 12 7 16 15 3 8 4 15 2 15 -2 0 -9 -7
-16 -15z" />
        <path d="M960 1126 c0 -2 7 -9 15 -16 l15 -13 -6 17 c-3 9 -10 16 -15 16 -5 0
-9 -2 -9 -4z" />
        <path d="M2419 1113 l-14 -18 18 14 c9 7 17 15 17 17 0 8 -8 3 -21 -13z" />
        <path d="M136 1095 c4 -8 11 -15 16 -15 l10 0 -12 15 c-7 8 -14 15 -16 15 -2
0 -1 -7 2 -15z" />
        <path d="M1106 1093 l-7 -18 12 12 c7 7 10 15 7 18 -3 3 -9 -2 -12 -12z" />
        <path d="M1690 1095 l-12 -15 10 0 c5 0 12 7 16 15 3 8 4 15 2 15 -2 0 -9 -7
-16 -15z" />
        <path d="M1916 1084 l-6 -17 15 13 c17 14 19 20 6 20 -5 0 -12 -7 -15 -16z" />
        <path d="M866 1075 c4 -8 11 -15 16 -15 l10 0 -12 15 c-7 8 -14 15 -16 15 -2
0 -1 -7 2 -15z" />
        <path d="M630 1076 c0 -2 8 -10 18 -17 l17 -14 -14 18 c-13 16 -21 21 -21 13z" />
        <path d="M1450 1076 c0 -2 7 -9 15 -16 l15 -13 -6 17 c-3 9 -10 16 -15 16 -5
0 -9 -2 -9 -4z" />
        <path d="M1210 1055 l-12 -15 10 0 c5 0 12 7 16 15 3 8 4 15 2 15 -2 0 -9 -7
-16 -15z" />
        <path d="M1010 1051 c0 -6 4 -13 10 -16 l10 -6 -6 15 c-7 18 -14 21 -14 7z" />
        <path d="M2025 1049 c-4 -6 -5 -12 -2 -15 2 -3 7 2 10 11 7 17 1 20 -8 4z" />
        <path d="M2249 1033 l-14 -18 18 14 c16 13 21 21 13 21 -2 0 -10 -8 -17 -17z" />
        <path d="M170 1036 c0 -2 8 -10 18 -17 l17 -14 -14 18 c-13 16 -21 21 -21 13z" />
        <path d="M536 1025 c4 -8 11 -15 16 -15 l10 0 -12 15 c-7 8 -14 15 -16 15 -2
0 -1 -7 2 -15z" />
        <path d="M1066 1023 l-7 -18 12 12 c7 7 10 15 7 18 -3 3 -9 -2 -12 -12z" />
        <path d="M1356 1027 c3 -10 9 -15 12 -12 3 3 0 11 -7 18 l-12 12 7 -18z" />
        <path d="M1649 1023 l-14 -18 18 14 c16 13 21 21 13 21 -2 0 -10 -8 -17 -17z" />
        <path d="M300 1026 c0 -2 8 -10 18 -17 l17 -14 -14 18 c-13 16 -21 21 -21 13z" />
        <path d="M1518 1016 c-19 -14 -23 -26 -10 -26 4 0 13 9 20 20 14 23 13 24 -10
6z" />
        <path d="M1876 1013 l-7 -18 12 12 c7 7 10 15 7 18 -3 3 -9 -2 -12 -12z" />
        <path d="M900 1016 c0 -2 8 -10 18 -17 l17 -14 -14 18 c-13 16 -21 21 -21 13z" />
        <path d="M670 1006 c0 -2 7 -9 15 -16 l15 -13 -6 17 c-3 9 -10 16 -15 16 -5 0
-9 -2 -9 -4z" />
        <path d="M2355 999 c-4 -6 -5 -12 -2 -15 2 -3 7 2 10 11 7 17 1 20 -8 4z" />
        <path d="M1169 983 l-14 -18 18 14 c9 7 17 15 17 17 0 8 -8 3 -21 -13z" />
        <path d="M1980 975 l-12 -15 10 0 c5 0 12 7 16 15 3 8 4 15 2 15 -2 0 -9 -7
-16 -15z" />
        <path d="M2206 964 l-6 -17 15 13 c17 14 19 20 6 20 -5 0 -12 -7 -15 -16z" />
        <path d="M570 966 c0 -2 8 -10 18 -17 l17 -14 -14 18 c-13 16 -21 21 -21 13z" />
        <path d="M1396 955 c4 -8 11 -15 16 -15 l10 0 -12 15 c-7 8 -14 15 -16 15 -2
0 -1 -7 2 -15z" />
        <path d="M340 956 c0 -2 7 -9 15 -16 l15 -13 -6 17 c-3 9 -10 16 -15 16 -5 0
-9 -2 -9 -4z" />
        <path d="M2310 925 l-12 -15 10 0 c5 0 12 7 16 15 3 8 4 15 2 15 -2 0 -9 -7
-16 -15z" />
        <path d="M1129 913 l-14 -18 18 14 c9 7 17 15 17 17 0 8 -8 3 -21 -13z" />
        <path d="M246 907 c3 -10 9 -15 12 -12 3 3 0 11 -7 18 l-12 12 7 -18z" />
        <path d="M1579 899 l-11 -21 13 -12 12 -11 -7 12 c-4 7 -2 22 4 33 6 11 8 20
6 20 -3 0 -10 -9 -17 -21z" />
        <path d="M1939 903 l-14 -18 18 14 c16 13 21 21 13 21 -2 0 -10 -8 -17 -17z" />
        <path d="M1809 893 l-14 -18 18 14 c9 7 17 15 17 17 0 8 -8 3 -21 -13z" />
        <path d="M976 887 c3 -10 9 -15 12 -12 3 3 0 11 -7 18 l-12 12 7 -18z" />
        <path d="M390 881 c0 -6 4 -13 10 -16 l10 -6 -6 15 c-7 18 -14 21 -14 7z" />
        <path d="M2269 853 l-14 -18 18 14 c16 13 21 21 13 21 -2 0 -10 -8 -17 -17z" />
        <path d="M1089 843 l-14 -18 18 14 c9 7 17 15 17 17 0 8 -8 3 -21 -13z" />
        <path d="M2139 843 l-14 -18 18 14 c16 13 21 21 13 21 -2 0 -10 -8 -17 -17z" />
        <path d="M280 846 c0 -2 8 -10 18 -17 l17 -14 -14 18 c-13 16 -21 21 -21 13z" />
        <path d="M646 835 c4 -8 11 -15 16 -15 l10 0 -12 15 c-7 8 -14 15 -16 15 -2 0
-1 -7 2 -15z" />
        <path d="M1766 824 l-6 -17 15 13 c17 14 19 20 6 20 -5 0 -12 -7 -15 -16z" />
        <path d="M780 816 c0 -2 8 -10 18 -17 l17 -14 -14 18 c-13 16 -21 21 -21 13z" />
        <path d="M1600 816 c0 -2 7 -9 15 -16 l15 -13 -6 17 c-3 9 -10 16 -15 16 -5 0
-9 -2 -9 -4z" />
        <path d="M1870 785 l-12 -15 10 0 c5 0 12 7 16 15 3 8 4 15 2 15 -2 0 -9 -7
-16 -15z" />
        <path d="M2096 774 l-6 -17 15 13 c17 14 19 20 6 20 -5 0 -12 -7 -15 -16z" />
        <path d="M680 776 c0 -2 8 -10 18 -17 l17 -14 -14 18 c-13 16 -21 21 -21 13z" />
        <path d="M919 763 l-14 -18 18 14 c9 7 17 15 17 17 0 8 -8 3 -21 -13z" />
        <path d="M1506 765 c4 -8 11 -15 16 -15 l10 0 -12 15 c-7 8 -14 15 -16 15 -2
0 -1 -7 2 -15z" />
        <path d="M450 766 c0 -2 8 -10 18 -17 l17 -14 -14 18 c-13 16 -21 21 -21 13z" />
        <path d="M1726 753 l-7 -18 12 12 c7 7 10 15 7 18 -3 3 -9 -2 -12 -12z" />
        <path d="M820 746 c0 -2 7 -9 15 -16 l15 -13 -6 17 c-3 9 -10 16 -15 16 -5 0
-9 -2 -9 -4z" />
        <path d="M1650 741 c0 -6 4 -13 10 -16 l10 -6 -6 15 c-7 18 -14 21 -14 7z" />
        <path d="M2205 739 c-4 -6 -5 -12 -2 -15 2 -3 7 2 10 11 7 17 1 20 -8 4z" />
        <path d="M1829 713 l-14 -18 18 14 c16 13 21 21 13 21 -2 0 -10 -8 -17 -17z" />
        <path d="M2056 703 l-7 -18 12 12 c7 7 10 15 7 18 -3 3 -9 -2 -12 -12z" />
        <path d="M879 693 l-14 -18 18 14 c9 7 17 15 17 17 0 8 -8 3 -21 -13z" />
        <path d="M1540 706 c0 -2 8 -10 18 -17 l17 -14 -14 18 c-13 16 -21 21 -21 13z" />
        <path d="M490 696 c0 -2 7 -9 15 -16 l15 -13 -6 17 c-3 9 -10 16 -15 16 -5 0
-9 -2 -9 -4z" />
        <path d="M2160 665 l-12 -15 10 0 c5 0 12 7 16 15 3 8 4 15 2 15 -2 0 -9 -7
-16 -15z" />
        <path d="M985 659 c-4 -6 -5 -12 -2 -15 2 -3 7 2 10 11 7 17 1 20 -8 4z" />
        <path d="M396 645 c4 -8 11 -15 16 -15 l10 0 -12 15 c-7 8 -14 15 -16 15 -2 0
-1 -7 2 -15z" />
        <path d="M756 645 c4 -8 11 -15 16 -15 l10 0 -12 15 c-7 8 -14 15 -16 15 -2 0
-1 -7 2 -15z" />
        <path d="M540 621 c0 -6 4 -13 10 -16 l10 -6 -6 15 c-7 18 -14 21 -14 7z" />
        <path d="M1765 599 c-4 -6 -5 -12 -2 -15 2 -3 7 2 10 11 7 17 1 20 -8 4z" />
        <path d="M2119 593 l-14 -18 18 14 c16 13 21 21 13 21 -2 0 -10 -8 -17 -17z" />
        <path d="M1989 583 l-14 -18 18 14 c9 7 17 15 17 17 0 8 -8 3 -21 -13z" />
        <path d="M430 586 c0 -2 8 -10 18 -17 l17 -14 -14 18 c-13 16 -21 21 -21 13z" />
        <path d="M790 586 c0 -2 8 -10 18 -17 l17 -14 -14 18 c-13 16 -21 21 -21 13z" />
        <path d="M1750 556 c0 -2 7 -9 15 -16 l15 -13 -6 17 c-3 9 -10 16 -15 16 -5 0
-9 -2 -9 -4z" />
        <path d="M1946 514 l-6 -17 15 13 c17 14 19 20 6 20 -5 0 -12 -7 -15 -16z" />
        <path d="M1656 505 c4 -8 11 -15 16 -15 l10 0 -12 15 c-7 8 -14 15 -16 15 -2
0 -1 -7 2 -15z" />
        <path d="M600 506 c0 -2 8 -10 18 -17 l17 -14 -14 18 c-13 16 -21 21 -21 13z" />
        <path d="M2050 475 l-12 -15 10 0 c5 0 12 7 16 15 3 8 4 15 2 15 -2 0 -9 -7
-16 -15z" />
        <path d="M506 457 c3 -10 9 -15 12 -12 3 3 0 11 -7 18 l-12 12 7 -18z" />
        <path d="M1906 443 l-7 -18 12 12 c7 7 10 15 7 18 -3 3 -9 -2 -12 -12z" />
        <path d="M1690 446 c0 -2 8 -10 18 -17 l17 -14 -14 18 c-13 16 -21 21 -21 13z" />
        <path d="M640 436 c0 -2 7 -9 15 -16 l15 -13 -6 17 c-3 9 -10 16 -15 16 -5 0
-9 -2 -9 -4z" />
        <path d="M2009 403 l-14 -18 18 14 c16 13 21 21 13 21 -2 0 -10 -8 -17 -17z" />
        <path d="M546 385 c4 -8 11 -15 16 -15 l10 0 -12 15 c-7 8 -14 15 -16 15 -2 0
-1 -7 2 -15z" />
        <path d="M580 326 c0 -2 8 -10 18 -17 l17 -14 -14 18 c-13 16 -21 21 -21 13z" />
        <path d="M978 203 c166 -2 438 -2 605 0 166 1 30 2 -303 2 -333 0 -469 -1
-302 -2z" />
    </g>
    <g transform="translate(0.000000,256.000000) scale(0.100000,-0.100000)" fill="#f1f9fa" stroke="none">
        <path d="M1906 2337 c3 -10 9 -15 12 -12 3 3 0 11 -7 18 l-12 12 7 -18z" />
        <path d="M625 2309 c-4 -6 -5 -12 -2 -15 2 -3 7 2 10 11 7 17 1 20 -8 4z" />
        <path d="M1936 2287 c3 -10 9 -15 12 -12 3 3 0 11 -7 18 l-12 12 7 -18z" />
        <path d="M780 2240 c0 -5 5 -10 11 -10 5 0 7 5 4 10 -3 6 -8 10 -11 10 -2 0
-4 -4 -4 -10z" />
        <path d="M1976 2217 c3 -10 9 -15 12 -12 3 3 0 11 -7 18 l-12 12 7 -18z" />
        <path d="M555 2190 c-3 -5 -1 -10 4 -10 6 0 11 5 11 10 0 6 -2 10 -4 10 -3 0
-8 -4 -11 -10z" />
        <path d="M680 2186 c0 -2 7 -9 15 -16 l15 -12 0 10 c0 5 -7 12 -15 16 -8 3
-15 4 -15 2z" />
        <path d="M1860 2186 c0 -2 7 -9 15 -16 l15 -13 -6 17 c-3 9 -10 16 -15 16 -5
0 -9 -2 -9 -4z" />
        <path d="M826 2167 c3 -10 9 -15 12 -12 3 3 0 11 -7 18 l-12 12 7 -18z" />
        <path d="M640 2119 c0 -5 5 -7 10 -4 6 3 10 8 10 11 0 2 -4 4 -10 4 -5 0 -10
-5 -10 -11z" />
        <path d="M1820 2119 c0 -5 5 -7 10 -4 6 3 10 8 10 11 0 2 -4 4 -10 4 -5 0 -10
-5 -10 -11z" />
        <path d="M866 2097 c3 -10 9 -15 12 -12 3 3 0 11 -7 18 l-12 12 7 -18z" />
        <path d="M2040 2100 c0 -5 5 -10 11 -10 5 0 7 5 4 10 -3 6 -8 10 -11 10 -2 0
-4 -4 -4 -10z" />
        <path d="M760 2061 c0 -6 4 -13 10 -16 l10 -6 -6 15 c-7 18 -14 21 -14 7z" />
        <path d="M475 2049 c-4 -6 -5 -12 -2 -15 2 -3 7 2 10 11 7 17 1 20 -8 4z" />
        <path d="M1955 2030 c3 -5 8 -10 11 -10 2 0 4 5 4 10 0 6 -5 10 -11 10 -5 0
-7 -4 -4 -10z" />
        <path d="M2086 2027 c3 -10 9 -15 12 -12 3 3 0 11 -7 18 l-12 12 7 -18z" />
        <path d="M576 2003 l-7 -18 12 12 c7 7 10 15 7 18 -3 3 -9 -2 -12 -12z" />
        <path d="M1716 1933 l-7 -18 12 12 c7 7 10 15 7 18 -3 3 -9 -2 -12 -12z" />
        <path d="M405 1930 c-3 -5 -1 -10 4 -10 6 0 11 5 11 10 0 6 -2 10 -4 10 -3 0
-8 -4 -11 -10z" />
        <path d="M2020 1921 c0 -6 4 -13 10 -16 l10 -6 -6 15 c-7 18 -14 21 -14 7z" />
        <path d="M976 1907 c3 -10 9 -15 12 -12 3 3 0 11 -7 18 l-12 12 7 -18z" />
        <path d="M2150 1910 c0 -5 5 -10 11 -10 5 0 7 5 4 10 -3 6 -8 10 -11 10 -2 0
-4 -4 -4 -10z" />
        <path d="M735 1880 c-3 -5 -1 -10 4 -10 6 0 11 5 11 10 0 6 -2 10 -4 10 -3 0
-8 -4 -11 -10z" />
        <path d="M865 1870 c3 -5 8 -10 11 -10 2 0 4 5 4 10 0 6 -5 10 -11 10 -5 0 -7
-4 -4 -10z" />
        <path d="M1676 1863 l-7 -18 12 12 c7 7 10 15 7 18 -3 3 -9 -2 -12 -12z" />
        <path d="M490 1859 c0 -5 5 -7 10 -4 6 3 10 8 10 11 0 2 -4 4 -10 4 -5 0 -10
-5 -10 -11z" />
        <path d="M820 1809 c0 -5 5 -7 10 -4 6 3 10 8 10 11 0 2 -4 4 -10 4 -5 0 -10
-5 -10 -11z" />
        <path d="M910 1801 c0 -6 4 -13 10 -16 l10 -6 -6 15 c-7 18 -14 21 -14 7z" />
        <path d="M325 1789 c-4 -6 -5 -12 -2 -15 2 -3 7 2 10 11 7 17 1 20 -8 4z" />
        <path d="M1040 1790 c0 -5 5 -10 11 -10 5 0 7 5 4 10 -3 6 -8 10 -11 10 -2 0
-4 -4 -4 -10z" />
        <path d="M1505 1790 c-3 -5 -1 -10 4 -10 6 0 11 5 11 10 0 6 -2 10 -4 10 -3 0
-8 -4 -11 -10z" />
        <path d="M2105 1770 c3 -5 8 -10 11 -10 2 0 4 5 4 10 0 6 -5 10 -11 10 -5 0
-7 -4 -4 -10z" />
        <path d="M2236 1767 c3 -10 9 -15 12 -12 3 3 0 11 -7 18 l-12 12 7 -18z" />
        <path d="M426 1743 l-7 -18 12 12 c7 7 10 15 7 18 -3 3 -9 -2 -12 -12z" />
        <path d="M655 1739 c-4 -6 -5 -12 -2 -15 2 -3 7 2 10 11 7 17 1 20 -8 4z" />
        <path d="M1825 1740 l-6 -10 15 6 c18 7 21 14 7 14 -6 0 -13 -4 -16 -10z" />
        <path d="M1906 1717 c3 -10 9 -15 12 -12 3 3 0 11 -7 18 l-12 12 7 -18z" />
        <path d="M756 1693 l-7 -18 12 12 c7 7 10 15 7 18 -3 3 -9 -2 -12 -12z" />
        <path d="M255 1670 c-3 -5 -1 -10 4 -10 6 0 11 5 11 10 0 6 -2 10 -4 10 -3 0
-8 -4 -11 -10z" />
        <path d="M2170 1661 c0 -6 4 -13 10 -16 l10 -6 -6 15 c-7 18 -14 21 -14 7z" />
        <path d="M2300 1650 c0 -5 5 -10 11 -10 5 0 7 5 4 10 -3 6 -8 10 -11 10 -2 0
-4 -4 -4 -10z" />
        <path d="M585 1620 c-3 -5 -1 -10 4 -10 6 0 11 5 11 10 0 6 -2 10 -4 10 -3 0
-8 -4 -11 -10z" />
        <path d="M945 1619 c-4 -6 -5 -12 -2 -15 2 -3 7 2 10 11 7 17 1 20 -8 4z" />
        <path d="M1840 1611 c0 -6 4 -13 10 -16 l10 -6 -6 15 c-7 18 -14 21 -14 7z" />
        <path d="M340 1599 c0 -5 5 -7 10 -4 6 3 10 8 10 11 0 2 -4 4 -10 4 -5 0 -10
-5 -10 -11z" />
        <path d="M1616 1597 c3 -10 9 -15 12 -12 3 3 0 11 -7 18 l-12 12 7 -18z" />
        <path d="M1970 1600 c0 -5 5 -10 11 -10 5 0 7 5 4 10 -3 6 -8 10 -11 10 -2 0
-4 -4 -4 -10z" />
        <path d="M2215 1580 c3 -5 8 -10 11 -10 2 0 4 5 4 10 0 6 -5 10 -11 10 -5 0
-7 -4 -4 -10z" />
        <path d="M316 1553 l-7 -18 12 12 c7 7 10 15 7 18 -3 3 -9 -2 -12 -12z" />
        <path d="M1505 1560 c3 -5 8 -10 11 -10 2 0 4 5 4 10 0 6 -5 10 -11 10 -5 0
-7 -4 -4 -10z" />
        <path d="M670 1549 c0 -5 5 -7 10 -4 6 3 10 8 10 11 0 2 -4 4 -10 4 -5 0 -10
-5 -10 -11z" />
        <path d="M1060 1541 c0 -6 4 -13 10 -16 l10 -6 -6 15 c-7 18 -14 21 -14 7z" />
        <path d="M1190 1530 c0 -5 5 -10 11 -10 5 0 7 5 4 10 -3 6 -8 10 -11 10 -2 0
-4 -4 -4 -10z" />
        <path d="M1345 1509 c-4 -6 -5 -12 -2 -15 2 -3 7 2 10 11 7 17 1 20 -8 4z" />
        <path d="M2386 1507 c3 -10 9 -15 12 -12 3 3 0 11 -7 18 l-12 12 7 -18z" />
        <path d="M875 1500 c-3 -5 -1 -10 4 -10 6 0 11 5 11 10 0 6 -2 10 -4 10 -3 0
-8 -4 -11 -10z" />
        <path d="M1550 1491 c0 -6 4 -13 10 -16 l10 -6 -6 15 c-7 18 -14 21 -14 7z" />
        <path d="M505 1479 c-4 -6 -5 -12 -2 -15 2 -3 7 2 10 11 7 17 1 20 -8 4z" />
        <path d="M1680 1480 c0 -5 5 -10 11 -10 5 0 7 5 4 10 -3 6 -8 10 -11 10 -2 0
-4 -4 -4 -10z" />
        <path d="M2280 1471 c0 -6 4 -13 10 -16 l10 -6 -6 15 c-7 18 -14 21 -14 7z" />
        <path d="M1105 1460 c3 -5 8 -10 11 -10 2 0 4 5 4 10 0 6 -5 10 -11 10 -5 0
-7 -4 -4 -10z" />
        <path d="M1236 1457 c3 -10 9 -15 12 -12 3 3 0 11 -7 18 l-12 12 7 -18z" />
        <path d="M1925 1460 c3 -5 8 -10 11 -10 2 0 4 5 4 10 0 6 -5 10 -11 10 -5 0
-7 -4 -4 -10z" />
        <path d="M2056 1457 c3 -10 9 -15 12 -12 3 3 0 11 -7 18 l-12 12 7 -18z" />
        <path d="M606 1433 l-7 -18 12 12 c7 7 10 15 7 18 -3 3 -9 -2 -12 -12z" />
        <path d="M1305 1439 c-4 -6 -5 -12 -2 -15 2 -3 7 2 10 11 7 17 1 20 -8 4z" />
        <path d="M835 1429 c-4 -6 -5 -12 -2 -15 2 -3 7 2 10 11 7 17 1 20 -8 4z" />
        <path d="M960 1429 c0 -5 5 -7 10 -4 6 3 10 8 10 11 0 2 -4 4 -10 4 -5 0 -10
-5 -10 -11z" />
        <path d="M1406 1393 l-7 -18 12 12 c7 7 10 15 7 18 -3 3 -9 -2 -12 -12z" />
        <path d="M2450 1390 c0 -5 5 -10 11 -10 5 0 7 5 4 10 -3 6 -8 10 -11 10 -2 0
-4 -4 -4 -10z" />
        <path d="M435 1360 c-3 -5 -1 -10 4 -10 6 0 11 5 11 10 0 6 -2 10 -4 10 -3 0
-8 -4 -11 -10z" />
        <path d="M795 1359 c-4 -6 -5 -12 -2 -15 2 -3 7 2 10 11 7 17 1 20 -8 4z" />
        <path d="M1170 1351 c0 -6 4 -13 10 -16 l10 -6 -6 15 c-7 18 -14 21 -14 7z" />
        <path d="M1990 1351 c0 -6 4 -13 10 -16 l10 -6 -6 15 c-7 18 -14 21 -14 7z" />
        <path d="M1635 1340 c3 -5 8 -10 11 -10 2 0 4 5 4 10 0 6 -5 10 -11 10 -5 0
-7 -4 -4 -10z" />
        <path d="M60 1231 c0 -6 4 -13 10 -16 l10 -6 -6 15 c-7 18 -14 21 -14 7z" />
        <path d="M190 1220 c0 -5 5 -10 11 -10 5 0 7 5 4 10 -3 6 -8 10 -11 10 -2 0
-4 -4 -4 -10z" />
        <path d="M1635 1220 c-3 -5 -1 -10 4 -10 6 0 11 5 11 10 0 6 -2 10 -4 10 -3 0
-8 -4 -11 -10z" />
        <path d="M1995 1219 c-4 -6 -5 -12 -2 -15 2 -3 7 2 10 11 7 17 1 20 -8 4z" />
        <path d="M790 1211 c0 -6 4 -13 10 -16 l10 -6 -6 15 c-7 18 -14 21 -14 7z" />
        <path d="M435 1200 c3 -5 8 -10 11 -10 2 0 4 5 4 10 0 6 -5 10 -11 10 -5 0 -7
-4 -4 -10z" />
        <path d="M1386 1197 c3 -10 9 -15 12 -12 3 3 0 11 -7 18 l-12 12 7 -18z" />
        <path d="M1155 1180 c-3 -5 -1 -10 4 -10 6 0 11 5 11 10 0 6 -2 10 -4 10 -3 0
-8 -4 -11 -10z" />
        <path d="M2450 1169 c0 -5 5 -7 10 -4 6 3 10 8 10 11 0 2 -4 4 -10 4 -5 0 -10
-5 -10 -11z" />
        <path d="M1275 1160 c3 -5 8 -10 11 -10 2 0 4 5 4 10 0 6 -5 10 -11 10 -5 0
-7 -4 -4 -10z" />
        <path d="M1955 1149 c-4 -6 -5 -12 -2 -15 2 -3 7 2 10 11 7 17 1 20 -8 4z" />
        <path d="M830 1141 c0 -6 4 -13 10 -16 l10 -6 -6 15 c-7 18 -14 21 -14 7z" />
        <path d="M606 1127 c3 -10 9 -15 12 -12 3 3 0 11 -7 18 l-12 12 7 -18z" />
        <path d="M960 1130 c0 -5 5 -10 11 -10 5 0 7 5 4 10 -3 6 -8 10 -11 10 -2 0
-4 -4 -4 -10z" />
        <path d="M1240 1109 c0 -5 5 -7 10 -4 6 3 10 8 10 11 0 2 -4 4 -10 4 -5 0 -10
-5 -10 -11z" />
        <path d="M2056 1103 l-7 -18 12 12 c7 7 10 15 7 18 -3 3 -9 -2 -12 -12z" />
        <path d="M1925 1100 c-3 -5 -1 -10 4 -10 6 0 11 5 11 10 0 6 -2 10 -4 10 -3 0
-8 -4 -11 -10z" />
        <path d="M2285 1099 c-4 -6 -5 -12 -2 -15 2 -3 7 2 10 11 7 17 1 20 -8 4z" />
        <path d="M500 1091 c0 -6 4 -13 10 -16 l10 -6 -6 15 c-7 18 -14 21 -14 7z" />
        <path d="M1320 1091 c0 -6 4 -13 10 -16 l10 -6 -6 15 c-7 18 -14 21 -14 7z" />
        <path d="M145 1080 c3 -5 8 -10 11 -10 2 0 4 5 4 10 0 6 -5 10 -11 10 -5 0 -7
-4 -4 -10z" />
        <path d="M276 1077 c3 -10 9 -15 12 -12 3 3 0 11 -7 18 l-12 12 7 -18z" />
        <path d="M1450 1080 c0 -5 5 -10 11 -10 5 0 7 5 4 10 -3 6 -8 10 -11 10 -2 0
-4 -4 -4 -10z" />
        <path d="M1555 1079 c-4 -6 -5 -12 -2 -15 2 -3 7 2 10 11 7 17 1 20 -8 4z" />
        <path d="M1680 1079 c0 -5 5 -7 10 -4 6 3 10 8 10 11 0 2 -4 4 -10 4 -5 0 -10
-5 -10 -11z" />
        <path d="M875 1060 c3 -5 8 -10 11 -10 2 0 4 5 4 10 0 6 -5 10 -11 10 -5 0 -7
-4 -4 -10z" />
        <path d="M2386 1053 l-7 -18 12 12 c7 7 10 15 7 18 -3 3 -9 -2 -12 -12z" />
        <path d="M1200 1039 c0 -5 5 -7 10 -4 6 3 10 8 10 11 0 2 -4 4 -10 4 -5 0 -10
-5 -10 -11z" />
        <path d="M545 1010 c3 -5 8 -10 11 -10 2 0 4 5 4 10 0 6 -5 10 -11 10 -5 0 -7
-4 -4 -10z" />
        <path d="M670 1010 c0 -5 5 -10 11 -10 5 0 7 5 4 10 -3 6 -8 10 -11 10 -2 0
-4 -4 -4 -10z" />
        <path d="M1490 1016 c0 -2 7 -9 15 -16 l15 -12 0 10 c0 5 -7 12 -15 16 -8 3
-15 4 -15 2z" />
        <path d="M2215 980 c-3 -5 -1 -10 4 -10 6 0 11 5 11 10 0 6 -2 10 -4 10 -3 0
-8 -4 -11 -10z" />
        <path d="M210 971 c0 -6 4 -13 10 -16 l10 -6 -6 15 c-7 18 -14 21 -14 7z" />
        <path d="M1616 963 l-7 -18 12 12 c7 7 10 15 7 18 -3 3 -9 -2 -12 -12z" />
        <path d="M340 960 c0 -5 5 -10 11 -10 5 0 7 5 4 10 -3 6 -8 10 -11 10 -2 0 -4
-4 -4 -10z" />
        <path d="M1845 959 c-4 -6 -5 -12 -2 -15 2 -3 7 2 10 11 7 17 1 20 -8 4z" />
        <path d="M1970 959 c0 -5 5 -7 10 -4 6 3 10 8 10 11 0 2 -4 4 -10 4 -5 0 -10
-5 -10 -11z" />
        <path d="M940 951 c0 -6 4 -13 10 -16 l10 -6 -6 15 c-7 18 -14 21 -14 7z" />
        <path d="M716 937 c3 -10 9 -15 12 -12 3 3 0 11 -7 18 l-12 12 7 -18z" />
        <path d="M1405 940 c3 -5 8 -10 11 -10 2 0 4 5 4 10 0 6 -5 10 -11 10 -5 0 -7
-4 -4 -10z" />
        <path d="M2175 909 c-4 -6 -5 -12 -2 -15 2 -3 7 2 10 11 7 17 1 20 -8 4z" />
        <path d="M2300 909 c0 -5 5 -7 10 -4 6 3 10 8 10 11 0 2 -4 4 -10 4 -5 0 -10
-5 -10 -11z" />
        <path d="M610 901 c0 -6 4 -13 10 -16 l10 -6 -6 15 c-7 18 -14 21 -14 7z" />
        <path d="M1430 901 c0 -6 4 -13 10 -16 l10 -6 -6 15 c-7 18 -14 21 -14 7z" />
        <path d="M756 867 c3 -10 9 -15 12 -12 3 3 0 11 -7 18 l-12 12 7 -18z" />
        <path d="M1906 843 l-7 -18 12 12 c7 7 10 15 7 18 -3 3 -9 -2 -12 -12z" />
        <path d="M1775 840 c-3 -5 -1 -10 4 -10 6 0 11 5 11 10 0 6 -2 10 -4 10 -3 0
-8 -4 -11 -10z" />
        <path d="M955 829 c-4 -6 -5 -12 -2 -15 2 -3 7 2 10 11 7 17 1 20 -8 4z" />
        <path d="M1470 831 c0 -6 4 -13 10 -16 l10 -6 -6 15 c-7 18 -14 21 -14 7z" />
        <path d="M426 817 c3 -10 9 -15 12 -12 3 3 0 11 -7 18 l-12 12 7 -18z" />
        <path d="M655 820 c3 -5 8 -10 11 -10 2 0 4 5 4 10 0 6 -5 10 -11 10 -5 0 -7
-4 -4 -10z" />
        <path d="M1600 820 c0 -5 5 -10 11 -10 5 0 7 5 4 10 -3 6 -8 10 -11 10 -2 0
-4 -4 -4 -10z" />
        <path d="M2236 793 l-7 -18 12 12 c7 7 10 15 7 18 -3 3 -9 -2 -12 -12z" />
        <path d="M1056 783 l-7 -18 12 12 c7 7 10 15 7 18 -3 3 -9 -2 -12 -12z" />
        <path d="M2105 790 c-3 -5 -1 -10 4 -10 6 0 11 5 11 10 0 6 -2 10 -4 10 -3 0
-8 -4 -11 -10z" />
        <path d="M320 781 c0 -6 4 -13 10 -16 l10 -6 -6 15 c-7 18 -14 21 -14 7z" />
        <path d="M1860 769 c0 -5 5 -7 10 -4 6 3 10 8 10 11 0 2 -4 4 -10 4 -5 0 -10
-5 -10 -11z" />
        <path d="M820 750 c0 -5 5 -10 11 -10 5 0 7 5 4 10 -3 6 -8 10 -11 10 -2 0 -4
-4 -4 -10z" />
        <path d="M1515 750 c3 -5 8 -10 11 -10 2 0 4 5 4 10 0 6 -5 10 -11 10 -5 0 -7
-4 -4 -10z" />
        <path d="M1016 713 l-7 -18 12 12 c7 7 10 15 7 18 -3 3 -9 -2 -12 -12z" />
        <path d="M360 711 c0 -6 4 -13 10 -16 l10 -6 -6 15 c-7 18 -14 21 -14 7z" />
        <path d="M720 711 c0 -6 4 -13 10 -16 l10 -6 -6 15 c-7 18 -14 21 -14 7z" />
        <path d="M490 700 c0 -5 5 -10 11 -10 5 0 7 5 4 10 -3 6 -8 10 -11 10 -2 0 -4
-4 -4 -10z" />
        <path d="M1690 695 l-12 -15 10 0 c5 0 12 7 16 15 3 8 4 15 2 15 -2 0 -9 -7
-16 -15z" />
        <path d="M865 680 c3 -5 8 -10 11 -10 2 0 4 5 4 10 0 6 -5 10 -11 10 -5 0 -7
-4 -4 -10z" />
        <path d="M1796 653 l-7 -18 12 12 c7 7 10 15 7 18 -3 3 -9 -2 -12 -12z" />
        <path d="M2025 649 c-4 -6 -5 -12 -2 -15 2 -3 7 2 10 11 7 17 1 20 -8 4z" />
        <path d="M2150 649 c0 -5 5 -7 10 -4 6 3 10 8 10 11 0 2 -4 4 -10 4 -5 0 -10
-5 -10 -11z" />
        <path d="M1580 641 c0 -6 4 -13 10 -16 l10 -6 -6 15 c-7 18 -14 21 -14 7z" />
        <path d="M405 630 c3 -5 8 -10 11 -10 2 0 4 5 4 10 0 6 -5 10 -11 10 -5 0 -7
-4 -4 -10z" />
        <path d="M765 630 c3 -5 8 -10 11 -10 2 0 4 5 4 10 0 6 -5 10 -11 10 -5 0 -7
-4 -4 -10z" />
        <path d="M1757 583 c-10 -9 -9 -33 1 -33 4 0 8 9 8 20 0 23 0 22 -9 13z" />
        <path d="M576 557 c3 -10 9 -15 12 -12 3 3 0 11 -7 18 l-12 12 7 -18z" />
        <path d="M2086 533 l-7 -18 12 12 c7 7 10 15 7 18 -3 3 -9 -2 -12 -12z" />
        <path d="M1955 530 c-3 -5 -1 -10 4 -10 6 0 11 5 11 10 0 6 -2 10 -4 10 -3 0
-8 -4 -11 -10z" />
        <path d="M470 521 c0 -6 4 -13 10 -16 l10 -6 -6 15 c-7 18 -14 21 -14 7z" />
        <path d="M1665 490 c3 -5 8 -10 11 -10 2 0 4 5 4 10 0 6 -5 10 -11 10 -5 0 -7
-4 -4 -10z" />
        <path d="M1796 487 c3 -10 9 -15 12 -12 3 3 0 11 -7 18 l-12 12 7 -18z" />
        <path d="M2040 459 c0 -5 5 -7 10 -4 6 3 10 8 10 11 0 2 -4 4 -10 4 -5 0 -10
-5 -10 -11z" />
        <path d="M640 440 c0 -5 5 -10 11 -10 5 0 7 5 4 10 -3 6 -8 10 -11 10 -2 0 -4
-4 -4 -10z" />
        <path d="M1836 417 c3 -10 9 -15 12 -12 3 3 0 11 -7 18 l-12 12 7 -18z" />
        <path d="M1870 385 l-12 -15 10 0 c5 0 12 7 16 15 3 8 4 15 2 15 -2 0 -9 -7
-16 -15z" />
        <path d="M1730 381 c0 -6 4 -13 10 -16 l10 -6 -6 15 c-7 18 -14 21 -14 7z" />
        <path d="M555 370 c3 -5 8 -10 11 -10 2 0 4 5 4 10 0 6 -5 10 -11 10 -5 0 -7
-4 -4 -10z" />
        <path d="M686 367 c3 -10 9 -15 12 -12 3 3 0 11 -7 18 l-12 12 7 -18z" />
        <path d="M1976 343 l-7 -18 12 12 c7 7 10 15 7 18 -3 3 -9 -2 -12 -12z" />
        <path d="M1936 273 l-7 -18 12 12 c7 7 10 15 7 18 -3 3 -9 -2 -12 -12z" />
        <path d="M620 261 c0 -6 4 -13 10 -16 l10 -6 -6 15 c-7 18 -14 21 -14 7z" />
        <path d="M1906 223 l-7 -18 12 12 c7 7 10 15 7 18 -3 3 -9 -2 -12 -12z" />
    </g>
    <g transform="translate(0.000000,256.000000) scale(0.100000,-0.100000)" fill="#49b5c6" stroke="none">
        <path d="M660 2350 l-15 -10 12 0 c6 0 15 5 18 10 8 12 4 12 -15 0z" />
        <path d="M1860 2190 c0 -5 5 -10 11 -10 5 0 7 5 4 10 -3 6 -8 10 -11 10 -2 0
-4 -4 -4 -10z" />
        <path d="M1260 1406 c0 -2 8 -10 18 -17 l17 -14 -14 18 c-13 16 -21 21 -21 13z" />
        <path d="M1860 369 c0 -5 5 -7 10 -4 6 3 10 8 10 11 0 2 -4 4 -10 4 -5 0 -10
-5 -10 -11z" />
    </g>
    <g transform="translate(0.000000,256.000000) scale(0.100000,-0.100000)" fill="#63c0ce" stroke="none">
        <path d="M1887 2349 c7 -7 15 -10 18 -7 3 3 -2 9 -12 12 l-18 7 12 -12z" />
        <path d="M606 2273 l-7 -18 12 12 c7 7 10 15 7 18 -3 3 -9 -2 -12 -12z" />
        <path d="M566 2203 l-7 -18 12 12 c7 7 10 15 7 18 -3 3 -9 -2 -12 -12z" />
        <path d="M1990 2191 c0 -6 4 -13 10 -16 l10 -6 -6 15 c-7 18 -14 21 -14 7z" />
        <path d="M1815 2109 c-4 -6 -5 -12 -2 -15 2 -3 7 2 10 11 7 17 1 20 -8 4z" />
        <path d="M746 2087 c3 -10 9 -15 12 -12 3 3 0 11 -7 18 l-12 12 7 -18z" />
        <path d="M880 2071 c0 -6 4 -13 10 -16 l10 -6 -6 15 c-7 18 -14 21 -14 7z" />
        <path d="M595 2039 c-4 -6 -5 -12 -2 -15 2 -3 7 2 10 11 7 17 1 20 -8 4z" />
        <path d="M1775 2039 c-4 -6 -5 -12 -2 -15 2 -3 7 2 10 11 7 17 1 20 -8 4z" />
        <path d="M456 2013 l-7 -18 12 12 c7 7 10 15 7 18 -3 3 -9 -2 -12 -12z" />
        <path d="M1966 2017 c3 -10 9 -15 12 -12 3 3 0 11 -7 18 l-12 12 7 -18z" />
        <path d="M786 1963 l-7 -18 12 12 c7 7 10 15 7 18 -3 3 -9 -2 -12 -12z" />
        <path d="M1735 1969 c-4 -6 -5 -12 -2 -15 2 -3 7 2 10 11 7 17 1 20 -8 4z" />
        <path d="M2006 1947 c3 -10 9 -15 12 -12 3 3 0 11 -7 18 l-12 12 7 -18z" />
        <path d="M2140 1931 c0 -6 4 -13 10 -16 l10 -6 -6 15 c-7 18 -14 21 -14 7z" />
        <path d="M746 1893 l-7 -18 12 12 c7 7 10 15 7 18 -3 3 -9 -2 -12 -12z" />
        <path d="M990 1881 c0 -6 4 -13 10 -16 l10 -6 -6 15 c-7 18 -14 21 -14 7z" />
        <path d="M1556 1873 l-7 -18 12 12 c7 7 10 15 7 18 -3 3 -9 -2 -12 -12z" />
        <path d="M1030 1811 c0 -6 4 -13 10 -16 l10 -6 -6 15 c-7 18 -14 21 -14 7z" />
        <path d="M1516 1803 l-7 -18 12 12 c7 7 10 15 7 18 -3 3 -9 -2 -12 -12z" />
        <path d="M445 1779 c-4 -6 -5 -12 -2 -15 2 -3 7 2 10 11 7 17 1 20 -8 4z" />
        <path d="M306 1753 l-7 -18 12 12 c7 7 10 15 7 18 -3 3 -9 -2 -12 -12z" />
        <path d="M2116 1757 c3 -10 9 -15 12 -12 3 3 0 11 -7 18 l-12 12 7 -18z" />
        <path d="M2250 1741 c0 -6 4 -13 10 -16 l10 -6 -6 15 c-7 18 -14 21 -14 7z" />
        <path d="M775 1729 c-4 -6 -5 -12 -2 -15 2 -3 7 2 10 11 7 17 1 20 -8 4z" />
        <path d="M636 1703 l-7 -18 12 12 c7 7 10 15 7 18 -3 3 -9 -2 -12 -12z" />
        <path d="M2290 1671 c0 -6 4 -13 10 -16 l10 -6 -6 15 c-7 18 -14 21 -14 7z" />
        <path d="M1826 1637 c3 -10 9 -15 12 -12 3 3 0 11 -7 18 l-12 12 7 -18z" />
        <path d="M1140 1621 c0 -6 4 -13 10 -16 l10 -6 -6 15 c-7 18 -14 21 -14 7z" />
        <path d="M1960 1621 c0 -6 4 -13 10 -16 l10 -6 -6 15 c-7 18 -14 21 -14 7z" />
        <path d="M335 1589 c-4 -6 -5 -12 -2 -15 2 -3 7 2 10 11 7 17 1 20 -8 4z" />
        <path d="M926 1583 l-7 -18 12 12 c7 7 10 15 7 18 -3 3 -9 -2 -12 -12z" />
        <path d="M1045 1560 c3 -5 8 -10 11 -10 2 0 4 5 4 10 0 6 -5 10 -11 10 -5 0
-7 -4 -4 -10z" />
        <path d="M1465 1499 c-4 -6 -5 -12 -2 -15 2 -3 7 2 10 11 7 17 1 20 -8 4z" />
        <path d="M1670 1501 c0 -6 4 -13 10 -16 l10 -6 -6 15 c-7 18 -14 21 -14 7z" />
        <path d="M2266 1497 c3 -10 9 -15 12 -12 3 3 0 11 -7 18 l-12 12 7 -18z" />
        <path d="M2400 1481 c0 -6 4 -13 10 -16 l10 -6 -6 15 c-7 18 -14 21 -14 7z" />
        <path d="M625 1469 c-4 -6 -5 -12 -2 -15 2 -3 7 2 10 11 7 17 1 20 -8 4z" />
        <path d="M486 1443 l-7 -18 12 12 c7 7 10 15 7 18 -3 3 -9 -2 -12 -12z" />
        <path d="M1936 1447 c3 -10 9 -15 12 -12 3 3 0 11 -7 18 l-12 12 7 -18z" />
        <path d="M1425 1429 c-4 -6 -5 -12 -2 -15 2 -3 7 2 10 11 7 17 1 20 -8 4z" />
        <path d="M2070 1431 c0 -6 4 -13 10 -16 l10 -6 -6 15 c-7 18 -14 21 -14 7z" />
        <path d="M955 1419 c-4 -6 -5 -12 -2 -15 2 -3 7 2 10 11 7 17 1 20 -8 4z" />
        <path d="M1156 1377 c3 -10 9 -15 12 -12 3 3 0 11 -7 18 l-12 12 7 -18z" />
        <path d="M2110 1361 c0 -6 4 -13 10 -16 l10 -6 -6 15 c-7 18 -14 21 -14 7z" />
        <path d="M915 1349 c-4 -6 -5 -12 -2 -15 2 -3 7 2 10 11 7 17 1 20 -8 4z" />
        <path d="M1376 1343 l-7 -18 12 12 c7 7 10 15 7 18 -3 3 -9 -2 -12 -12z" />
        <path d="M72 1333 c-7 -2 -17 -14 -23 -26 l-10 -22 13 15 c8 8 20 21 28 28 15
13 13 14 -8 5z" />
        <path d="M46 1257 c3 -10 9 -15 12 -12 3 3 0 11 -7 18 l-12 12 7 -18z" />
        <path d="M910 1221 c0 -6 4 -13 10 -16 l10 -6 -6 15 c-7 18 -14 21 -14 7z" />
        <path d="M2115 1209 c-4 -6 -5 -12 -2 -15 2 -3 7 2 10 11 7 17 1 20 -8 4z" />
        <path d="M950 1151 c0 -6 4 -13 10 -16 l10 -6 -6 15 c-7 18 -14 21 -14 7z" />
        <path d="M2075 1139 c-4 -6 -5 -12 -2 -15 2 -3 7 2 10 11 7 17 1 20 -8 4z" />
        <path d="M486 1117 c3 -10 9 -15 12 -12 3 3 0 11 -7 18 l-12 12 7 -18z" />
        <path d="M1306 1117 c3 -10 9 -15 12 -12 3 3 0 11 -7 18 l-12 12 7 -18z" />
        <path d="M1936 1113 l-7 -18 12 12 c7 7 10 15 7 18 -3 3 -9 -2 -12 -12z" />
        <path d="M620 1101 c0 -6 4 -13 10 -16 l10 -6 -6 15 c-7 18 -14 21 -14 7z" />
        <path d="M1440 1101 c0 -6 4 -13 10 -16 l10 -6 -6 15 c-7 18 -14 21 -14 7z" />
        <path d="M2405 1089 c-4 -6 -5 -12 -2 -15 2 -3 7 2 10 11 7 17 1 20 -8 4z" />
        <path d="M156 1067 c3 -10 9 -15 12 -12 3 3 0 11 -7 18 l-12 12 7 -18z" />
        <path d="M1675 1069 c-4 -6 -5 -12 -2 -15 2 -3 7 2 10 11 7 17 1 20 -8 4z" />
        <path d="M2266 1063 l-7 -18 12 12 c7 7 10 15 7 18 -3 3 -9 -2 -12 -12z" />
        <path d="M290 1051 c0 -6 4 -13 10 -16 l10 -6 -6 15 c-7 18 -14 21 -14 7z" />
        <path d="M330 981 c0 -6 4 -13 10 -16 l10 -6 -6 15 c-7 18 -14 21 -14 7z" />
        <path d="M926 977 c3 -10 9 -15 12 -12 3 3 0 11 -7 18 l-12 12 7 -18z" />
        <path d="M1155 959 c-4 -6 -5 -12 -2 -15 2 -3 7 2 10 11 7 17 1 20 -8 4z" />
        <path d="M1965 949 c-4 -6 -5 -12 -2 -15 2 -3 7 2 10 11 7 17 1 20 -8 4z" />
        <path d="M596 927 c3 -10 9 -15 12 -12 3 3 0 11 -7 18 l-12 12 7 -18z" />
        <path d="M1416 927 c3 -10 9 -15 12 -12 3 3 0 11 -7 18 l-12 12 7 -18z" />
        <path d="M2295 899 c-4 -6 -5 -12 -2 -15 2 -3 7 2 10 11 7 17 1 20 -8 4z" />
        <path d="M1115 889 c-4 -6 -5 -12 -2 -15 2 -3 7 2 10 11 7 17 1 20 -8 4z" />
        <path d="M1786 853 l-7 -18 12 12 c7 7 10 15 7 18 -3 3 -9 -2 -12 -12z" />
        <path d="M770 841 c0 -6 4 -13 10 -16 l10 -6 -6 15 c-7 18 -14 21 -14 7z" />
        <path d="M1590 841 c0 -6 4 -13 10 -16 l10 -6 -6 15 c-7 18 -14 21 -14 7z" />
        <path d="M2255 829 c-4 -6 -5 -12 -2 -15 2 -3 7 2 10 11 7 17 1 20 -8 4z" />
        <path d="M306 807 c3 -10 9 -15 12 -12 3 3 0 11 -7 18 l-12 12 7 -18z" />
        <path d="M666 807 c3 -10 9 -15 12 -12 3 3 0 11 -7 18 l-12 12 7 -18z" />
        <path d="M2116 803 l-7 -18 12 12 c7 7 10 15 7 18 -3 3 -9 -2 -12 -12z" />
        <path d="M936 793 l-7 -18 12 12 c7 7 10 15 7 18 -3 3 -9 -2 -12 -12z" />
        <path d="M440 791 c0 -6 4 -13 10 -16 l10 -6 -6 15 c-7 18 -14 21 -14 7z" />
        <path d="M896 723 l-7 -18 12 12 c7 7 10 15 7 18 -3 3 -9 -2 -12 -12z" />
        <path d="M1815 689 c-4 -6 -5 -12 -2 -15 2 -3 7 2 10 11 7 17 1 20 -8 4z" />
        <path d="M1566 667 c3 -10 9 -15 12 -12 3 3 0 11 -7 18 l-12 12 7 -18z" />
        <path d="M2145 639 c-4 -6 -5 -12 -2 -15 2 -3 7 2 10 11 7 17 1 20 -8 4z" />
        <path d="M776 617 c3 -10 9 -15 12 -12 3 3 0 11 -7 18 l-12 12 7 -18z" />
        <path d="M2006 613 l-7 -18 12 12 c7 7 10 15 7 18 -3 3 -9 -2 -12 -12z" />
        <path d="M456 547 c3 -10 9 -15 12 -12 3 3 0 11 -7 18 l-12 12 7 -18z" />
        <path d="M1966 543 l-7 -18 12 12 c7 7 10 15 7 18 -3 3 -9 -2 -12 -12z" />
        <path d="M590 531 c0 -6 4 -13 10 -16 l10 -6 -6 15 c-7 18 -14 21 -14 7z" />
        <path d="M1716 407 c3 -10 9 -15 12 -12 3 3 0 11 -7 18 l-12 12 7 -18z" />
        <path d="M1850 391 c0 -6 4 -13 10 -16 l10 -6 -6 15 c-7 18 -14 21 -14 7z" />
        <path d="M1995 379 c-4 -6 -5 -12 -2 -15 2 -3 7 2 10 11 7 17 1 20 -8 4z" />
        <path d="M566 357 c3 -10 9 -15 12 -12 3 3 0 11 -7 18 l-12 12 7 -18z" />
        <path d="M606 287 c3 -10 9 -15 12 -12 3 3 0 11 -7 18 l-12 12 7 -18z" />
        <path d="M1885 210 l-6 -10 15 6 c18 7 21 14 7 14 -6 0 -13 -4 -16 -10z" />
    </g>
    <g transform="translate(0.000000,256.000000) scale(0.100000,-0.100000)" fill="#e4f4f6" stroke="none">
        <path d="M1765 2239 c-4 -6 -5 -12 -2 -15 2 -3 7 2 10 11 7 17 1 20 -8 4z" />
        <path d="M1870 1746 c0 -2 7 -7 16 -10 l15 -6 -6 10 c-6 10 -25 14 -25 6z" />
        <path d="M1040 1566 c0 -2 8 -10 18 -17 l17 -14 -14 18 c-13 16 -21 21 -21 13z" />
        <path d="M2350 1351 c0 -6 4 -13 10 -16 l10 -6 -6 15 c-7 18 -14 21 -14 7z" />
        <path d="M2355 1219 c-4 -6 -5 -12 -2 -15 2 -3 7 2 10 11 7 17 1 20 -8 4z" />
        <path d="M1760 331 c0 -6 4 -13 10 -16 l10 -6 -6 15 c-7 18 -14 21 -14 7z" />
    </g>
    <g transform="translate(0.000000,256.000000) scale(0.100000,-0.100000)" fill="#b0dfe6" stroke="none">
        <path d="M855 1870 l-6 -10 15 6 c18 7 21 14 7 14 -6 0 -13 -4 -16 -10z" />
    </g>
    <g transform="translate(0.000000,256.000000) scale(0.100000,-0.100000)" fill="#7dcad6" stroke="none">
        <path d="M1848 1743 c7 -3 16 -2 19 1 4 3 -2 6 -13 5 l-19 -1 13 -5z" />
        <path d="M820 546 c0 -2 8 -10 18 -17 l17 -14 -14 18 c-13 16 -21 21 -21 13z" />
    </g>
    <g transform="translate(0.000000,256.000000) scale(0.100000,-0.100000)" fill="#70c5d2" stroke="none" />
    <g transform="translate(0.000000,256.000000) scale(0.100000,-0.100000)" fill="#a3dae2" stroke="none" />
    <g transform="translate(0.000000,256.000000) scale(0.100000,-0.100000)" fill="#56bbca" stroke="none" />
    <g transform="translate(0.000000,256.000000) scale(0.100000,-0.100000)" fill="#d7eff2" stroke="none" />
    <g transform="translate(0.000000,256.000000) scale(0.100000,-0.100000)" fill="#8acfda" stroke="none" />
    <g transform="translate(0.000000,256.000000) scale(0.100000,-0.100000)" fill="#bde4ea" stroke="none" />
    <g transform="translate(0.000000,256.000000) scale(0.100000,-0.100000)" fill="#000000" stroke="none" />
    <g transform="translate(0.000000,256.000000) scale(0.100000,-0.100000)" fill="#000000" stroke="none" />
    <g transform="translate(0.000000,256.000000) scale(0.100000,-0.100000)" fill="#000000" stroke="none" />
    <g transform="translate(0.000000,256.000000) scale(0.100000,-0.100000)" fill="#000000" stroke="none" />
    <g transform="translate(0.000000,256.000000) scale(0.100000,-0.100000)" fill="#000000" stroke="none" />
    <g transform="translate(0.000000,256.000000) scale(0.100000,-0.100000)" fill="#000000" stroke="none" />
    <g transform="translate(0.000000,256.000000) scale(0.100000,-0.100000)" fill="#000000" stroke="none" />
    <g transform="translate(0.000000,256.000000) scale(0.100000,-0.100000)" fill="#000000" stroke="none" />
    <g transform="translate(0.000000,256.000000) scale(0.100000,-0.100000)" fill="#000000" stroke="none" />
</svg>