<svg width="322px" height="322px" viewBox="0 0 322 322" version="1.1" xmlns="http://www.w3.org/2000/svg" xmlns:xlink="http://www.w3.org/1999/xlink">
    <title>Group@2x</title>
    <g id="Page-1" stroke="none" stroke-width="1" fill="none" fill-rule="evenodd">
        <g id="Group">
            <rect id="Rectangle" fill="#FFFFFF" x="0" y="0" width="321.3125" height="321.3125"></rect>
            <g transform="translate(25.656250, 122.656250)" fill="#0042E4" id="Combined-Shape-Copy">
                <path d="M16.376479,10.7372628 L26.4830697,38.6010034 L37.0706874,10.7372628 L52.1025029,10.7372628 L26.3989313,75.2594993 L11.5327556,75.2594993 L19.1352287,55.2671661 L0.863636364,10.7372628 L16.376479,10.7372628 Z M175.136011,9.75086585 C188.708424,9.75086585 198.604367,20.2823286 198.604367,34.6988172 C198.604367,49.1153057 188.708424,59.6467685 175.136011,59.6467685 C170.127976,59.6467685 165.909412,58.3210266 162.690761,55.7648189 L162.482269,55.5963662 L162.304516,55.4478898 L162.304638,75.243941 L147.820188,75.243941 L147.820714,10.7372628 L160.628085,10.7372628 L160.628004,15.5610752 L160.700148,15.4780419 C163.856235,11.877805 168.63045,9.88536474 174.526693,9.7574384 L174.838055,9.75242844 L175.136011,9.75086585 Z M78.4829876,9.75086585 C93.428444,9.75086585 104.022777,20.0766102 104.022777,34.6988172 C104.022777,49.2567377 93.3932067,59.6467685 78.4829876,59.6467685 C63.4891047,59.6467685 52.8445584,49.2713259 52.8445584,34.6988172 C52.8445584,20.0620611 63.4537651,9.75086585 78.4829876,9.75086585 Z M128.151105,0.123135653 L128.150853,10.7372628 L140.069678,10.7372628 L140.069678,23.2487215 L128.150853,23.2483427 L128.151105,40.5185591 C128.151105,44.3817682 130.028842,46.5068198 133.445974,46.6358629 L133.612519,46.6405481 L133.781459,46.6421113 C136.099079,46.6421113 137.854518,46.0332663 139.424865,44.5239536 L139.571554,44.3798085 L139.961958,43.9788395 L140.069678,43.9788395 L140.069678,57.7796528 L139.625516,57.992078 C137.2423,59.1318772 135.77197,59.6467685 131.710025,59.6467685 C120.225233,59.6467685 113.918645,53.3942144 113.674218,41.7216096 L113.668667,41.3662361 L113.666853,41.0117575 L113.666395,23.2483427 L108.425137,23.2487215 L108.425137,10.7372628 L114.061175,10.7372628 L114.061411,0.123135653 L128.151105,0.123135653 Z M230.255327,9.75086585 C245.200783,9.75086585 255.795116,20.0766102 255.795116,34.6988172 C255.795116,49.2567377 245.165546,59.6467685 230.255327,59.6467685 C215.261444,59.6467685 204.616898,49.2713259 204.616898,34.6988172 C204.616898,20.0620611 215.226104,9.75086585 230.255327,9.75086585 Z M267.600934,43.7734434 C271.984232,43.7734434 275.537596,47.3268082 275.537596,51.7101059 C275.537596,56.0934036 271.984232,59.6467685 267.600934,59.6467685 C263.217636,59.6467685 259.664271,56.0934036 259.664271,51.7101059 C259.664271,47.3268082 263.217636,43.7734434 267.600934,43.7734434 Z M172.965938,22.7555231 C166.44086,22.7555231 162.009041,27.58541 162.009041,34.6988172 C162.009041,41.8122243 166.44086,46.6421113 172.965938,46.6421113 C179.576425,46.6421113 184.021475,41.8266408 184.021475,34.6988172 C184.021475,27.5709935 179.576425,22.7555231 172.965938,22.7555231 Z M78.4829876,22.7555231 C71.9350629,22.7555231 67.4274507,27.6098746 67.4274507,34.6988172 C67.4274507,41.7877597 71.9350629,46.6421113 78.4829876,46.6421113 C84.9455153,46.6421113 89.4398847,41.773211 89.4398847,34.6988172 C89.4398847,27.6244233 84.9455153,22.7555231 78.4829876,22.7555231 Z M230.255327,22.7555231 C223.707402,22.7555231 219.19979,27.6098746 219.19979,34.6988172 C219.19979,41.7877597 223.707402,46.6421113 230.255327,46.6421113 C236.717854,46.6421113 241.212224,41.773211 241.212224,34.6988172 C241.212224,27.6244233 236.717854,22.7555231 230.255327,22.7555231 Z"></path>
            </g>
        </g>
    </g>
</svg>