<svg xmlns="http://www.w3.org/2000/svg" width="1024" height="1024" viewBox="0 0 1024 1024" version="1.1"><path d="M 408.394 244.250 C 408.730 245.488, 430.061 320.075, 455.796 410 L 502.586 573.500 515.554 573.777 L 528.521 574.055 575.795 410.277 C 601.796 320.200, 623.331 245.488, 623.651 244.250 L 624.233 242 516.008 242 L 407.783 242 408.394 244.250" stroke="none" fill="#ffb81d" fill-rule="evenodd"/><path d="M 276.146 384.168 C 229.731 464.815, 200.982 515.750, 201.285 516.798 C 201.557 517.734, 236.896 579.475, 279.818 654 L 357.857 789.500 412.348 789.759 L 466.839 790.017 467.880 786.759 C 469.760 780.871, 515 625.152, 515 624.569 C 515 624.256, 502.063 623.995, 486.250 623.989 L 457.500 623.977 405.032 438.913 C 376.175 337.128, 352.325 253.712, 352.032 253.544 C 351.740 253.376, 317.591 312.157, 276.146 384.168" stroke="none" fill="#ff5a4d" fill-rule="evenodd"/><path d="M 679.708 253.677 C 679.433 254.129, 664.073 307.150, 645.573 371.500 C 627.074 435.850, 592.444 556.225, 568.617 639 C 544.790 721.775, 525.481 789.837, 525.707 790.250 C 525.933 790.662, 559.160 791, 599.545 791 L 672.972 791 675.394 787.250 C 676.726 785.188, 701.325 742.550, 730.059 692.500 C 758.792 642.450, 793.258 582.437, 806.650 559.139 C 820.043 535.840, 831 516.366, 831 515.862 C 831 515.033, 684.386 258.967, 681.455 254.677 C 680.769 253.674, 679.984 253.224, 679.708 253.677" stroke="none" fill="#04bcc4" fill-rule="evenodd"/><path d="M 0 512.001 L 0 1024.002 512.250 1023.751 L 1024.500 1023.500 1024.751 511.750 L 1025.002 0 512.501 0 L 0 0 0 512.001 M 0.496 512.500 C 0.496 794.100, 0.610 909.151, 0.750 768.168 C 0.890 627.186, 0.890 396.786, 0.750 256.168 C 0.610 115.551, 0.496 230.900, 0.496 512.500 M 408.394 244.250 C 408.730 245.488, 430.061 320.075, 455.796 410 L 502.586 573.500 515.554 573.777 L 528.521 574.055 575.795 410.277 C 601.796 320.200, 623.331 245.488, 623.651 244.250 L 624.233 242 516.008 242 L 407.783 242 408.394 244.250 M 275.727 384.426 L 200.056 515.851 278.802 652.676 L 357.548 789.500 412.479 789.500 L 467.411 789.500 491.174 708 C 504.244 663.175, 514.952 625.944, 514.969 625.265 C 514.993 624.320, 508.297 623.969, 486.380 623.765 L 457.761 623.500 405.185 438.250 C 376.268 336.363, 352.336 253, 352.003 253 C 351.670 253, 317.346 312.141, 275.727 384.426 M 679.708 253.677 C 679.433 254.129, 664.073 307.150, 645.573 371.500 C 627.074 435.850, 592.444 556.225, 568.617 639 C 544.790 721.775, 525.481 789.837, 525.707 790.250 C 525.933 790.662, 559.160 791, 599.545 791 L 672.972 791 675.394 787.250 C 676.726 785.188, 701.325 742.550, 730.059 692.500 C 758.792 642.450, 793.258 582.437, 806.650 559.139 C 820.043 535.840, 831 516.366, 831 515.862 C 831 515.033, 684.386 258.967, 681.455 254.677 C 680.769 253.674, 679.984 253.224, 679.708 253.677" stroke="none" fill="#fbfbfb" fill-rule="evenodd"/></svg>