<?xml version="1.0" encoding="UTF-8"?>
<svg viewBox="0 0 28 28" fill="#249edc" xmlns="http://www.w3.org/2000/svg" class="logo-img"><path fill-rule="evenodd" clip-rule="evenodd" d="M27 12.0935L23.7004 14.002L27 15.9045C27.8335 16.3857 28.1174 17.4487 27.6362 18.2821C27.1551 19.1116 26.0921 19.3955 25.2626 18.9163L19.3518 15.5039C18.9572 15.2744 18.6834 14.916 18.5626 14.5114C18.5042 14.3261 18.478 14.1349 18.4841 13.9456C18.4881 13.8087 18.5082 13.6718 18.5445 13.5349C18.6633 13.1102 18.9391 12.7297 19.3498 12.4901L25.2586 9.08168C26.0881 8.60253 27.1531 8.8864 27.6322 9.71987C28.1174 10.5513 27.8335 11.6123 27 12.0935ZM23.8755 21.3402L17.9687 17.9339C17.6506 17.7486 17.3003 17.6782 16.9621 17.7064C16.0602 17.7708 15.3535 18.5237 15.3535 19.4397V26.2606C15.3535 27.2229 16.1286 28 17.0909 28C18.0533 28 18.8304 27.2209 18.8304 26.2606V22.4455L22.1381 24.354C22.9696 24.8372 24.0325 24.5513 24.5117 23.7199C24.9908 22.8884 24.709 21.8214 23.8755 21.3402ZM17.0587 14.6684L14.6026 17.1205C14.5321 17.193 14.3972 17.2514 14.2946 17.2514H14.1174H13.755H13.5738C13.4752 17.2514 13.3363 17.193 13.2658 17.1205L10.8097 14.6684C10.7392 14.5999 10.6828 14.461 10.6828 14.3624V14.1812V13.8188V13.6396C10.6828 13.539 10.7392 13.4001 10.8097 13.3296L13.2638 10.8775C13.3342 10.805 13.4732 10.7486 13.5718 10.7486H13.753H14.1154H14.2946C14.3952 10.7486 14.5321 10.805 14.6026 10.8775L17.0587 13.3296C17.1292 13.4001 17.1856 13.539 17.1856 13.6396V13.8188V14.1812V14.3624C17.1856 14.459 17.1292 14.5979 17.0587 14.6684ZM15.0958 13.9879C15.0958 13.8893 15.0354 13.7504 14.965 13.6779L14.2543 12.9692C14.1838 12.8988 14.0469 12.8404 13.9463 12.8404H13.9181C13.8194 12.8404 13.6805 12.8988 13.6121 12.9692L12.9014 13.6779C12.8309 13.7504 12.7766 13.8893 12.7766 13.9879V14.0161C12.7766 14.1148 12.8309 14.2517 12.9014 14.3221L13.6121 15.0328C13.6825 15.1032 13.8194 15.1616 13.9181 15.1616H13.9463C14.0449 15.1616 14.1838 15.1032 14.2543 15.0328L14.965 14.3221C15.0354 14.2517 15.0958 14.1148 15.0958 14.0161V13.9879ZM3.99286 6.65574L9.90169 10.0661C10.2198 10.2494 10.5721 10.3218 10.9103 10.2936C11.8102 10.2272 12.5189 9.47426 12.5189 8.55824V1.73742C12.5189 0.77912 11.7398 0 10.7815 0C9.81915 0 9.04204 0.77912 9.04204 1.73742V5.5545L5.73229 3.64193C4.90284 3.16077 3.83985 3.44665 3.35869 4.27811C2.87753 5.1136 3.16139 6.17458 3.99286 6.65574ZM16.9621 10.2936C17.3003 10.3218 17.6526 10.2494 17.9687 10.0661L23.8755 6.65574C24.707 6.17458 24.9908 5.11159 24.5117 4.27811C24.0325 3.44665 22.9696 3.16278 22.1381 3.64193L18.8304 5.5545V1.73742C18.8304 0.77912 18.0533 0 17.0909 0C16.1286 0 15.3535 0.77912 15.3535 1.73742V8.55824C15.3515 9.47426 16.0602 10.2272 16.9621 10.2936ZM10.9103 17.7064C10.5701 17.6782 10.2178 17.7486 9.90169 17.9339L3.99286 21.3402C3.16139 21.8214 2.87753 22.8884 3.35668 23.7199C3.83784 24.5493 4.90082 24.8352 5.73027 24.354L9.04003 22.4455V26.2606C9.04003 27.2229 9.81713 28 10.7795 28C11.7378 28 12.5169 27.2209 12.5169 26.2606V19.4397C12.5189 18.5237 11.8102 17.7708 10.9103 17.7064ZM9.30778 14.5114C9.36617 14.3261 9.39033 14.1349 9.3863 13.9456C9.38026 13.8087 9.36214 13.6718 9.32389 13.5349C9.20712 13.1102 8.9293 12.7297 8.51457 12.4901L2.60977 9.08168C1.77629 8.60253 0.713306 8.8864 0.236171 9.71987C-0.247005 10.5513 0.0388741 11.6123 0.872351 12.0935L4.17204 14.002L0.870338 15.9045C0.0368609 16.3857 -0.247005 17.4487 0.234157 18.2821C0.713306 19.1116 1.77428 19.3955 2.60776 18.9163L8.51256 15.5039C8.91319 15.2764 9.18296 14.916 9.30778 14.5114Z"></path></svg>
